<?xml version="1.0" encoding="utf-8"?>
<!-- Generator: Adobe Illustrator 23.0.3, SVG Export Plug-In . SVG Version: 6.00 Build 0)  -->
<svg version="1.1" id="Layer_1" xmlns="http://www.w3.org/2000/svg" xmlns:xlink="http://www.w3.org/1999/xlink" x="0px" y="0px"
	 viewBox="0 0 717 379" style="enable-background:new 0 0 717 379;" xml:space="preserve">
<style type="text/css">
	.st0{fill:none;stroke:#414343;stroke-linejoin:round;stroke-miterlimit:10;}
	.st1{fill:#DDDDDD;}
	.st2{fill:#414343;}
	.st3{fill:none;stroke:#414343;stroke-miterlimit:10;}
	.st4{fill:none;stroke:#414343;stroke-width:0.35;stroke-miterlimit:10;}
	.st5{fill:url(#SVGID_1_);stroke:#414343;stroke-linejoin:round;stroke-miterlimit:10;}
	.st6{fill:url(#SVGID_2_);stroke:#414343;stroke-miterlimit:10;}
	.st7{fill:url(#SVGID_3_);stroke:#414343;stroke-miterlimit:10;}
	.st8{fill:none;stroke:#414343;stroke-miterlimit:10;stroke-dasharray:2.9978,2.9978;}
	.st9{fill:none;stroke:#414343;stroke-miterlimit:10;stroke-dasharray:2.9611,2.9611;}
	.st10{fill:none;stroke:#414343;stroke-miterlimit:10;stroke-dasharray:2.9735,2.9735;}
	.st11{fill:none;stroke:#414343;stroke-miterlimit:10;stroke-dasharray:3.1881,3.1881;}
	.st12{fill:url(#SVGID_4_);}
</style>
<polygon class="st0" points="43.6,332.9 606.6,114.3 606.6,332.9 "/>
<polygon class="st1" points="43.6,332.9 606.6,114.3 606.6,332.9 "/>
<g>
	<path class="st2" d="M18.8,33.1c0-4.8,2.6-7.8,6.9-7.8c3.5,0,6.2,2.3,6.4,5.5h-3c-0.3-1.7-1.6-2.8-3.4-2.8c-2.3,0-3.8,1.9-3.8,5
		s1.4,5.1,3.8,5.1c1.8,0,3.1-1,3.4-2.7h3c-0.3,3.2-2.9,5.4-6.4,5.4C21.5,40.9,18.8,38,18.8,33.1z"/>
	<path class="st2" d="M33.8,34.9c0-3.7,2.1-5.9,5.6-5.9s5.6,2.2,5.6,5.9c0,3.7-2.1,5.9-5.6,5.9S33.8,38.6,33.8,34.9z M41.9,34.9
		c0-2.2-0.9-3.5-2.5-3.5c-1.6,0-2.5,1.3-2.5,3.5c0,2.2,0.9,3.5,2.5,3.5C40.9,38.3,41.9,37.1,41.9,34.9z"/>
	<path class="st2" d="M51.4,29c2.9,0,4.6,1.2,4.7,3.4h-2.8c-0.2-0.7-0.8-1.2-1.9-1.2c-1.1,0-1.9,0.5-1.9,1.2c0,0.6,0.5,0.9,1.5,1.1
		l2.1,0.5c2.2,0.5,3.2,1.4,3.2,3.1c0,2.3-2,3.7-5,3.7c-3,0-4.8-1.2-5-3.4h2.9c0.2,0.8,1,1.2,2.1,1.2c1.2,0,2-0.5,2-1.2
		c0-0.6-0.4-0.9-1.4-1.1l-2.1-0.5c-2.2-0.5-3.3-1.5-3.3-3.3C46.7,30.4,48.6,29,51.4,29z"/>
	<path class="st2" d="M62.2,26.5v2.8h2.3v2.3h-2.3v5.1c0,1,0.5,1.4,1.5,1.4c0.4,0,0.6,0,0.9,0v2.3c-0.4,0.1-0.9,0.1-1.5,0.1
		c-2.7,0-3.8-0.9-3.8-3.1v-5.8h-1.8v-2.3h1.8v-2.8H62.2z"/>
	<path class="st2" d="M71.9,40.5V25.7h6.5c2.9,0,4.6,1.4,4.6,3.7c0,1.6-1.2,2.9-2.7,3.2v0.2c2,0.1,3.4,1.6,3.4,3.5
		c0,2.6-2,4.2-5.1,4.2H71.9z M75,31.9h2.3c1.7,0,2.6-0.7,2.6-1.9c0-1.2-0.9-1.9-2.3-1.9H75V31.9z M77.7,38.2c1.8,0,2.7-0.7,2.7-2.1
		c0-1.4-1-2.1-2.8-2.1H75v4.2H77.7z"/>
	<path class="st2" d="M95.8,37.3c-0.4,2.1-2.4,3.5-5.2,3.5c-3.4,0-5.5-2.2-5.5-5.8c0-3.7,2.1-6,5.4-6c3.3,0,5.3,2.1,5.3,5.7v0.9
		h-7.8v0.2c0,1.7,1,2.7,2.6,2.7c1.2,0,2-0.4,2.3-1.2H95.8z M88.2,33.7H93c-0.1-1.5-1-2.4-2.4-2.4C89.2,31.3,88.3,32.2,88.2,33.7z"/>
	<path class="st2" d="M97.9,29.2h2.9V31h0.2c0.5-1.3,1.7-2.1,3.3-2.1c2.5,0,3.9,1.5,3.9,4.2v7.3h-3v-6.6c0-1.6-0.7-2.4-2.1-2.4
		c-1.4,0-2.2,1-2.2,2.5v6.5h-3V29.2z"/>
	<path class="st2" d="M120.8,37.3c-0.4,2.1-2.4,3.5-5.2,3.5c-3.4,0-5.5-2.2-5.5-5.8c0-3.7,2.1-6,5.4-6c3.3,0,5.3,2.1,5.3,5.7v0.9
		h-7.8v0.2c0,1.7,1,2.7,2.6,2.7c1.2,0,2-0.4,2.3-1.2H120.8z M113.1,33.7h4.8c-0.1-1.5-1-2.4-2.4-2.4
		C114.2,31.3,113.2,32.2,113.1,33.7z"/>
	<path class="st2" d="M123.8,31.7h-1.8v-2.3h1.8v-1.1c0-2.2,1.1-3.4,3.9-3.4c0.6,0,1.1,0,1.5,0.1V27c-0.2,0-0.5-0.1-0.9-0.1
		c-1.2,0-1.6,0.5-1.6,1.4v0.9h2.4v2.3h-2.3v8.8h-3V31.7z"/>
	<path class="st2" d="M130.9,25.8c0-1,0.8-1.7,1.7-1.7c0.9,0,1.7,0.7,1.7,1.7s-0.8,1.7-1.7,1.7C131.6,27.5,130.9,26.8,130.9,25.8z
		 M131.1,29.2h3v11.3h-3V29.2z"/>
	<path class="st2" d="M140.5,26.5v2.8h2.3v2.3h-2.3v5.1c0,1,0.5,1.4,1.5,1.4c0.4,0,0.6,0,0.9,0v2.3c-0.4,0.1-0.9,0.1-1.5,0.1
		c-2.7,0-3.8-0.9-3.8-3.1v-5.8h-1.8v-2.3h1.8v-2.8H140.5z"/>
	<path class="st2" d="M149.2,29c2.9,0,4.6,1.2,4.7,3.4h-2.8c-0.2-0.7-0.8-1.2-1.9-1.2c-1.1,0-1.9,0.5-1.9,1.2c0,0.6,0.5,0.9,1.5,1.1
		l2.1,0.5c2.2,0.5,3.2,1.4,3.2,3.1c0,2.3-2,3.7-5,3.7c-3,0-4.8-1.2-5-3.4h2.9c0.2,0.8,1,1.2,2.1,1.2c1.2,0,2-0.5,2-1.2
		c0-0.6-0.4-0.9-1.4-1.1l-2.1-0.5c-2.2-0.5-3.3-1.5-3.3-3.3C144.5,30.4,146.4,29,149.2,29z"/>
	<path class="st2" d="M160.7,34.9c0-3.7,2.1-5.9,5.6-5.9s5.6,2.2,5.6,5.9c0,3.7-2.1,5.9-5.6,5.9S160.7,38.6,160.7,34.9z M168.8,34.9
		c0-2.2-0.9-3.5-2.5-3.5c-1.6,0-2.5,1.3-2.5,3.5c0,2.2,0.9,3.5,2.5,3.5C167.9,38.3,168.8,37.1,168.8,34.9z"/>
	<path class="st2" d="M174.7,31.7h-1.8v-2.3h1.8v-1.1c0-2.2,1.1-3.4,3.9-3.4c0.6,0,1.1,0,1.5,0.1V27c-0.2,0-0.5-0.1-0.9-0.1
		c-1.2,0-1.6,0.5-1.6,1.4v0.9h2.4v2.3h-2.3v8.8h-3V31.7z"/>
	<path class="st2" d="M189.6,36.4c0.1,1.2,1.4,2,3.1,2c1.6,0,2.7-0.8,2.7-1.9c0-0.9-0.7-1.5-2.6-1.9l-1.9-0.4c-2.7-0.6-4-2-4-4.2
		c0-2.8,2.2-4.6,5.7-4.6c3.3,0,5.6,1.8,5.7,4.5h-2.9c-0.1-1.2-1.2-1.9-2.7-1.9c-1.5,0-2.6,0.7-2.6,1.8c0,0.9,0.7,1.4,2.4,1.8
		l1.8,0.4c3,0.6,4.3,1.9,4.3,4.2c0,3-2.3,4.8-6,4.8c-3.5,0-5.8-1.7-5.9-4.5H189.6z"/>
	<path class="st2" d="M210.8,37.3c-0.4,2.1-2.4,3.5-5.2,3.5c-3.4,0-5.5-2.2-5.5-5.8c0-3.7,2.1-6,5.4-6c3.3,0,5.3,2.1,5.3,5.7v0.9
		h-7.8v0.2c0,1.7,1,2.7,2.6,2.7c1.2,0,2-0.4,2.3-1.2H210.8z M203.2,33.7h4.8c-0.1-1.5-1-2.4-2.4-2.4
		C204.3,31.3,203.3,32.2,203.2,33.7z"/>
	<path class="st2" d="M213,29.2h2.9V31h0.2c0.3-1.1,1.5-2,2.9-2c0.4,0,0.9,0.1,1.2,0.1v2.7c-0.2-0.1-0.9-0.2-1.4-0.2
		c-1.6,0-2.7,1-2.7,2.6v6.3h-3V29.2z"/>
	<path class="st2" d="M228.1,40.5h-3.4l-3.9-11.3h3.2l2.3,8.4h0.2l2.3-8.4h3.1L228.1,40.5z"/>
	<path class="st2" d="M243.3,37.3c-0.4,2.1-2.4,3.5-5.2,3.5c-3.4,0-5.5-2.2-5.5-5.8c0-3.7,2.1-6,5.4-6c3.3,0,5.3,2.1,5.3,5.7v0.9
		h-7.8v0.2c0,1.7,1,2.7,2.6,2.7c1.2,0,2-0.4,2.3-1.2H243.3z M235.6,33.7h4.8c-0.1-1.5-1-2.4-2.4-2.4
		C236.7,31.3,235.7,32.2,235.6,33.7z"/>
	<path class="st2" d="M245.4,29.2h2.9V31h0.2c0.3-1.1,1.5-2,2.9-2c0.4,0,0.9,0.1,1.2,0.1v2.7c-0.2-0.1-0.9-0.2-1.4-0.2
		c-1.6,0-2.7,1-2.7,2.6v6.3h-3V29.2z"/>
	<path class="st2" d="M254.2,24.9h3v15.6h-3V24.9z"/>
	<path class="st2" d="M270,37.3c-0.4,2.1-2.4,3.5-5.2,3.5c-3.4,0-5.5-2.2-5.5-5.8c0-3.7,2.1-6,5.4-6c3.3,0,5.3,2.1,5.3,5.7v0.9h-7.8
		v0.2c0,1.7,1,2.7,2.6,2.7c1.2,0,2-0.4,2.3-1.2H270z M262.3,33.7h4.8c-0.1-1.5-1-2.4-2.4-2.4C263.4,31.3,262.4,32.2,262.3,33.7z"/>
	<path class="st2" d="M276.5,29c2.9,0,4.6,1.2,4.7,3.4h-2.8c-0.2-0.7-0.8-1.2-1.9-1.2c-1.1,0-1.9,0.5-1.9,1.2c0,0.6,0.5,0.9,1.5,1.1
		l2.1,0.5c2.2,0.5,3.2,1.4,3.2,3.1c0,2.3-2,3.7-5,3.7c-3,0-4.8-1.2-5-3.4h2.9c0.2,0.8,1,1.2,2.1,1.2c1.2,0,2-0.5,2-1.2
		c0-0.6-0.4-0.9-1.4-1.1l-2.1-0.5c-2.2-0.5-3.3-1.5-3.3-3.3C271.8,30.4,273.7,29,276.5,29z"/>
	<path class="st2" d="M287.8,29c2.9,0,4.6,1.2,4.7,3.4h-2.8c-0.2-0.7-0.8-1.2-1.9-1.2c-1.1,0-1.9,0.5-1.9,1.2c0,0.6,0.5,0.9,1.5,1.1
		l2.1,0.5c2.2,0.5,3.2,1.4,3.2,3.1c0,2.3-2,3.7-5,3.7c-3,0-4.8-1.2-5-3.4h2.9c0.2,0.8,1,1.2,2.1,1.2c1.2,0,2-0.5,2-1.2
		c0-0.6-0.4-0.9-1.4-1.1l-2.1-0.5c-2.2-0.5-3.3-1.5-3.3-3.3C283.1,30.4,285,29,287.8,29z"/>
</g>
<g>
	<path class="st2" d="M246.8,353.4c0.1,0.6,0.7,1,1.6,1c0.8,0,1.4-0.4,1.4-1c0-0.5-0.4-0.8-1.3-1l-1-0.2c-1.4-0.3-2.1-1-2.1-2.2
		c0-1.5,1.2-2.4,3-2.4c1.7,0,2.9,1,3,2.3h-1.5c-0.1-0.6-0.6-1-1.4-1c-0.8,0-1.3,0.4-1.3,1c0,0.5,0.4,0.8,1.3,0.9l0.9,0.2
		c1.6,0.3,2.2,1,2.2,2.2c0,1.6-1.2,2.5-3.1,2.5c-1.8,0-3-0.9-3.1-2.4H246.8z"/>
	<path class="st2" d="M256.4,351.7c-0.1-0.6-0.5-0.9-1.2-0.9c-0.8,0-1.3,0.6-1.3,1.8c0,1.2,0.5,1.8,1.3,1.8c0.6,0,1.1-0.3,1.2-0.9
		h1.5c-0.1,1.3-1.1,2.2-2.6,2.2c-1.8,0-2.9-1.1-2.9-3.1c0-2,1-3.1,2.9-3.1c1.6,0,2.5,0.9,2.6,2.2H256.4z"/>
	<path class="st2" d="M258.5,353.8c0-1.1,0.8-1.7,2.3-1.8l1.4-0.1v-0.5c0-0.5-0.4-0.8-1-0.8c-0.6,0-0.9,0.2-1.1,0.5h-1.4
		c0.1-1.1,1.1-1.8,2.6-1.8c1.6,0,2.5,0.7,2.5,2v4h-1.5v-0.8h-0.1c-0.3,0.5-1,0.9-1.7,0.9C259.3,355.6,258.5,354.9,258.5,353.8z
		 M262.2,353.4V353L261,353c-0.7,0-1,0.3-1,0.7c0,0.4,0.4,0.7,0.9,0.7C261.7,354.5,262.2,354,262.2,353.4z"/>
	<path class="st2" d="M265.1,347.4h1.6v8.2h-1.6V347.4z"/>
	<path class="st2" d="M273.4,353.9c-0.2,1.1-1.3,1.8-2.7,1.8c-1.8,0-2.9-1.1-2.9-3.1c0-1.9,1.1-3.1,2.8-3.1c1.7,0,2.8,1.1,2.8,3v0.5
		h-4.1v0.1c0,0.9,0.5,1.4,1.4,1.4c0.6,0,1-0.2,1.2-0.6H273.4z M269.4,352h2.5c0-0.8-0.5-1.3-1.2-1.3
		C270,350.7,269.4,351.2,269.4,352z"/>
	<path class="st2" d="M276.8,352.6c0-1.9,1.1-3.1,2.9-3.1s2.9,1.2,2.9,3.1c0,1.9-1.1,3.1-2.9,3.1S276.8,354.5,276.8,352.6z
		 M281.1,352.6c0-1.1-0.5-1.8-1.3-1.8c-0.8,0-1.3,0.7-1.3,1.8c0,1.2,0.5,1.8,1.3,1.8C280.6,354.4,281.1,353.7,281.1,352.6z"/>
	<path class="st2" d="M284.2,350.9h-1v-1.2h1v-0.6c0-1.2,0.6-1.8,2-1.8c0.3,0,0.6,0,0.8,0.1v1.1c-0.1,0-0.3,0-0.5,0
		c-0.6,0-0.8,0.2-0.8,0.7v0.5h1.3v1.2h-1.2v4.6h-1.6V350.9z"/>
	<path class="st2" d="M290.8,355.5v-7.8h1.6v7.8H290.8z"/>
	<path class="st2" d="M293.9,349.6h1.5v1h0.1c0.3-0.7,0.9-1.1,1.8-1.1c1.3,0,2,0.8,2,2.2v3.8h-1.6v-3.5c0-0.8-0.3-1.2-1.1-1.2
		c-0.7,0-1.2,0.5-1.2,1.3v3.4h-1.6V349.6z"/>
	<path class="st2" d="M301,350.9h-1v-1.2h1v-0.6c0-1.2,0.6-1.8,2-1.8c0.3,0,0.6,0,0.8,0.1v1.1c-0.1,0-0.3,0-0.5,0
		c-0.6,0-0.8,0.2-0.8,0.7v0.5h1.3v1.2h-1.2v4.6H301V350.9z"/>
	<path class="st2" d="M304.8,349.6h1.5v0.9h0.1c0.2-0.6,0.8-1,1.5-1c0.2,0,0.5,0,0.6,0.1v1.4c-0.1,0-0.5-0.1-0.7-0.1
		c-0.9,0-1.4,0.5-1.4,1.3v3.3h-1.6V349.6z"/>
	<path class="st2" d="M309,353.8c0-1.1,0.8-1.7,2.3-1.8l1.4-0.1v-0.5c0-0.5-0.4-0.8-1-0.8c-0.6,0-0.9,0.2-1.1,0.5h-1.4
		c0.1-1.1,1.1-1.8,2.6-1.8c1.6,0,2.5,0.7,2.5,2v4h-1.5v-0.8h-0.1c-0.3,0.5-1,0.9-1.7,0.9C309.8,355.6,309,354.9,309,353.8z
		 M312.7,353.4V353l-1.2,0.1c-0.7,0-1,0.3-1,0.7c0,0.4,0.4,0.7,0.9,0.7C312.2,354.5,312.7,354,312.7,353.4z"/>
	<path class="st2" d="M317.9,349.5c1.5,0,2.4,0.6,2.5,1.8h-1.4c-0.1-0.4-0.4-0.6-1-0.6c-0.6,0-1,0.3-1,0.6c0,0.3,0.3,0.5,0.8,0.6
		l1.1,0.2c1.1,0.3,1.7,0.7,1.7,1.6c0,1.2-1.1,2-2.6,2c-1.6,0-2.5-0.6-2.6-1.8h1.5c0.1,0.4,0.5,0.6,1.1,0.6c0.6,0,1-0.3,1-0.6
		c0-0.3-0.2-0.5-0.7-0.6l-1.1-0.2c-1.1-0.3-1.7-0.8-1.7-1.7C315.4,350.2,316.4,349.5,317.9,349.5z"/>
	<path class="st2" d="M323.6,348.2v1.5h1.2v1.2h-1.2v2.7c0,0.5,0.2,0.8,0.8,0.8c0.2,0,0.3,0,0.5,0v1.2c-0.2,0-0.5,0.1-0.8,0.1
		c-1.4,0-2-0.5-2-1.6v-3h-0.9v-1.2h0.9v-1.5H323.6z"/>
	<path class="st2" d="M325.9,349.6h1.5v0.9h0.1c0.2-0.6,0.8-1,1.5-1c0.2,0,0.5,0,0.6,0.1v1.4c-0.1,0-0.5-0.1-0.7-0.1
		c-0.9,0-1.4,0.5-1.4,1.3v3.3h-1.6V349.6z"/>
	<path class="st2" d="M335.8,355.5h-1.5v-1h-0.1c-0.3,0.7-0.8,1.1-1.7,1.1c-1.3,0-2.1-0.8-2.1-2.2v-3.9h1.6v3.5
		c0,0.8,0.4,1.2,1.1,1.2c0.8,0,1.2-0.5,1.2-1.3v-3.4h1.6V355.5z"/>
	<path class="st2" d="M340.9,351.7c-0.1-0.6-0.5-0.9-1.2-0.9c-0.8,0-1.3,0.6-1.3,1.8c0,1.2,0.5,1.8,1.3,1.8c0.6,0,1.1-0.3,1.2-0.9
		h1.5c-0.1,1.3-1.1,2.2-2.6,2.2c-1.8,0-2.9-1.1-2.9-3.1c0-2,1-3.1,2.9-3.1c1.6,0,2.5,0.9,2.6,2.2H340.9z"/>
	<path class="st2" d="M345.4,348.2v1.5h1.2v1.2h-1.2v2.7c0,0.5,0.2,0.8,0.8,0.8c0.2,0,0.3,0,0.5,0v1.2c-0.2,0-0.5,0.1-0.8,0.1
		c-1.4,0-2-0.5-2-1.6v-3H343v-1.2h0.9v-1.5H345.4z"/>
	<path class="st2" d="M353.1,355.5h-1.5v-1h-0.1c-0.3,0.7-0.8,1.1-1.7,1.1c-1.3,0-2.1-0.8-2.1-2.2v-3.9h1.6v3.5
		c0,0.8,0.4,1.2,1.1,1.2c0.8,0,1.2-0.5,1.2-1.3v-3.4h1.6V355.5z"/>
	<path class="st2" d="M354.5,349.6h1.5v0.9h0.1c0.2-0.6,0.8-1,1.5-1c0.2,0,0.5,0,0.6,0.1v1.4c-0.1,0-0.5-0.1-0.7-0.1
		c-0.9,0-1.4,0.5-1.4,1.3v3.3h-1.6V349.6z"/>
	<path class="st2" d="M364.2,353.9c-0.2,1.1-1.3,1.8-2.7,1.8c-1.8,0-2.9-1.1-2.9-3.1c0-1.9,1.1-3.1,2.8-3.1c1.7,0,2.8,1.1,2.8,3v0.5
		h-4.1v0.1c0,0.9,0.5,1.4,1.4,1.4c0.6,0,1-0.2,1.2-0.6H364.2z M360.2,352h2.5c0-0.8-0.5-1.3-1.2-1.3
		C360.7,350.7,360.2,351.2,360.2,352z"/>
	<path class="st2" d="M368.1,355.5v-7.8h1.6v7.8H368.1z"/>
	<path class="st2" d="M371.2,349.6h1.5v1h0.1c0.3-0.7,0.9-1.1,1.8-1.1c1.3,0,2,0.8,2,2.2v3.8H375v-3.5c0-0.8-0.3-1.2-1.1-1.2
		c-0.7,0-1.2,0.5-1.2,1.3v3.4h-1.6V349.6z"/>
	<path class="st2" d="M381.6,351.7c-0.1-0.6-0.5-0.9-1.2-0.9c-0.8,0-1.3,0.6-1.3,1.8c0,1.2,0.5,1.8,1.3,1.8c0.6,0,1.1-0.3,1.2-0.9
		h1.5c-0.1,1.3-1.1,2.2-2.6,2.2c-1.8,0-2.9-1.1-2.9-3.1c0-2,1-3.1,2.9-3.1c1.6,0,2.5,0.9,2.6,2.2H381.6z"/>
	<path class="st2" d="M384.1,349.6h1.5v0.9h0.1c0.2-0.6,0.8-1,1.5-1c0.2,0,0.5,0,0.6,0.1v1.4c-0.1,0-0.5-0.1-0.7-0.1
		c-0.9,0-1.4,0.5-1.4,1.3v3.3h-1.6V349.6z"/>
	<path class="st2" d="M393.8,353.9c-0.2,1.1-1.3,1.8-2.7,1.8c-1.8,0-2.9-1.1-2.9-3.1c0-1.9,1.1-3.1,2.8-3.1c1.7,0,2.8,1.1,2.8,3v0.5
		h-4.1v0.1c0,0.9,0.5,1.4,1.4,1.4c0.6,0,1-0.2,1.2-0.6H393.8z M389.8,352h2.5c0-0.8-0.5-1.3-1.2-1.3
		C390.4,350.7,389.9,351.2,389.8,352z"/>
	<path class="st2" d="M394.6,353.8c0-1.1,0.8-1.7,2.3-1.8l1.4-0.1v-0.5c0-0.5-0.4-0.8-1-0.8c-0.6,0-0.9,0.2-1.1,0.5h-1.4
		c0.1-1.1,1.1-1.8,2.6-1.8c1.6,0,2.5,0.7,2.5,2v4h-1.5v-0.8h-0.1c-0.3,0.5-1,0.9-1.7,0.9C395.4,355.6,394.6,354.9,394.6,353.8z
		 M398.3,353.4V353l-1.2,0.1c-0.7,0-1,0.3-1,0.7c0,0.4,0.4,0.7,0.9,0.7C397.8,354.5,398.3,354,398.3,353.4z"/>
	<path class="st2" d="M403.5,349.5c1.5,0,2.4,0.6,2.5,1.8h-1.4c-0.1-0.4-0.4-0.6-1-0.6c-0.6,0-1,0.3-1,0.6c0,0.3,0.3,0.5,0.8,0.6
		l1.1,0.2c1.1,0.3,1.7,0.7,1.7,1.6c0,1.2-1.1,2-2.6,2c-1.6,0-2.5-0.6-2.6-1.8h1.5c0.1,0.4,0.5,0.6,1.1,0.6c0.6,0,1-0.3,1-0.6
		c0-0.3-0.2-0.5-0.7-0.6l-1.1-0.2c-1.1-0.3-1.7-0.8-1.7-1.7C401.1,350.2,402.1,349.5,403.5,349.5z"/>
	<path class="st2" d="M412.5,353.9c-0.2,1.1-1.3,1.8-2.7,1.8c-1.8,0-2.9-1.1-2.9-3.1c0-1.9,1.1-3.1,2.8-3.1c1.7,0,2.8,1.1,2.8,3v0.5
		h-4.1v0.1c0,0.9,0.5,1.4,1.4,1.4c0.6,0,1-0.2,1.2-0.6H412.5z M408.5,352h2.5c0-0.8-0.5-1.3-1.2-1.3
		C409,350.7,408.5,351.2,408.5,352z"/>
	<path class="st2" d="M415.9,349.5c1.5,0,2.4,0.6,2.5,1.8H417c-0.1-0.4-0.4-0.6-1-0.6c-0.6,0-1,0.3-1,0.6c0,0.3,0.3,0.5,0.8,0.6
		l1.1,0.2c1.1,0.3,1.7,0.7,1.7,1.6c0,1.2-1.1,2-2.6,2c-1.6,0-2.5-0.6-2.6-1.8h1.5c0.1,0.4,0.5,0.6,1.1,0.6c0.6,0,1-0.3,1-0.6
		c0-0.3-0.2-0.5-0.7-0.6l-1.1-0.2c-1.1-0.3-1.7-0.8-1.7-1.7C413.5,350.2,414.5,349.5,415.9,349.5z"/>
</g>
<g>
	<path class="st2" d="M54.4,253.5c0,0.7,0.4,1,1,1c0.6,0,1-0.4,1-1V250h1.4v3.7c0,1.3-1,2.1-2.4,2.1s-2.4-0.8-2.4-2.1V250h1.4V253.5
		z"/>
	<path class="st2" d="M61.4,250c1.2,0,2,0.8,2,2c0,1.2-0.9,2-2.1,2h-0.9v1.7H59V250H61.4z M60.4,252.9h0.6c0.6,0,1-0.3,1-0.9
		c0-0.6-0.4-0.9-1-0.9h-0.7V252.9z"/>
	<path class="st2" d="M64.4,255.6V250h3.8v1.2h-2.4v1.3H68v1.1h-2.2v2.1H64.4z"/>
	<path class="st2" d="M70.5,255.6h-1.4V250h2.5c1.3,0,2.1,0.7,2.1,1.9c0,0.7-0.3,1.3-1,1.6l1.1,2.2h-1.6l-1-2h-0.7V255.6z
		 M70.5,252.6h0.8c0.5,0,0.8-0.3,0.8-0.8c0-0.5-0.3-0.8-0.8-0.8h-0.8V252.6z"/>
	<path class="st2" d="M80,252.8c0,1.8-1.1,3-2.8,3c-1.7,0-2.8-1.1-2.8-3c0-1.8,1.1-3,2.8-3C78.9,249.8,80,251,80,252.8z M75.9,252.8
		c0,1.1,0.5,1.8,1.3,1.8c0.8,0,1.3-0.7,1.3-1.8c0-1.1-0.5-1.8-1.3-1.8C76.4,251,75.9,251.7,75.9,252.8z"/>
	<path class="st2" d="M80.9,255.6V250H82l2.3,3.2h0.1V250h1.4v5.6h-1.1l-2.4-3.2h-0.1v3.2H80.9z"/>
	<path class="st2" d="M88.3,255.6v-4.5h-1.6V250h4.7v1.2h-1.6v4.5H88.3z"/>
	<path class="st2" d="M63.7,262.4c0-1.8,1-3,2.7-3c1.4,0,2.5,0.9,2.5,2.2h-1.4c-0.1-0.6-0.5-1-1.2-1c-0.8,0-1.3,0.7-1.3,1.8
		c0,1.1,0.5,1.8,1.3,1.8c0.6,0,1.1-0.4,1.2-1h1.4c0,1.3-1.1,2.2-2.5,2.2C64.7,265.4,63.7,264.2,63.7,262.4z"/>
	<path class="st2" d="M75.1,262.4c0,1.8-1.1,3-2.8,3c-1.7,0-2.8-1.1-2.8-3c0-1.8,1.1-3,2.8-3C74,259.4,75.1,260.6,75.1,262.4z
		 M71,262.4c0,1.1,0.5,1.8,1.3,1.8c0.8,0,1.3-0.7,1.3-1.8c0-1.1-0.5-1.8-1.3-1.8C71.5,260.6,71,261.3,71,262.4z"/>
	<path class="st2" d="M77.1,263.6c0,0.4,0.4,0.7,1,0.7c0.5,0,0.9-0.3,0.9-0.6c0-0.3-0.2-0.5-0.9-0.6l-0.7-0.1
		c-1-0.2-1.6-0.8-1.6-1.6c0-1.1,0.9-1.8,2.2-1.8c1.3,0,2.2,0.7,2.3,1.8h-1.3c0-0.4-0.4-0.7-0.9-0.7s-0.8,0.2-0.8,0.6
		c0,0.3,0.2,0.5,0.8,0.6l0.7,0.1c1.1,0.2,1.6,0.7,1.6,1.6c0,1.2-0.9,1.9-2.4,1.9c-1.4,0-2.3-0.7-2.3-1.8H77.1z"/>
	<path class="st2" d="M82.7,265.2v-4.5h-1.6v-1.2h4.7v1.2h-1.6v4.5H82.7z"/>
	<path class="st2" d="M89.4,261.9c1.1,0.2,1.7,0.7,1.7,1.6c0,1-0.8,1.6-2,1.7v0.6h-0.4v-0.6c-1.2-0.1-2-0.6-2-1.6h1.2
		c0.1,0.3,0.3,0.6,0.8,0.6V263l-0.4-0.1c-1-0.2-1.6-0.7-1.6-1.6c0-1,0.8-1.6,2-1.7V259h0.4v0.6c1.2,0.1,1.9,0.7,1.9,1.7h-1.2
		c-0.1-0.4-0.3-0.6-0.7-0.6v1.2L89.4,261.9z M88.6,260.6c-0.4,0-0.7,0.2-0.7,0.5c0,0.3,0.2,0.4,0.7,0.6V260.6z M89.1,264.1
		c0.5,0,0.7-0.2,0.7-0.5c0-0.3-0.2-0.4-0.7-0.6V264.1z"/>
</g>
<g>
	<path class="st2" d="M238.8,206.2c1.2,0.3,1.8,0.7,1.8,1.7c0,1.1-0.9,1.7-2.1,1.8v0.7H238v-0.7c-1.2-0.1-2.1-0.7-2.1-1.8h1.1
		c0.1,0.4,0.4,0.7,1,0.8v-1.5l-0.3-0.1c-1.1-0.3-1.7-0.8-1.7-1.7c0-1,0.8-1.7,2-1.8V203h0.5v0.7c1.2,0.1,1.9,0.8,2,1.8h-1.1
		c-0.1-0.4-0.4-0.7-0.9-0.8v1.5L238.8,206.2z M238,204.7c-0.5,0.1-0.8,0.3-0.8,0.7c0,0.3,0.2,0.5,0.8,0.7V204.7z M238.5,208.7
		c0.6-0.1,0.9-0.3,0.9-0.7c0-0.4-0.2-0.5-0.9-0.7V208.7z"/>
	<path class="st2" d="M244.6,206.2c1.2,0.3,1.8,0.7,1.8,1.7c0,1.1-0.9,1.7-2.1,1.8v0.7h-0.5v-0.7c-1.2-0.1-2.1-0.7-2.1-1.8h1.1
		c0.1,0.4,0.4,0.7,1,0.8v-1.5l-0.3-0.1c-1.1-0.3-1.7-0.8-1.7-1.7c0-1,0.8-1.7,2-1.8V203h0.5v0.7c1.2,0.1,1.9,0.8,2,1.8h-1.1
		c-0.1-0.4-0.4-0.7-0.9-0.8v1.5L244.6,206.2z M243.8,204.7c-0.5,0.1-0.8,0.3-0.8,0.7c0,0.3,0.2,0.5,0.8,0.7V204.7z M244.3,208.7
		c0.6-0.1,0.9-0.3,0.9-0.7c0-0.4-0.2-0.5-0.9-0.7V208.7z"/>
</g>
<g>
	<path class="st2" d="M26.9,246.3c-2.5,0-4.1-1.4-4.1-3.6c0-1.8,1.2-3.2,2.9-3.4v1.6c-0.9,0.2-1.5,0.9-1.5,1.8c0,1.2,1,2,2.6,2
		s2.6-0.8,2.6-2c0-0.9-0.5-1.6-1.4-1.8v-1.6c1.7,0.1,2.8,1.5,2.8,3.4C30.9,245,29.4,246.3,26.9,246.3z"/>
	<path class="st2" d="M27.8,238.5c-1.9,0-3.1-1.1-3.1-2.9s1.2-2.9,3.1-2.9c1.9,0,3.1,1.1,3.1,2.9C30.9,237.4,29.7,238.5,27.8,238.5z
		 M27.8,234.3c-1.1,0-1.8,0.5-1.8,1.3c0,0.8,0.7,1.3,1.8,1.3c1.2,0,1.8-0.5,1.8-1.3C29.6,234.8,28.9,234.3,27.8,234.3z"/>
	<path class="st2" d="M24.7,229.3c0-1.5,0.6-2.4,1.8-2.5v1.4c-0.4,0.1-0.6,0.4-0.6,1c0,0.6,0.3,1,0.6,1c0.3,0,0.5-0.3,0.6-0.8
		l0.2-1.1c0.3-1.1,0.7-1.7,1.6-1.7c1.2,0,2,1.1,2,2.6c0,1.6-0.6,2.5-1.8,2.6v-1.5c0.4-0.1,0.6-0.5,0.6-1.1c0-0.6-0.3-1-0.6-1
		c-0.3,0-0.5,0.2-0.6,0.7l-0.2,1.1c-0.3,1.1-0.8,1.7-1.7,1.7C25.4,231.8,24.7,230.8,24.7,229.3z"/>
	<path class="st2" d="M23.4,223.6h1.5v-1.2h1.2v1.2h2.7c0.5,0,0.8-0.2,0.8-0.8c0-0.2,0-0.3,0-0.5h1.2c0,0.2,0.1,0.5,0.1,0.8
		c0,1.4-0.5,2-1.6,2h-3v0.9h-1.2v-0.9h-1.5V223.6z"/>
	<path class="st2" d="M30.7,218.6H23v-1.6h7.8V218.6z"/>
	<path class="st2" d="M24.8,215.4v-1.5h1v-0.1c-0.7-0.3-1.1-0.9-1.1-1.8c0-1.3,0.8-2,2.2-2h3.8v1.6h-3.5c-0.8,0-1.2,0.3-1.2,1.1
		c0,0.7,0.5,1.2,1.3,1.2h3.4v1.6H24.8z"/>
	<path class="st2" d="M26.9,205c-0.6,0.1-0.9,0.5-0.9,1.2c0,0.8,0.6,1.3,1.8,1.3c1.2,0,1.8-0.5,1.8-1.3c0-0.6-0.3-1.1-0.9-1.2v-1.5
		c1.3,0.1,2.2,1.1,2.2,2.6c0,1.8-1.1,2.9-3.1,2.9c-2,0-3.1-1-3.1-2.9c0-1.6,0.9-2.5,2.2-2.6V205z"/>
	<path class="st2" d="M24.8,202.5V201h0.9v-0.1c-0.6-0.2-1-0.8-1-1.5c0-0.2,0-0.5,0.1-0.6h1.4c0,0.1-0.1,0.5-0.1,0.7
		c0,0.9,0.5,1.4,1.3,1.4h3.3v1.6H24.8z"/>
	<path class="st2" d="M29,192.8c1.1,0.2,1.8,1.3,1.8,2.7c0,1.8-1.1,2.9-3.1,2.9c-1.9,0-3.1-1.1-3.1-2.8c0-1.7,1.1-2.8,3-2.8h0.5v4.1
		h0.1c0.9,0,1.4-0.5,1.4-1.4c0-0.6-0.2-1-0.6-1.2V192.8z M27.1,196.8v-2.5c-0.8,0-1.3,0.5-1.3,1.2C25.9,196.2,26.4,196.8,27.1,196.8
		z"/>
	<path class="st2" d="M29,192c-1.1,0-1.7-0.8-1.8-2.3l-0.1-1.4h-0.5c-0.5,0-0.8,0.4-0.8,1c0,0.6,0.2,0.9,0.5,1.1v1.4
		c-1.1-0.1-1.8-1.1-1.8-2.6c0-1.6,0.7-2.5,2-2.5h4v1.5H30v0.1c0.5,0.3,0.9,1,0.9,1.7C30.8,191.2,30.1,192,29,192z M28.6,188.3h-0.4
		l0.1,1.2c0,0.7,0.3,1,0.7,1c0.4,0,0.7-0.4,0.7-0.9C29.6,188.8,29.2,188.3,28.6,188.3z"/>
	<path class="st2" d="M24.7,183.1c0-1.5,0.6-2.4,1.8-2.5v1.4c-0.4,0.1-0.6,0.4-0.6,1c0,0.6,0.3,1,0.6,1c0.3,0,0.5-0.3,0.6-0.8
		l0.2-1.1c0.3-1.1,0.7-1.7,1.6-1.7c1.2,0,2,1.1,2,2.6c0,1.6-0.6,2.5-1.8,2.6v-1.5c0.4-0.1,0.6-0.5,0.6-1.1c0-0.6-0.3-1-0.6-1
		c-0.3,0-0.5,0.2-0.6,0.7l-0.2,1.1c-0.3,1.1-0.8,1.7-1.7,1.7C25.4,185.6,24.7,184.6,24.7,183.1z"/>
	<path class="st2" d="M29,174.1c1.1,0.2,1.8,1.3,1.8,2.7c0,1.8-1.1,2.9-3.1,2.9c-1.9,0-3.1-1.1-3.1-2.8c0-1.7,1.1-2.8,3-2.8h0.5v4.1
		h0.1c0.9,0,1.4-0.5,1.4-1.4c0-0.6-0.2-1-0.6-1.2V174.1z M27.1,178.1v-2.5c-0.8,0-1.3,0.5-1.3,1.2C25.9,177.6,26.4,178.1,27.1,178.1
		z"/>
	<path class="st2" d="M24.7,170.7c0-1.5,0.6-2.4,1.8-2.5v1.4c-0.4,0.1-0.6,0.4-0.6,1c0,0.6,0.3,1,0.6,1c0.3,0,0.5-0.3,0.6-0.8
		l0.2-1.1c0.3-1.1,0.7-1.7,1.6-1.7c1.2,0,2,1.1,2,2.6c0,1.6-0.6,2.5-1.8,2.6v-1.5c0.4-0.1,0.6-0.5,0.6-1.1c0-0.6-0.3-1-0.6-1
		c-0.3,0-0.5,0.2-0.6,0.7l-0.2,1.1c-0.3,1.1-0.8,1.7-1.7,1.7C25.4,173.1,24.7,172.2,24.7,170.7z"/>
</g>
<g>
	<g>
		<polyline class="st3" points="619.2,333.4 43.1,333.4 43.1,99.9 		"/>
		<g>
			<polygon class="st2" points="615.9,329.3 615.2,330 618.8,333.4 615.2,336.7 615.9,337.5 620.3,333.4 			"/>
		</g>
		<g>
			<polygon class="st2" points="47.2,103.2 46.5,103.9 43.1,100.2 39.8,103.9 39,103.2 43.1,98.8 			"/>
		</g>
	</g>
</g>
<g>
	<path class="st2" d="M315.6,272.7c0.1,0.8,0.9,1.3,2,1.3c1,0,1.8-0.5,1.8-1.2c0-0.6-0.5-1-1.6-1.2l-1.2-0.3
		c-1.7-0.4-2.6-1.3-2.6-2.7c0-1.8,1.4-3,3.6-3c2.1,0,3.6,1.2,3.6,2.9h-1.9c-0.1-0.8-0.8-1.3-1.8-1.3c-1,0-1.7,0.5-1.7,1.2
		c0,0.6,0.5,0.9,1.6,1.2l1.1,0.2c1.9,0.4,2.7,1.2,2.7,2.7c0,1.9-1.5,3.1-3.9,3.1c-2.3,0-3.7-1.1-3.8-2.9H315.6z"/>
	<path class="st2" d="M329.2,275.3h-6.3v-9.5h6.3v1.7h-4.3v2.2h4.1v1.6h-4.1v2.3h4.3V275.3z"/>
	<path class="st2" d="M333.1,275.3h-2v-9.5h4c2.1,0,3.4,1.2,3.4,3.1c0,1.2-0.6,2.3-1.7,2.7l2,3.8h-2.3l-1.8-3.5h-1.6V275.3z
		 M333.1,270.3h1.8c1,0,1.6-0.5,1.6-1.5c0-0.9-0.6-1.5-1.6-1.5h-1.7V270.3z"/>
	<path class="st2" d="M342.5,275.3l-3.2-9.5h2.3l2.2,7.3h0.1l2.1-7.3h2.1l-3.2,9.5H342.5z"/>
	<path class="st2" d="M355.7,275.3h-6.3v-9.5h6.3v1.7h-4.3v2.2h4.1v1.6h-4.1v2.3h4.3V275.3z"/>
	<path class="st2" d="M359.6,275.3h-2v-9.5h4c2.1,0,3.4,1.2,3.4,3.1c0,1.2-0.6,2.3-1.7,2.7l2,3.8H363l-1.8-3.5h-1.6V275.3z
		 M359.6,270.3h1.8c1,0,1.6-0.5,1.6-1.5c0-0.9-0.6-1.5-1.6-1.5h-1.7V270.3z"/>
	<path class="st2" d="M372.9,275.3h-6.2v-9.5h2v7.8h4.2V275.3z"/>
	<path class="st2" d="M380.8,275.3h-6.3v-9.5h6.3v1.7h-4.3v2.2h4.1v1.6h-4.1v2.3h4.3V275.3z"/>
	<path class="st2" d="M384.1,272.7c0.1,0.8,0.9,1.3,2,1.3c1,0,1.8-0.5,1.8-1.2c0-0.6-0.5-1-1.6-1.2l-1.2-0.3
		c-1.7-0.4-2.6-1.3-2.6-2.7c0-1.8,1.4-3,3.6-3c2.1,0,3.6,1.2,3.6,2.9h-1.9c-0.1-0.8-0.8-1.3-1.8-1.3c-1,0-1.7,0.5-1.7,1.2
		c0,0.6,0.5,0.9,1.6,1.2l1.1,0.2c1.9,0.4,2.7,1.2,2.7,2.7c0,1.9-1.5,3.1-3.9,3.1c-2.3,0-3.7-1.1-3.8-2.9H384.1z"/>
	<path class="st2" d="M393,272.7c0.1,0.8,0.9,1.3,2,1.3c1,0,1.8-0.5,1.8-1.2c0-0.6-0.5-1-1.6-1.2l-1.2-0.3c-1.7-0.4-2.6-1.3-2.6-2.7
		c0-1.8,1.4-3,3.6-3c2.1,0,3.6,1.2,3.6,2.9h-1.9c-0.1-0.8-0.8-1.3-1.8-1.3c-1,0-1.7,0.5-1.7,1.2c0,0.6,0.5,0.9,1.6,1.2l1.1,0.2
		c1.9,0.4,2.7,1.2,2.7,2.7c0,1.9-1.5,3.1-3.9,3.1c-2.3,0-3.7-1.1-3.8-2.9H393z"/>
	<path class="st2" d="M323.3,279.4h1.2c-0.6,0.8-1.1,2.4-1.1,4c0,1.5,0.5,3.2,1.1,4h-1.2c-0.9-1-1.3-2.4-1.3-4
		C322,281.7,322.4,280.4,323.3,279.4z"/>
	<path class="st2" d="M328,279.7c1.3,0,2.2,0.9,2.2,2.2c0,1.3-0.9,2.1-2.2,2.1h-1.2v1.9h-1.3v-6.2H328z M326.7,282.9h0.9
		c0.7,0,1.2-0.4,1.2-1.1c0-0.7-0.4-1.1-1.2-1.1h-1V282.9z"/>
	<path class="st2" d="M330.7,284.6c0-0.9,0.7-1.4,1.8-1.4l1.2-0.1v-0.4c0-0.4-0.3-0.6-0.8-0.6c-0.5,0-0.8,0.2-0.9,0.4h-1.2
		c0.1-0.9,0.9-1.4,2.1-1.4c1.3,0,2,0.6,2,1.6v3.3h-1.2v-0.6h-0.1c-0.2,0.4-0.8,0.7-1.4,0.7C331.3,286,330.7,285.4,330.7,284.6z
		 M333.6,284.2v-0.3l-1,0.1c-0.5,0-0.8,0.2-0.8,0.6c0,0.4,0.3,0.6,0.7,0.6C333.2,285.1,333.6,284.7,333.6,284.2z"/>
	<path class="st2" d="M335.9,287.7v-1c0,0,0.2,0,0.3,0c0.5,0,0.7-0.2,0.8-0.5l0-0.2l-1.7-4.8h1.4l1,3.6h0.1l1-3.6h1.3l-1.6,4.8
		c-0.4,1.2-1,1.7-2.2,1.7C336.4,287.7,336,287.7,335.9,287.7z"/>
	<path class="st2" d="M342.8,284.6c0-0.9,0.7-1.4,1.8-1.4l1.2-0.1v-0.4c0-0.4-0.3-0.6-0.8-0.6c-0.5,0-0.8,0.2-0.9,0.4H343
		c0.1-0.9,0.9-1.4,2.1-1.4c1.3,0,2,0.6,2,1.6v3.3h-1.2v-0.6h-0.1c-0.2,0.4-0.8,0.7-1.4,0.7C343.4,286,342.8,285.4,342.8,284.6z
		 M345.8,284.2v-0.3l-1,0.1c-0.5,0-0.8,0.2-0.8,0.6c0,0.4,0.3,0.6,0.7,0.6C345.3,285.1,345.8,284.7,345.8,284.2z"/>
	<path class="st2" d="M350,281.1c1.2,0,1.9,0.5,2,1.4h-1.2c-0.1-0.3-0.4-0.5-0.8-0.5c-0.4,0-0.8,0.2-0.8,0.5c0,0.2,0.2,0.4,0.6,0.5
		l0.9,0.2c0.9,0.2,1.3,0.6,1.3,1.3c0,0.9-0.9,1.6-2.1,1.6c-1.3,0-2-0.5-2.1-1.4h1.2c0.1,0.3,0.4,0.5,0.9,0.5c0.5,0,0.8-0.2,0.8-0.5
		c0-0.2-0.2-0.4-0.6-0.5l-0.9-0.2c-0.9-0.2-1.4-0.6-1.4-1.4C348,281.7,348.8,281.1,350,281.1z"/>
	<path class="st2" d="M355.1,287.7v-1c0,0,0.2,0,0.3,0c0.5,0,0.7-0.2,0.8-0.5l0-0.2l-1.7-4.8h1.4l1,3.6h0.1l1-3.6h1.3l-1.6,4.8
		c-0.4,1.2-1,1.7-2.2,1.7C355.6,287.7,355.2,287.7,355.1,287.7z"/>
	<path class="st2" d="M359.7,283.6c0-1.5,0.9-2.5,2.3-2.5s2.3,0.9,2.3,2.5c0,1.6-0.9,2.5-2.3,2.5S359.7,285.1,359.7,283.6z
		 M363.1,283.6c0-0.9-0.4-1.5-1.1-1.5c-0.7,0-1.1,0.5-1.1,1.5c0,0.9,0.4,1.5,1.1,1.5C362.7,285,363.1,284.5,363.1,283.6z"/>
	<path class="st2" d="M369.6,285.9h-1.2v-0.8h-0.1c-0.2,0.6-0.7,0.9-1.4,0.9c-1,0-1.7-0.7-1.7-1.8v-3.1h1.3v2.8c0,0.7,0.3,1,0.9,1
		c0.6,0,1-0.4,1-1v-2.7h1.3V285.9z"/>
	<path class="st2" d="M377.1,285.9h-1.2v-0.8h-0.1c-0.2,0.6-0.7,0.9-1.4,0.9c-1,0-1.7-0.7-1.7-1.8v-3.1h1.3v2.8c0,0.7,0.3,1,0.9,1
		c0.6,0,1-0.4,1-1v-2.7h1.3V285.9z"/>
	<path class="st2" d="M380,281.1c1.2,0,1.9,0.5,2,1.4h-1.2c-0.1-0.3-0.4-0.5-0.8-0.5c-0.4,0-0.8,0.2-0.8,0.5c0,0.2,0.2,0.4,0.6,0.5
		l0.9,0.2c0.9,0.2,1.3,0.6,1.3,1.3c0,0.9-0.9,1.6-2.1,1.6c-1.3,0-2-0.5-2.1-1.4h1.2c0.1,0.3,0.4,0.5,0.9,0.5c0.5,0,0.8-0.2,0.8-0.5
		c0-0.2-0.2-0.4-0.6-0.5l-0.9-0.2c-0.9-0.2-1.4-0.6-1.4-1.4C378,281.7,378.8,281.1,380,281.1z"/>
	<path class="st2" d="M387.2,284.6c-0.2,0.9-1,1.5-2.2,1.5c-1.5,0-2.3-0.9-2.3-2.5c0-1.6,0.9-2.5,2.3-2.5c1.4,0,2.2,0.9,2.2,2.4v0.4
		H384v0.1c0,0.7,0.4,1.1,1.1,1.1c0.5,0,0.8-0.2,1-0.5H387.2z M384,283.1h2c0-0.6-0.4-1-1-1C384.5,282,384.1,282.4,384,283.1z"/>
	<path class="st2" d="M389.1,287.3h-1.2c0.6-0.8,1.1-2.4,1.1-4s-0.5-3.2-1.1-4h1.2c0.9,1,1.3,2.4,1.3,4
		C390.3,284.9,389.9,286.2,389.1,287.3z"/>
</g>
<g>
	<polyline class="st4" points="105.1,244 99.2,244 99.2,306.2 105.1,306.2 	"/>
	<polyline class="st4" points="99.2,275.1 75.9,275.1 75.9,269.2 	"/>
</g>
<g>
	<polyline class="st4" points="270.9,178.6 265,178.6 265,235.3 270.9,235.3 	"/>
	<line class="st4" x1="265" y1="206.9" x2="250" y2="206.9"/>
</g>
<g>
	<path class="st2" d="M399.6,142.7c1.2,0.3,1.8,0.7,1.8,1.7c0,1.1-0.9,1.7-2.1,1.8v0.7h-0.5v-0.7c-1.2-0.1-2.1-0.7-2.1-1.8h1.1
		c0.1,0.4,0.4,0.7,1,0.8v-1.5l-0.3-0.1c-1.1-0.2-1.7-0.8-1.7-1.7c0-1,0.8-1.7,2-1.8v-0.7h0.5v0.7c1.2,0.1,1.9,0.8,2,1.8h-1.1
		c-0.1-0.4-0.4-0.7-0.9-0.8v1.5L399.6,142.7z M398.8,141.2c-0.5,0.1-0.8,0.3-0.8,0.7s0.2,0.5,0.8,0.7V141.2z M399.3,145.2
		c0.6-0.1,0.9-0.3,0.9-0.7c0-0.4-0.2-0.5-0.9-0.7V145.2z"/>
	<path class="st2" d="M405.4,142.7c1.2,0.3,1.8,0.7,1.8,1.7c0,1.1-0.9,1.7-2.1,1.8v0.7h-0.5v-0.7c-1.2-0.1-2.1-0.7-2.1-1.8h1.1
		c0.1,0.4,0.4,0.7,1,0.8v-1.5l-0.3-0.1c-1.1-0.2-1.7-0.8-1.7-1.7c0-1,0.8-1.7,2-1.8v-0.7h0.5v0.7c1.2,0.1,1.9,0.8,2,1.8h-1.1
		c-0.1-0.4-0.4-0.7-0.9-0.8v1.5L405.4,142.7z M404.6,141.2c-0.5,0.1-0.8,0.3-0.8,0.7s0.2,0.5,0.8,0.7V141.2z M405.1,145.2
		c0.6-0.1,0.9-0.3,0.9-0.7c0-0.4-0.2-0.5-0.9-0.7V145.2z"/>
	<path class="st2" d="M411.2,142.7c1.2,0.3,1.8,0.7,1.8,1.7c0,1.1-0.9,1.7-2.1,1.8v0.7h-0.5v-0.7c-1.2-0.1-2.1-0.7-2.1-1.8h1.1
		c0.1,0.4,0.4,0.7,1,0.8v-1.5l-0.3-0.1c-1.1-0.2-1.7-0.8-1.7-1.7c0-1,0.8-1.7,2-1.8v-0.7h0.5v0.7c1.2,0.1,1.9,0.8,2,1.8h-1.1
		c-0.1-0.4-0.4-0.7-0.9-0.8v1.5L411.2,142.7z M410.4,141.2c-0.5,0.1-0.8,0.3-0.8,0.7s0.2,0.5,0.8,0.7V141.2z M410.9,145.2
		c0.6-0.1,0.9-0.3,0.9-0.7c0-0.4-0.2-0.5-0.9-0.7V145.2z"/>
</g>
<g>
	<polyline class="st4" points="437.5,115 431.6,115 431.6,171.3 437.5,171.3 	"/>
	<line class="st4" x1="431.6" y1="143.1" x2="416.6" y2="143.1"/>
</g>
<linearGradient id="SVGID_1_" gradientUnits="userSpaceOnUse" x1="441.6439" y1="146.2333" x2="606.4252" y2="146.2333">
	<stop  offset="0" style="stop-color:#8076B5"/>
	<stop  offset="1" style="stop-color:#77C3E2"/>
</linearGradient>
<polygon class="st5" points="606.4,114.1 441.7,114.1 441.6,178.4 "/>
<linearGradient id="SVGID_2_" gradientUnits="userSpaceOnUse" x1="275.2558" y1="210.4245" x2="441.6439" y2="210.4245">
	<stop  offset="0" style="stop-color:#8076B5"/>
	<stop  offset="1" style="stop-color:#77C3E2"/>
</linearGradient>
<polygon class="st6" points="441.6,177.8 275.4,177.8 275.3,243 "/>
<linearGradient id="SVGID_3_" gradientUnits="userSpaceOnUse" x1="108.8677" y1="275.3124" x2="275.2558" y2="275.3124">
	<stop  offset="0" style="stop-color:#8076B5"/>
	<stop  offset="1" style="stop-color:#77C3E2"/>
</linearGradient>
<polygon class="st7" points="275.3,243 109,243 108.9,307.6 "/>
<rect x="108.5" y="239.5" class="st2" width="166.8" height="3.5"/>
<rect x="274.7" y="174.8" class="st2" width="167.2" height="3.5"/>
<rect x="441.1" y="110.6" class="st2" width="165.9" height="3.5"/>
<path class="st2" d="M334.3,131.1c0,0.4-0.3,0.6-0.6,0.6s-0.6-0.3-0.6-0.6c0-0.4,0.3-0.6,0.6-0.6S334.3,130.7,334.3,131.1z
	 M333.6,125.6c-0.4,0-0.6,0.3-0.6,0.6s0.3,0.6,0.6,0.6s0.6-0.3,0.6-0.6S334,125.6,333.6,125.6z M349.1,116.2v15
	c0,0.7-0.4,1.3-0.9,1.8c-0.5,0.5-1.3,0.9-2.1,1.2c-1.7,0.7-4,1.1-6.6,1.1s-4.9-0.4-6.6-1.1c-0.9-0.3-1.6-0.7-2.1-1.2
	c-0.5-0.5-0.9-1.1-0.9-1.8v-15c0-0.7,0.4-1.3,0.9-1.8c0.5-0.5,1.3-0.9,2.1-1.2c1.7-0.7,4-1,6.6-1s4.9,0.4,6.6,1
	c0.9,0.3,1.6,0.7,2.1,1.2C348.7,114.9,349.1,115.5,349.1,116.2z M331,116.2c0,0.2,0.2,0.5,0.6,0.9c0.4,0.3,1,0.7,1.8,0.9
	c1.5,0.5,3.6,0.9,6,0.9c2.3,0,4.4-0.4,6-0.9c0.8-0.3,1.4-0.6,1.8-0.9c0.4-0.3,0.6-0.6,0.6-0.9c0,0,0,0,0,0c0-0.2-0.1-0.5-0.5-0.8
	c-0.4-0.3-1-0.7-1.7-1c-1.5-0.6-3.7-1-6.1-1c-2.4,0-4.6,0.4-6.1,1c-0.8,0.3-1.4,0.6-1.7,1C331.2,115.6,331.1,115.9,331,116.2
	C331,116.2,331,116.2,331,116.2z M347.8,128.1c-0.5,0.4-1.2,0.7-2,1c-1.7,0.6-3.9,1-6.4,1c-2.5,0-4.7-0.4-6.4-1
	c-0.8-0.3-1.4-0.6-2-1v3c0,0.3,0.1,0.5,0.5,0.9c0.4,0.3,1,0.7,1.7,1c1.5,0.6,3.7,1,6.1,1c2.4,0,4.6-0.4,6.1-1c0.8-0.3,1.4-0.6,1.7-1
	c0.4-0.3,0.5-0.6,0.5-0.9V128.1z M347.8,123.3c-0.5,0.4-1.2,0.7-2,1c-1.7,0.6-3.9,1-6.4,1c-2.5,0-4.7-0.4-6.4-1
	c-0.8-0.3-1.4-0.6-2-1v2.8c0,0,0,0,0,0.1c0,0.2,0.2,0.5,0.6,0.9c0.4,0.3,1,0.7,1.8,0.9c1.5,0.6,3.6,0.9,6,0.9c2.3,0,4.5-0.4,6-0.9
	c0.8-0.3,1.4-0.6,1.8-0.9c0.4-0.3,0.6-0.6,0.6-0.9c0,0,0,0,0-0.1V123.3z M347.8,118.1c-0.5,0.4-1.2,0.7-2,1c-1.7,0.6-3.9,1-6.4,1
	s-4.7-0.4-6.4-1c-0.8-0.3-1.4-0.6-2-1v3.1c0,0,0,0,0,0.1c0,0.2,0.2,0.5,0.6,0.9c0.4,0.3,1,0.7,1.8,0.9c1.5,0.6,3.6,0.9,6,0.9
	c2.3,0,4.5-0.4,6-0.9c0.8-0.3,1.4-0.6,1.8-0.9c0.4-0.3,0.6-0.6,0.6-0.9c0,0,0,0,0-0.1V118.1z M333.6,120.5c-0.4,0-0.6,0.3-0.6,0.6
	c0,0.4,0.3,0.6,0.6,0.6s0.6-0.3,0.6-0.6C334.3,120.8,334,120.5,333.6,120.5z"/>
<path class="st2" d="M360.7,131.1c0,0.4-0.3,0.6-0.6,0.6s-0.6-0.3-0.6-0.6c0-0.4,0.3-0.6,0.6-0.6S360.7,130.7,360.7,131.1z
	 M360,125.6c-0.4,0-0.6,0.3-0.6,0.6s0.3,0.6,0.6,0.6s0.6-0.3,0.6-0.6S360.4,125.6,360,125.6z M375.5,116.2v15c0,0.7-0.4,1.3-0.9,1.8
	c-0.5,0.5-1.3,0.9-2.1,1.2c-1.7,0.7-4,1.1-6.6,1.1s-4.9-0.4-6.6-1.1c-0.9-0.3-1.6-0.7-2.1-1.2c-0.5-0.5-0.9-1.1-0.9-1.8v-15
	c0-0.7,0.4-1.3,0.9-1.8c0.5-0.5,1.3-0.9,2.1-1.2c1.7-0.7,4-1,6.6-1s4.9,0.4,6.6,1c0.9,0.3,1.6,0.7,2.1,1.2
	C375.1,114.9,375.5,115.5,375.5,116.2z M357.5,116.2c0,0.2,0.2,0.5,0.6,0.9c0.4,0.3,1,0.7,1.8,0.9c1.5,0.5,3.6,0.9,6,0.9
	s4.4-0.4,6-0.9c0.8-0.3,1.4-0.6,1.8-0.9c0.4-0.3,0.6-0.6,0.6-0.9c0,0,0,0,0,0c0-0.2-0.1-0.5-0.5-0.8c-0.4-0.3-1-0.7-1.7-1
	c-1.5-0.6-3.7-1-6.1-1c-2.4,0-4.6,0.4-6.1,1c-0.8,0.3-1.4,0.6-1.7,1C357.6,115.6,357.5,115.9,357.5,116.2
	C357.5,116.2,357.5,116.2,357.5,116.2z M374.2,128.1c-0.5,0.4-1.2,0.7-2,1c-1.7,0.6-3.9,1-6.4,1c-2.5,0-4.7-0.4-6.4-1
	c-0.8-0.3-1.4-0.6-2-1v3c0,0.3,0.1,0.5,0.5,0.9c0.4,0.3,1,0.7,1.7,1c1.5,0.6,3.7,1,6.1,1c2.4,0,4.6-0.4,6.1-1c0.8-0.3,1.4-0.6,1.7-1
	c0.4-0.3,0.5-0.6,0.5-0.9V128.1z M374.2,123.3c-0.5,0.4-1.2,0.7-2,1c-1.7,0.6-3.9,1-6.4,1c-2.5,0-4.7-0.4-6.4-1
	c-0.8-0.3-1.4-0.6-2-1v2.8c0,0,0,0,0,0.1c0,0.2,0.2,0.5,0.6,0.9c0.4,0.3,1,0.7,1.8,0.9c1.5,0.6,3.6,0.9,6,0.9s4.5-0.4,6-0.9
	c0.8-0.3,1.4-0.6,1.8-0.9c0.4-0.3,0.6-0.6,0.6-0.9c0,0,0,0,0-0.1V123.3z M374.2,118.1c-0.5,0.4-1.2,0.7-2,1c-1.7,0.6-3.9,1-6.4,1
	s-4.7-0.4-6.4-1c-0.8-0.3-1.4-0.6-2-1v3.1c0,0,0,0,0,0.1c0,0.2,0.2,0.5,0.6,0.9c0.4,0.3,1,0.7,1.8,0.9c1.5,0.6,3.6,0.9,6,0.9
	s4.5-0.4,6-0.9c0.8-0.3,1.4-0.6,1.8-0.9c0.4-0.3,0.6-0.6,0.6-0.9c0,0,0,0,0-0.1V118.1z M360,120.5c-0.4,0-0.6,0.3-0.6,0.6
	c0,0.4,0.3,0.6,0.6,0.6s0.6-0.3,0.6-0.6C360.7,120.8,360.4,120.5,360,120.5z"/>
<g>
	<path class="st2" d="M122.3,191.9v-4.5h-1.6v-1.2h4.7v1.2h-1.6v4.5H122.3z"/>
	<path class="st2" d="M127.6,191.9h-1.4v-5.6h2.5c1.3,0,2.1,0.7,2.1,1.9c0,0.7-0.3,1.3-1,1.6l1.1,2.2h-1.6l-1-2h-0.7V191.9z
		 M127.6,188.9h0.8c0.5,0,0.8-0.3,0.8-0.8c0-0.5-0.3-0.8-0.8-0.8h-0.8V188.9z"/>
	<path class="st2" d="M135,190.7h-1.8l-0.4,1.2h-1.4l1.9-5.6h1.8l1.9,5.6h-1.6L135,190.7z M133.4,189.6h1.3l-0.6-2.1h-0.1
		L133.4,189.6z"/>
	<path class="st2" d="M140.1,186.3c1.7,0,2.6,1,2.6,2.8c0,1.9-0.9,2.9-2.6,2.9h-2.4v-5.6H140.1z M139.1,190.7h0.7
		c0.9,0,1.4-0.6,1.4-1.7c0-1.1-0.5-1.6-1.4-1.6h-0.7V190.7z"/>
	<path class="st2" d="M143.6,191.9v-5.6h1.4v5.6H143.6z"/>
	<path class="st2" d="M147.5,191.9v-4.5h-1.6v-1.2h4.7v1.2H149v4.5H147.5z"/>
	<path class="st2" d="M151.5,191.9v-5.6h1.4v5.6H151.5z"/>
	<path class="st2" d="M159.4,189.1c0,1.8-1.1,3-2.8,3c-1.7,0-2.8-1.1-2.8-3c0-1.8,1.1-3,2.8-3C158.3,186.1,159.4,187.2,159.4,189.1z
		 M155.3,189.1c0,1.1,0.5,1.8,1.3,1.8c0.8,0,1.3-0.7,1.3-1.8c0-1.1-0.5-1.8-1.3-1.8C155.8,187.3,155.3,188,155.3,189.1z"/>
	<path class="st2" d="M160.3,191.9v-5.6h1.1l2.3,3.2h0.1v-3.2h1.4v5.6H164l-2.4-3.2h-0.1v3.2H160.3z"/>
	<path class="st2" d="M169.6,190.7h-1.8l-0.4,1.2H166l1.9-5.6h1.8l1.9,5.6h-1.6L169.6,190.7z M168,189.6h1.3l-0.6-2.1h-0.1
		L168,189.6z"/>
	<path class="st2" d="M176.1,191.9h-3.8v-5.6h1.4v4.5h2.4V191.9z"/>
	<path class="st2" d="M140.7,199.9c0,0.4,0.4,0.7,1,0.7c0.5,0,0.9-0.3,0.9-0.6c0-0.3-0.2-0.5-0.9-0.6l-0.7-0.1
		c-1-0.2-1.6-0.8-1.6-1.6c0-1.1,0.9-1.8,2.2-1.8c1.3,0,2.2,0.7,2.3,1.8h-1.3c0-0.4-0.4-0.7-0.9-0.7s-0.8,0.2-0.8,0.6
		c0,0.3,0.2,0.5,0.8,0.6l0.7,0.1c1.1,0.2,1.6,0.7,1.6,1.6c0,1.2-0.9,1.9-2.4,1.9c-1.4,0-2.3-0.7-2.3-1.8H140.7z"/>
	<path class="st2" d="M148.9,201.5H145v-5.6h3.9v1.2h-2.4v1.1h2.3v1.1h-2.3v1.2h2.4V201.5z"/>
	<path class="st2" d="M151.3,201.5h-1.4v-5.6h2.5c1.3,0,2.1,0.7,2.1,1.9c0,0.7-0.3,1.3-1,1.6l1.1,2.2h-1.6l-1-2h-0.7V201.5z
		 M151.3,198.5h0.8c0.5,0,0.8-0.3,0.8-0.8c0-0.5-0.3-0.8-0.8-0.8h-0.8V198.5z"/>
	<path class="st2" d="M156.7,201.5l-1.8-5.6h1.6l1.1,4.1h0.1l1.1-4.1h1.5l-1.8,5.6H156.7z"/>
	<path class="st2" d="M165,201.5h-3.9v-5.6h3.9v1.2h-2.4v1.1h2.3v1.1h-2.3v1.2h2.4V201.5z"/>
	<path class="st2" d="M167.5,201.5H166v-5.6h2.5c1.3,0,2.1,0.7,2.1,1.9c0,0.7-0.3,1.3-1,1.6l1.1,2.2h-1.6l-1-2h-0.7V201.5z
		 M167.5,198.5h0.8c0.5,0,0.8-0.3,0.8-0.8c0-0.5-0.3-0.8-0.8-0.8h-0.8V198.5z"/>
	<path class="st2" d="M172.7,199.9c0,0.4,0.4,0.7,1,0.7c0.5,0,0.9-0.3,0.9-0.6c0-0.3-0.2-0.5-0.9-0.6l-0.7-0.1
		c-1-0.2-1.6-0.8-1.6-1.6c0-1.1,0.9-1.8,2.2-1.8c1.3,0,2.2,0.7,2.3,1.8h-1.3c0-0.4-0.4-0.7-0.9-0.7s-0.8,0.2-0.8,0.6
		c0,0.3,0.2,0.5,0.8,0.6l0.7,0.1c1.1,0.2,1.6,0.7,1.6,1.6c0,1.2-0.9,1.9-2.4,1.9c-1.4,0-2.3-0.7-2.3-1.8H172.7z"/>
</g>
<g>
	<path class="st2" d="M645.3,215.2c0,0.4,0.4,0.7,1,0.7c0.5,0,0.9-0.3,0.9-0.6c0-0.3-0.2-0.5-0.9-0.6l-0.7-0.1
		c-1-0.2-1.6-0.8-1.6-1.6c0-1.1,0.9-1.8,2.2-1.8c1.3,0,2.2,0.7,2.3,1.8h-1.3c0-0.4-0.4-0.7-0.9-0.7s-0.8,0.2-0.8,0.6
		c0,0.3,0.2,0.5,0.8,0.6l0.7,0.1c1.1,0.2,1.6,0.7,1.6,1.6c0,1.2-0.9,1.9-2.4,1.9c-1.4,0-2.3-0.7-2.3-1.8H645.3z"/>
	<path class="st2" d="M653.5,216.8h-3.9v-5.6h3.9v1.2h-2.4v1.1h2.3v1.1h-2.3v1.2h2.4V216.8z"/>
	<path class="st2" d="M656,216.8h-1.4v-5.6h2.5c1.3,0,2.1,0.7,2.1,1.9c0,0.7-0.3,1.3-1,1.6l1.1,2.2h-1.6l-1-2H656V216.8z M656,213.8
		h0.8c0.5,0,0.8-0.3,0.8-0.8c0-0.5-0.3-0.8-0.8-0.8H656V213.8z"/>
	<path class="st2" d="M661.4,216.8l-1.8-5.6h1.6l1.1,4.1h0.1l1.1-4.1h1.5l-1.8,5.6H661.4z"/>
	<path class="st2" d="M669.6,216.8h-3.9v-5.6h3.9v1.2h-2.4v1.1h2.3v1.1h-2.3v1.2h2.4V216.8z"/>
	<path class="st2" d="M672.1,216.8h-1.4v-5.6h2.5c1.3,0,2.1,0.7,2.1,1.9c0,0.7-0.3,1.3-1,1.6l1.1,2.2h-1.6l-1-2h-0.7V216.8z
		 M672.1,213.8h0.8c0.5,0,0.8-0.3,0.8-0.8c0-0.5-0.3-0.8-0.8-0.8h-0.8V213.8z"/>
	<path class="st2" d="M680.1,216.8h-3.8v-5.6h1.4v4.5h2.4V216.8z"/>
	<path class="st2" d="M684.8,216.8H681v-5.6h3.9v1.2h-2.4v1.1h2.3v1.1h-2.3v1.2h2.4V216.8z"/>
	<path class="st2" d="M687,215.2c0,0.4,0.4,0.7,1,0.7c0.5,0,0.9-0.3,0.9-0.6c0-0.3-0.2-0.5-0.9-0.6l-0.7-0.1c-1-0.2-1.6-0.8-1.6-1.6
		c0-1.1,0.9-1.8,2.2-1.8c1.3,0,2.2,0.7,2.3,1.8h-1.3c0-0.4-0.4-0.7-0.9-0.7s-0.8,0.2-0.8,0.6c0,0.3,0.2,0.5,0.8,0.6l0.7,0.1
		c1.1,0.2,1.6,0.7,1.6,1.6c0,1.2-0.9,1.9-2.4,1.9c-1.4,0-2.3-0.7-2.3-1.8H687z"/>
	<path class="st2" d="M692.4,215.2c0,0.4,0.4,0.7,1,0.7c0.5,0,0.9-0.3,0.9-0.6c0-0.3-0.2-0.5-0.9-0.6l-0.7-0.1
		c-1-0.2-1.6-0.8-1.6-1.6c0-1.1,0.9-1.8,2.2-1.8c1.3,0,2.2,0.7,2.3,1.8h-1.3c0-0.4-0.4-0.7-0.9-0.7s-0.8,0.2-0.8,0.6
		c0,0.3,0.2,0.5,0.8,0.6l0.7,0.1c1.1,0.2,1.6,0.7,1.6,1.6c0,1.2-0.9,1.9-2.4,1.9c-1.4,0-2.3-0.7-2.3-1.8H692.4z"/>
</g>
<g>
	<path class="st2" d="M645.5,150.9v-4.5h-1.6v-1.2h4.7v1.2H647v4.5H645.5z"/>
	<path class="st2" d="M650.9,150.9h-1.4v-5.6h2.5c1.3,0,2.1,0.7,2.1,1.9c0,0.7-0.3,1.3-1,1.6l1.1,2.2h-1.6l-1-2h-0.7V150.9z
		 M650.9,147.9h0.8c0.5,0,0.8-0.3,0.8-0.8c0-0.5-0.3-0.8-0.8-0.8h-0.8V147.9z"/>
	<path class="st2" d="M658.3,149.7h-1.8l-0.4,1.2h-1.4l1.9-5.6h1.8l1.9,5.6h-1.6L658.3,149.7z M656.7,148.7h1.3l-0.6-2.1h-0.1
		L656.7,148.7z"/>
	<path class="st2" d="M663.3,145.3c1.7,0,2.6,1,2.6,2.8c0,1.9-0.9,2.9-2.6,2.9H661v-5.6H663.3z M662.4,149.8h0.7
		c0.9,0,1.4-0.6,1.4-1.7c0-1.1-0.5-1.6-1.4-1.6h-0.7V149.8z"/>
	<path class="st2" d="M666.9,150.9v-5.6h1.4v5.6H666.9z"/>
	<path class="st2" d="M670.8,150.9v-4.5h-1.6v-1.2h4.7v1.2h-1.6v4.5H670.8z"/>
	<path class="st2" d="M674.7,150.9v-5.6h1.4v5.6H674.7z"/>
	<path class="st2" d="M682.6,148.1c0,1.8-1.1,3-2.8,3c-1.7,0-2.8-1.1-2.8-3c0-1.8,1.1-3,2.8-3C681.5,145.1,682.6,146.3,682.6,148.1z
		 M678.5,148.1c0,1.1,0.5,1.8,1.3,1.8c0.8,0,1.3-0.7,1.3-1.8c0-1.1-0.5-1.8-1.3-1.8C679,146.3,678.5,147,678.5,148.1z"/>
	<path class="st2" d="M683.5,150.9v-5.6h1.1l2.3,3.2h0.1v-3.2h1.4v5.6h-1.1l-2.4-3.2h-0.1v3.2H683.5z"/>
	<path class="st2" d="M692.9,149.7H691l-0.4,1.2h-1.4l1.9-5.6h1.8l1.9,5.6h-1.6L692.9,149.7z M691.3,148.7h1.3l-0.6-2.1h-0.1
		L691.3,148.7z"/>
	<path class="st2" d="M699.4,150.9h-3.8v-5.6h1.4v4.5h2.4V150.9z"/>
	<path class="st2" d="M645.3,158.9c0,0.4,0.4,0.7,1,0.7c0.5,0,0.9-0.3,0.9-0.6c0-0.3-0.2-0.5-0.9-0.6l-0.7-0.1
		c-1-0.2-1.6-0.8-1.6-1.6c0-1.1,0.9-1.8,2.2-1.8c1.3,0,2.2,0.7,2.3,1.8h-1.3c0-0.4-0.4-0.7-0.9-0.7s-0.8,0.2-0.8,0.6
		c0,0.3,0.2,0.5,0.8,0.6l0.7,0.1c1.1,0.2,1.6,0.7,1.6,1.6c0,1.2-0.9,1.9-2.4,1.9c-1.4,0-2.3-0.7-2.3-1.8H645.3z"/>
	<path class="st2" d="M653.5,160.5h-3.9v-5.6h3.9v1.2h-2.4v1.1h2.3v1.1h-2.3v1.2h2.4V160.5z"/>
	<path class="st2" d="M656,160.5h-1.4v-5.6h2.5c1.3,0,2.1,0.7,2.1,1.9c0,0.7-0.3,1.3-1,1.6l1.1,2.2h-1.6l-1-2H656V160.5z M656,157.5
		h0.8c0.5,0,0.8-0.3,0.8-0.8c0-0.5-0.3-0.8-0.8-0.8H656V157.5z"/>
	<path class="st2" d="M661.4,160.5l-1.8-5.6h1.6l1.1,4.1h0.1l1.1-4.1h1.5l-1.8,5.6H661.4z"/>
	<path class="st2" d="M669.6,160.5h-3.9v-5.6h3.9v1.2h-2.4v1.1h2.3v1.1h-2.3v1.2h2.4V160.5z"/>
	<path class="st2" d="M672.1,160.5h-1.4v-5.6h2.5c1.3,0,2.1,0.7,2.1,1.9c0,0.7-0.3,1.3-1,1.6l1.1,2.2h-1.6l-1-2h-0.7V160.5z
		 M672.1,157.5h0.8c0.5,0,0.8-0.3,0.8-0.8c0-0.5-0.3-0.8-0.8-0.8h-0.8V157.5z"/>
	<path class="st2" d="M677.4,158.9c0,0.4,0.4,0.7,1,0.7c0.5,0,0.9-0.3,0.9-0.6c0-0.3-0.2-0.5-0.9-0.6l-0.7-0.1
		c-1-0.2-1.6-0.8-1.6-1.6c0-1.1,0.9-1.8,2.2-1.8c1.3,0,2.2,0.7,2.3,1.8h-1.3c0-0.4-0.4-0.7-0.9-0.7s-0.8,0.2-0.8,0.6
		c0,0.3,0.2,0.5,0.8,0.6l0.7,0.1c1.1,0.2,1.6,0.7,1.6,1.6c0,1.2-0.9,1.9-2.4,1.9c-1.4,0-2.3-0.7-2.3-1.8H677.4z"/>
</g>
<path class="st2" d="M186.7,201.7c0,0.4-0.3,0.6-0.6,0.6c-0.4,0-0.6-0.3-0.6-0.6c0-0.4,0.3-0.6,0.6-0.6
	C186.4,201,186.7,201.3,186.7,201.7z M186,196.2c-0.4,0-0.6,0.3-0.6,0.6s0.3,0.6,0.6,0.6c0.4,0,0.6-0.3,0.6-0.6
	S186.4,196.2,186,196.2z M201.5,186.8v15c0,0.7-0.4,1.3-0.9,1.8c-0.5,0.5-1.3,0.9-2.1,1.2c-1.7,0.7-4,1.1-6.6,1.1
	c-2.6,0-4.9-0.4-6.6-1.1c-0.9-0.3-1.6-0.7-2.1-1.2c-0.5-0.5-0.9-1.1-0.9-1.8v-15c0-0.7,0.4-1.3,0.9-1.8c0.5-0.5,1.3-0.9,2.1-1.2
	c1.7-0.7,4-1,6.6-1c2.6,0,4.9,0.4,6.6,1c0.9,0.3,1.6,0.7,2.1,1.2C201.1,185.5,201.5,186.1,201.5,186.8z M183.4,186.8
	c0,0.2,0.2,0.5,0.6,0.9c0.4,0.3,1,0.7,1.8,0.9c1.5,0.5,3.6,0.9,6,0.9c2.3,0,4.4-0.4,6-0.9c0.8-0.3,1.4-0.6,1.8-0.9
	c0.4-0.3,0.6-0.6,0.6-0.9c0,0,0,0,0,0c0-0.2-0.1-0.5-0.5-0.8c-0.4-0.3-1-0.7-1.7-1c-1.5-0.6-3.7-1-6.1-1c-2.4,0-4.6,0.4-6.1,1
	c-0.8,0.3-1.4,0.6-1.7,1C183.6,186.2,183.5,186.5,183.4,186.8C183.4,186.8,183.4,186.8,183.4,186.8z M200.2,198.7
	c-0.5,0.4-1.2,0.7-2,1c-1.7,0.6-3.9,1-6.4,1s-4.7-0.4-6.4-1c-0.8-0.3-1.4-0.6-2-1v3c0,0.3,0.1,0.5,0.5,0.9c0.4,0.3,1,0.7,1.7,1
	c1.5,0.6,3.7,1,6.1,1c2.4,0,4.6-0.4,6.1-1c0.8-0.3,1.4-0.6,1.7-1c0.4-0.3,0.5-0.6,0.5-0.9V198.7z M200.2,193.9c-0.5,0.4-1.2,0.7-2,1
	c-1.7,0.6-3.9,1-6.4,1s-4.7-0.4-6.4-1c-0.8-0.3-1.4-0.6-2-1v2.8c0,0,0,0,0,0.1c0,0.2,0.2,0.5,0.6,0.9c0.4,0.3,1,0.7,1.8,0.9
	c1.5,0.6,3.6,0.9,6,0.9c2.3,0,4.5-0.4,6-0.9c0.8-0.3,1.4-0.6,1.8-0.9c0.4-0.3,0.6-0.6,0.6-0.9c0,0,0,0,0-0.1V193.9z M200.2,188.7
	c-0.5,0.4-1.2,0.7-2,1c-1.7,0.6-3.9,1-6.4,1s-4.7-0.4-6.4-1c-0.8-0.3-1.4-0.6-2-1v3.1c0,0,0,0,0,0.1c0,0.2,0.2,0.5,0.6,0.9
	c0.4,0.3,1,0.7,1.8,0.9c1.5,0.6,3.6,0.9,6,0.9c2.3,0,4.5-0.4,6-0.9c0.8-0.3,1.4-0.6,1.8-0.9c0.4-0.3,0.6-0.6,0.6-0.9c0,0,0,0,0-0.1
	V188.7z M186,191.1c-0.4,0-0.6,0.3-0.6,0.6c0,0.4,0.3,0.6,0.6,0.6c0.4,0,0.6-0.3,0.6-0.6C186.7,191.4,186.4,191.1,186,191.1z"/>
<line class="st4" x1="191.8" y1="240" x2="191.8" y2="210"/>
<line class="st4" x1="339.4" y1="174.8" x2="339.4" y2="139.9"/>
<line class="st4" x1="365.8" y1="174.8" x2="365.8" y2="139.9"/>
<path class="st2" d="M519.3,67.5c0,0.4-0.3,0.6-0.6,0.6s-0.6-0.3-0.6-0.6c0-0.4,0.3-0.6,0.6-0.6S519.3,67.2,519.3,67.5z M518.6,62.1
	c-0.4,0-0.6,0.3-0.6,0.6s0.3,0.6,0.6,0.6s0.6-0.3,0.6-0.6S519,62.1,518.6,62.1z M534.1,52.6v15c0,0.7-0.4,1.3-0.9,1.8
	c-0.5,0.5-1.3,0.9-2.1,1.2c-1.7,0.7-4,1.1-6.6,1.1s-4.9-0.4-6.6-1.1c-0.9-0.3-1.6-0.7-2.1-1.2c-0.5-0.5-0.9-1.1-0.9-1.8v-15
	c0-0.7,0.4-1.3,0.9-1.8c0.5-0.5,1.3-0.9,2.1-1.2c1.7-0.7,4-1,6.6-1s4.9,0.4,6.6,1c0.9,0.3,1.6,0.7,2.1,1.2
	C533.7,51.3,534.1,51.9,534.1,52.6z M516.1,52.6c0,0.2,0.2,0.5,0.6,0.9c0.4,0.3,1,0.7,1.8,0.9c1.5,0.5,3.6,0.9,6,0.9s4.4-0.4,6-0.9
	c0.8-0.3,1.4-0.6,1.8-0.9c0.4-0.3,0.6-0.6,0.6-0.9c0,0,0,0,0,0c0-0.2-0.1-0.5-0.5-0.8c-0.4-0.3-1-0.7-1.7-1c-1.5-0.6-3.7-1-6.1-1
	c-2.4,0-4.6,0.4-6.1,1c-0.8,0.3-1.4,0.6-1.7,1C516.2,52.1,516.1,52.3,516.1,52.6C516.1,52.6,516.1,52.6,516.1,52.6z M532.8,64.6
	c-0.5,0.4-1.2,0.7-2,1c-1.7,0.6-3.9,1-6.4,1c-2.5,0-4.7-0.4-6.4-1c-0.8-0.3-1.4-0.6-2-1v3c0,0.3,0.1,0.5,0.5,0.9
	c0.4,0.3,1,0.7,1.7,1c1.5,0.6,3.7,1,6.1,1c2.4,0,4.6-0.4,6.1-1c0.8-0.3,1.4-0.6,1.7-1c0.4-0.3,0.5-0.6,0.5-0.9V64.6z M532.8,59.8
	c-0.5,0.4-1.2,0.7-2,1c-1.7,0.6-3.9,1-6.4,1c-2.5,0-4.7-0.4-6.4-1c-0.8-0.3-1.4-0.6-2-1v2.8c0,0,0,0,0,0.1c0,0.2,0.2,0.5,0.6,0.9
	c0.4,0.3,1,0.7,1.8,0.9c1.5,0.6,3.6,0.9,6,0.9s4.5-0.4,6-0.9c0.8-0.3,1.4-0.6,1.8-0.9c0.4-0.3,0.6-0.6,0.6-0.9c0,0,0,0,0-0.1V59.8z
	 M532.8,54.6c-0.5,0.4-1.2,0.7-2,1c-1.7,0.6-3.9,1-6.4,1c-2.5,0-4.7-0.4-6.4-1c-0.8-0.3-1.4-0.6-2-1v3.1c0,0,0,0,0,0.1
	c0,0.2,0.2,0.5,0.6,0.9c0.4,0.3,1,0.7,1.8,0.9c1.5,0.6,3.6,0.9,6,0.9s4.5-0.4,6-0.9c0.8-0.3,1.4-0.6,1.8-0.9
	c0.4-0.3,0.6-0.6,0.6-0.9c0,0,0,0,0-0.1V54.6z M518.6,56.9c-0.4,0-0.6,0.3-0.6,0.6c0,0.4,0.3,0.6,0.6,0.6s0.6-0.3,0.6-0.6
	C519.3,57.2,519,56.9,518.6,56.9z"/>
<path class="st2" d="M545.7,67.5c0,0.4-0.3,0.6-0.6,0.6c-0.4,0-0.6-0.3-0.6-0.6c0-0.4,0.3-0.6,0.6-0.6
	C545.4,66.9,545.7,67.2,545.7,67.5z M545.1,62.1c-0.4,0-0.6,0.3-0.6,0.6s0.3,0.6,0.6,0.6c0.4,0,0.6-0.3,0.6-0.6
	S545.4,62.1,545.1,62.1z M560.5,52.6v15c0,0.7-0.4,1.3-0.9,1.8c-0.5,0.5-1.3,0.9-2.1,1.2c-1.7,0.7-4,1.1-6.6,1.1s-4.9-0.4-6.6-1.1
	c-0.9-0.3-1.6-0.7-2.1-1.2c-0.5-0.5-0.9-1.1-0.9-1.8v-15c0-0.7,0.4-1.3,0.9-1.8c0.5-0.5,1.3-0.9,2.1-1.2c1.7-0.7,4-1,6.6-1
	s4.9,0.4,6.6,1c0.9,0.3,1.6,0.7,2.1,1.2C560.1,51.3,560.5,51.9,560.5,52.6z M542.5,52.6c0,0.2,0.2,0.5,0.6,0.9
	c0.4,0.3,1,0.7,1.8,0.9c1.5,0.5,3.6,0.9,6,0.9s4.4-0.4,6-0.9c0.8-0.3,1.4-0.6,1.8-0.9c0.4-0.3,0.6-0.6,0.6-0.9c0,0,0,0,0,0
	c0-0.2-0.1-0.5-0.5-0.8c-0.4-0.3-1-0.7-1.7-1c-1.5-0.6-3.7-1-6.1-1s-4.6,0.4-6.1,1c-0.8,0.3-1.4,0.6-1.7,1
	C542.6,52.1,542.5,52.3,542.5,52.6C542.5,52.6,542.5,52.6,542.5,52.6z M559.2,64.6c-0.5,0.4-1.2,0.7-2,1c-1.7,0.6-3.9,1-6.4,1
	s-4.7-0.4-6.4-1c-0.8-0.3-1.4-0.6-2-1v3c0,0.3,0.1,0.5,0.5,0.9c0.4,0.3,1,0.7,1.7,1c1.5,0.6,3.7,1,6.1,1s4.6-0.4,6.1-1
	c0.8-0.3,1.4-0.6,1.7-1c0.4-0.3,0.5-0.6,0.5-0.9V64.6z M559.2,59.8c-0.5,0.4-1.2,0.7-2,1c-1.7,0.6-3.9,1-6.4,1s-4.7-0.4-6.4-1
	c-0.8-0.3-1.4-0.6-2-1v2.8c0,0,0,0,0,0.1c0,0.2,0.2,0.5,0.6,0.9c0.4,0.3,1,0.7,1.8,0.9c1.5,0.6,3.6,0.9,6,0.9s4.5-0.4,6-0.9
	c0.8-0.3,1.4-0.6,1.8-0.9c0.4-0.3,0.6-0.6,0.6-0.9c0,0,0,0,0-0.1V59.8z M559.2,54.6c-0.5,0.4-1.2,0.7-2,1c-1.7,0.6-3.9,1-6.4,1
	c-2.5,0-4.7-0.4-6.4-1c-0.8-0.3-1.4-0.6-2-1v3.1c0,0,0,0,0,0.1c0,0.2,0.2,0.5,0.6,0.9c0.4,0.3,1,0.7,1.8,0.9c1.5,0.6,3.6,0.9,6,0.9
	s4.5-0.4,6-0.9c0.8-0.3,1.4-0.6,1.8-0.9c0.4-0.3,0.6-0.6,0.6-0.9c0,0,0,0,0-0.1V54.6z M545.1,56.9c-0.4,0-0.6,0.3-0.6,0.6
	c0,0.4,0.3,0.6,0.6,0.6c0.4,0,0.6-0.3,0.6-0.6C545.7,57.2,545.4,56.9,545.1,56.9z"/>
<line class="st4" x1="524.4" y1="111.3" x2="524.4" y2="76.3"/>
<path class="st2" d="M492.1,67.5c0,0.4-0.3,0.6-0.6,0.6c-0.4,0-0.6-0.3-0.6-0.6c0-0.4,0.3-0.6,0.6-0.6
	C491.8,66.9,492.1,67.2,492.1,67.5z M491.4,62.1c-0.4,0-0.6,0.3-0.6,0.6s0.3,0.6,0.6,0.6c0.4,0,0.6-0.3,0.6-0.6
	S491.8,62.1,491.4,62.1z M506.9,52.6v15c0,0.7-0.4,1.3-0.9,1.8c-0.5,0.5-1.3,0.9-2.1,1.2c-1.7,0.7-4,1.1-6.6,1.1
	c-2.6,0-4.9-0.4-6.6-1.1c-0.9-0.3-1.6-0.7-2.1-1.2c-0.5-0.5-0.9-1.1-0.9-1.8v-15c0-0.7,0.4-1.3,0.9-1.8c0.5-0.5,1.3-0.9,2.1-1.2
	c1.7-0.7,4-1,6.6-1c2.6,0,4.9,0.4,6.6,1c0.9,0.3,1.6,0.7,2.1,1.2C506.5,51.3,506.9,51.9,506.9,52.6z M488.9,52.6
	c0,0.2,0.2,0.5,0.6,0.9c0.4,0.3,1,0.7,1.8,0.9c1.5,0.5,3.6,0.9,6,0.9s4.4-0.4,6-0.9c0.8-0.3,1.4-0.6,1.8-0.9
	c0.4-0.3,0.6-0.6,0.6-0.9c0,0,0,0,0,0c0-0.2-0.1-0.5-0.5-0.8c-0.4-0.3-1-0.7-1.7-1c-1.5-0.6-3.7-1-6.1-1s-4.6,0.4-6.1,1
	c-0.8,0.3-1.4,0.6-1.7,1C489,52.1,488.9,52.3,488.9,52.6C488.9,52.6,488.9,52.6,488.9,52.6z M505.6,64.6c-0.5,0.4-1.2,0.7-2,1
	c-1.7,0.6-3.9,1-6.4,1c-2.5,0-4.7-0.4-6.4-1c-0.8-0.3-1.4-0.6-2-1v3c0,0.3,0.1,0.5,0.5,0.9c0.4,0.3,1,0.7,1.7,1c1.5,0.6,3.7,1,6.1,1
	s4.6-0.4,6.1-1c0.8-0.3,1.4-0.6,1.7-1c0.4-0.3,0.5-0.6,0.5-0.9V64.6z M505.6,59.8c-0.5,0.4-1.2,0.7-2,1c-1.7,0.6-3.9,1-6.4,1
	c-2.5,0-4.7-0.4-6.4-1c-0.8-0.3-1.4-0.6-2-1v2.8c0,0,0,0,0,0.1c0,0.2,0.2,0.5,0.6,0.9c0.4,0.3,1,0.7,1.8,0.9c1.5,0.6,3.6,0.9,6,0.9
	s4.5-0.4,6-0.9c0.8-0.3,1.4-0.6,1.8-0.9c0.4-0.3,0.6-0.6,0.6-0.9c0,0,0,0,0-0.1V59.8z M505.6,54.6c-0.5,0.4-1.2,0.7-2,1
	c-1.7,0.6-3.9,1-6.4,1c-2.5,0-4.7-0.4-6.4-1c-0.8-0.3-1.4-0.6-2-1v3.1c0,0,0,0,0,0.1c0,0.2,0.2,0.5,0.6,0.9c0.4,0.3,1,0.7,1.8,0.9
	c1.5,0.6,3.6,0.9,6,0.9s4.5-0.4,6-0.9c0.8-0.3,1.4-0.6,1.8-0.9c0.4-0.3,0.6-0.6,0.6-0.9c0,0,0,0,0-0.1V54.6z M491.4,56.9
	c-0.4,0-0.6,0.3-0.6,0.6c0,0.4,0.3,0.6,0.6,0.6c0.4,0,0.6-0.3,0.6-0.6C492.1,57.2,491.8,56.9,491.4,56.9z"/>
<line class="st4" x1="497.2" y1="111.3" x2="497.2" y2="76.3"/>
<g>
	<path class="st2" d="M625.3,150.8c0,0.2-0.2,0.4-0.4,0.4c-0.2,0-0.4-0.2-0.4-0.4c0-0.2,0.2-0.4,0.4-0.4
		C625.1,150.4,625.3,150.6,625.3,150.8z M624.9,147.3c-0.2,0-0.4,0.2-0.4,0.4s0.2,0.4,0.4,0.4c0.2,0,0.4-0.2,0.4-0.4
		S625.1,147.3,624.9,147.3z M634.8,141.3v9.6c0,0.4-0.2,0.8-0.6,1.2c-0.3,0.3-0.8,0.6-1.4,0.8c-1.1,0.4-2.6,0.7-4.2,0.7
		c-1.6,0-3.1-0.3-4.2-0.7c-0.6-0.2-1-0.5-1.4-0.8c-0.3-0.3-0.6-0.7-0.6-1.2v-9.6c0-0.4,0.2-0.8,0.6-1.2c0.3-0.3,0.8-0.6,1.4-0.8
		c1.1-0.4,2.6-0.7,4.2-0.7c1.6,0,3.1,0.2,4.2,0.7c0.6,0.2,1,0.5,1.4,0.8C634.5,140.4,634.8,140.8,634.8,141.3z M623.2,141.3
		c0,0.2,0.1,0.3,0.4,0.6c0.3,0.2,0.6,0.4,1.1,0.6c1,0.3,2.3,0.6,3.8,0.6c1.5,0,2.8-0.2,3.8-0.6c0.5-0.2,0.9-0.4,1.1-0.6
		c0.3-0.2,0.4-0.4,0.4-0.6c0,0,0,0,0,0c0-0.2-0.1-0.3-0.3-0.5c-0.2-0.2-0.6-0.4-1.1-0.6c-1-0.4-2.4-0.6-3.9-0.6
		c-1.6,0-3,0.2-3.9,0.6c-0.5,0.2-0.9,0.4-1.1,0.6C623.3,140.9,623.3,141.1,623.2,141.3C623.2,141.3,623.2,141.3,623.2,141.3z
		 M633.9,148.9c-0.3,0.3-0.8,0.5-1.2,0.6c-1.1,0.4-2.5,0.6-4.1,0.6s-3-0.2-4.1-0.6c-0.5-0.2-0.9-0.4-1.2-0.6v1.9
		c0,0.2,0.1,0.3,0.3,0.6s0.6,0.4,1.1,0.6c1,0.4,2.4,0.6,3.9,0.6c1.6,0,3-0.2,3.9-0.6c0.5-0.2,0.9-0.4,1.1-0.6
		c0.2-0.2,0.3-0.4,0.3-0.6V148.9z M633.9,145.8c-0.3,0.3-0.8,0.5-1.2,0.6c-1.1,0.4-2.5,0.6-4.1,0.6s-3-0.2-4.1-0.6
		c-0.5-0.2-0.9-0.4-1.2-0.6v1.8c0,0,0,0,0,0c0,0.2,0.1,0.3,0.4,0.6c0.3,0.2,0.6,0.4,1.1,0.6c1,0.4,2.3,0.6,3.8,0.6
		c1.5,0,2.9-0.2,3.8-0.6c0.5-0.2,0.9-0.4,1.1-0.6c0.3-0.2,0.4-0.4,0.4-0.6c0,0,0,0,0,0V145.8z M633.9,142.5
		c-0.3,0.3-0.8,0.5-1.3,0.6c-1.1,0.4-2.5,0.6-4.1,0.6c-1.6,0-3-0.2-4.1-0.6c-0.5-0.2-0.9-0.4-1.3-0.6v2c0,0,0,0,0,0
		c0,0.2,0.1,0.3,0.4,0.6s0.6,0.4,1.1,0.6c1,0.4,2.3,0.6,3.8,0.6c1.5,0,2.9-0.2,3.8-0.6c0.5-0.2,0.9-0.4,1.1-0.6s0.4-0.4,0.4-0.6
		c0,0,0,0,0,0V142.5z M624.9,144c-0.2,0-0.4,0.2-0.4,0.4s0.2,0.4,0.4,0.4c0.2,0,0.4-0.2,0.4-0.4S625.1,144,624.9,144z"/>
	<g>
		<rect x="622.9" y="162.7" class="st2" width="11.3" height="2.4"/>
		<line class="st4" x1="628.6" y1="162.7" x2="628.6" y2="155.9"/>
	</g>
</g>
<line class="st4" x1="550.9" y1="111.3" x2="550.9" y2="76.3"/>
<g>
	<g>
		<line class="st3" x1="275.3" y1="243" x2="275.3" y2="244.5"/>
		<line class="st8" x1="275.3" y1="247.5" x2="275.3" y2="329.9"/>
		<polyline class="st3" points="275.3,331.4 275.3,332.9 276.8,332.9 		"/>
		<line class="st9" x1="279.7" y1="332.9" x2="438.1" y2="332.9"/>
		<polyline class="st3" points="439.6,332.9 441.1,332.9 441.1,331.4 		"/>
		<line class="st10" x1="441.1" y1="328.5" x2="441.1" y2="181.3"/>
		<line class="st3" x1="441.1" y1="179.8" x2="441.1" y2="178.3"/>
	</g>
</g>
<g>
	<g>
		<line class="st3" x1="109.1" y1="307.6" x2="109.1" y2="309.1"/>
		<line class="st11" x1="109.1" y1="312.3" x2="109.1" y2="329.8"/>
		<polyline class="st3" points="109.1,331.4 109.1,332.9 110.6,332.9 		"/>
		<line class="st9" x1="113.6" y1="332.9" x2="272" y2="332.9"/>
		<polyline class="st3" points="273.5,332.9 275,332.9 275,331.4 		"/>
		<line class="st8" x1="275" y1="328.4" x2="275" y2="246"/>
		<line class="st3" x1="275" y1="244.5" x2="275" y2="243"/>
	</g>
</g>
<rect x="620.3" y="206.3" class="st1" width="16.6" height="16.6"/>
<g>
	<path class="st2" d="M645.3,182.9c0,0.4,0.4,0.7,1,0.7c0.5,0,0.9-0.3,0.9-0.6c0-0.3-0.2-0.5-0.9-0.6l-0.7-0.1
		c-1-0.2-1.6-0.8-1.6-1.6c0-1.1,0.9-1.8,2.2-1.8c1.3,0,2.2,0.7,2.3,1.8h-1.3c0-0.4-0.4-0.7-0.9-0.7s-0.8,0.2-0.8,0.6
		c0,0.3,0.2,0.5,0.8,0.6l0.7,0.1c1.1,0.2,1.6,0.7,1.6,1.6c0,1.2-0.9,1.9-2.4,1.9c-1.4,0-2.3-0.7-2.3-1.8H645.3z"/>
	<path class="st2" d="M652.9,183.3H651l-0.4,1.2h-1.4l1.9-5.6h1.8l1.9,5.6h-1.6L652.9,183.3z M651.3,182.2h1.3l-0.6-2.1h-0.1
		L651.3,182.2z"/>
	<path class="st2" d="M656.5,184.5l-1.8-5.6h1.6l1.1,4.1h0.1l1.1-4.1h1.5l-1.8,5.6H656.5z"/>
	<path class="st2" d="M660.9,184.5v-5.6h1.4v5.6H660.9z"/>
	<path class="st2" d="M663.5,184.5v-5.6h1.1l2.3,3.2h0.1v-3.2h1.4v5.6h-1.1l-2.4-3.2h-0.1v3.2H663.5z"/>
	<path class="st2" d="M672.1,184.7c-1.7,0-2.8-1.1-2.8-3c0-1.8,1-3,2.7-3c1.4,0,2.4,0.8,2.5,2h-1.4c-0.1-0.5-0.6-0.8-1.1-0.8
		c-0.8,0-1.3,0.7-1.3,1.8c0,1.1,0.5,1.8,1.3,1.8c0.7,0,1.1-0.4,1.1-1l0-0.1h-1v-1h2.4v0.7C674.6,183.7,673.7,184.7,672.1,184.7z"/>
	<path class="st2" d="M676.7,182.9c0,0.4,0.4,0.7,1,0.7c0.5,0,0.9-0.3,0.9-0.6c0-0.3-0.2-0.5-0.9-0.6l-0.7-0.1
		c-1-0.2-1.6-0.8-1.6-1.6c0-1.1,0.9-1.8,2.2-1.8c1.3,0,2.2,0.7,2.3,1.8h-1.3c0-0.4-0.4-0.7-0.9-0.7s-0.8,0.2-0.8,0.6
		c0,0.3,0.2,0.5,0.8,0.6l0.7,0.1c1.1,0.2,1.6,0.7,1.6,1.6c0,1.2-0.9,1.9-2.4,1.9c-1.4,0-2.3-0.7-2.3-1.8H676.7z"/>
	<path class="st2" d="M685.2,184.5h-1.4l-1.5-5.6h1.5l0.8,3.7h0.1l0.9-3.7h1.1l0.9,3.7h0.1l0.7-3.7h1.5l-1.5,5.6h-1.3l-0.9-3.5h-0.1
		L685.2,184.5z"/>
	<path class="st2" d="M690.8,184.5v-5.6h1.4v5.6H690.8z"/>
	<path class="st2" d="M694.8,184.5V180h-1.6v-1.2h4.7v1.2h-1.6v4.5H694.8z"/>
	<path class="st2" d="M702.4,184.5v-2.3h-2.2v2.3h-1.4v-5.6h1.4v2.2h2.2v-2.2h1.4v5.6H702.4z"/>
	<path class="st2" d="M645.3,192.5c0,0.4,0.4,0.7,1,0.7c0.5,0,0.9-0.3,0.9-0.6c0-0.3-0.2-0.5-0.9-0.6l-0.7-0.1
		c-1-0.2-1.6-0.8-1.6-1.6c0-1.1,0.9-1.8,2.2-1.8c1.3,0,2.2,0.7,2.3,1.8h-1.3c0-0.4-0.4-0.7-0.9-0.7s-0.8,0.2-0.8,0.6
		c0,0.3,0.2,0.5,0.8,0.6l0.7,0.1c1.1,0.2,1.6,0.7,1.6,1.6c0,1.2-0.9,1.9-2.4,1.9c-1.4,0-2.3-0.7-2.3-1.8H645.3z"/>
	<path class="st2" d="M653.5,194.1h-3.9v-5.6h3.9v1.2h-2.4v1.1h2.3v1.1h-2.3v1.2h2.4V194.1z"/>
	<path class="st2" d="M656,194.1h-1.4v-5.6h2.5c1.3,0,2.1,0.7,2.1,1.9c0,0.7-0.3,1.3-1,1.6l1.1,2.2h-1.6l-1-2H656V194.1z M656,191.1
		h0.8c0.5,0,0.8-0.3,0.8-0.8c0-0.5-0.3-0.8-0.8-0.8H656V191.1z"/>
	<path class="st2" d="M661.4,194.1l-1.8-5.6h1.6l1.1,4.1h0.1l1.1-4.1h1.5l-1.8,5.6H661.4z"/>
	<path class="st2" d="M669.6,194.1h-3.9v-5.6h3.9v1.2h-2.4v1.1h2.3v1.1h-2.3v1.2h2.4V194.1z"/>
	<path class="st2" d="M672.1,194.1h-1.4v-5.6h2.5c1.3,0,2.1,0.7,2.1,1.9c0,0.7-0.3,1.3-1,1.6l1.1,2.2h-1.6l-1-2h-0.7V194.1z
		 M672.1,191.1h0.8c0.5,0,0.8-0.3,0.8-0.8c0-0.5-0.3-0.8-0.8-0.8h-0.8V191.1z"/>
	<path class="st2" d="M680.1,194.1h-3.8v-5.6h1.4v4.5h2.4V194.1z"/>
	<path class="st2" d="M684.8,194.1H681v-5.6h3.9v1.2h-2.4v1.1h2.3v1.1h-2.3v1.2h2.4V194.1z"/>
	<path class="st2" d="M687,192.5c0,0.4,0.4,0.7,1,0.7c0.5,0,0.9-0.3,0.9-0.6c0-0.3-0.2-0.5-0.9-0.6l-0.7-0.1c-1-0.2-1.6-0.8-1.6-1.6
		c0-1.1,0.9-1.8,2.2-1.8c1.3,0,2.2,0.7,2.3,1.8h-1.3c0-0.4-0.4-0.7-0.9-0.7s-0.8,0.2-0.8,0.6c0,0.3,0.2,0.5,0.8,0.6l0.7,0.1
		c1.1,0.2,1.6,0.7,1.6,1.6c0,1.2-0.9,1.9-2.4,1.9c-1.4,0-2.3-0.7-2.3-1.8H687z"/>
	<path class="st2" d="M692.4,192.5c0,0.4,0.4,0.7,1,0.7c0.5,0,0.9-0.3,0.9-0.6c0-0.3-0.2-0.5-0.9-0.6l-0.7-0.1
		c-1-0.2-1.6-0.8-1.6-1.6c0-1.1,0.9-1.8,2.2-1.8c1.3,0,2.2,0.7,2.3,1.8h-1.3c0-0.4-0.4-0.7-0.9-0.7s-0.8,0.2-0.8,0.6
		c0,0.3,0.2,0.5,0.8,0.6l0.7,0.1c1.1,0.2,1.6,0.7,1.6,1.6c0,1.2-0.9,1.9-2.4,1.9c-1.4,0-2.3-0.7-2.3-1.8H692.4z"/>
</g>
<linearGradient id="SVGID_4_" gradientUnits="userSpaceOnUse" x1="620.3119" y1="186.3895" x2="636.8666" y2="186.3895">
	<stop  offset="0" style="stop-color:#8076B5"/>
	<stop  offset="1" style="stop-color:#77C3E2"/>
</linearGradient>
<rect x="620.3" y="178.1" class="st12" width="16.6" height="16.6"/>
</svg>
