<svg xmlns="http://www.w3.org/2000/svg" viewBox="0 0 699.84 311.81"><defs><style>.cls-1,.cls-113,.cls-20,.cls-39,.cls-59,.cls-6,.cls-85{fill:#707070;}.cls-2,.cls-4{fill:none;stroke-miterlimit:10;stroke-width:4.2px;}.cls-2{stroke:#aaa;}.cls-3{fill:#aaa;}.cls-4{stroke:#707070;}.cls-5{fill:#9fd3b5;}.cls-6{font-size:24px;letter-spacing:-0.02em;}.cls-113,.cls-20,.cls-37,.cls-39,.cls-59,.cls-6,.cls-85{font-family:OpenSans-Semibold, Open Sans;font-weight:700;}.cls-7{letter-spacing:-0.03em;}.cls-8{letter-spacing:-0.03em;}.cls-9{letter-spacing:-0.04em;}.cls-10{letter-spacing:-0.03em;}.cls-11{letter-spacing:-0.03em;}.cls-12{letter-spacing:-0.03em;}.cls-13{letter-spacing:-0.04em;}.cls-14{letter-spacing:-0.03em;}.cls-15{letter-spacing:-0.02em;}.cls-16{letter-spacing:-0.02em;}.cls-17{letter-spacing:-0.03em;}.cls-18{letter-spacing:-0.04em;}.cls-19{letter-spacing:-0.04em;}.cls-113,.cls-20,.cls-37,.cls-39,.cls-59,.cls-85{font-size:16px;}.cls-20{letter-spacing:-0.03em;}.cls-21{letter-spacing:-0.02em;}.cls-22{letter-spacing:-0.03em;}.cls-23{letter-spacing:-0.03em;}.cls-24{letter-spacing:-0.02em;}.cls-25{letter-spacing:-0.01em;}.cls-26{letter-spacing:-0.01em;}.cls-27{letter-spacing:-0.02em;}.cls-28{letter-spacing:-0.03em;}.cls-29{letter-spacing:-0.03em;}.cls-30{letter-spacing:-0.02em;}.cls-31{letter-spacing:-0.03em;}.cls-32{letter-spacing:-0.03em;}.cls-33{letter-spacing:-0.03em;}.cls-34,.cls-37{letter-spacing:-0.03em;}.cls-35{letter-spacing:-0.03em;}.cls-36{letter-spacing:-0.03em;}.cls-37{fill:#fff;}.cls-38{fill:#fbae40;}.cls-39{letter-spacing:-0.03em;}.cls-40{letter-spacing:-0.02em;}.cls-41{letter-spacing:-0.03em;}.cls-42{letter-spacing:-0.02em;}.cls-43{letter-spacing:-0.03em;}.cls-44{letter-spacing:-0.03em;}.cls-45{letter-spacing:-0.02em;}.cls-46{letter-spacing:-0.03em;}.cls-47{letter-spacing:-0.02em;}.cls-48{letter-spacing:-0.03em;}.cls-49{letter-spacing:-0.03em;}.cls-50{letter-spacing:-0.02em;}.cls-51{letter-spacing:-0.03em;}.cls-52{letter-spacing:-0.03em;}.cls-53{letter-spacing:-0.02em;}.cls-54{letter-spacing:-0.03em;}.cls-55{letter-spacing:-0.03em;}.cls-56{letter-spacing:-0.03em;}.cls-57{letter-spacing:-0.03em;}.cls-58{letter-spacing:-0.01em;}.cls-59{letter-spacing:-0.03em;}.cls-60{letter-spacing:-0.03em;}.cls-61{letter-spacing:-0.02em;}.cls-62{letter-spacing:-0.03em;}.cls-63{letter-spacing:-0.01em;}.cls-64{letter-spacing:-0.01em;}.cls-65{letter-spacing:-0.03em;}.cls-66{letter-spacing:-0.03em;}.cls-67{letter-spacing:-0.03em;}.cls-68{letter-spacing:-0.02em;}.cls-69{letter-spacing:-0.03em;}.cls-70{letter-spacing:-0.03em;}.cls-71{letter-spacing:-0.02em;}.cls-72{letter-spacing:-0.04em;}.cls-73{letter-spacing:-0.03em;}.cls-74{letter-spacing:-0.02em;}.cls-75{letter-spacing:-0.03em;}.cls-76{letter-spacing:-0.01em;}.cls-77{letter-spacing:-0.04em;}.cls-78{letter-spacing:-0.03em;}.cls-113,.cls-79{letter-spacing:-0.03em;}.cls-80{letter-spacing:-0.03em;}.cls-81{letter-spacing:-0.03em;}.cls-82{letter-spacing:-0.03em;}.cls-83{letter-spacing:-0.05em;}.cls-84{letter-spacing:-0.03em;}.cls-85{letter-spacing:-0.03em;}.cls-86{letter-spacing:-0.03em;}.cls-87{letter-spacing:-0.03em;}.cls-88{letter-spacing:-0.03em;}.cls-89{letter-spacing:-0.03em;}.cls-90{letter-spacing:-0.04em;}.cls-91{letter-spacing:-0.02em;}.cls-92{letter-spacing:-0.03em;}.cls-93{letter-spacing:-0.03em;}.cls-94{letter-spacing:-0.02em;}.cls-95{letter-spacing:-0.03em;}.cls-96{letter-spacing:-0.03em;}.cls-97{letter-spacing:0.01em;}.cls-98{letter-spacing:-0.03em;}.cls-99{letter-spacing:-0.03em;}.cls-100{letter-spacing:-0.03em;}.cls-101{letter-spacing:-0.02em;}.cls-102{letter-spacing:-0.03em;}.cls-103{letter-spacing:-0.02em;}.cls-104{letter-spacing:-0.03em;}.cls-105{letter-spacing:-0.01em;}.cls-106{letter-spacing:-0.04em;}.cls-107{letter-spacing:-0.03em;}.cls-108{letter-spacing:-0.04em;}.cls-109{letter-spacing:0em;}.cls-110{letter-spacing:-0.03em;}.cls-111{letter-spacing:-0.03em;}.cls-112{letter-spacing:-0.03em;}.cls-114{letter-spacing:-0.02em;}.cls-115{letter-spacing:-0.02em;}.cls-116{letter-spacing:-0.03em;}.cls-117{letter-spacing:-0.03em;}.cls-118{letter-spacing:-0.05em;}.cls-119{letter-spacing:-0.03em;}.cls-120{letter-spacing:-0.02em;}.cls-121{letter-spacing:-0.02em;}.cls-122{letter-spacing:-0.03em;}.cls-123{letter-spacing:-0.04em;}.cls-124{letter-spacing:-0.02em;}.cls-125{letter-spacing:-0.03em;}.cls-126{letter-spacing:-0.03em;}.cls-127{letter-spacing:-0.02em;}.cls-128{letter-spacing:-0.04em;}.cls-129{letter-spacing:-0.03em;}.cls-130{letter-spacing:-0.03em;}.cls-131{letter-spacing:-0.03em;}.cls-132{letter-spacing:-0.03em;}.cls-133{letter-spacing:-0.03em;}.cls-134{letter-spacing:-0.03em;}.cls-135{letter-spacing:-0.03em;}.cls-136{letter-spacing:-0.03em;}</style></defs><title>LearningCenter_MRK-6265_What Is Serverless_APPROVED</title><g id="Layer_3" data-name="Layer 3"><path class="cls-1" d="M327.9,38.31v271.5H2V38.31H327.9m2-2H0v275.5H329.9V36.31Z"/><path class="cls-1" d="M697.69,38.31v271.5H373.83V38.31H697.69m2-2H371.83v275.5H699.69V36.31Z"/><line class="cls-2" x1="239.11" y1="66.99" x2="365.5" y2="66.99"/><polygon class="cls-3" points="357.13 74.11 364.26 66.99 357.13 59.87 363.18 59.87 370.3 66.99 363.18 74.11 357.13 74.11"/><line class="cls-2" x1="237.72" y1="219.99" x2="365.5" y2="219.99"/><polygon class="cls-3" points="357.13 227.12 364.26 219.99 357.13 212.87 363.18 212.87 370.3 219.99 363.18 227.12 357.13 227.12"/><line class="cls-2" x1="267.72" y1="143.24" x2="365.5" y2="143.24"/><polygon class="cls-3" points="357.13 150.36 364.26 143.24 357.13 136.12 363.18 136.12 370.3 143.24 363.18 150.36 357.13 150.36"/><line class="cls-4" x1="335.49" y1="179.98" x2="419.33" y2="179.98"/><polygon class="cls-1" points="343.86 187.1 336.73 179.98 343.86 172.86 337.81 172.86 330.69 179.98 337.81 187.1 343.86 187.1"/><line class="cls-4" x1="335.49" y1="251.98" x2="419.33" y2="251.98"/><polygon class="cls-1" points="343.86 259.1 336.73 251.98 343.86 244.86 337.81 244.86 330.69 251.98 337.81 259.1 343.86 259.1"/><line class="cls-4" x1="335.49" y1="103.49" x2="419.33" y2="103.49"/><polygon class="cls-1" points="343.86 110.61 336.73 103.49 343.86 96.37 337.81 96.37 330.69 103.49 337.81 110.61 343.86 110.61"/><circle class="cls-5" cx="31.86" cy="63.98" r="12"/><circle class="cls-5" cx="31.86" cy="139.98" r="12"/><text class="cls-6" transform="translate(78.58 18.33)">T<tspan class="cls-7" x="13.01" y="0">h</tspan><tspan class="cls-8" x="27.49" y="0">e </tspan><tspan class="cls-9" x="46.35" y="0">F</tspan><tspan class="cls-10" x="58.09" y="0">r</tspan><tspan class="cls-11" x="67.63" y="0">o</tspan><tspan class="cls-12" x="81.52" y="0">n</tspan><tspan class="cls-8" x="95.92" y="0">t </tspan><tspan class="cls-13" x="110.39" y="0">E</tspan><tspan class="cls-14" x="122.88" y="0">n</tspan><tspan class="cls-15" x="137.4" y="0">d</tspan></text><text class="cls-6" transform="translate(456.45 18.33)">T<tspan class="cls-7" x="13.01" y="0">h</tspan><tspan class="cls-8" x="27.49" y="0">e </tspan><tspan class="cls-16" x="46.35" y="0">B</tspan><tspan class="cls-17" x="61.61" y="0">a</tspan><tspan class="cls-18" x="74.8" y="0">c</tspan><tspan class="cls-8" x="85.84" y="0">k </tspan><tspan class="cls-19" x="104.6" y="0">E</tspan><tspan class="cls-14" x="117.09" y="0">n</tspan><tspan class="cls-8" x="131.62" y="0">d</tspan></text><text class="cls-20" transform="translate(57.2 69.97) scale(0.98 1)">R<tspan class="cls-21" x="9.68" y="0">e</tspan><tspan class="cls-22" x="18.56" y="0">q</tspan><tspan class="cls-23" x="28.03" y="0">u</tspan><tspan class="cls-24" x="37.73" y="0">e</tspan><tspan class="cls-25" x="46.59" y="0">s</tspan><tspan class="cls-26" x="54.19" y="0">t</tspan><tspan class="cls-27" x="60.26" y="0">s </tspan><tspan class="cls-28" x="71.4" y="0">w</tspan><tspan class="cls-29" x="83.97" y="0">e</tspan><tspan class="cls-30" x="92.77" y="0">b</tspan><tspan class="cls-31" x="102.36" y="0">s</tspan><tspan class="cls-32" x="109.68" y="0">i</tspan><tspan class="cls-33" x="113.69" y="0">t</tspan><tspan class="cls-34" x="119.45" y="0">e </tspan><tspan class="cls-35" x="132.03" y="0">d</tspan><tspan class="cls-36" x="141.47" y="0">a</tspan><tspan class="cls-26" x="150.26" y="0">t</tspan><tspan class="cls-27" x="156.32" y="0">a</tspan></text><text class="cls-37" transform="translate(27.55 70.13) scale(0.98 1)">1</text><circle class="cls-38" cx="447.11" cy="102.73" r="12"/><text class="cls-37" transform="translate(442.8 108.88) scale(0.98 1)">2</text><circle class="cls-38" cx="447.11" cy="179.23" r="12"/><text class="cls-37" transform="translate(442.8 185.38) scale(0.98 1)">4</text><circle class="cls-38" cx="447.11" cy="252.23" r="12"/><text class="cls-37" transform="translate(442.8 258.38) scale(0.98 1)">6</text><text class="cls-37" transform="translate(27.55 146.3) scale(0.98 1)">3</text><circle class="cls-5" cx="31.86" cy="217.32" r="12"/><text class="cls-37" transform="translate(27.55 223.63) scale(0.98 1)">5</text><text class="cls-39" transform="translate(471.7 108.96) scale(0.97 1)">R<tspan class="cls-40" x="9.68" y="0">e</tspan><tspan class="cls-41" x="18.54" y="0">s</tspan><tspan class="cls-42" x="25.89" y="0">p</tspan><tspan class="cls-43" x="35.49" y="0">o</tspan><tspan class="cls-44" x="44.8" y="0">n</tspan><tspan class="cls-45" x="54.53" y="0">d</tspan><tspan class="cls-46" x="64.12" y="0">s </tspan><tspan class="cls-47" x="75.27" y="0">w</tspan><tspan class="cls-48" x="87.97" y="0">i</tspan><tspan class="cls-49" x="91.98" y="0">t</tspan><tspan class="cls-50" x="97.78" y="0">h </tspan><tspan class="cls-51" x="111.29" y="0">w</tspan><tspan class="cls-52" x="123.86" y="0">e</tspan><tspan class="cls-53" x="132.66" y="0">b</tspan><tspan class="cls-54" x="142.24" y="0">s</tspan><tspan class="cls-55" x="149.56" y="0">i</tspan><tspan class="cls-56" x="153.58" y="0">t</tspan><tspan class="cls-46" x="159.34" y="0">e </tspan><tspan class="cls-57" x="171.92" y="0">d</tspan><tspan class="cls-49" x="181.36" y="0">a</tspan><tspan class="cls-58" x="190.15" y="0">t</tspan><tspan class="cls-46" x="196.22" y="0">a</tspan></text><text class="cls-59" transform="translate(471.7 185.46) scale(0.97 1)">C<tspan class="cls-60" x="9.67" y="0">h</tspan><tspan class="cls-61" x="19.37" y="0">e</tspan><tspan class="cls-62" x="28.22" y="0">c</tspan><tspan class="cls-63" x="35.62" y="0">k</tspan><tspan class="cls-46" x="44.66" y="0">s </tspan><tspan class="cls-57" x="55.81" y="0">d</tspan><tspan class="cls-49" x="65.25" y="0">a</tspan><tspan class="cls-64" x="74.04" y="0">t</tspan><tspan class="cls-65" x="80.11" y="0">a</tspan><tspan class="cls-66" x="88.88" y="0">b</tspan><tspan class="cls-46" x="98.41" y="0">a</tspan><tspan class="cls-67" x="107.29" y="0">s</tspan><tspan class="cls-68" x="114.66" y="0">e</tspan><tspan class="cls-46" x="123.53" y="0">, </tspan><tspan class="cls-69" x="131.16" y="0">d</tspan><tspan class="cls-46" x="140.67" y="0">e</tspan><tspan class="cls-70" x="149.49" y="0">l</tspan><tspan class="cls-71" x="153.43" y="0">i</tspan><tspan class="cls-72" x="157.6" y="0">v</tspan><tspan class="cls-73" x="165.59" y="0">e</tspan><tspan class="cls-74" x="174.4" y="0">r</tspan><tspan class="cls-50" x="181.05" y="0">s </tspan><tspan class="cls-75" x="192.2" y="0">l</tspan><tspan class="cls-73" x="196.14" y="0">i</tspan><tspan class="cls-76" x="200.19" y="0">s</tspan><tspan class="cls-50" x="207.79" y="0">t </tspan><tspan class="cls-65"><tspan x="0" y="19">o</tspan><tspan class="cls-50" x="9.26" y="19">f </tspan><tspan class="cls-77" x="18.43" y="19">a</tspan><tspan class="cls-78" x="27.12" y="19">v</tspan><tspan class="cls-75" x="35.2" y="19">ai</tspan><tspan class="cls-79" x="47.9" y="19">la</tspan><tspan class="cls-80" x="60.62" y="19">b</tspan><tspan class="cls-81" x="70.17" y="19">l</tspan><tspan class="cls-50" x="74.18" y="19">e </tspan><tspan class="cls-57" x="86.76" y="19">d</tspan><tspan class="cls-49" x="96.2" y="19">a</tspan><tspan class="cls-56" x="104.98" y="19">t</tspan><tspan class="cls-40" x="110.75" y="19">e</tspan><tspan class="cls-46" x="119.6" y="19">s </tspan><tspan x="130.75" y="19">a</tspan><tspan class="cls-82" x="139.52" y="19">n</tspan><tspan class="cls-46" x="149.25" y="19">d </tspan><tspan class="cls-49" x="162.58" y="19">t</tspan><tspan class="cls-78" x="168.37" y="19">i</tspan><tspan class="cls-62" x="172.35" y="19">c</tspan><tspan class="cls-83" x="179.75" y="19">k</tspan><tspan class="cls-84" x="188.1" y="19">e</tspan><tspan class="cls-64" x="196.91" y="19">t</tspan><tspan class="cls-46" x="202.98" y="19">s</tspan></tspan></text><text class="cls-85" transform="translate(57.2 146.47) scale(0.98 1)">D<tspan class="cls-86" x="11.28" y="0">i</tspan><tspan class="cls-87" x="15.33" y="0">s</tspan><tspan class="cls-88" x="22.68" y="0">p</tspan><tspan class="cls-89" x="32.23" y="0">l</tspan><tspan class="cls-90" x="36.18" y="0">a</tspan><tspan class="cls-91" x="44.86" y="0">y</tspan><tspan class="cls-34" x="53.15" y="0">s </tspan><tspan class="cls-28" x="64.3" y="0">w</tspan><tspan class="cls-92" x="76.86" y="0">e</tspan><tspan class="cls-30" x="85.67" y="0">b</tspan><tspan class="cls-31" x="95.25" y="0">s</tspan><tspan class="cls-93" x="102.57" y="0">i</tspan><tspan class="cls-33" x="106.59" y="0">t</tspan><tspan class="cls-94" x="112.35" y="0">e</tspan><tspan class="cls-34" x="121.22" y="0">, </tspan><tspan class="cls-95" x="128.85" y="0">f</tspan><tspan class="cls-96" x="134.23" y="0">o</tspan><tspan class="cls-97" x="143.53" y="0">r</tspan><tspan class="cls-98" x="150.59" y="0">w</tspan><tspan class="cls-99" x="163.1" y="0">a</tspan><tspan class="cls-100" x="171.87" y="0">r</tspan><tspan class="cls-101" x="178.31" y="0">d</tspan><tspan class="cls-34" x="187.91" y="0" xml:space="preserve">s   </tspan><tspan class="cls-102"><tspan x="0" y="19">r</tspan><tspan class="cls-103" x="6.4" y="19">e</tspan><tspan class="cls-104" x="15.27" y="19">q</tspan><tspan class="cls-23" x="24.75" y="19">u</tspan><tspan class="cls-24" x="34.45" y="19">e</tspan><tspan class="cls-105" x="43.3" y="19">s</tspan><tspan class="cls-34" x="50.9" y="19">t </tspan><tspan class="cls-95" x="60.55" y="19">f</tspan><tspan class="cls-96" x="65.92" y="19">o</tspan><tspan class="cls-27" x="75.23" y="19">r </tspan><tspan class="cls-106" x="85.49" y="19">c</tspan><tspan class="cls-96" x="92.83" y="19">o</tspan><tspan class="cls-107" x="102.14" y="19">n</tspan><tspan class="cls-108" x="111.84" y="19">c</tspan><tspan class="cls-29" x="119.21" y="19">e</tspan><tspan class="cls-109" x="128.01" y="19">r</tspan><tspan class="cls-34" x="134.96" y="19">t </tspan><tspan class="cls-110" x="144.61" y="19">d</tspan><tspan class="cls-111" x="154.05" y="19">a</tspan><tspan class="cls-112" x="162.84" y="19">t</tspan><tspan class="cls-24" x="168.6" y="19">e</tspan><tspan class="cls-34" x="177.45" y="19">s</tspan></tspan></text><text class="cls-113" transform="translate(471.7 257.95) scale(0.97 1)">U<tspan class="cls-114" x="11.36" y="0">p</tspan><tspan class="cls-57" x="21" y="0">d</tspan><tspan class="cls-49" x="30.44" y="0">a</tspan><tspan class="cls-56" x="39.23" y="0">t</tspan><tspan class="cls-115" x="44.99" y="0">e</tspan><tspan class="cls-50" x="53.84" y="0">s </tspan><tspan class="cls-57" x="64.99" y="0">d</tspan><tspan class="cls-49" x="74.43" y="0">a</tspan><tspan class="cls-64" x="83.22" y="0">t</tspan><tspan class="cls-65" x="89.29" y="0">a</tspan><tspan class="cls-66" x="98.06" y="0">b</tspan><tspan class="cls-46" x="107.59" y="0">a</tspan><tspan class="cls-67" x="116.47" y="0">s</tspan><tspan class="cls-50" x="123.84" y="0">e </tspan><tspan class="cls-65" x="136.41" y="0">o</tspan><tspan class="cls-50" x="145.68" y="0">f </tspan><tspan class="cls-49" x="154.84" y="0">t</tspan><tspan class="cls-116" x="160.64" y="0">i</tspan><tspan class="cls-117" x="164.61" y="0">c</tspan><tspan class="cls-118" x="172.01" y="0">k</tspan><tspan class="cls-119" x="180.36" y="0">e</tspan><tspan class="cls-58" x="189.17" y="0">t</tspan><tspan class="cls-120" x="195.24" y="0">s</tspan><tspan class="cls-50" x="202.78" y="0">, </tspan><tspan class="cls-41"><tspan x="0" y="19">p</tspan><tspan class="cls-49" x="9.53" y="19">r</tspan><tspan class="cls-121" x="15.94" y="19">o</tspan><tspan class="cls-122" x="25.33" y="19">c</tspan><tspan class="cls-115" x="32.69" y="19">es</tspan><tspan class="cls-67" x="48.97" y="19">s</tspan><tspan class="cls-40" x="56.34" y="19">e</tspan><tspan class="cls-46" x="65.2" y="19">s </tspan><tspan class="cls-66" x="76.34" y="19">p</tspan><tspan class="cls-123" x="85.87" y="19">a</tspan><tspan class="cls-124" x="94.56" y="19">y</tspan><tspan class="cls-125" x="102.85" y="19">m</tspan><tspan class="cls-73" x="117.68" y="19">e</tspan><tspan class="cls-126" x="126.49" y="19">n</tspan><tspan class="cls-58" x="136.14" y="19">t</tspan><tspan class="cls-120" x="142.21" y="19">s</tspan><tspan class="cls-46" x="149.74" y="19">, </tspan><tspan class="cls-67" x="157.37" y="19">s</tspan><tspan class="cls-73" x="164.74" y="19">e</tspan><tspan class="cls-44" x="173.55" y="19">n</tspan><tspan class="cls-127" x="183.28" y="19">d</tspan><tspan class="cls-50" x="192.87" y="19" xml:space="preserve">s  </tspan></tspan><tspan class="cls-128"><tspan x="0" y="38">c</tspan><tspan class="cls-43" x="7.35" y="38">o</tspan><tspan class="cls-129" x="16.65" y="38">n</tspan><tspan class="cls-130" x="26.39" y="38">fi</tspan><tspan class="cls-131" x="36.22" y="38">r</tspan><tspan class="cls-132" x="42.69" y="38">m</tspan><tspan class="cls-133" x="57.45" y="38">at</tspan><tspan class="cls-78" x="72.03" y="38">i</tspan><tspan class="cls-43" x="76" y="38">o</tspan><tspan class="cls-46" x="85.31" y="38">n </tspan><tspan class="cls-134" x="98.82" y="38">i</tspan><tspan class="cls-135" x="102.76" y="38">n</tspan><tspan class="cls-136" x="112.42" y="38">f</tspan><tspan class="cls-46" x="117.8" y="38">o</tspan></tspan></text><text class="cls-20" transform="translate(57.2 223.96) scale(0.98 1)">R<tspan class="cls-21" x="9.68" y="0">e</tspan><tspan class="cls-22" x="18.56" y="0">q</tspan><tspan class="cls-23" x="28.03" y="0">u</tspan><tspan class="cls-24" x="37.73" y="0">e</tspan><tspan class="cls-25" x="46.59" y="0">s</tspan><tspan class="cls-26" x="54.19" y="0">t</tspan><tspan class="cls-27" x="60.26" y="0">s </tspan><tspan class="cls-28" x="71.4" y="0">w</tspan><tspan class="cls-29" x="83.97" y="0">e</tspan><tspan class="cls-30" x="92.77" y="0">b</tspan><tspan class="cls-31" x="102.36" y="0">s</tspan><tspan class="cls-32" x="109.68" y="0">i</tspan><tspan class="cls-33" x="113.69" y="0">t</tspan><tspan class="cls-34" x="119.45" y="0">e </tspan><tspan class="cls-35" x="132.03" y="0">d</tspan><tspan class="cls-36" x="141.47" y="0">a</tspan><tspan class="cls-26" x="150.26" y="0">t</tspan><tspan class="cls-27" x="156.32" y="0">a</tspan></text></g></svg>