<svg id="Layer_1" data-name="Layer 1" xmlns="http://www.w3.org/2000/svg" viewBox="0 0 700 432"><defs><style>.cls-1,.cls-4{fill:#f69259;}.cls-2,.cls-3{fill:#76c4e2;}.cls-3,.cls-4{opacity:0.2;}.cls-5{fill:#414141;}.cls-6{fill:#404242;}</style></defs><title>Untitled-3</title><path class="cls-1" d="M441.85,15.15a3.59,3.59,0,0,1-1.38,3,6,6,0,0,1-3.8,1.09,8.93,8.93,0,0,1-4-.76v-2.2a11.49,11.49,0,0,0,2.07.72,8.65,8.65,0,0,0,2.05.26,3.29,3.29,0,0,0,2.05-.52,1.75,1.75,0,0,0,.65-1.42,1.79,1.79,0,0,0-.6-1.36,9.35,9.35,0,0,0-2.5-1.32,6.59,6.59,0,0,1-2.76-1.8,3.85,3.85,0,0,1-.8-2.44,3.46,3.46,0,0,1,1.27-2.82,5.31,5.31,0,0,1,3.41-1,10,10,0,0,1,4.08.9l-.74,1.9a9,9,0,0,0-3.4-.8,2.69,2.69,0,0,0-1.72.49,1.63,1.63,0,0,0-.58,1.31,1.88,1.88,0,0,0,.23,1,2.63,2.63,0,0,0,.77.75,13.58,13.58,0,0,0,1.94.92,10.54,10.54,0,0,1,2.3,1.23,3.57,3.57,0,0,1,1.08,1.27A4,4,0,0,1,441.85,15.15Z"/><path class="cls-1" d="M449.15,19.23a5.23,5.23,0,0,1-3.94-1.47,5.61,5.61,0,0,1-1.42-4.05,6.13,6.13,0,0,1,1.32-4.16A4.55,4.55,0,0,1,448.73,8a4.45,4.45,0,0,1,3.38,1.29,5,5,0,0,1,1.24,3.58v1.24h-7.19a3.52,3.52,0,0,0,.85,2.42,3,3,0,0,0,2.25.84,8.32,8.32,0,0,0,1.78-.18,9.33,9.33,0,0,0,1.78-.6v1.86a7,7,0,0,1-1.7.57A10.55,10.55,0,0,1,449.15,19.23Zm-.42-9.46a2.29,2.29,0,0,0-1.75.7,3.25,3.25,0,0,0-.78,2h4.9a3,3,0,0,0-.65-2A2.19,2.19,0,0,0,448.73,9.77Z"/><path class="cls-1" d="M461.39,8a6,6,0,0,1,1.15.09l-.23,2.14a4.17,4.17,0,0,0-1-.12,3,3,0,0,0-2.24.9,3.3,3.3,0,0,0-.85,2.34V19h-2.29V8.23h1.79l.3,1.9h.12a4.4,4.4,0,0,1,1.4-1.53A3.32,3.32,0,0,1,461.39,8Z"/><path class="cls-1" d="M467.76,19l-4.1-10.8h2.42l2.2,6.28a13,13,0,0,1,.68,2.56H469a18.25,18.25,0,0,1,.68-2.56l2.2-6.28h2.44L470.24,19Z"/><path class="cls-1" d="M480.47,19.23a5.23,5.23,0,0,1-3.94-1.47,5.61,5.61,0,0,1-1.42-4.05,6.13,6.13,0,0,1,1.32-4.16A4.55,4.55,0,0,1,480.05,8a4.45,4.45,0,0,1,3.38,1.29,5,5,0,0,1,1.24,3.58v1.24h-7.19a3.52,3.52,0,0,0,.85,2.42,3,3,0,0,0,2.25.84,8.32,8.32,0,0,0,1.78-.18,9.57,9.57,0,0,0,1.78-.6v1.86a7,7,0,0,1-1.7.57A10.55,10.55,0,0,1,480.47,19.23Zm-.42-9.46a2.29,2.29,0,0,0-1.75.7,3.25,3.25,0,0,0-.78,2h4.9a3,3,0,0,0-.65-2A2.19,2.19,0,0,0,480.05,9.77Z"/><path class="cls-1" d="M492.71,8a6,6,0,0,1,1.15.09l-.23,2.14a4.17,4.17,0,0,0-1-.12,3,3,0,0,0-2.24.9,3.25,3.25,0,0,0-.85,2.34V19h-2.29V8.23H489l.3,1.9h.12a4.4,4.4,0,0,1,1.4-1.53A3.32,3.32,0,0,1,492.71,8Z"/><path class="cls-1" d="M498.08,19h-2.29V3.84h2.29Z"/><path class="cls-1" d="M506,19.23a5.21,5.21,0,0,1-3.94-1.47,5.57,5.57,0,0,1-1.42-4.05,6.17,6.17,0,0,1,1.31-4.16A4.56,4.56,0,0,1,505.57,8,4.48,4.48,0,0,1,509,9.33a5,5,0,0,1,1.24,3.58v1.24H503a3.52,3.52,0,0,0,.85,2.42,3,3,0,0,0,2.25.84,8.42,8.42,0,0,0,1.79-.18,9.25,9.25,0,0,0,1.77-.6v1.86a7,7,0,0,1-1.7.57A10.44,10.44,0,0,1,506,19.23Zm-.42-9.46a2.3,2.3,0,0,0-1.76.7,3.31,3.31,0,0,0-.78,2h4.9a3,3,0,0,0-.64-2A2.21,2.21,0,0,0,505.57,9.77Z"/><path class="cls-1" d="M520.07,16a2.82,2.82,0,0,1-1.16,2.42,5.45,5.45,0,0,1-3.3.85,7.7,7.7,0,0,1-3.46-.66v-2a8.45,8.45,0,0,0,3.54.88c1.41,0,2.12-.43,2.12-1.28a1,1,0,0,0-.23-.68,2.62,2.62,0,0,0-.78-.57,10.78,10.78,0,0,0-1.49-.66,7,7,0,0,1-2.52-1.45,2.67,2.67,0,0,1-.66-1.87,2.47,2.47,0,0,1,1.11-2.16,5.34,5.34,0,0,1,3-.76,8.5,8.5,0,0,1,3.6.77l-.74,1.73a7.92,7.92,0,0,0-2.94-.73c-1.21,0-1.82.35-1.82,1a1,1,0,0,0,.48.86,10.54,10.54,0,0,0,2.06,1,9.4,9.4,0,0,1,1.94.95,2.79,2.79,0,0,1,.9,1A2.83,2.83,0,0,1,520.07,16Z"/><path class="cls-1" d="M529.83,16a2.82,2.82,0,0,1-1.16,2.42,5.45,5.45,0,0,1-3.3.85,7.7,7.7,0,0,1-3.46-.66v-2a8.45,8.45,0,0,0,3.54.88c1.41,0,2.12-.43,2.12-1.28a1,1,0,0,0-.23-.68,2.62,2.62,0,0,0-.78-.57,10.78,10.78,0,0,0-1.49-.66,7.06,7.06,0,0,1-2.52-1.45,2.67,2.67,0,0,1-.66-1.87A2.47,2.47,0,0,1,523,8.8a5.34,5.34,0,0,1,3-.76,8.5,8.5,0,0,1,3.6.77l-.74,1.73A7.92,7.92,0,0,0,526,9.81c-1.21,0-1.82.35-1.82,1a1,1,0,0,0,.48.86,10.54,10.54,0,0,0,2.06,1,9.4,9.4,0,0,1,1.94.95,2.79,2.79,0,0,1,.9,1A2.83,2.83,0,0,1,529.83,16Z"/><path class="cls-2" d="M207.23,9.07a4.16,4.16,0,0,1-1.46,3.43,6.49,6.49,0,0,1-4.17,1.19h-1.49V19h-2.33V4.75h4.11a6.21,6.21,0,0,1,4,1.1A3.92,3.92,0,0,1,207.23,9.07Zm-7.12,2.66h1.24A4.42,4.42,0,0,0,204,11.1a2.27,2.27,0,0,0,.84-1.95,2.24,2.24,0,0,0-.75-1.84,3.73,3.73,0,0,0-2.34-.6h-1.63Z"/><path class="cls-2" d="M216.14,19l-.46-1.5h-.08A4.38,4.38,0,0,1,214,18.87a5,5,0,0,1-2,.36,3.47,3.47,0,0,1-2.49-.86,3.26,3.26,0,0,1-.89-2.43,2.83,2.83,0,0,1,1.24-2.52,7.06,7.06,0,0,1,3.78-.93l1.86-.06v-.58a2.17,2.17,0,0,0-.48-1.54,1.94,1.94,0,0,0-1.5-.52,5.29,5.29,0,0,0-1.59.25,11.78,11.78,0,0,0-1.47.57L209.72,9a8.34,8.34,0,0,1,1.93-.7,9.32,9.32,0,0,1,2-.23,4.67,4.67,0,0,1,3.11.89,3.53,3.53,0,0,1,1.05,2.83V19Zm-3.42-1.56a2.85,2.85,0,0,0,2-.7,2.54,2.54,0,0,0,.75-2v-.93l-1.38,0a4.67,4.67,0,0,0-2.36.55A1.64,1.64,0,0,0,211,16a1.41,1.41,0,0,0,.43,1.11A1.83,1.83,0,0,0,212.72,17.47Z"/><path class="cls-2" d="M227.54,19l-.46-1.5H227a4.46,4.46,0,0,1-1.57,1.34,5,5,0,0,1-2,.36,3.45,3.45,0,0,1-2.49-.86,3.22,3.22,0,0,1-.89-2.43,2.83,2.83,0,0,1,1.24-2.52,7.06,7.06,0,0,1,3.78-.93l1.86-.06v-.58a2.17,2.17,0,0,0-.48-1.54,1.94,1.94,0,0,0-1.5-.52,5.29,5.29,0,0,0-1.59.25,11.78,11.78,0,0,0-1.47.57L221.12,9a8.43,8.43,0,0,1,1.92-.7A9.49,9.49,0,0,1,225,8a4.67,4.67,0,0,1,3.11.89,3.53,3.53,0,0,1,1.05,2.83V19Zm-3.42-1.56a2.85,2.85,0,0,0,2-.7,2.54,2.54,0,0,0,.75-2v-.93l-1.38,0a4.67,4.67,0,0,0-2.36.55A1.64,1.64,0,0,0,222.4,16a1.41,1.41,0,0,0,.43,1.11A1.83,1.83,0,0,0,224.12,17.47Z"/><path class="cls-2" d="M240.83,15.15a3.59,3.59,0,0,1-1.38,3,6,6,0,0,1-3.8,1.09,8.93,8.93,0,0,1-4-.76v-2.2a11.49,11.49,0,0,0,2.07.72,8.65,8.65,0,0,0,2.05.26,3.29,3.29,0,0,0,2.05-.52,1.75,1.75,0,0,0,.65-1.42,1.79,1.79,0,0,0-.6-1.36,9.19,9.19,0,0,0-2.5-1.32,6.48,6.48,0,0,1-2.75-1.8,3.8,3.8,0,0,1-.81-2.44,3.46,3.46,0,0,1,1.27-2.82,5.31,5.31,0,0,1,3.41-1,10,10,0,0,1,4.08.9l-.74,1.9a9,9,0,0,0-3.4-.8,2.69,2.69,0,0,0-1.72.49,1.63,1.63,0,0,0-.58,1.31,1.88,1.88,0,0,0,.23,1,2.63,2.63,0,0,0,.77.75,13.58,13.58,0,0,0,1.94.92,10.54,10.54,0,0,1,2.3,1.23,3.57,3.57,0,0,1,1.08,1.27A3.85,3.85,0,0,1,240.83,15.15Z"/><circle class="cls-3" cx="218.8" cy="229.68" r="200.42"/><circle class="cls-4" cx="481.2" cy="229.6" r="200.42"/><path class="cls-5" d="M57.33,224,56,220.63H51.7L50.38,224H49.12l4.24-10.75h1L58.62,224Zm-1.72-4.52-1.25-3.32c-.16-.42-.33-.94-.5-1.55a14.33,14.33,0,0,1-.46,1.55l-1.26,3.32Z"/><path class="cls-5" d="M63.86,224.18a3.51,3.51,0,0,1-1.43-.29,2.74,2.74,0,0,1-1.09-.89h-.08a12.61,12.61,0,0,1,.08,1.33v3.31H60.13V216h1l.17,1.09h.05a3,3,0,0,1,1.1-.95,3.37,3.37,0,0,1,1.42-.29A3,3,0,0,1,66.33,217a5.78,5.78,0,0,1,0,6.13A3,3,0,0,1,63.86,224.18Zm-.17-7.29a2.16,2.16,0,0,0-1.78.68,3.5,3.5,0,0,0-.57,2.17V220a4,4,0,0,0,.57,2.42,2.13,2.13,0,0,0,1.81.73,1.9,1.9,0,0,0,1.63-.84,4,4,0,0,0,.59-2.32,3.9,3.9,0,0,0-.59-2.31A2,2,0,0,0,63.69,216.89Z"/><path class="cls-5" d="M73,224.18a3.51,3.51,0,0,1-1.43-.29,2.74,2.74,0,0,1-1.09-.89h-.08a12.61,12.61,0,0,1,.08,1.33v3.31H69.26V216h1l.16,1.09h.06a3,3,0,0,1,1.09-.95,3.45,3.45,0,0,1,1.43-.29A3,3,0,0,1,75.46,217a5.78,5.78,0,0,1,0,6.13A3,3,0,0,1,73,224.18Zm-.17-7.29a2.16,2.16,0,0,0-1.78.68,3.5,3.5,0,0,0-.57,2.17V220a4,4,0,0,0,.57,2.42,2.13,2.13,0,0,0,1.81.73,1.9,1.9,0,0,0,1.63-.84,4,4,0,0,0,.59-2.32,3.9,3.9,0,0,0-.59-2.31A2,2,0,0,0,72.82,216.89Z"/><path class="cls-5" d="M79.62,224H78.4V212.64h1.22Z"/><path class="cls-5" d="M82,213.83a.79.79,0,0,1,.21-.61.69.69,0,0,1,.51-.2.74.74,0,0,1,.51.2,1,1,0,0,1,0,1.22.7.7,0,0,1-.51.2.66.66,0,0,1-.51-.2A.81.81,0,0,1,82,213.83ZM83.28,224H82.06v-8h1.22Z"/><path class="cls-5" d="M89,224.18a3.45,3.45,0,0,1-2.7-1.07,4.46,4.46,0,0,1-1-3,4.53,4.53,0,0,1,1-3.11,3.49,3.49,0,0,1,2.76-1.1,5.71,5.71,0,0,1,1.16.12,3.71,3.71,0,0,1,.91.3l-.38,1a5.22,5.22,0,0,0-.87-.27,4,4,0,0,0-.85-.1c-1.63,0-2.44,1-2.44,3.12a3.79,3.79,0,0,0,.59,2.27,2.1,2.1,0,0,0,1.77.79,5.55,5.55,0,0,0,2.06-.43v1.07A4.36,4.36,0,0,1,89,224.18Z"/><path class="cls-5" d="M98,224l-.24-1.14h-.06a3.4,3.4,0,0,1-1.2,1,3.58,3.58,0,0,1-1.49.27,2.69,2.69,0,0,1-1.87-.62,2.24,2.24,0,0,1-.67-1.75q0-2.43,3.88-2.55l1.37,0v-.5a2,2,0,0,0-.41-1.39,1.67,1.67,0,0,0-1.3-.45,5.26,5.26,0,0,0-2.27.61l-.37-.93a5.58,5.58,0,0,1,1.3-.5,5.26,5.26,0,0,1,1.41-.19,3.08,3.08,0,0,1,2.13.64,2.68,2.68,0,0,1,.69,2V224Zm-2.74-.85a2.45,2.45,0,0,0,1.78-.63,2.29,2.29,0,0,0,.65-1.74v-.73l-1.22.06a4.32,4.32,0,0,0-2.09.45,1.34,1.34,0,0,0-.64,1.24,1.23,1.23,0,0,0,.4,1A1.65,1.65,0,0,0,95.24,223.18Z"/><path class="cls-5" d="M104,223.18a4.23,4.23,0,0,0,.63-.05,4.56,4.56,0,0,0,.47-.1V224a2.2,2.2,0,0,1-.58.16,4.6,4.6,0,0,1-.69.06c-1.56,0-2.33-.82-2.33-2.45V217h-1.15v-.59l1.15-.5.51-1.71h.7V216H105V217h-2.33v4.72a1.63,1.63,0,0,0,.35,1.12A1.19,1.19,0,0,0,104,223.18Z"/><path class="cls-5" d="M106.6,213.83a.83.83,0,0,1,.2-.61.73.73,0,0,1,.52-.2.72.72,0,0,1,.5.2,1,1,0,0,1,0,1.22.68.68,0,0,1-.5.2.69.69,0,0,1-.52-.2A.84.84,0,0,1,106.6,213.83Zm1.32,10.2H106.7v-8h1.22Z"/><path class="cls-5" d="M117.3,220a4.44,4.44,0,0,1-1,3.07,3.5,3.5,0,0,1-2.73,1.1,3.59,3.59,0,0,1-1.91-.51,3.26,3.26,0,0,1-1.29-1.45,5.07,5.07,0,0,1-.45-2.21,4.4,4.4,0,0,1,1-3.06,3.45,3.45,0,0,1,2.72-1.09,3.39,3.39,0,0,1,2.68,1.12A4.42,4.42,0,0,1,117.3,220Zm-6.11,0a3.83,3.83,0,0,0,.61,2.35,2.45,2.45,0,0,0,3.62,0A3.81,3.81,0,0,0,116,220a3.73,3.73,0,0,0-.62-2.32,2.17,2.17,0,0,0-1.82-.8,2.14,2.14,0,0,0-1.81.79A3.79,3.79,0,0,0,111.19,220Z"/><path class="cls-5" d="M124.85,224v-5.19a2.12,2.12,0,0,0-.44-1.46,1.81,1.81,0,0,0-1.4-.49,2.33,2.33,0,0,0-1.85.68,3.47,3.47,0,0,0-.58,2.25V224h-1.22v-8h1l.2,1.09h0a2.46,2.46,0,0,1,1.05-.91,3.37,3.37,0,0,1,1.5-.33,3,3,0,0,1,2.19.7,3,3,0,0,1,.73,2.24V224Z"/><path class="cls-5" d="M138,224v-5.19a2.08,2.08,0,0,0-.45-1.46,1.81,1.81,0,0,0-1.4-.49,2.3,2.3,0,0,0-1.85.69,3.48,3.48,0,0,0-.58,2.26V224h-1.22V212.64h1.22v3.45a7.32,7.32,0,0,1-.06,1h.07a2.44,2.44,0,0,1,1-.91,3.4,3.4,0,0,1,1.52-.34,3.15,3.15,0,0,1,2.21.7,3,3,0,0,1,.73,2.23V224Z"/><path class="cls-5" d="M146.49,224l-.24-1.14h-.06a3.4,3.4,0,0,1-1.2,1,3.58,3.58,0,0,1-1.49.27,2.69,2.69,0,0,1-1.87-.62,2.25,2.25,0,0,1-.68-1.75q0-2.43,3.89-2.55l1.37,0v-.5a2,2,0,0,0-.41-1.39,1.68,1.68,0,0,0-1.3-.45,5.26,5.26,0,0,0-2.27.61l-.38-.93a5.84,5.84,0,0,1,1.31-.5,5.26,5.26,0,0,1,1.41-.19,3.08,3.08,0,0,1,2.13.64,2.68,2.68,0,0,1,.69,2V224Zm-2.75-.85a2.46,2.46,0,0,0,1.79-.63,2.29,2.29,0,0,0,.65-1.74v-.73l-1.22.06a4.32,4.32,0,0,0-2.09.45,1.34,1.34,0,0,0-.64,1.24,1.23,1.23,0,0,0,.4,1A1.64,1.64,0,0,0,143.74,223.18Z"/><path class="cls-5" d="M155,221.84a2,2,0,0,1-.83,1.73,3.91,3.91,0,0,1-2.35.61,5.08,5.08,0,0,1-2.49-.51v-1.12a6.19,6.19,0,0,0,1.25.46,5.23,5.23,0,0,0,1.27.17,2.82,2.82,0,0,0,1.47-.31,1,1,0,0,0,.1-1.73,6.27,6.27,0,0,0-1.58-.78,8.91,8.91,0,0,1-1.59-.73,2.28,2.28,0,0,1-.71-.71,1.87,1.87,0,0,1-.23-.94,1.8,1.8,0,0,1,.8-1.55,3.7,3.7,0,0,1,2.19-.57,6.41,6.41,0,0,1,2.53.53l-.43,1a5.63,5.63,0,0,0-2.19-.5,2.52,2.52,0,0,0-1.3.27.85.85,0,0,0-.44.75.89.89,0,0,0,.16.54,1.56,1.56,0,0,0,.54.44,13.27,13.27,0,0,0,1.4.59,5.3,5.3,0,0,1,1.93,1.05A1.81,1.81,0,0,1,155,221.84Z"/><path class="cls-5" d="M163.44,223.18a4.21,4.21,0,0,0,.62-.05,4.84,4.84,0,0,0,.48-.1V224a2.32,2.32,0,0,1-.58.16,4.62,4.62,0,0,1-.7.06c-1.55,0-2.32-.82-2.32-2.45V217h-1.15v-.59l1.15-.5.51-1.71h.7V216h2.33V217h-2.33v4.72a1.63,1.63,0,0,0,.35,1.12A1.17,1.17,0,0,0,163.44,223.18Z"/><path class="cls-5" d="M172.92,220a4.44,4.44,0,0,1-1,3.07,3.5,3.5,0,0,1-2.73,1.1,3.57,3.57,0,0,1-1.91-.51,3.26,3.26,0,0,1-1.29-1.45,4.93,4.93,0,0,1-.46-2.21,4.45,4.45,0,0,1,1-3.06,3.49,3.49,0,0,1,2.73-1.09,3.41,3.41,0,0,1,2.68,1.12A4.42,4.42,0,0,1,172.92,220Zm-6.12,0a3.83,3.83,0,0,0,.62,2.35,2.45,2.45,0,0,0,3.62,0,3.81,3.81,0,0,0,.62-2.35,3.73,3.73,0,0,0-.62-2.32,2.17,2.17,0,0,0-1.83-.8,2.13,2.13,0,0,0-1.8.79A3.79,3.79,0,0,0,166.8,220Z"/><path class="cls-5" d="M182.68,215.87a3,3,0,0,1,2.46,1.08,5.81,5.81,0,0,1,0,6.13,3,3,0,0,1-2.45,1.1,3.51,3.51,0,0,1-1.43-.29,2.74,2.74,0,0,1-1.09-.89h-.09l-.25,1H179V212.64h1.21v2.77c0,.62,0,1.17-.06,1.67h.06A2.88,2.88,0,0,1,182.68,215.87Zm-.17,1a2.13,2.13,0,0,0-1.8.72,4,4,0,0,0-.55,2.4,4,4,0,0,0,.57,2.42,2.13,2.13,0,0,0,1.81.73,1.88,1.88,0,0,0,1.67-.82,4.22,4.22,0,0,0,.54-2.34,4.08,4.08,0,0,0-.54-2.34A2,2,0,0,0,182.51,216.89Z"/><path class="cls-5" d="M191.52,224.18a3.71,3.71,0,0,1-2.81-1.08,4.25,4.25,0,0,1-1-3,4.63,4.63,0,0,1,1-3.08,3.18,3.18,0,0,1,2.57-1.14,3,3,0,0,1,2.38,1,3.79,3.79,0,0,1,.88,2.62v.77h-5.53a3.19,3.19,0,0,0,.72,2.14,2.47,2.47,0,0,0,1.91.74,6.5,6.5,0,0,0,2.56-.54v1.08a5.82,5.82,0,0,1-2.61.52Zm-.33-7.3a2,2,0,0,0-1.54.63,2.93,2.93,0,0,0-.68,1.74h4.2a2.68,2.68,0,0,0-.51-1.76A1.8,1.8,0,0,0,191.19,216.88Z"/><path class="cls-5" d="M203.65,224.18a3.45,3.45,0,0,1-2.7-1.07,4.41,4.41,0,0,1-.95-3,4.53,4.53,0,0,1,1-3.11,3.49,3.49,0,0,1,2.76-1.1,5.71,5.71,0,0,1,1.16.12,3.86,3.86,0,0,1,.91.3l-.38,1a5.34,5.34,0,0,0-.88-.27,3.82,3.82,0,0,0-.84-.1c-1.63,0-2.44,1-2.44,3.12a3.72,3.72,0,0,0,.59,2.27,2.1,2.1,0,0,0,1.77.79,5.55,5.55,0,0,0,2.06-.43v1.07A4.36,4.36,0,0,1,203.65,224.18Z"/><path class="cls-5" d="M214.31,220a4.44,4.44,0,0,1-1,3.07,3.5,3.5,0,0,1-2.73,1.1,3.63,3.63,0,0,1-1.92-.51,3.3,3.3,0,0,1-1.28-1.45,4.93,4.93,0,0,1-.46-2.21,4.45,4.45,0,0,1,1-3.06,3.49,3.49,0,0,1,2.73-1.09,3.37,3.37,0,0,1,2.67,1.12A4.38,4.38,0,0,1,214.31,220Zm-6.12,0a3.83,3.83,0,0,0,.62,2.35,2.45,2.45,0,0,0,3.62,0,3.81,3.81,0,0,0,.62-2.35,3.73,3.73,0,0,0-.62-2.32,2.17,2.17,0,0,0-1.83-.8,2.12,2.12,0,0,0-1.8.79A3.72,3.72,0,0,0,208.19,220Z"/><path class="cls-5" d="M221.86,224v-5.19a2.08,2.08,0,0,0-.45-1.46,1.79,1.79,0,0,0-1.4-.49,2.31,2.31,0,0,0-1.84.68,3.47,3.47,0,0,0-.59,2.25V224h-1.22v-8h1l.2,1.09h.06a2.46,2.46,0,0,1,1-.91,3.37,3.37,0,0,1,1.5-.33,3,3,0,0,1,2.18.7,3,3,0,0,1,.73,2.24V224Z"/><path class="cls-5" d="M229.19,217h-2V224h-1.22V217h-1.44v-.55l1.44-.44v-.45c0-2,.86-2.95,2.59-2.95a5.31,5.31,0,0,1,1.49.25l-.32,1a3.69,3.69,0,0,0-1.2-.23,1.14,1.14,0,0,0-1,.46,2.53,2.53,0,0,0-.33,1.47V216h2Zm1.36-3.12a.79.79,0,0,1,.21-.61.69.69,0,0,1,.51-.2.72.72,0,0,1,.5.2,1,1,0,0,1,0,1.22.68.68,0,0,1-.5.2.66.66,0,0,1-.51-.2A.81.81,0,0,1,230.55,213.83Zm1.32,10.2h-1.22v-8h1.22Z"/><path class="cls-5" d="M240.93,216v.76l-1.48.18a2.46,2.46,0,0,1,.36.67,2.52,2.52,0,0,1,.16.93,2.37,2.37,0,0,1-.8,1.89,3.26,3.26,0,0,1-2.21.7,3.66,3.66,0,0,1-.68-.06,1.2,1.2,0,0,0-.77,1,.52.52,0,0,0,.27.49,1.91,1.91,0,0,0,.93.16h1.42a3.13,3.13,0,0,1,2,.55,1.89,1.89,0,0,1,.7,1.59,2.28,2.28,0,0,1-1.07,2,5.77,5.77,0,0,1-3.12.7,4.28,4.28,0,0,1-2.43-.59,1.9,1.9,0,0,1-.85-1.65,1.86,1.86,0,0,1,.47-1.27,2.37,2.37,0,0,1,1.32-.73,1.2,1.2,0,0,1-.52-.43,1.12,1.12,0,0,1-.21-.68,1.28,1.28,0,0,1,.24-.77,2.42,2.42,0,0,1,.74-.64,2.14,2.14,0,0,1-1-.87,2.57,2.57,0,0,1-.39-1.4,2.61,2.61,0,0,1,.79-2,3.27,3.27,0,0,1,2.24-.71,4,4,0,0,1,1.14.15Zm-6.4,9.37a1.1,1.1,0,0,0,.55,1,3.09,3.09,0,0,0,1.58.34,4.42,4.42,0,0,0,2.26-.46,1.41,1.41,0,0,0,.74-1.24,1,1,0,0,0-.4-.91,3.15,3.15,0,0,0-1.52-.25h-1.46a1.9,1.9,0,0,0-1.29.4A1.42,1.42,0,0,0,234.53,225.38Zm.66-6.8a1.62,1.62,0,0,0,.48,1.27,1.89,1.89,0,0,0,1.32.43,1.55,1.55,0,0,0,1.78-1.73,1.59,1.59,0,0,0-1.8-1.8,1.78,1.78,0,0,0-1.32.46A1.87,1.87,0,0,0,235.19,218.58Z"/><path class="cls-5" d="M243.77,216v5.2a2.13,2.13,0,0,0,.44,1.47,1.84,1.84,0,0,0,1.4.48,2.3,2.3,0,0,0,1.85-.69,3.53,3.53,0,0,0,.58-2.25V216h1.21v8h-1l-.18-1.07H248a2.47,2.47,0,0,1-1,.9,3.46,3.46,0,0,1-1.51.32,3,3,0,0,1-2.19-.7,2.92,2.92,0,0,1-.73-2.22V216Z"/><path class="cls-5" d="M255.37,215.86a4.75,4.75,0,0,1,1,.09l-.17,1.13a3.83,3.83,0,0,0-.88-.12,2.14,2.14,0,0,0-1.67.8,2.87,2.87,0,0,0-.69,2V224H251.7v-8h1l.14,1.48h.06a3.52,3.52,0,0,1,1.07-1.21A2.45,2.45,0,0,1,255.37,215.86Z"/><path class="cls-5" d="M261.07,224.18a3.7,3.7,0,0,1-2.81-1.08,4.25,4.25,0,0,1-1-3,4.63,4.63,0,0,1,1-3.08,3.18,3.18,0,0,1,2.57-1.14,3,3,0,0,1,2.38,1,3.79,3.79,0,0,1,.88,2.62v.77h-5.53a3.14,3.14,0,0,0,.72,2.14,2.45,2.45,0,0,0,1.9.74,6.52,6.52,0,0,0,2.57-.54v1.08a5.82,5.82,0,0,1-2.61.52Zm-.33-7.3a2,2,0,0,0-1.54.63,2.93,2.93,0,0,0-.68,1.74h4.2a2.68,2.68,0,0,0-.51-1.76A1.81,1.81,0,0,0,260.74,216.88Z"/><path class="cls-5" d="M271.57,223h-.07a2.86,2.86,0,0,1-2.51,1.22,3,3,0,0,1-2.45-1.08,4.71,4.71,0,0,1-.88-3.06,4.79,4.79,0,0,1,.88-3.08,3,3,0,0,1,2.45-1.1,2.9,2.9,0,0,1,2.5,1.19h.1l-.06-.58,0-.57v-3.26h1.22V224h-1Zm-2.43.2a2.17,2.17,0,0,0,1.8-.68,3.37,3.37,0,0,0,.56-2.18V220a4,4,0,0,0-.56-2.43,2.16,2.16,0,0,0-1.82-.73,1.84,1.84,0,0,0-1.63.83,4.1,4.1,0,0,0-.57,2.35,4,4,0,0,0,.56,2.32A1.92,1.92,0,0,0,269.14,223.16Z"/><path class="cls-5" d="M53,243.18a4.21,4.21,0,0,0,.62-.05,4,4,0,0,0,.47-.1V244a2.2,2.2,0,0,1-.58.16,4.49,4.49,0,0,1-.69.06c-1.55,0-2.33-.82-2.33-2.45V237H49.35v-.59l1.15-.5.51-1.71h.71V236h2.33V237H51.72v4.72a1.63,1.63,0,0,0,.34,1.12A1.19,1.19,0,0,0,53,243.18Z"/><path class="cls-5" d="M62.48,240a4.49,4.49,0,0,1-1,3.07,3.5,3.5,0,0,1-2.74,1.1,3.62,3.62,0,0,1-1.91-.51,3.32,3.32,0,0,1-1.29-1.45,5.07,5.07,0,0,1-.45-2.21,4.45,4.45,0,0,1,1-3.06,3.45,3.45,0,0,1,2.72-1.09A3.38,3.38,0,0,1,61.49,237,4.42,4.42,0,0,1,62.48,240Zm-6.11,0a3.83,3.83,0,0,0,.61,2.35,2.45,2.45,0,0,0,3.62,0,3.74,3.74,0,0,0,.62-2.35,3.67,3.67,0,0,0-.62-2.32,2.17,2.17,0,0,0-1.82-.8,2.11,2.11,0,0,0-1.8.79A3.72,3.72,0,0,0,56.37,240Z"/><path class="cls-5" d="M73.69,241.84a2,2,0,0,1-.84,1.73,3.86,3.86,0,0,1-2.34.61,5.08,5.08,0,0,1-2.49-.51v-1.12a6.33,6.33,0,0,0,1.24.46,5.3,5.3,0,0,0,1.28.17,2.85,2.85,0,0,0,1.47-.31,1,1,0,0,0,.51-.92,1,1,0,0,0-.41-.81,6.46,6.46,0,0,0-1.58-.78,9.45,9.45,0,0,1-1.6-.73,2.24,2.24,0,0,1-.7-.71A1.87,1.87,0,0,1,68,238a1.8,1.8,0,0,1,.8-1.55,3.7,3.7,0,0,1,2.19-.57,6.41,6.41,0,0,1,2.53.53l-.43,1a5.71,5.71,0,0,0-2.19-.5,2.5,2.5,0,0,0-1.3.27.83.83,0,0,0-.44.75.89.89,0,0,0,.16.54,1.61,1.61,0,0,0,.53.44,13.74,13.74,0,0,0,1.41.59,5.39,5.39,0,0,1,1.93,1.05A1.85,1.85,0,0,1,73.69,241.84Z"/><path class="cls-5" d="M78.88,244.18a3.42,3.42,0,0,1-2.7-1.07,4.42,4.42,0,0,1-1-3,4.53,4.53,0,0,1,1-3.11,3.51,3.51,0,0,1,2.77-1.1,5.62,5.62,0,0,1,1.15.12,3.71,3.71,0,0,1,.91.3l-.37,1a5.34,5.34,0,0,0-.88-.27,4,4,0,0,0-.84-.1c-1.63,0-2.45,1-2.45,3.12a3.72,3.72,0,0,0,.6,2.27,2.09,2.09,0,0,0,1.77.79,5.5,5.5,0,0,0,2.05-.43v1.07A4.32,4.32,0,0,1,78.88,244.18Z"/><path class="cls-5" d="M87.89,244l-.25-1.14h0a3.4,3.4,0,0,1-1.2,1,3.64,3.64,0,0,1-1.49.27,2.67,2.67,0,0,1-1.87-.62,2.21,2.21,0,0,1-.68-1.75q0-2.43,3.89-2.55l1.36,0v-.5a2,2,0,0,0-.41-1.39,1.67,1.67,0,0,0-1.3-.45,5.3,5.3,0,0,0-2.27.61l-.37-.93a5.94,5.94,0,0,1,1.3-.5,5.28,5.28,0,0,1,1.42-.19,3.07,3.07,0,0,1,2.12.64,2.64,2.64,0,0,1,.7,2V244Zm-2.75-.85a2.43,2.43,0,0,0,1.78-.63,2.29,2.29,0,0,0,.65-1.74v-.73l-1.22.06a4.35,4.35,0,0,0-2.09.45,1.36,1.36,0,0,0-.64,1.24,1.27,1.27,0,0,0,.4,1A1.67,1.67,0,0,0,85.14,243.18Z"/><path class="cls-5" d="M92.41,244H91.2V232.64h1.21Z"/><path class="cls-5" d="M98.32,244.18a3.68,3.68,0,0,1-2.81-1.08,4.21,4.21,0,0,1-1-3,4.69,4.69,0,0,1,1-3.08A3.19,3.19,0,0,1,98,235.86a3,3,0,0,1,2.39,1,3.79,3.79,0,0,1,.88,2.62v.77H95.74a3.14,3.14,0,0,0,.71,2.14,2.47,2.47,0,0,0,1.91.74,6.47,6.47,0,0,0,2.56-.54v1.08a6.66,6.66,0,0,1-1.22.4A6.81,6.81,0,0,1,98.32,244.18Zm-.33-7.3a2,2,0,0,0-1.55.63,2.93,2.93,0,0,0-.67,1.74H100a2.68,2.68,0,0,0-.51-1.76A1.79,1.79,0,0,0,98,236.88Z"/><path class="cls-5" d="M112.17,244l-.24-1.14h-.06a3.47,3.47,0,0,1-1.19,1,3.64,3.64,0,0,1-1.49.27,2.71,2.71,0,0,1-1.88-.62,2.24,2.24,0,0,1-.67-1.75c0-1.62,1.29-2.47,3.89-2.55l1.36,0v-.5a2,2,0,0,0-.41-1.39,1.67,1.67,0,0,0-1.3-.45,5.3,5.3,0,0,0-2.27.61l-.37-.93a5.76,5.76,0,0,1,1.3-.5,5.26,5.26,0,0,1,1.41-.19,3.08,3.08,0,0,1,2.13.64,2.68,2.68,0,0,1,.69,2V244Zm-2.74-.85a2.45,2.45,0,0,0,1.78-.63,2.29,2.29,0,0,0,.65-1.74v-.73l-1.22.06a4.35,4.35,0,0,0-2.09.45,1.34,1.34,0,0,0-.64,1.24,1.23,1.23,0,0,0,.4,1A1.67,1.67,0,0,0,109.43,243.18Z"/><path class="cls-5" d="M116.64,236v5.2a2.13,2.13,0,0,0,.44,1.47,1.84,1.84,0,0,0,1.4.48,2.3,2.3,0,0,0,1.85-.69,3.53,3.53,0,0,0,.58-2.25V236h1.21v8h-1l-.18-1.07h-.06a2.47,2.47,0,0,1-1,.9,3.46,3.46,0,0,1-1.51.32,3,3,0,0,1-2.19-.7,2.92,2.92,0,0,1-.73-2.22V236Z"/><path class="cls-5" d="M127.36,243.18a4.1,4.1,0,0,0,.62-.05,4.29,4.29,0,0,0,.48-.1V244a2.32,2.32,0,0,1-.58.16,4.6,4.6,0,0,1-.69.06c-1.56,0-2.33-.82-2.33-2.45V237h-1.15v-.59l1.15-.5.51-1.71h.7V236h2.33V237h-2.33v4.72a1.63,1.63,0,0,0,.35,1.12A1.19,1.19,0,0,0,127.36,243.18Z"/><path class="cls-5" d="M136.84,240a4.44,4.44,0,0,1-1,3.07,3.5,3.5,0,0,1-2.73,1.1,3.59,3.59,0,0,1-1.91-.51,3.26,3.26,0,0,1-1.29-1.45,5.07,5.07,0,0,1-.45-2.21,4.4,4.4,0,0,1,1-3.06,3.45,3.45,0,0,1,2.72-1.09,3.39,3.39,0,0,1,2.68,1.12A4.42,4.42,0,0,1,136.84,240Zm-6.11,0a3.83,3.83,0,0,0,.61,2.35,2.45,2.45,0,0,0,3.62,0,3.81,3.81,0,0,0,.62-2.35,3.73,3.73,0,0,0-.62-2.32,2.17,2.17,0,0,0-1.83-.8,2.13,2.13,0,0,0-1.8.79A3.79,3.79,0,0,0,130.73,240Z"/><path class="cls-5" d="M149.13,244v-5.22a2.19,2.19,0,0,0-.41-1.44,1.58,1.58,0,0,0-1.27-.48,2.07,2.07,0,0,0-1.68.65,3.13,3.13,0,0,0-.54,2V244H144v-5.22a2.19,2.19,0,0,0-.41-1.44,1.59,1.59,0,0,0-1.28-.48,2,2,0,0,0-1.67.69,3.63,3.63,0,0,0-.54,2.24V244H138.9v-8h1l.19,1.09h.06a2.43,2.43,0,0,1,1-.91,3,3,0,0,1,1.41-.33,2.39,2.39,0,0,1,2.46,1.36H145a2.49,2.49,0,0,1,1-1,3.14,3.14,0,0,1,1.55-.37,2.7,2.7,0,0,1,2,.7,3.14,3.14,0,0,1,.68,2.24V244Z"/><path class="cls-5" d="M157.67,244l-.24-1.14h-.06a3.4,3.4,0,0,1-1.2,1,3.61,3.61,0,0,1-1.49.27,2.69,2.69,0,0,1-1.87-.62,2.25,2.25,0,0,1-.68-1.75q0-2.43,3.89-2.55l1.36,0v-.5a2,2,0,0,0-.4-1.39,1.68,1.68,0,0,0-1.3-.45,5.26,5.26,0,0,0-2.27.61l-.38-.93a5.94,5.94,0,0,1,1.3-.5,5.39,5.39,0,0,1,1.42-.19,3.08,3.08,0,0,1,2.13.64,2.68,2.68,0,0,1,.69,2V244Zm-2.75-.85a2.47,2.47,0,0,0,1.79-.63,2.29,2.29,0,0,0,.65-1.74v-.73l-1.22.06a4.32,4.32,0,0,0-2.09.45,1.34,1.34,0,0,0-.64,1.24,1.23,1.23,0,0,0,.4,1A1.64,1.64,0,0,0,154.92,243.18Z"/><path class="cls-5" d="M163.65,243.18a4.1,4.1,0,0,0,.62-.05,4.84,4.84,0,0,0,.48-.1V244a2.32,2.32,0,0,1-.58.16,4.6,4.6,0,0,1-.69.06c-1.56,0-2.33-.82-2.33-2.45V237H160v-.59l1.15-.5.51-1.71h.7V236h2.33V237h-2.33v4.72a1.63,1.63,0,0,0,.35,1.12A1.19,1.19,0,0,0,163.65,243.18Z"/><path class="cls-5" d="M166.29,233.83a.83.83,0,0,1,.2-.61.75.75,0,0,1,1,0,1,1,0,0,1,0,1.22.75.75,0,0,1-1,0A.84.84,0,0,1,166.29,233.83Zm1.32,10.2h-1.22v-8h1.22Z"/><path class="cls-5" d="M173.3,244.18a3.45,3.45,0,0,1-2.7-1.07,4.42,4.42,0,0,1-1-3,4.58,4.58,0,0,1,1-3.11,3.51,3.51,0,0,1,2.77-1.1,5.79,5.79,0,0,1,1.16.12,3.76,3.76,0,0,1,.9.3l-.37,1a5.34,5.34,0,0,0-.88-.27,4,4,0,0,0-.84-.1c-1.63,0-2.45,1-2.45,3.12a3.72,3.72,0,0,0,.6,2.27,2.1,2.1,0,0,0,1.77.79,5.59,5.59,0,0,0,2.06-.43v1.07A4.39,4.39,0,0,1,173.3,244.18Z"/><path class="cls-5" d="M182.31,244l-.24-1.14H182a3.4,3.4,0,0,1-1.2,1,3.61,3.61,0,0,1-1.49.27,2.67,2.67,0,0,1-1.87-.62,2.25,2.25,0,0,1-.68-1.75q0-2.43,3.89-2.55l1.36,0v-.5a2,2,0,0,0-.4-1.39,1.68,1.68,0,0,0-1.3-.45,5.26,5.26,0,0,0-2.27.61l-.38-.93a5.94,5.94,0,0,1,1.3-.5,5.33,5.33,0,0,1,1.42-.19,3.08,3.08,0,0,1,2.13.64,2.68,2.68,0,0,1,.69,2V244Zm-2.75-.85a2.47,2.47,0,0,0,1.79-.63,2.29,2.29,0,0,0,.64-1.74v-.73l-1.21.06a4.29,4.29,0,0,0-2.09.45,1.34,1.34,0,0,0-.64,1.24,1.26,1.26,0,0,0,.39,1A1.67,1.67,0,0,0,179.56,243.18Z"/><path class="cls-5" d="M186.83,244h-1.21V232.64h1.21Z"/><path class="cls-5" d="M190.5,244h-1.22V232.64h1.22Z"/><path class="cls-5" d="M192,236h1.3l1.76,4.57a16.41,16.41,0,0,1,.72,2.27h.06c.06-.25.19-.68.4-1.28s.86-2.46,2-5.56h1.31l-3.45,9.14a4.53,4.53,0,0,1-1.2,1.92,2.55,2.55,0,0,1-1.68.57,5.09,5.09,0,0,1-1.1-.13v-1a4.16,4.16,0,0,0,.9.09,1.86,1.86,0,0,0,1.79-1.41l.45-1.14Z"/><path class="cls-5" d="M440.6,174.61v-10.7h1.24v9.58h4.73v1.12Z"/><path class="cls-5" d="M451.52,174.76a3.68,3.68,0,0,1-2.81-1.08,4.2,4.2,0,0,1-1-3,4.64,4.64,0,0,1,1-3.09,3.16,3.16,0,0,1,2.56-1.14,3,3,0,0,1,2.39,1,3.79,3.79,0,0,1,.88,2.62v.77h-5.53a3.19,3.19,0,0,0,.71,2.15,2.52,2.52,0,0,0,1.91.73,6.43,6.43,0,0,0,2.56-.54v1.08a5.9,5.9,0,0,1-1.21.4A7,7,0,0,1,451.52,174.76Zm-.33-7.3a2,2,0,0,0-1.54.63,2.87,2.87,0,0,0-.68,1.74h4.2a2.62,2.62,0,0,0-.52-1.76A1.79,1.79,0,0,0,451.19,167.46Z"/><path class="cls-5" d="M461.72,172.42a2,2,0,0,1-.83,1.73,3.91,3.91,0,0,1-2.35.61,5.08,5.08,0,0,1-2.49-.51v-1.12a6.33,6.33,0,0,0,1.24.46,5.3,5.3,0,0,0,1.28.17,2.85,2.85,0,0,0,1.47-.31,1,1,0,0,0,.51-.92,1,1,0,0,0-.41-.81,6.46,6.46,0,0,0-1.58-.78,8.71,8.71,0,0,1-1.6-.73,2.15,2.15,0,0,1-.7-.71,1.87,1.87,0,0,1-.23-.94,1.8,1.8,0,0,1,.8-1.55,3.7,3.7,0,0,1,2.19-.57,6.41,6.41,0,0,1,2.53.53l-.43,1a5.71,5.71,0,0,0-2.19-.5,2.5,2.5,0,0,0-1.3.27.83.83,0,0,0-.44.75.94.94,0,0,0,.16.55,1.73,1.73,0,0,0,.53.43,14.83,14.83,0,0,0,1.41.59,5.39,5.39,0,0,1,1.93,1A1.85,1.85,0,0,1,461.72,172.42Z"/><path class="cls-5" d="M468.93,172.42a2,2,0,0,1-.83,1.73,3.9,3.9,0,0,1-2.34.61,5,5,0,0,1-2.49-.51v-1.12a5.88,5.88,0,0,0,1.24.46,5.3,5.3,0,0,0,1.28.17,2.81,2.81,0,0,0,1.46-.31,1,1,0,0,0,.51-.92,1,1,0,0,0-.4-.81,6.58,6.58,0,0,0-1.59-.78,8.24,8.24,0,0,1-1.59-.73,2.18,2.18,0,0,1-.71-.71,1.87,1.87,0,0,1-.23-.94A1.8,1.8,0,0,1,464,167a3.7,3.7,0,0,1,2.19-.57,6.46,6.46,0,0,1,2.54.53l-.44,1a5.63,5.63,0,0,0-2.19-.5,2.52,2.52,0,0,0-1.3.27.85.85,0,0,0-.44.75.94.94,0,0,0,.17.55,1.52,1.52,0,0,0,.53.43,13.27,13.27,0,0,0,1.4.59,5.21,5.21,0,0,1,1.93,1A1.81,1.81,0,0,1,468.93,172.42Z"/><path class="cls-5" d="M478,174.76a3.44,3.44,0,0,1-2.7-1.07,4.42,4.42,0,0,1-1-3,4.53,4.53,0,0,1,1-3.11,3.51,3.51,0,0,1,2.77-1.1,5.62,5.62,0,0,1,1.15.12,4.19,4.19,0,0,1,.91.3l-.37,1a5.34,5.34,0,0,0-.88-.27,4,4,0,0,0-.84-.1c-1.63,0-2.45,1-2.45,3.12a3.72,3.72,0,0,0,.6,2.27,2.1,2.1,0,0,0,1.77.79,5.5,5.5,0,0,0,2.05-.43v1.07A4.32,4.32,0,0,1,478,174.76Z"/><path class="cls-5" d="M488.67,170.59a4.44,4.44,0,0,1-1,3.07,3.5,3.5,0,0,1-2.73,1.1,3.59,3.59,0,0,1-1.91-.51,3.26,3.26,0,0,1-1.29-1.45,5.07,5.07,0,0,1-.45-2.21,4.41,4.41,0,0,1,1-3.06,3.49,3.49,0,0,1,2.72-1.09,3.38,3.38,0,0,1,2.68,1.12A4.42,4.42,0,0,1,488.67,170.59Zm-6.11,0a3.83,3.83,0,0,0,.61,2.35,2.16,2.16,0,0,0,1.81.8,2.12,2.12,0,0,0,1.81-.8,3.74,3.74,0,0,0,.62-2.35,3.67,3.67,0,0,0-.62-2.32,2.17,2.17,0,0,0-1.82-.8,2.11,2.11,0,0,0-1.8.79A3.72,3.72,0,0,0,482.56,170.59Z"/><path class="cls-5" d="M496.22,174.61v-5.19a2.07,2.07,0,0,0-.44-1.46,1.81,1.81,0,0,0-1.4-.49,2.33,2.33,0,0,0-1.85.68,3.47,3.47,0,0,0-.58,2.25v4.21h-1.22v-8h1l.2,1.1H492a2.34,2.34,0,0,1,1-.92,3.37,3.37,0,0,1,1.5-.33,3,3,0,0,1,2.19.7,3,3,0,0,1,.73,2.24v5.23Z"/><path class="cls-5" d="M502.48,173.76a4.23,4.23,0,0,0,.63,0,4.56,4.56,0,0,0,.47-.1v.93a2.2,2.2,0,0,1-.58.16,4.6,4.6,0,0,1-.69.06c-1.56,0-2.33-.82-2.33-2.45v-4.78h-1.15V167l1.15-.51.51-1.71h.7v1.86h2.33v.94h-2.33v4.73a1.62,1.62,0,0,0,.35,1.11A1.19,1.19,0,0,0,502.48,173.76Z"/><path class="cls-5" d="M508.88,166.44a4.61,4.61,0,0,1,1,.09l-.17,1.13a3.7,3.7,0,0,0-.88-.11,2.13,2.13,0,0,0-1.66.79,2.87,2.87,0,0,0-.69,2v4.3h-1.22v-8h1l.14,1.48h.06a3.65,3.65,0,0,1,1.08-1.21A2.44,2.44,0,0,1,508.88,166.44Z"/><path class="cls-5" d="M518.13,170.59a4.44,4.44,0,0,1-1,3.07,3.48,3.48,0,0,1-2.73,1.1,3.59,3.59,0,0,1-1.91-.51,3.26,3.26,0,0,1-1.29-1.45,5.07,5.07,0,0,1-.45-2.21,4.41,4.41,0,0,1,1-3.06,3.49,3.49,0,0,1,2.72-1.09,3.38,3.38,0,0,1,2.68,1.12A4.42,4.42,0,0,1,518.13,170.59Zm-6.11,0a3.83,3.83,0,0,0,.61,2.35,2.16,2.16,0,0,0,1.81.8,2.12,2.12,0,0,0,1.81-.8,3.74,3.74,0,0,0,.62-2.35,3.67,3.67,0,0,0-.62-2.32,2.17,2.17,0,0,0-1.82-.8,2.14,2.14,0,0,0-1.81.79A3.79,3.79,0,0,0,512,170.59Z"/><path class="cls-5" d="M521.42,174.61H520.2V163.22h1.22Z"/><path class="cls-5" d="M534.82,170.59a4.44,4.44,0,0,1-1,3.07,3.48,3.48,0,0,1-2.73,1.1,3.59,3.59,0,0,1-1.91-.51,3.32,3.32,0,0,1-1.29-1.45,5.07,5.07,0,0,1-.45-2.21,4.46,4.46,0,0,1,1-3.06,3.49,3.49,0,0,1,2.72-1.09,3.38,3.38,0,0,1,2.68,1.12A4.42,4.42,0,0,1,534.82,170.59Zm-6.11,0a3.83,3.83,0,0,0,.61,2.35,2.16,2.16,0,0,0,1.81.8,2.12,2.12,0,0,0,1.81-.8,3.74,3.74,0,0,0,.62-2.35,3.67,3.67,0,0,0-.62-2.32,2.17,2.17,0,0,0-1.82-.8,2.11,2.11,0,0,0-1.8.79A3.72,3.72,0,0,0,528.71,170.59Z"/><path class="cls-5" d="M538.62,174.61l-3-8h1.31l1.72,4.76a19.71,19.71,0,0,1,.69,2.17h.06c.06-.26.23-.8.51-1.61s.93-2.59,1.92-5.32h1.31l-3.05,8Z"/><path class="cls-5" d="M547.67,174.76a3.68,3.68,0,0,1-2.8-1.08,4.2,4.2,0,0,1-1-3,4.7,4.7,0,0,1,.95-3.09,3.19,3.19,0,0,1,2.57-1.14,3,3,0,0,1,2.39,1,3.84,3.84,0,0,1,.88,2.62v.77H545.1a3.19,3.19,0,0,0,.71,2.15,2.5,2.5,0,0,0,1.91.73,6.47,6.47,0,0,0,2.56-.54v1.08a6,6,0,0,1-1.22.4A6.84,6.84,0,0,1,547.67,174.76Zm-.33-7.3a2,2,0,0,0-1.54.63,2.86,2.86,0,0,0-.67,1.74h4.19a2.68,2.68,0,0,0-.51-1.76A1.8,1.8,0,0,0,547.34,167.46Z"/><path class="cls-5" d="M556.29,166.44a4.61,4.61,0,0,1,1,.09l-.16,1.13a3.83,3.83,0,0,0-.88-.11,2.13,2.13,0,0,0-1.67.79,2.87,2.87,0,0,0-.69,2v4.3h-1.22v-8h1l.14,1.48h.05a3.65,3.65,0,0,1,1.08-1.21A2.44,2.44,0,0,1,556.29,166.44Z"/><path class="cls-5" d="M445.88,193.54h-.07a2.86,2.86,0,0,1-2.52,1.22,3,3,0,0,1-2.45-1.08,4.73,4.73,0,0,1-.87-3.06,4.85,4.85,0,0,1,.87-3.08,3,3,0,0,1,2.45-1.1,2.94,2.94,0,0,1,2.51,1.19h.09l-.05-.58,0-.57v-3.26H447v11.39h-1Zm-2.43.2a2.17,2.17,0,0,0,1.8-.68,3.43,3.43,0,0,0,.56-2.18v-.26a4,4,0,0,0-.57-2.43,2.14,2.14,0,0,0-1.81-.73,1.88,1.88,0,0,0-1.64.83,4.21,4.21,0,0,0-.56,2.35,3.93,3.93,0,0,0,.56,2.32A1.92,1.92,0,0,0,443.45,193.74Z"/><path class="cls-5" d="M452.92,194.76a3.68,3.68,0,0,1-2.81-1.08,4.2,4.2,0,0,1-1-3,4.64,4.64,0,0,1,1-3.09,3.16,3.16,0,0,1,2.56-1.14,3,3,0,0,1,2.39,1,3.79,3.79,0,0,1,.88,2.62v.77h-5.53a3.19,3.19,0,0,0,.71,2.15,2.5,2.5,0,0,0,1.91.73,6.52,6.52,0,0,0,2.57-.54v1.08a6.18,6.18,0,0,1-1.22.4A7,7,0,0,1,452.92,194.76Zm-.33-7.3a2,2,0,0,0-1.54.63,2.87,2.87,0,0,0-.68,1.74h4.2a2.68,2.68,0,0,0-.52-1.76A1.79,1.79,0,0,0,452.59,187.46Z"/><path class="cls-5" d="M461.61,194.76a3.51,3.51,0,0,1-1.43-.29,2.67,2.67,0,0,1-1.09-.89H459a10.49,10.49,0,0,1,.09,1.33v3.31h-1.21V186.59h1l.16,1.1h.06a2.9,2.9,0,0,1,1.09-1,3.41,3.41,0,0,1,1.43-.29,3,3,0,0,1,2.47,1.09,4.86,4.86,0,0,1,.86,3.06,4.79,4.79,0,0,1-.88,3.08A3,3,0,0,1,461.61,194.76Zm-.17-7.29a2.16,2.16,0,0,0-1.78.68,3.5,3.5,0,0,0-.57,2.17v.27a4,4,0,0,0,.57,2.42,2.11,2.11,0,0,0,1.8.73,1.87,1.87,0,0,0,1.63-.84,4,4,0,0,0,.59-2.32,3.83,3.83,0,0,0-.59-2.31A1.93,1.93,0,0,0,461.44,187.47Z"/><path class="cls-5" d="M468.23,194.61H467V183.22h1.21Z"/><path class="cls-5" d="M477.68,190.59a4.44,4.44,0,0,1-1,3.07,3.5,3.5,0,0,1-2.73,1.1,3.63,3.63,0,0,1-1.92-.51,3.38,3.38,0,0,1-1.29-1.45,5.07,5.07,0,0,1-.45-2.21,4.46,4.46,0,0,1,1-3.06,3.51,3.51,0,0,1,2.73-1.09,3.37,3.37,0,0,1,2.67,1.12A4.43,4.43,0,0,1,477.68,190.59Zm-6.12,0a3.83,3.83,0,0,0,.61,2.35,2.46,2.46,0,0,0,3.63,0,3.81,3.81,0,0,0,.62-2.35,3.73,3.73,0,0,0-.62-2.32,2.19,2.19,0,0,0-1.83-.8,2.11,2.11,0,0,0-1.8.79A3.72,3.72,0,0,0,471.56,190.59Z"/><path class="cls-5" d="M478.41,186.59h1.3l1.76,4.57a16.41,16.41,0,0,1,.72,2.27h.06c.06-.25.19-.68.4-1.28s.86-2.46,2-5.56h1.31l-3.45,9.14a4.53,4.53,0,0,1-1.2,1.92,2.55,2.55,0,0,1-1.68.57,4.53,4.53,0,0,1-1.1-.13v-1a4.16,4.16,0,0,0,.9.09,1.86,1.86,0,0,0,1.79-1.41l.45-1.14Z"/><path class="cls-5" d="M497.65,194.61v-5.22a2.13,2.13,0,0,0-.41-1.44,1.58,1.58,0,0,0-1.27-.48,2.07,2.07,0,0,0-1.68.65,3.13,3.13,0,0,0-.54,2v4.48h-1.22v-5.22a2.13,2.13,0,0,0-.41-1.44,1.59,1.59,0,0,0-1.28-.48,2,2,0,0,0-1.67.69,3.64,3.64,0,0,0-.53,2.24v4.21h-1.22v-8h1l.2,1.1h.06a2.33,2.33,0,0,1,1-.92,2.92,2.92,0,0,1,1.4-.33,2.39,2.39,0,0,1,2.46,1.36h.06a2.49,2.49,0,0,1,1-1,3.14,3.14,0,0,1,1.55-.37,2.7,2.7,0,0,1,2,.7,3.14,3.14,0,0,1,.68,2.24v5.23Z"/><path class="cls-5" d="M504.7,194.76a3.68,3.68,0,0,1-2.8-1.08,4.2,4.2,0,0,1-1-3,4.7,4.7,0,0,1,.95-3.09,3.19,3.19,0,0,1,2.57-1.14,3,3,0,0,1,2.39,1,3.84,3.84,0,0,1,.88,2.62v.77h-5.53a3.19,3.19,0,0,0,.71,2.15,2.5,2.5,0,0,0,1.91.73,6.47,6.47,0,0,0,2.56-.54v1.08a6,6,0,0,1-1.22.4A6.84,6.84,0,0,1,504.7,194.76Zm-.32-7.3a2,2,0,0,0-1.55.63,2.86,2.86,0,0,0-.67,1.74h4.19a2.68,2.68,0,0,0-.51-1.76A1.79,1.79,0,0,0,504.38,187.46Z"/><path class="cls-5" d="M515.16,194.61v-5.19a2.08,2.08,0,0,0-.45-1.46,1.79,1.79,0,0,0-1.4-.49,2.34,2.34,0,0,0-1.85.68,3.47,3.47,0,0,0-.58,2.25v4.21h-1.22v-8h1l.2,1.1h.06a2.42,2.42,0,0,1,1-.92,3.34,3.34,0,0,1,1.5-.33,3,3,0,0,1,2.18.7,3,3,0,0,1,.73,2.24v5.23Z"/><path class="cls-5" d="M521.42,193.76a4.21,4.21,0,0,0,.62,0,4,4,0,0,0,.47-.1v.93a2.2,2.2,0,0,1-.58.16,4.39,4.39,0,0,1-.69.06c-1.55,0-2.33-.82-2.33-2.45v-4.78h-1.15V187l1.15-.51.51-1.71h.71v1.86h2.33v.94h-2.33v4.73a1.62,1.62,0,0,0,.34,1.11A1.21,1.21,0,0,0,521.42,193.76Z"/><path class="cls-5" d="M531.41,194.76a3.68,3.68,0,0,1-2.81-1.08,4.2,4.2,0,0,1-1-3,4.7,4.7,0,0,1,.95-3.09,3.19,3.19,0,0,1,2.57-1.14,3,3,0,0,1,2.39,1,3.84,3.84,0,0,1,.88,2.62v.77h-5.53a3.19,3.19,0,0,0,.71,2.15,2.5,2.5,0,0,0,1.91.73,6.47,6.47,0,0,0,2.56-.54v1.08a6,6,0,0,1-1.22.4A6.81,6.81,0,0,1,531.41,194.76Zm-.33-7.3a2,2,0,0,0-1.55.63,2.93,2.93,0,0,0-.67,1.74h4.19a2.68,2.68,0,0,0-.51-1.76A1.79,1.79,0,0,0,531.08,187.46Z"/><path class="cls-5" d="M541.86,194.61v-5.19a2.08,2.08,0,0,0-.45-1.46,1.79,1.79,0,0,0-1.4-.49,2.31,2.31,0,0,0-1.84.68,3.47,3.47,0,0,0-.59,2.25v4.21h-1.22v-8h1l.2,1.1h.06a2.42,2.42,0,0,1,1-.92,3.37,3.37,0,0,1,1.5-.33,3,3,0,0,1,2.18.7,3,3,0,0,1,.73,2.24v5.23Z"/><path class="cls-5" d="M547.25,194.61l-3-8h1.3l1.73,4.76a22.34,22.34,0,0,1,.69,2.17H548a14.11,14.11,0,0,1,.51-1.61q.42-1.23,1.92-5.32h1.3l-3,8Z"/><path class="cls-5" d="M553.09,184.41a.83.83,0,0,1,.2-.61.73.73,0,0,1,.52-.19.71.71,0,0,1,.5.19.82.82,0,0,1,.21.61.81.81,0,0,1-.21.61.68.68,0,0,1-.5.2.69.69,0,0,1-.52-.2A.84.84,0,0,1,553.09,184.41Zm1.32,10.2h-1.22v-8h1.22Z"/><path class="cls-5" d="M560.52,186.44a4.75,4.75,0,0,1,1,.09l-.17,1.13a3.77,3.77,0,0,0-.88-.11,2.13,2.13,0,0,0-1.67.79,2.87,2.87,0,0,0-.69,2v4.3h-1.22v-8h1l.14,1.48h.06a3.52,3.52,0,0,1,1.07-1.21A2.45,2.45,0,0,1,560.52,186.44Z"/><path class="cls-5" d="M569.77,190.59a4.44,4.44,0,0,1-1,3.07,3.5,3.5,0,0,1-2.73,1.1,3.63,3.63,0,0,1-1.92-.51,3.38,3.38,0,0,1-1.29-1.45,5.07,5.07,0,0,1-.45-2.21,4.46,4.46,0,0,1,1-3.06,3.51,3.51,0,0,1,2.73-1.09,3.37,3.37,0,0,1,2.67,1.12A4.38,4.38,0,0,1,569.77,190.59Zm-6.12,0a3.83,3.83,0,0,0,.62,2.35,2.45,2.45,0,0,0,3.62,0,3.81,3.81,0,0,0,.62-2.35,3.73,3.73,0,0,0-.62-2.32,2.19,2.19,0,0,0-1.83-.8,2.11,2.11,0,0,0-1.8.79A3.72,3.72,0,0,0,563.65,190.59Z"/><path class="cls-5" d="M577.32,194.61v-5.19a2.08,2.08,0,0,0-.45-1.46,1.79,1.79,0,0,0-1.4-.49,2.31,2.31,0,0,0-1.84.68,3.47,3.47,0,0,0-.59,2.25v4.21h-1.22v-8h1l.2,1.1h.06a2.42,2.42,0,0,1,1-.92,3.37,3.37,0,0,1,1.5-.33,3,3,0,0,1,2.18.7,3,3,0,0,1,.73,2.24v5.23Z"/><path class="cls-5" d="M591.17,194.61v-5.22a2.19,2.19,0,0,0-.41-1.44,1.6,1.6,0,0,0-1.28-.48,2.06,2.06,0,0,0-1.67.65,3.13,3.13,0,0,0-.55,2v4.48h-1.21v-5.22a2.19,2.19,0,0,0-.41-1.44,1.59,1.59,0,0,0-1.28-.48,2,2,0,0,0-1.68.69,3.71,3.71,0,0,0-.53,2.24v4.21h-1.21v-8h1l.2,1.1h.06a2.33,2.33,0,0,1,1-.92,3,3,0,0,1,1.4-.33A2.39,2.39,0,0,1,587,187.8h.05a2.55,2.55,0,0,1,1-1,3.21,3.21,0,0,1,1.56-.37,2.71,2.71,0,0,1,2,.7,3.14,3.14,0,0,1,.67,2.24v5.23Z"/><path class="cls-5" d="M598.22,194.76a3.7,3.7,0,0,1-2.81-1.08,4.2,4.2,0,0,1-1-3,4.64,4.64,0,0,1,1-3.09,3.18,3.18,0,0,1,2.57-1.14,3,3,0,0,1,2.38,1,3.79,3.79,0,0,1,.88,2.62v.77h-5.53a3.19,3.19,0,0,0,.72,2.15,2.48,2.48,0,0,0,1.9.73,6.52,6.52,0,0,0,2.57-.54v1.08a6.18,6.18,0,0,1-1.22.4A7,7,0,0,1,598.22,194.76Zm-.33-7.3a2,2,0,0,0-1.54.63,2.87,2.87,0,0,0-.68,1.74h4.2a2.68,2.68,0,0,0-.51-1.76A1.81,1.81,0,0,0,597.89,187.46Z"/><path class="cls-5" d="M608.67,194.61v-5.19a2.08,2.08,0,0,0-.45-1.46,1.77,1.77,0,0,0-1.39-.49,2.33,2.33,0,0,0-1.85.68,3.47,3.47,0,0,0-.59,2.25v4.21h-1.21v-8h1l.2,1.1h0a2.42,2.42,0,0,1,1.05-.92,3.37,3.37,0,0,1,1.5-.33,3,3,0,0,1,2.19.7,3,3,0,0,1,.73,2.24v5.23Z"/><path class="cls-5" d="M614.93,193.76a4.1,4.1,0,0,0,.62,0,4.84,4.84,0,0,0,.48-.1v.93a2.32,2.32,0,0,1-.58.16,4.62,4.62,0,0,1-.7.06c-1.55,0-2.32-.82-2.32-2.45v-4.78h-1.15V187l1.15-.51.51-1.71h.7v1.86H616v.94h-2.33v4.73a1.62,1.62,0,0,0,.35,1.11A1.19,1.19,0,0,0,614.93,193.76Z"/><path class="cls-5" d="M447.33,236.53l-1.34-3.4H441.7l-1.32,3.4h-1.26l4.24-10.75h1l4.22,10.75ZM445.61,232l-1.25-3.32c-.16-.42-.33-.94-.5-1.55a14.33,14.33,0,0,1-.46,1.55L442.14,232Z"/><path class="cls-5" d="M453.86,236.68a3.51,3.51,0,0,1-1.43-.29,2.74,2.74,0,0,1-1.09-.89h-.08a10.4,10.4,0,0,1,.08,1.33v3.31h-1.21V228.51h1l.17,1.09h0a3,3,0,0,1,1.1-.95,3.37,3.37,0,0,1,1.42-.29,3,3,0,0,1,2.47,1.09,5.78,5.78,0,0,1,0,6.13A3,3,0,0,1,453.86,236.68Zm-.17-7.29a2.16,2.16,0,0,0-1.78.68,3.5,3.5,0,0,0-.57,2.17v.27a4,4,0,0,0,.57,2.42,2.13,2.13,0,0,0,1.81.73,1.9,1.9,0,0,0,1.63-.84,4,4,0,0,0,.59-2.32,3.9,3.9,0,0,0-.59-2.31A2,2,0,0,0,453.69,229.39Z"/><path class="cls-5" d="M463,236.68a3.51,3.51,0,0,1-1.43-.29,2.74,2.74,0,0,1-1.09-.89h-.08a12.61,12.61,0,0,1,.08,1.33v3.31h-1.21V228.51h1l.17,1.09h.05a3,3,0,0,1,1.09-.95,3.45,3.45,0,0,1,1.43-.29,3,3,0,0,1,2.47,1.09,5.78,5.78,0,0,1,0,6.13A3,3,0,0,1,463,236.68Zm-.17-7.29a2.16,2.16,0,0,0-1.78.68,3.5,3.5,0,0,0-.57,2.17v.27a4,4,0,0,0,.57,2.42,2.13,2.13,0,0,0,1.81.73,1.9,1.9,0,0,0,1.63-.84,4,4,0,0,0,.59-2.32,3.9,3.9,0,0,0-.59-2.31A2,2,0,0,0,462.82,229.39Z"/><path class="cls-5" d="M469.62,236.53H468.4V225.14h1.22Z"/><path class="cls-5" d="M472,226.33a.79.79,0,0,1,.21-.61.69.69,0,0,1,.51-.2.74.74,0,0,1,.51.2,1,1,0,0,1,0,1.22.7.7,0,0,1-.51.2.66.66,0,0,1-.51-.2A.81.81,0,0,1,472,226.33Zm1.32,10.2h-1.22v-8h1.22Z"/><path class="cls-5" d="M479,236.68a3.45,3.45,0,0,1-2.7-1.07,4.46,4.46,0,0,1-.95-3,4.53,4.53,0,0,1,1-3.11,3.49,3.49,0,0,1,2.76-1.1,5.71,5.71,0,0,1,1.16.12,3.71,3.71,0,0,1,.91.3l-.37,1a5.66,5.66,0,0,0-.88-.27,4,4,0,0,0-.85-.1c-1.63,0-2.44,1-2.44,3.12a3.79,3.79,0,0,0,.59,2.27,2.1,2.1,0,0,0,1.77.79,5.55,5.55,0,0,0,2.06-.43v1.07A4.36,4.36,0,0,1,479,236.68Z"/><path class="cls-5" d="M488,236.53l-.24-1.14h-.06a3.4,3.4,0,0,1-1.2,1,3.58,3.58,0,0,1-1.49.27,2.69,2.69,0,0,1-1.87-.62,2.24,2.24,0,0,1-.67-1.75q0-2.43,3.88-2.55l1.37,0v-.5a2,2,0,0,0-.41-1.39,1.67,1.67,0,0,0-1.3-.45,5.26,5.26,0,0,0-2.27.61l-.37-.93a5.58,5.58,0,0,1,1.3-.5,5.26,5.26,0,0,1,1.41-.19,3.08,3.08,0,0,1,2.13.64,2.68,2.68,0,0,1,.69,2v5.48Zm-2.74-.85a2.45,2.45,0,0,0,1.78-.63,2.29,2.29,0,0,0,.65-1.74v-.73l-1.22.06a4.35,4.35,0,0,0-2.09.45,1.34,1.34,0,0,0-.64,1.24,1.23,1.23,0,0,0,.4,1A1.65,1.65,0,0,0,485.24,235.68Z"/><path class="cls-5" d="M494,235.68a4.23,4.23,0,0,0,.63-.05,4,4,0,0,0,.47-.1v.93a2.2,2.2,0,0,1-.58.16,4.6,4.6,0,0,1-.69.06c-1.55,0-2.33-.82-2.33-2.45v-4.78h-1.15v-.59l1.15-.5.51-1.71h.7v1.86H495v.94h-2.33v4.72a1.63,1.63,0,0,0,.35,1.12A1.19,1.19,0,0,0,494,235.68Z"/><path class="cls-5" d="M496.6,226.33a.83.83,0,0,1,.2-.61.73.73,0,0,1,.52-.2.72.72,0,0,1,.5.2,1,1,0,0,1,0,1.22.68.68,0,0,1-.5.2.69.69,0,0,1-.52-.2A.84.84,0,0,1,496.6,226.33Zm1.32,10.2H496.7v-8h1.22Z"/><path class="cls-5" d="M507.3,232.51a4.44,4.44,0,0,1-1,3.07,3.5,3.5,0,0,1-2.73,1.1,3.59,3.59,0,0,1-1.91-.51,3.26,3.26,0,0,1-1.29-1.45,5.07,5.07,0,0,1-.45-2.21,4.4,4.4,0,0,1,1-3.06,3.45,3.45,0,0,1,2.72-1.09,3.39,3.39,0,0,1,2.68,1.12A4.42,4.42,0,0,1,507.3,232.51Zm-6.11,0a3.83,3.83,0,0,0,.61,2.35,2.45,2.45,0,0,0,3.62,0,3.81,3.81,0,0,0,.62-2.35,3.73,3.73,0,0,0-.62-2.32,2.17,2.17,0,0,0-1.82-.8,2.14,2.14,0,0,0-1.81.79A3.79,3.79,0,0,0,501.19,232.51Z"/><path class="cls-5" d="M514.85,236.53v-5.19a2.12,2.12,0,0,0-.44-1.46,1.81,1.81,0,0,0-1.4-.49,2.33,2.33,0,0,0-1.85.68,3.47,3.47,0,0,0-.58,2.25v4.21h-1.22v-8h1l.2,1.09h.05a2.46,2.46,0,0,1,1-.91,3.37,3.37,0,0,1,1.5-.33,3,3,0,0,1,2.19.7,3,3,0,0,1,.73,2.24v5.23Z"/><path class="cls-5" d="M527.64,234.34a2,2,0,0,1-.83,1.73,3.91,3.91,0,0,1-2.35.61,5.08,5.08,0,0,1-2.49-.51v-1.12a6.33,6.33,0,0,0,1.24.46,5.37,5.37,0,0,0,1.28.17,2.85,2.85,0,0,0,1.47-.31,1,1,0,0,0,.51-.92,1,1,0,0,0-.41-.81,6.46,6.46,0,0,0-1.58-.78,9.45,9.45,0,0,1-1.6-.73,2.24,2.24,0,0,1-.7-.71,1.87,1.87,0,0,1-.23-.94,1.8,1.8,0,0,1,.8-1.55,3.7,3.7,0,0,1,2.19-.57,6.41,6.41,0,0,1,2.53.53l-.43,1a5.71,5.71,0,0,0-2.19-.5,2.5,2.5,0,0,0-1.3.27.83.83,0,0,0-.44.75.89.89,0,0,0,.16.54,1.61,1.61,0,0,0,.53.44,14.83,14.83,0,0,0,1.41.59,5.39,5.39,0,0,1,1.93,1.05A1.85,1.85,0,0,1,527.64,234.34Z"/><path class="cls-5" d="M532.83,236.68a3.42,3.42,0,0,1-2.7-1.07,4.42,4.42,0,0,1-1-3,4.58,4.58,0,0,1,1-3.11,3.51,3.51,0,0,1,2.77-1.1,5.62,5.62,0,0,1,1.15.12,3.71,3.71,0,0,1,.91.3l-.37,1a5.34,5.34,0,0,0-.88-.27,4,4,0,0,0-.84-.1c-1.63,0-2.45,1-2.45,3.12a3.72,3.72,0,0,0,.6,2.27,2.1,2.1,0,0,0,1.77.79,5.59,5.59,0,0,0,2.06-.43v1.07A4.39,4.39,0,0,1,532.83,236.68Z"/><path class="cls-5" d="M541.84,236.53l-.24-1.14h-.06a3.4,3.4,0,0,1-1.2,1,3.64,3.64,0,0,1-1.49.27,2.67,2.67,0,0,1-1.87-.62,2.25,2.25,0,0,1-.68-1.75q0-2.43,3.89-2.55l1.36,0v-.5a2,2,0,0,0-.41-1.39,1.67,1.67,0,0,0-1.3-.45,5.33,5.33,0,0,0-2.27.61l-.37-.93a5.94,5.94,0,0,1,1.3-.5,5.28,5.28,0,0,1,1.42-.19,3.1,3.1,0,0,1,2.13.64,2.68,2.68,0,0,1,.69,2v5.48Zm-2.75-.85a2.43,2.43,0,0,0,1.78-.63,2.26,2.26,0,0,0,.65-1.74v-.73l-1.21.06a4.37,4.37,0,0,0-2.1.45,1.36,1.36,0,0,0-.64,1.24,1.27,1.27,0,0,0,.4,1A1.67,1.67,0,0,0,539.09,235.68Z"/><path class="cls-5" d="M546.36,236.53h-1.21V225.14h1.21Z"/><path class="cls-5" d="M552.27,236.68a3.68,3.68,0,0,1-2.81-1.08,4.21,4.21,0,0,1-1-3,4.69,4.69,0,0,1,1-3.08,3.19,3.19,0,0,1,2.57-1.14,3,3,0,0,1,2.39,1,3.79,3.79,0,0,1,.88,2.62v.77h-5.53a3.14,3.14,0,0,0,.71,2.14,2.47,2.47,0,0,0,1.91.74,6.52,6.52,0,0,0,2.57-.54v1.08a5.82,5.82,0,0,1-2.61.52Zm-.33-7.3a2,2,0,0,0-1.54.63,2.87,2.87,0,0,0-.68,1.74h4.2a2.68,2.68,0,0,0-.52-1.76A1.79,1.79,0,0,0,551.94,229.38Z"/><path class="cls-5" d="M562.47,234.34a2,2,0,0,1-.84,1.73,3.86,3.86,0,0,1-2.34.61,5.08,5.08,0,0,1-2.49-.51v-1.12a6.33,6.33,0,0,0,1.24.46,5.3,5.3,0,0,0,1.28.17,2.85,2.85,0,0,0,1.47-.31,1,1,0,0,0,.51-.92,1,1,0,0,0-.41-.81,6.46,6.46,0,0,0-1.58-.78,9.45,9.45,0,0,1-1.6-.73,2.24,2.24,0,0,1-.7-.71,1.87,1.87,0,0,1-.23-.94,1.78,1.78,0,0,1,.8-1.55,3.7,3.7,0,0,1,2.19-.57,6.41,6.41,0,0,1,2.53.53l-.43,1a5.71,5.71,0,0,0-2.19-.5,2.5,2.5,0,0,0-1.3.27.83.83,0,0,0-.44.75.89.89,0,0,0,.16.54,1.61,1.61,0,0,0,.53.44A13.74,13.74,0,0,0,560,232,5.39,5.39,0,0,1,562,233,1.85,1.85,0,0,1,562.47,234.34Z"/><path class="cls-5" d="M573.28,236.53l-.24-1.14H573a3.4,3.4,0,0,1-1.2,1,3.61,3.61,0,0,1-1.49.27,2.69,2.69,0,0,1-1.87-.62,2.25,2.25,0,0,1-.68-1.75q0-2.43,3.89-2.55l1.37,0v-.5a2,2,0,0,0-.41-1.39,1.68,1.68,0,0,0-1.3-.45A5.26,5.26,0,0,0,569,230l-.38-.93a5.94,5.94,0,0,1,1.3-.5,5.39,5.39,0,0,1,1.42-.19,3.08,3.08,0,0,1,2.13.64,2.68,2.68,0,0,1,.69,2v5.48Zm-2.75-.85a2.47,2.47,0,0,0,1.79-.63,2.29,2.29,0,0,0,.65-1.74v-.73l-1.22.06a4.32,4.32,0,0,0-2.09.45,1.34,1.34,0,0,0-.64,1.24,1.23,1.23,0,0,0,.4,1A1.64,1.64,0,0,0,570.53,235.68Z"/><path class="cls-5" d="M577.75,228.51v5.2a2.09,2.09,0,0,0,.44,1.47,1.84,1.84,0,0,0,1.4.48,2.28,2.28,0,0,0,1.84-.69,3.47,3.47,0,0,0,.58-2.25v-4.21h1.22v8h-1l-.18-1.07H582a2.47,2.47,0,0,1-1,.9,3.49,3.49,0,0,1-1.51.32,3.06,3.06,0,0,1-2.2-.7,3,3,0,0,1-.73-2.22v-5.25Z"/><path class="cls-5" d="M588.47,235.68a4.21,4.21,0,0,0,.62-.05,4.84,4.84,0,0,0,.48-.1v.93a2.32,2.32,0,0,1-.58.16,4.62,4.62,0,0,1-.7.06c-1.55,0-2.33-.82-2.33-2.45v-4.78h-1.15v-.59l1.15-.5.52-1.71h.7v1.86h2.33v.94h-2.33v4.72a1.63,1.63,0,0,0,.34,1.12A1.21,1.21,0,0,0,588.47,235.68Z"/><path class="cls-5" d="M598,232.51a4.44,4.44,0,0,1-1,3.07,3.5,3.5,0,0,1-2.73,1.1,3.57,3.57,0,0,1-1.91-.51,3.26,3.26,0,0,1-1.29-1.45,4.93,4.93,0,0,1-.46-2.21,4.45,4.45,0,0,1,1-3.06,3.49,3.49,0,0,1,2.73-1.09,3.41,3.41,0,0,1,2.68,1.12A4.42,4.42,0,0,1,598,232.51Zm-6.12,0a3.83,3.83,0,0,0,.62,2.35,2.45,2.45,0,0,0,3.62,0,3.81,3.81,0,0,0,.62-2.35,3.73,3.73,0,0,0-.62-2.32,2.17,2.17,0,0,0-1.83-.8,2.12,2.12,0,0,0-1.8.79A3.72,3.72,0,0,0,591.83,232.51Z"/><path class="cls-5" d="M610.24,236.53v-5.22a2.19,2.19,0,0,0-.41-1.44,1.6,1.6,0,0,0-1.28-.48,2.06,2.06,0,0,0-1.67.65,3.07,3.07,0,0,0-.55,2v4.48h-1.21v-5.22a2.19,2.19,0,0,0-.41-1.44,1.6,1.6,0,0,0-1.28-.48,2,2,0,0,0-1.68.69,3.71,3.71,0,0,0-.53,2.24v4.21H600v-8h1l.2,1.09h.06a2.37,2.37,0,0,1,1-.91,3,3,0,0,1,1.4-.33,2.37,2.37,0,0,1,2.46,1.36h.06a2.55,2.55,0,0,1,1-1,3.18,3.18,0,0,1,1.56-.37,2.73,2.73,0,0,1,2,.7,3.14,3.14,0,0,1,.67,2.24v5.23Z"/><path class="cls-5" d="M618.78,236.53l-.24-1.14h-.06a3.4,3.4,0,0,1-1.2,1,3.64,3.64,0,0,1-1.49.27,2.67,2.67,0,0,1-1.87-.62,2.25,2.25,0,0,1-.68-1.75q0-2.43,3.89-2.55l1.36,0v-.5a2,2,0,0,0-.41-1.39,1.66,1.66,0,0,0-1.29-.45,5.34,5.34,0,0,0-2.28.61l-.37-.93a5.94,5.94,0,0,1,1.3-.5,5.28,5.28,0,0,1,1.42-.19A3.1,3.1,0,0,1,619,229a2.68,2.68,0,0,1,.69,2v5.48Zm-2.75-.85a2.43,2.43,0,0,0,1.78-.63,2.26,2.26,0,0,0,.65-1.74v-.73l-1.21.06a4.29,4.29,0,0,0-2.09.45,1.35,1.35,0,0,0-.65,1.24,1.27,1.27,0,0,0,.4,1A1.67,1.67,0,0,0,616,235.68Z"/><path class="cls-5" d="M624.76,235.68a4.21,4.21,0,0,0,.62-.05,4.84,4.84,0,0,0,.48-.1v.93a2.42,2.42,0,0,1-.59.16,4.39,4.39,0,0,1-.69.06c-1.55,0-2.33-.82-2.33-2.45v-4.78H621.1v-.59l1.15-.5.52-1.71h.7v1.86h2.33v.94h-2.33v4.72a1.63,1.63,0,0,0,.34,1.12A1.21,1.21,0,0,0,624.76,235.68Z"/><path class="cls-5" d="M627.39,226.33a.79.79,0,0,1,.21-.61.75.75,0,0,1,1,0,1,1,0,0,1,0,1.22.75.75,0,0,1-1,0A.81.81,0,0,1,627.39,226.33Zm1.32,10.2H627.5v-8h1.21Z"/><path class="cls-5" d="M634.4,236.68a3.42,3.42,0,0,1-2.69-1.07,4.42,4.42,0,0,1-1-3,4.53,4.53,0,0,1,1-3.11,3.51,3.51,0,0,1,2.76-1.1,5.64,5.64,0,0,1,1.16.12,3.71,3.71,0,0,1,.91.3l-.37,1a5.34,5.34,0,0,0-.88-.27,4,4,0,0,0-.84-.1c-1.64,0-2.45,1-2.45,3.12a3.72,3.72,0,0,0,.6,2.27,2.08,2.08,0,0,0,1.77.79,5.54,5.54,0,0,0,2-.43v1.07A4.34,4.34,0,0,1,634.4,236.68Z"/><path class="cls-5" d="M643.42,236.53l-.25-1.14h-.06a3.47,3.47,0,0,1-1.19,1,3.64,3.64,0,0,1-1.49.27,2.67,2.67,0,0,1-1.87-.62,2.21,2.21,0,0,1-.68-1.75c0-1.62,1.29-2.47,3.89-2.55l1.36,0v-.5a2,2,0,0,0-.41-1.39,1.67,1.67,0,0,0-1.3-.45,5.3,5.3,0,0,0-2.27.61l-.37-.93a5.76,5.76,0,0,1,1.3-.5,5.28,5.28,0,0,1,1.42-.19,3.07,3.07,0,0,1,2.12.64,2.68,2.68,0,0,1,.7,2v5.48Zm-2.75-.85a2.45,2.45,0,0,0,1.78-.63,2.29,2.29,0,0,0,.65-1.74v-.73l-1.22.06a4.35,4.35,0,0,0-2.09.45,1.36,1.36,0,0,0-.64,1.24,1.27,1.27,0,0,0,.4,1A1.67,1.67,0,0,0,640.67,235.68Z"/><path class="cls-5" d="M647.94,236.53h-1.21V225.14h1.21Z"/><path class="cls-5" d="M651.6,236.53h-1.21V225.14h1.21Z"/><path class="cls-5" d="M653.09,228.51h1.3l1.76,4.57a19.84,19.84,0,0,1,.72,2.27h0c.07-.25.2-.68.4-1.28s.87-2.46,2-5.56h1.31l-3.45,9.14a4.73,4.73,0,0,1-1.2,1.92,2.55,2.55,0,0,1-1.68.57,5.09,5.09,0,0,1-1.1-.13v-1a4.16,4.16,0,0,0,.9.09,1.87,1.87,0,0,0,1.79-1.41l.44-1.14Z"/><path class="cls-5" d="M447.33,273.45l-1.34-3.4H441.7l-1.32,3.4h-1.26l4.24-10.75h1l4.22,10.75Zm-1.72-4.52-1.25-3.32c-.16-.42-.33-.94-.5-1.55a14.33,14.33,0,0,1-.46,1.55l-1.26,3.32Z"/><path class="cls-5" d="M453.86,273.6a3.51,3.51,0,0,1-1.43-.29,2.74,2.74,0,0,1-1.09-.89h-.08a10.4,10.4,0,0,1,.08,1.33v3.31h-1.21V265.42h1l.17,1.1h0a2.89,2.89,0,0,1,1.1-.95,3.37,3.37,0,0,1,1.42-.29,3,3,0,0,1,2.47,1.09,5.78,5.78,0,0,1,0,6.13A3,3,0,0,1,453.86,273.6Zm-.17-7.29a2.16,2.16,0,0,0-1.78.68,3.5,3.5,0,0,0-.57,2.17v.27a4,4,0,0,0,.57,2.42,2.13,2.13,0,0,0,1.81.73,1.9,1.9,0,0,0,1.63-.84,4,4,0,0,0,.59-2.32,3.9,3.9,0,0,0-.59-2.31A2,2,0,0,0,453.69,266.31Z"/><path class="cls-5" d="M463,273.6a3.51,3.51,0,0,1-1.43-.29,2.74,2.74,0,0,1-1.09-.89h-.08a12.61,12.61,0,0,1,.08,1.33v3.31h-1.21V265.42h1l.17,1.1h.05a2.94,2.94,0,0,1,1.09-.95,3.45,3.45,0,0,1,1.43-.29,3,3,0,0,1,2.47,1.09,5.78,5.78,0,0,1,0,6.13A3,3,0,0,1,463,273.6Zm-.17-7.29A2.16,2.16,0,0,0,461,267a3.5,3.5,0,0,0-.57,2.17v.27a4,4,0,0,0,.57,2.42,2.13,2.13,0,0,0,1.81.73,1.9,1.9,0,0,0,1.63-.84,4,4,0,0,0,.59-2.32,3.9,3.9,0,0,0-.59-2.31A2,2,0,0,0,462.82,266.31Z"/><path class="cls-5" d="M469.62,273.45H468.4V262.06h1.22Z"/><path class="cls-5" d="M472,263.25a.79.79,0,0,1,.21-.61.69.69,0,0,1,.51-.2.74.74,0,0,1,.51.2,1,1,0,0,1,0,1.22.7.7,0,0,1-.51.2.66.66,0,0,1-.51-.2A.81.81,0,0,1,472,263.25Zm1.32,10.2h-1.22v-8h1.22Z"/><path class="cls-5" d="M479,273.6a3.45,3.45,0,0,1-2.7-1.07,4.46,4.46,0,0,1-.95-3,4.53,4.53,0,0,1,1-3.11,3.46,3.46,0,0,1,2.76-1.1,5.71,5.71,0,0,1,1.16.12,3.71,3.71,0,0,1,.91.3l-.37,1a5.66,5.66,0,0,0-.88-.27,4,4,0,0,0-.85-.11c-1.63,0-2.44,1-2.44,3.12a3.8,3.8,0,0,0,.59,2.28,2.1,2.1,0,0,0,1.77.79,5.38,5.38,0,0,0,2.06-.44v1.08A4.36,4.36,0,0,1,479,273.6Z"/><path class="cls-5" d="M488,273.45l-.24-1.14h-.06a3.4,3.4,0,0,1-1.2,1,3.58,3.58,0,0,1-1.49.27,2.69,2.69,0,0,1-1.87-.62,2.24,2.24,0,0,1-.67-1.75q0-2.43,3.88-2.55l1.37,0v-.5a2,2,0,0,0-.41-1.39,1.67,1.67,0,0,0-1.3-.45,5.26,5.26,0,0,0-2.27.61l-.37-.93a5.58,5.58,0,0,1,1.3-.5,5.26,5.26,0,0,1,1.41-.19,3,3,0,0,1,2.13.64,2.66,2.66,0,0,1,.69,2v5.48Zm-2.74-.86A2.44,2.44,0,0,0,487,272a2.29,2.29,0,0,0,.65-1.74v-.73l-1.22.06a4.35,4.35,0,0,0-2.09.45,1.34,1.34,0,0,0-.64,1.24,1.23,1.23,0,0,0,.4,1A1.65,1.65,0,0,0,485.24,272.59Z"/><path class="cls-5" d="M494,272.59a4.26,4.26,0,0,0,.63,0,4,4,0,0,0,.47-.1v.93a2.67,2.67,0,0,1-.58.16,4.6,4.6,0,0,1-.69.06c-1.55,0-2.33-.82-2.33-2.46v-4.77h-1.15v-.59l1.15-.5.51-1.72h.7v1.86H495v.95h-2.33v4.72a1.63,1.63,0,0,0,.35,1.12A1.18,1.18,0,0,0,494,272.59Z"/><path class="cls-5" d="M496.6,263.25a.83.83,0,0,1,.2-.61.73.73,0,0,1,.52-.2.72.72,0,0,1,.5.2,1,1,0,0,1,0,1.22.68.68,0,0,1-.5.2.69.69,0,0,1-.52-.2A.84.84,0,0,1,496.6,263.25Zm1.32,10.2H496.7v-8h1.22Z"/><path class="cls-5" d="M507.3,269.43a4.44,4.44,0,0,1-1,3.07,3.5,3.5,0,0,1-2.73,1.1,3.59,3.59,0,0,1-1.91-.51,3.26,3.26,0,0,1-1.29-1.45,5.07,5.07,0,0,1-.45-2.21,4.4,4.4,0,0,1,1-3.06,3.45,3.45,0,0,1,2.72-1.09,3.39,3.39,0,0,1,2.68,1.12A4.42,4.42,0,0,1,507.3,269.43Zm-6.11,0a3.78,3.78,0,0,0,.61,2.34,2.44,2.44,0,0,0,3.62,0,3.83,3.83,0,0,0,.62-2.35,3.73,3.73,0,0,0-.62-2.32,2.48,2.48,0,0,0-3.63,0A3.85,3.85,0,0,0,501.19,269.43Z"/><path class="cls-5" d="M514.85,273.45v-5.19a2.15,2.15,0,0,0-.44-1.47,1.84,1.84,0,0,0-1.4-.48,2.33,2.33,0,0,0-1.85.68,3.47,3.47,0,0,0-.58,2.25v4.21h-1.22v-8h1l.2,1.1h.05a2.55,2.55,0,0,1,1-.92,3.51,3.51,0,0,1,1.5-.32,3,3,0,0,1,2.19.7,3,3,0,0,1,.73,2.23v5.24Z"/><path class="cls-5" d="M525.67,273.6a3.45,3.45,0,0,1-2.7-1.07,4.41,4.41,0,0,1-1-3,4.53,4.53,0,0,1,1-3.11,3.44,3.44,0,0,1,2.76-1.1,5.71,5.71,0,0,1,1.16.12,3.86,3.86,0,0,1,.91.3l-.38,1a5.34,5.34,0,0,0-.88-.27,3.88,3.88,0,0,0-.84-.11c-1.63,0-2.44,1-2.44,3.12a3.73,3.73,0,0,0,.59,2.28,2.1,2.1,0,0,0,1.77.79,5.38,5.38,0,0,0,2.06-.44v1.08A4.36,4.36,0,0,1,525.67,273.6Z"/><path class="cls-5" d="M536.33,269.43a4.44,4.44,0,0,1-1,3.07,3.5,3.5,0,0,1-2.73,1.1,3.63,3.63,0,0,1-1.92-.51,3.3,3.3,0,0,1-1.28-1.45,4.93,4.93,0,0,1-.46-2.21,4.45,4.45,0,0,1,1-3.06,3.49,3.49,0,0,1,2.73-1.09,3.37,3.37,0,0,1,2.67,1.12A4.38,4.38,0,0,1,536.33,269.43Zm-6.12,0a3.77,3.77,0,0,0,.62,2.34,2.13,2.13,0,0,0,1.81.81,2.16,2.16,0,0,0,1.81-.8,3.83,3.83,0,0,0,.62-2.35,3.73,3.73,0,0,0-.62-2.32,2.17,2.17,0,0,0-1.83-.8,2.14,2.14,0,0,0-1.8.78A3.78,3.78,0,0,0,530.21,269.43Z"/><path class="cls-5" d="M543.9,272.38h-.06a2.86,2.86,0,0,1-2.52,1.22,3,3,0,0,1-2.45-1.08,4.77,4.77,0,0,1-.88-3.06,4.85,4.85,0,0,1,.88-3.08,2.94,2.94,0,0,1,2.45-1.1,2.91,2.91,0,0,1,2.5,1.18h.1l0-.57,0-.57v-3.26h1.21v11.39h-1Zm-2.43.2a2.24,2.24,0,0,0,1.81-.68,3.43,3.43,0,0,0,.56-2.18v-.26a4,4,0,0,0-.57-2.43,2.14,2.14,0,0,0-1.81-.73,1.86,1.86,0,0,0-1.64.83,4.09,4.09,0,0,0-.57,2.34,4,4,0,0,0,.57,2.33A1.91,1.91,0,0,0,541.47,272.58Z"/><path class="cls-5" d="M551,273.6a3.65,3.65,0,0,1-2.81-1.09,4.17,4.17,0,0,1-1-3,4.69,4.69,0,0,1,.95-3.08,3.19,3.19,0,0,1,2.57-1.14,3,3,0,0,1,2.39,1,3.82,3.82,0,0,1,.88,2.62v.77h-5.53a3.14,3.14,0,0,0,.71,2.14,2.47,2.47,0,0,0,1.91.74,6.31,6.31,0,0,0,2.56-.55v1.09a6.66,6.66,0,0,1-1.22.4A6.81,6.81,0,0,1,551,273.6Zm-.33-7.3a2,2,0,0,0-1.55.63,2.86,2.86,0,0,0-.67,1.74h4.19a2.68,2.68,0,0,0-.51-1.76A1.79,1.79,0,0,0,550.62,266.3Z"/><path class="cls-5" d="M566.79,269.43a4.49,4.49,0,0,1-1,3.07,3.5,3.5,0,0,1-2.74,1.1,3.62,3.62,0,0,1-1.91-.51,3.38,3.38,0,0,1-1.29-1.45,5.07,5.07,0,0,1-.45-2.21,4.45,4.45,0,0,1,1-3.06,3.45,3.45,0,0,1,2.72-1.09,3.38,3.38,0,0,1,2.68,1.12A4.42,4.42,0,0,1,566.79,269.43Zm-6.11,0a3.78,3.78,0,0,0,.61,2.34,2.14,2.14,0,0,0,1.81.81,2.18,2.18,0,0,0,1.82-.8,3.83,3.83,0,0,0,.62-2.35,3.73,3.73,0,0,0-.62-2.32,2.2,2.2,0,0,0-1.83-.8,2.13,2.13,0,0,0-1.8.78A3.78,3.78,0,0,0,560.68,269.43Z"/><path class="cls-5" d="M574.35,273.45v-5.19a2.1,2.1,0,0,0-.45-1.47,1.84,1.84,0,0,0-1.4-.48,2.33,2.33,0,0,0-1.85.68,3.47,3.47,0,0,0-.58,2.25v4.21h-1.22v-8h1l.2,1.1h.06a2.55,2.55,0,0,1,1-.92,3.44,3.44,0,0,1,1.5-.32,3,3,0,0,1,2.18.7,3,3,0,0,1,.73,2.23v5.24Z"/><path class="cls-5" d="M579.18,273.45H578V262.06h1.21Z"/><path class="cls-5" d="M580.67,265.42H582l1.76,4.58a19.84,19.84,0,0,1,.72,2.27h0c.07-.25.2-.68.4-1.28s.87-2.46,2-5.57h1.31l-3.45,9.15a4.73,4.73,0,0,1-1.2,1.92,2.55,2.55,0,0,1-1.68.57,5.09,5.09,0,0,1-1.1-.13v-1a4.19,4.19,0,0,0,.9.08,1.86,1.86,0,0,0,1.79-1.4l.44-1.14Z"/><path class="cls-5" d="M596.79,273.6a3.65,3.65,0,0,1-2.81-1.09,4.17,4.17,0,0,1-1-3,4.69,4.69,0,0,1,.95-3.08,3.19,3.19,0,0,1,2.57-1.14,3,3,0,0,1,2.39,1,3.78,3.78,0,0,1,.88,2.62v.77h-5.53a3.14,3.14,0,0,0,.71,2.14,2.47,2.47,0,0,0,1.91.74,6.31,6.31,0,0,0,2.56-.55v1.09a6.66,6.66,0,0,1-1.22.4A6.81,6.81,0,0,1,596.79,273.6Zm-.33-7.3a2,2,0,0,0-1.54.63,2.87,2.87,0,0,0-.68,1.74h4.19a2.68,2.68,0,0,0-.51-1.76A1.79,1.79,0,0,0,596.46,266.3Z"/><path class="cls-5" d="M603.81,269.34,601,265.42h1.38l2.12,3.08,2.11-3.08H608l-2.79,3.92,2.93,4.11h-1.37l-2.25-3.25-2.27,3.25h-1.38Z"/><path class="cls-5" d="M612.74,273.6a3.65,3.65,0,0,1-2.81-1.09,4.17,4.17,0,0,1-1-3,4.69,4.69,0,0,1,1-3.08,3.19,3.19,0,0,1,2.57-1.14,3,3,0,0,1,2.39,1,3.82,3.82,0,0,1,.88,2.62v.77h-5.53a3.14,3.14,0,0,0,.71,2.14,2.47,2.47,0,0,0,1.91.74,6.31,6.31,0,0,0,2.56-.55v1.09a6.66,6.66,0,0,1-1.22.4A6.81,6.81,0,0,1,612.74,273.6Zm-.33-7.3a2,2,0,0,0-1.55.63,2.86,2.86,0,0,0-.67,1.74h4.19a2.68,2.68,0,0,0-.51-1.76A1.79,1.79,0,0,0,612.41,266.3Z"/><path class="cls-5" d="M621,273.6a3.45,3.45,0,0,1-2.7-1.07,4.41,4.41,0,0,1-.95-3,4.58,4.58,0,0,1,1-3.11,3.48,3.48,0,0,1,2.77-1.1,5.71,5.71,0,0,1,1.16.12,3.86,3.86,0,0,1,.91.3l-.38,1a5.34,5.34,0,0,0-.88-.27,3.88,3.88,0,0,0-.84-.11c-1.63,0-2.45,1-2.45,3.12a3.73,3.73,0,0,0,.6,2.28,2.1,2.1,0,0,0,1.77.79,5.38,5.38,0,0,0,2.06-.44v1.08A4.39,4.39,0,0,1,621,273.6Z"/><path class="cls-5" d="M626,265.42v5.21a2.1,2.1,0,0,0,.45,1.47,1.81,1.81,0,0,0,1.4.48,2.28,2.28,0,0,0,1.84-.69,3.47,3.47,0,0,0,.58-2.25v-4.22h1.22v8h-1l-.17-1.07h-.07a2.41,2.41,0,0,1-1,.9,3.46,3.46,0,0,1-1.51.32,3,3,0,0,1-2.19-.7,2.92,2.92,0,0,1-.73-2.22v-5.26Z"/><path class="cls-5" d="M636.75,272.59a4.26,4.26,0,0,0,.63,0,4,4,0,0,0,.47-.1v.93a2.67,2.67,0,0,1-.58.16,4.6,4.6,0,0,1-.69.06c-1.55,0-2.33-.82-2.33-2.46v-4.77H633.1v-.59l1.15-.5.51-1.72h.7v1.86h2.33v.95h-2.33v4.72a1.63,1.63,0,0,0,.35,1.12A1.18,1.18,0,0,0,636.75,272.59Z"/><path class="cls-5" d="M642.7,273.6a3.68,3.68,0,0,1-2.81-1.09,4.21,4.21,0,0,1-1-3,4.63,4.63,0,0,1,1-3.08,3.18,3.18,0,0,1,2.57-1.14,3,3,0,0,1,2.39,1,3.82,3.82,0,0,1,.87,2.62v.77h-5.53a3.19,3.19,0,0,0,.72,2.14,2.47,2.47,0,0,0,1.91.74,6.35,6.35,0,0,0,2.56-.55v1.09a5.82,5.82,0,0,1-2.61.52Zm-.33-7.3a2,2,0,0,0-1.54.63,2.93,2.93,0,0,0-.68,1.74h4.2a2.68,2.68,0,0,0-.51-1.76A1.8,1.8,0,0,0,642.37,266.3Z"/><path class="cls-5" d="M652.91,271.26a2,2,0,0,1-.84,1.73,3.9,3.9,0,0,1-2.34.61,5,5,0,0,1-2.49-.51V272a6.12,6.12,0,0,0,1.24.47,5.28,5.28,0,0,0,1.28.16,2.92,2.92,0,0,0,1.46-.3,1.05,1.05,0,0,0,.11-1.73,6.38,6.38,0,0,0-1.59-.78,8.91,8.91,0,0,1-1.59-.73,2.28,2.28,0,0,1-.71-.71,1.88,1.88,0,0,1-.23-.95,1.79,1.79,0,0,1,.8-1.54,3.7,3.7,0,0,1,2.19-.57,6.29,6.29,0,0,1,2.54.53l-.44,1a5.79,5.79,0,0,0-2.19-.49,2.52,2.52,0,0,0-1.3.27.84.84,0,0,0-.44.74.9.9,0,0,0,.17.55,1.63,1.63,0,0,0,.53.44,13.27,13.27,0,0,0,1.4.59,5.07,5.07,0,0,1,1.93,1.05A1.82,1.82,0,0,1,652.91,271.26Z"/><path class="cls-5" d="M447,293.45l-1.47-4.71c-.1-.29-.27-.94-.52-2h-.06c-.2.85-.37,1.51-.52,2l-1.51,4.69h-1.41l-2.19-8h1.28c.51,2,.91,3.56,1.18,4.61a17.08,17.08,0,0,1,.46,2.13h.06c.06-.28.14-.64.26-1.08s.23-.79.31-1.05l1.48-4.61h1.31l1.44,4.61a16.63,16.63,0,0,1,.56,2.12h.06c0-.18.07-.45.15-.82s.6-2.33,1.53-5.91h1.26l-2.22,8Z"/><path class="cls-5" d="M457.69,293.45v-5.19a2.1,2.1,0,0,0-.45-1.47,1.84,1.84,0,0,0-1.4-.48A2.3,2.3,0,0,0,454,287a3.47,3.47,0,0,0-.58,2.25v4.2h-1.22V282.06h1.22v3.44a7.47,7.47,0,0,1-.06,1h.07a2.44,2.44,0,0,1,1-.91,3.27,3.27,0,0,1,1.52-.34,3.15,3.15,0,0,1,2.21.7,3,3,0,0,1,.73,2.22v5.24Z"/><path class="cls-5" d="M464.73,293.6a3.68,3.68,0,0,1-2.81-1.09,4.2,4.2,0,0,1-1-3,4.63,4.63,0,0,1,1-3.08,3.18,3.18,0,0,1,2.57-1.14,3,3,0,0,1,2.39,1,3.82,3.82,0,0,1,.88,2.62v.77h-5.53a3.14,3.14,0,0,0,.71,2.14,2.47,2.47,0,0,0,1.91.74,6.31,6.31,0,0,0,2.56-.55v1.09a6.92,6.92,0,0,1-1.22.4A6.84,6.84,0,0,1,464.73,293.6Zm-.33-7.3a2,2,0,0,0-1.54.63,2.93,2.93,0,0,0-.68,1.74h4.2a2.68,2.68,0,0,0-.51-1.76A1.8,1.8,0,0,0,464.4,286.3Z"/><path class="cls-5" d="M475.18,293.45v-5.19a2.1,2.1,0,0,0-.44-1.47,1.84,1.84,0,0,0-1.4-.48,2.33,2.33,0,0,0-1.85.68,3.47,3.47,0,0,0-.58,2.25v4.21h-1.22v-8h1l.2,1.1h.06a2.58,2.58,0,0,1,1-.92,3.52,3.52,0,0,1,1.51-.32,3,3,0,0,1,2.18.7,3,3,0,0,1,.73,2.23v5.24Z"/><path class="cls-5" d="M482.69,283.25a.79.79,0,0,1,.21-.61.71.71,0,0,1,.51-.2.74.74,0,0,1,.51.2,1,1,0,0,1,0,1.22.7.7,0,0,1-.51.2.67.67,0,0,1-.51-.2A.81.81,0,0,1,482.69,283.25Zm1.32,10.2h-1.22v-8H484Z"/><path class="cls-5" d="M492,293.45v-5.19a2.1,2.1,0,0,0-.45-1.47,1.8,1.8,0,0,0-1.39-.48,2.33,2.33,0,0,0-1.85.68,3.47,3.47,0,0,0-.59,2.25v4.21h-1.21v-8h1l.19,1.1h.06a2.55,2.55,0,0,1,1.05-.92,3.51,3.51,0,0,1,1.5-.32,3,3,0,0,1,2.18.7,3,3,0,0,1,.74,2.23v5.24Z"/><path class="cls-5" d="M497.34,293.45l-3-8h1.31l1.73,4.77a19.58,19.58,0,0,1,.68,2.16h.06c.06-.26.23-.79.51-1.6s.93-2.59,1.92-5.33h1.31l-3.05,8Z"/><path class="cls-5" d="M509.94,289.43a4.44,4.44,0,0,1-1,3.07,3.5,3.5,0,0,1-2.73,1.1,3.59,3.59,0,0,1-1.91-.51,3.26,3.26,0,0,1-1.29-1.45,5.07,5.07,0,0,1-.45-2.21,4.4,4.4,0,0,1,1-3.06,3.45,3.45,0,0,1,2.72-1.09A3.38,3.38,0,0,1,509,286.4,4.42,4.42,0,0,1,509.94,289.43Zm-6.11,0a3.78,3.78,0,0,0,.61,2.34,2.44,2.44,0,0,0,3.62,0,3.76,3.76,0,0,0,.62-2.35,3.67,3.67,0,0,0-.62-2.32,2.17,2.17,0,0,0-1.82-.8,2.13,2.13,0,0,0-1.8.78A3.78,3.78,0,0,0,503.83,289.43Z"/><path class="cls-5" d="M513.2,289.34a13.41,13.41,0,0,1,1-1.17l2.59-2.75h1.45L515,288.84l3.47,4.61H517l-2.83-3.79-.92.79v3H512V282.06h1.2v6c0,.27,0,.68-.06,1.24Z"/><path class="cls-5" d="M522.85,293.6a3.67,3.67,0,0,1-2.81-1.09,4.21,4.21,0,0,1-1-3,4.63,4.63,0,0,1,1-3.08,3.18,3.18,0,0,1,2.57-1.14,3,3,0,0,1,2.38,1,3.78,3.78,0,0,1,.88,2.62v.77h-5.53a3.14,3.14,0,0,0,.72,2.14,2.45,2.45,0,0,0,1.9.74,6.36,6.36,0,0,0,2.57-.55v1.09a5.82,5.82,0,0,1-2.61.52Zm-.33-7.3a2,2,0,0,0-1.54.63,2.93,2.93,0,0,0-.68,1.74h4.2a2.68,2.68,0,0,0-.51-1.76A1.81,1.81,0,0,0,522.52,286.3Z"/><path class="cls-5" d="M533.35,292.38h-.07a2.86,2.86,0,0,1-2.52,1.22,3,3,0,0,1-2.44-1.08,4.71,4.71,0,0,1-.88-3.06,4.79,4.79,0,0,1,.88-3.08,3.26,3.26,0,0,1,4.95.08h.1l-.06-.57,0-.57v-3.26h1.22v11.39h-1Zm-2.43.2a2.2,2.2,0,0,0,1.8-.68,3.37,3.37,0,0,0,.56-2.18v-.26a4.06,4.06,0,0,0-.56-2.43,2.16,2.16,0,0,0-1.82-.73,1.84,1.84,0,0,0-1.63.83,5.11,5.11,0,0,0,0,4.67A1.92,1.92,0,0,0,530.92,292.58Z"/><path class="cls-5" d="M321.79,157.69a5.05,5.05,0,0,1-1.34,3.78,5.35,5.35,0,0,1-3.87,1.31h-2.77v-10h3.06a4.48,4.48,0,0,1,4.92,4.9Zm-1.23,0a4.05,4.05,0,0,0-1-2.95,4,4,0,0,0-2.92-1H315v8h1.42a4.25,4.25,0,0,0,3.12-1A4,4,0,0,0,320.56,157.73Z"/><path class="cls-5" d="M326.72,162.92a3.45,3.45,0,0,1-2.62-1,3.94,3.94,0,0,1-1-2.81,4.37,4.37,0,0,1,.89-2.88,3,3,0,0,1,2.4-1.07,2.83,2.83,0,0,1,2.23.93,3.58,3.58,0,0,1,.82,2.44v.72h-5.16a2.94,2.94,0,0,0,.66,2,2.3,2.3,0,0,0,1.78.69,6,6,0,0,0,2.4-.51v1a5.37,5.37,0,0,1-1.14.37A6.06,6.06,0,0,1,326.72,162.92Zm-.31-6.82a1.83,1.83,0,0,0-1.43.59,2.72,2.72,0,0,0-.64,1.63h3.92a2.5,2.5,0,0,0-.48-1.65A1.68,1.68,0,0,0,326.41,156.1Z"/><path class="cls-5" d="M332.79,162.78l-2.85-7.49h1.22l1.61,4.44c.37,1,.58,1.72.65,2h.05a14.14,14.14,0,0,1,.48-1.51c.26-.75.86-2.41,1.79-5H337l-2.85,7.49Z"/><path class="cls-5" d="M341,162.92a3.46,3.46,0,0,1-2.62-1,3.94,3.94,0,0,1-1-2.81,4.37,4.37,0,0,1,.89-2.88,3,3,0,0,1,2.4-1.07,2.83,2.83,0,0,1,2.23.93,3.53,3.53,0,0,1,.82,2.44v.72h-5.16a2.94,2.94,0,0,0,.66,2,2.32,2.32,0,0,0,1.79.69,6,6,0,0,0,2.39-.51v1a5.2,5.2,0,0,1-1.14.37A6.06,6.06,0,0,1,341,162.92Zm-.3-6.82a1.87,1.87,0,0,0-1.44.59,2.66,2.66,0,0,0-.63,1.63h3.91a2.5,2.5,0,0,0-.48-1.65A1.66,1.66,0,0,0,340.66,156.1Z"/><path class="cls-5" d="M346.47,162.78h-1.14V152.14h1.14Z"/><path class="cls-5" d="M355,159a4.16,4.16,0,0,1-.92,2.86,3.28,3.28,0,0,1-2.55,1,3.44,3.44,0,0,1-1.79-.47,3.12,3.12,0,0,1-1.2-1.36,4.74,4.74,0,0,1-.42-2.06,4.14,4.14,0,0,1,.91-2.86,3.25,3.25,0,0,1,2.55-1,3.18,3.18,0,0,1,2.5,1A4.15,4.15,0,0,1,355,159Zm-5.71,0a3.55,3.55,0,0,0,.58,2.19,2,2,0,0,0,1.69.75,2,2,0,0,0,1.69-.75,3.57,3.57,0,0,0,.58-2.19,3.51,3.51,0,0,0-.58-2.17,2,2,0,0,0-1.71-.74,2,2,0,0,0-1.68.73A3.48,3.48,0,0,0,349.29,159Z"/><path class="cls-5" d="M360.13,162.92a3.19,3.19,0,0,1-1.33-.27,2.49,2.49,0,0,1-1-.83h-.08a10.88,10.88,0,0,1,.08,1.24v3.08h-1.13V155.29h.92l.16,1h0a2.57,2.57,0,0,1,1-.88,3,3,0,0,1,1.33-.28,2.76,2.76,0,0,1,2.3,1,5.44,5.44,0,0,1,0,5.73A2.78,2.78,0,0,1,360.13,162.92Zm-.16-6.8a2,2,0,0,0-1.66.63,3.23,3.23,0,0,0-.53,2V159a3.77,3.77,0,0,0,.53,2.26A2,2,0,0,0,360,162a1.76,1.76,0,0,0,1.52-.79,3.78,3.78,0,0,0,.55-2.17,3.65,3.65,0,0,0-.55-2.15A1.84,1.84,0,0,0,360,156.12Z"/><path class="cls-5" d="M368.11,162.92a3.45,3.45,0,0,1-2.62-1,3.94,3.94,0,0,1-1-2.81,4.37,4.37,0,0,1,.89-2.88,3,3,0,0,1,2.4-1.07,2.8,2.8,0,0,1,2.22.93,3.54,3.54,0,0,1,.83,2.44v.72H365.7a3,3,0,0,0,.67,2,2.3,2.3,0,0,0,1.78.69,6,6,0,0,0,2.39-.51v1a5.3,5.3,0,0,1-1.13.37A6.06,6.06,0,0,1,368.11,162.92Zm-.31-6.82a1.87,1.87,0,0,0-1.44.59,2.72,2.72,0,0,0-.63,1.63h3.92a2.5,2.5,0,0,0-.48-1.65A1.7,1.7,0,0,0,367.8,156.1Z"/><path class="cls-5" d="M375.88,155.15a4.94,4.94,0,0,1,.9.08l-.16,1.06a3.79,3.79,0,0,0-.82-.11,2,2,0,0,0-1.56.74,2.7,2.7,0,0,0-.64,1.84v4h-1.14v-7.49h.94l.13,1.39h.05a3.29,3.29,0,0,1,1-1.13A2.21,2.21,0,0,1,375.88,155.15Z"/><path class="cls-5" d="M382.92,160.74a1.88,1.88,0,0,1-.78,1.61,3.66,3.66,0,0,1-2.19.57,4.81,4.81,0,0,1-2.32-.47v-1.06a5,5,0,0,0,1.16.43A4.59,4.59,0,0,0,380,162a2.72,2.72,0,0,0,1.37-.28.94.94,0,0,0,.48-.87,1,1,0,0,0-.38-.75,6.41,6.41,0,0,0-1.48-.73,8.13,8.13,0,0,1-1.49-.68,2.08,2.08,0,0,1-.66-.66,1.76,1.76,0,0,1-.21-.88,1.7,1.7,0,0,1,.74-1.45,3.51,3.51,0,0,1,2-.53,6.12,6.12,0,0,1,2.36.49l-.4.93a5.42,5.42,0,0,0-2-.47,2.44,2.44,0,0,0-1.22.25.8.8,0,0,0-.41.7.85.85,0,0,0,.15.51,1.53,1.53,0,0,0,.5.41,10.45,10.45,0,0,0,1.31.55,4.93,4.93,0,0,1,1.8,1A1.74,1.74,0,0,1,382.92,160.74Z"/><path class="cls-5" d="M317.6,179a4.16,4.16,0,0,1-.92,2.86,3.28,3.28,0,0,1-2.55,1,3.44,3.44,0,0,1-1.79-.47,3.12,3.12,0,0,1-1.2-1.36,4.74,4.74,0,0,1-.42-2.06,4.14,4.14,0,0,1,.91-2.86,3.25,3.25,0,0,1,2.55-1,3.15,3.15,0,0,1,2.49,1A4.11,4.11,0,0,1,317.6,179Zm-5.71,0a3.55,3.55,0,0,0,.58,2.19,2,2,0,0,0,1.69.75,2,2,0,0,0,1.69-.75,3.58,3.58,0,0,0,.57-2.19,3.51,3.51,0,0,0-.57-2.17,2,2,0,0,0-1.71-.74,2,2,0,0,0-1.68.73A3.48,3.48,0,0,0,311.89,179Z"/><path class="cls-5" d="M324.37,182.78v-4.85a2,2,0,0,0-.41-1.36,1.72,1.72,0,0,0-1.31-.45,2.16,2.16,0,0,0-1.72.63,3.2,3.2,0,0,0-.55,2.1v3.93h-1.13v-7.49h.92l.18,1h.06a2.26,2.26,0,0,1,1-.85,3,3,0,0,1,1.4-.31,2.84,2.84,0,0,1,2,.65,2.78,2.78,0,0,1,.69,2.09v4.89Z"/><path class="cls-5" d="M328.61,182.78h-1.13V172.14h1.13Z"/><path class="cls-5" d="M329.72,175.29h1.22l1.64,4.27a17.24,17.24,0,0,1,.67,2.11h.05c.06-.23.19-.63.38-1.19s.8-2.29,1.85-5.19h1.22l-3.22,8.53a4.21,4.21,0,0,1-1.12,1.79,2.35,2.35,0,0,1-1.57.53,4.37,4.37,0,0,1-1-.11v-.91a4.28,4.28,0,0,0,.84.08,1.74,1.74,0,0,0,1.67-1.31l.41-1.07Z"/><path class="cls-5" d="M346.17,182.78v-4.85a1.93,1.93,0,0,0-.42-1.36,1.69,1.69,0,0,0-1.3-.45,2.14,2.14,0,0,0-1.73.64,3.27,3.27,0,0,0-.54,2.1v3.92H341V172.14h1.14v3.22a6.51,6.51,0,0,1-.06,1h.07a2.25,2.25,0,0,1,.95-.85,3.12,3.12,0,0,1,1.42-.31,2.88,2.88,0,0,1,2.06.65,2.77,2.77,0,0,1,.68,2.07v4.89Z"/><path class="cls-5" d="M353.86,182.78l-.23-1.07h-.05a3.2,3.2,0,0,1-1.12,1,3.49,3.49,0,0,1-1.39.25,2.5,2.5,0,0,1-1.75-.58,2.08,2.08,0,0,1-.63-1.63c0-1.51,1.21-2.31,3.63-2.38l1.27,0v-.47a1.87,1.87,0,0,0-.38-1.3,1.54,1.54,0,0,0-1.21-.42,4.88,4.88,0,0,0-2.12.58l-.35-.87a5.24,5.24,0,0,1,1.22-.47,5,5,0,0,1,1.32-.17,2.82,2.82,0,0,1,2,.59,2.45,2.45,0,0,1,.65,1.91v5.11Zm-2.56-.8a2.29,2.29,0,0,0,1.66-.58,2.17,2.17,0,0,0,.61-1.63v-.67l-1.14,0a4.34,4.34,0,0,0-1.95.42,1.27,1.27,0,0,0-.6,1.16,1.2,1.2,0,0,0,.37.94A1.59,1.59,0,0,0,351.3,182Z"/><path class="cls-5" d="M358.35,182.78l-2.84-7.49h1.21l1.62,4.44a20.94,20.94,0,0,1,.64,2h0a14.14,14.14,0,0,1,.48-1.51c.27-.75.86-2.41,1.79-5h1.22l-2.84,7.49Z"/><path class="cls-5" d="M366.53,182.92a3.45,3.45,0,0,1-2.62-1,3.94,3.94,0,0,1-1-2.81,4.31,4.31,0,0,1,.89-2.88,3,3,0,0,1,2.39-1.07,2.81,2.81,0,0,1,2.23.93,3.53,3.53,0,0,1,.82,2.44v.72h-5.16a2.94,2.94,0,0,0,.67,2,2.28,2.28,0,0,0,1.78.69,6,6,0,0,0,2.39-.51v1a5.2,5.2,0,0,1-1.14.37A6,6,0,0,1,366.53,182.92Zm-.31-6.82a1.87,1.87,0,0,0-1.44.59,2.66,2.66,0,0,0-.63,1.63h3.92a2.5,2.5,0,0,0-.48-1.65A1.7,1.7,0,0,0,366.22,176.1Z"/><path class="cls-5" d="M376.71,182a3.6,3.6,0,0,0,.58,0,2.58,2.58,0,0,0,.45-.1v.87a2.12,2.12,0,0,1-.54.15,4,4,0,0,1-.65.06c-1.45,0-2.17-.77-2.17-2.29v-4.46H373.3v-.55l1.08-.47.47-1.6h.66v1.74h2.17v.88h-2.17v4.41a1.54,1.54,0,0,0,.32,1A1.13,1.13,0,0,0,376.71,182Z"/><path class="cls-5" d="M385.28,179a4.12,4.12,0,0,1-.92,2.86,3.26,3.26,0,0,1-2.55,1,3.4,3.4,0,0,1-1.78-.47,3.21,3.21,0,0,1-1.21-1.36,4.74,4.74,0,0,1-.42-2.06,4.15,4.15,0,0,1,.92-2.86,3.23,3.23,0,0,1,2.54-1,3.17,3.17,0,0,1,2.5,1A4.1,4.1,0,0,1,385.28,179Zm-5.7,0a3.62,3.62,0,0,0,.57,2.19,2.28,2.28,0,0,0,3.38,0,3.51,3.51,0,0,0,.58-2.19,3.44,3.44,0,0,0-.58-2.17,2.32,2.32,0,0,0-3.39,0A3.49,3.49,0,0,0,379.58,179Z"/><path class="cls-5" d="M303.4,202.78,302,198.39c-.09-.27-.25-.88-.49-1.84h-.05c-.19.8-.35,1.42-.48,1.85l-1.42,4.38h-1.31l-2-7.49h1.19c.48,1.88.85,3.31,1.1,4.3a16.26,16.26,0,0,1,.43,2H299c.05-.26.13-.6.24-1s.21-.74.29-1l1.38-4.3h1.23l1.34,4.3a16.87,16.87,0,0,1,.52,2h.05q0-.24.15-.75t1.42-5.52h1.18l-2.07,7.49Z"/><path class="cls-5" d="M311.42,195.15a4.74,4.74,0,0,1,.89.08l-.15,1.06a3.87,3.87,0,0,0-.82-.11,2,2,0,0,0-1.56.74,2.72,2.72,0,0,0-.65,1.84v4H308v-7.49h.94l.13,1.39h.05a3.19,3.19,0,0,1,1-1.13A2.21,2.21,0,0,1,311.42,195.15Z"/><path class="cls-5" d="M313.42,193.26a.78.78,0,0,1,.19-.57.68.68,0,0,1,.48-.18.67.67,0,0,1,.47.18.71.71,0,0,1,.2.57.74.74,0,0,1-.2.57.64.64,0,0,1-.47.19.65.65,0,0,1-.48-.19A.81.81,0,0,1,313.42,193.26Zm1.23,9.52h-1.13v-7.49h1.13Z"/><path class="cls-5" d="M319.27,202a3.69,3.69,0,0,0,.58,0,2.66,2.66,0,0,0,.44-.1v.87a2,2,0,0,1-.54.15,4,4,0,0,1-.65.06c-1.45,0-2.17-.77-2.17-2.29v-4.46h-1.08v-.55l1.08-.47.48-1.6h.65v1.74h2.18v.88h-2.18v4.41a1.54,1.54,0,0,0,.32,1A1.14,1.14,0,0,0,319.27,202Z"/><path class="cls-5" d="M324.54,202.92a3.45,3.45,0,0,1-2.62-1,3.94,3.94,0,0,1-1-2.81,4.37,4.37,0,0,1,.89-2.88,3,3,0,0,1,2.4-1.07,2.83,2.83,0,0,1,2.23.93,3.58,3.58,0,0,1,.82,2.44v.72h-5.17a3,3,0,0,0,.67,2,2.3,2.3,0,0,0,1.78.69,5.94,5.94,0,0,0,2.39-.51v1a5.3,5.3,0,0,1-1.13.37A6.06,6.06,0,0,1,324.54,202.92Zm-.31-6.82a1.87,1.87,0,0,0-1.44.59,2.78,2.78,0,0,0-.63,1.63h3.92a2.5,2.5,0,0,0-.48-1.65A1.68,1.68,0,0,0,324.23,196.1Z"/><path class="cls-5" d="M336.91,202.78l-.22-1.07h-.06a3.18,3.18,0,0,1-1.11,1,3.53,3.53,0,0,1-1.39.25,2.47,2.47,0,0,1-1.75-.58,2.08,2.08,0,0,1-.63-1.63c0-1.51,1.21-2.31,3.63-2.38l1.27,0v-.46a1.93,1.93,0,0,0-.38-1.31,1.56,1.56,0,0,0-1.21-.42,4.81,4.81,0,0,0-2.12.58l-.35-.87a5.16,5.16,0,0,1,1.21-.47,5,5,0,0,1,1.32-.17,2.84,2.84,0,0,1,2,.59,2.49,2.49,0,0,1,.65,1.91v5.11Zm-2.56-.8a2.31,2.31,0,0,0,1.67-.58,2.17,2.17,0,0,0,.6-1.63v-.67l-1.13,0a4.36,4.36,0,0,0-2,.42,1.29,1.29,0,0,0-.59,1.16,1.16,1.16,0,0,0,.37.94A1.56,1.56,0,0,0,334.35,202Z"/><path class="cls-5" d="M343.22,202.92a3.27,3.27,0,0,1-1.34-.27,2.53,2.53,0,0,1-1-.83h-.08a10.88,10.88,0,0,1,.08,1.24v3.08h-1.14V195.29h.93l.15,1h.06a2.57,2.57,0,0,1,1-.88,3,3,0,0,1,1.33-.28,2.77,2.77,0,0,1,2.3,1,4.49,4.49,0,0,1,.81,2.86,4.54,4.54,0,0,1-.82,2.87A2.79,2.79,0,0,1,343.22,202.92Zm-.17-6.8a2,2,0,0,0-1.66.63,3.32,3.32,0,0,0-.52,2V199a3.78,3.78,0,0,0,.52,2.26,2,2,0,0,0,1.69.68,1.73,1.73,0,0,0,1.52-.79,3.69,3.69,0,0,0,.55-2.17,3.52,3.52,0,0,0-.55-2.14A1.8,1.8,0,0,0,343.05,196.12Z"/><path class="cls-5" d="M351.46,202.92a3.19,3.19,0,0,1-1.33-.27,2.49,2.49,0,0,1-1-.83H349a10.88,10.88,0,0,1,.08,1.24v3.08H348V195.29h.92l.16,1h.05a2.57,2.57,0,0,1,1-.88,3,3,0,0,1,1.33-.28,2.76,2.76,0,0,1,2.3,1,5.44,5.44,0,0,1,0,5.73A2.78,2.78,0,0,1,351.46,202.92Zm-.16-6.8a2,2,0,0,0-1.66.63,3.25,3.25,0,0,0-.53,2V199a3.77,3.77,0,0,0,.53,2.26,2,2,0,0,0,1.69.68,1.76,1.76,0,0,0,1.52-.79,3.76,3.76,0,0,0,.55-2.17,3.59,3.59,0,0,0-.55-2.14A1.82,1.82,0,0,0,351.3,196.12Z"/><path class="cls-5" d="M357.37,202.78h-1.14V192.14h1.14Z"/><path class="cls-5" d="M359.28,193.26a.78.78,0,0,1,.19-.57.68.68,0,0,1,.48-.18.66.66,0,0,1,.47.18.71.71,0,0,1,.2.57.74.74,0,0,1-.2.57.63.63,0,0,1-.47.19.65.65,0,0,1-.48-.19A.81.81,0,0,1,359.28,193.26Zm1.23,9.52h-1.13v-7.49h1.13Z"/><path class="cls-5" d="M365.55,202.92a3.24,3.24,0,0,1-2.52-1,4.17,4.17,0,0,1-.89-2.84,4.25,4.25,0,0,1,.9-2.9,3.26,3.26,0,0,1,2.58-1,5,5,0,0,1,1.09.12,3.77,3.77,0,0,1,.84.27l-.35,1a4.64,4.64,0,0,0-.82-.25,3.33,3.33,0,0,0-.78-.1c-1.52,0-2.29,1-2.29,2.91a3.48,3.48,0,0,0,.56,2.12,1.94,1.94,0,0,0,1.65.74,5,5,0,0,0,1.92-.41v1A4.07,4.07,0,0,1,365.55,202.92Z"/><path class="cls-5" d="M373.68,202.78l-.22-1.07h-.06a3.18,3.18,0,0,1-1.11,1,3.53,3.53,0,0,1-1.39.25,2.47,2.47,0,0,1-1.75-.58,2.08,2.08,0,0,1-.63-1.63c0-1.51,1.21-2.31,3.63-2.38l1.27,0v-.46a1.93,1.93,0,0,0-.38-1.31,1.56,1.56,0,0,0-1.21-.42,4.81,4.81,0,0,0-2.12.58l-.35-.87a5.16,5.16,0,0,1,1.21-.47,5,5,0,0,1,1.32-.17,2.84,2.84,0,0,1,2,.59,2.49,2.49,0,0,1,.65,1.91v5.11Zm-2.56-.8a2.31,2.31,0,0,0,1.67-.58,2.17,2.17,0,0,0,.6-1.63v-.67l-1.13,0a4.36,4.36,0,0,0-2,.42,1.29,1.29,0,0,0-.59,1.16,1.16,1.16,0,0,0,.37.94A1.56,1.56,0,0,0,371.12,202Z"/><path class="cls-5" d="M379,202a3.69,3.69,0,0,0,.58,0,2.58,2.58,0,0,0,.45-.1v.87a2.22,2.22,0,0,1-.55.15,3.91,3.91,0,0,1-.64.06c-1.45,0-2.18-.77-2.18-2.29v-4.46h-1.07v-.55l1.07-.47.48-1.6h.66v1.74H380v.88h-2.17v4.41a1.49,1.49,0,0,0,.32,1A1.12,1.12,0,0,0,379,202Z"/><path class="cls-5" d="M381.17,193.26a.74.74,0,0,1,.2-.57.64.64,0,0,1,.47-.18.7.7,0,0,1,.48.18.74.74,0,0,1,.19.57.77.77,0,0,1-.19.57.66.66,0,0,1-.48.19.61.61,0,0,1-.47-.19A.77.77,0,0,1,381.17,193.26Zm1.23,9.52h-1.13v-7.49h1.13Z"/><path class="cls-5" d="M390.89,199a4.12,4.12,0,0,1-.93,2.86,3.22,3.22,0,0,1-2.55,1,3.4,3.4,0,0,1-1.78-.47,3.12,3.12,0,0,1-1.2-1.36A4.6,4.6,0,0,1,384,199a4.16,4.16,0,0,1,.92-2.86,3.24,3.24,0,0,1,2.54-1,3.17,3.17,0,0,1,2.5,1A4.11,4.11,0,0,1,390.89,199Zm-5.71,0a3.6,3.6,0,0,0,.57,2.19,2.28,2.28,0,0,0,3.38,0,3.51,3.51,0,0,0,.58-2.19,3.44,3.44,0,0,0-.58-2.17,2,2,0,0,0-1.7-.74,2,2,0,0,0-1.68.73A3.48,3.48,0,0,0,385.18,199Z"/><path class="cls-5" d="M397.66,202.78v-4.85a1.93,1.93,0,0,0-.42-1.36,1.69,1.69,0,0,0-1.3-.45,2.18,2.18,0,0,0-1.73.63,3.27,3.27,0,0,0-.54,2.1v3.93h-1.14v-7.49h.92l.19,1h.05a2.39,2.39,0,0,1,1-.85,3.09,3.09,0,0,1,1.4-.31,2.89,2.89,0,0,1,2,.65,2.82,2.82,0,0,1,.68,2.09v4.89Z"/><path class="cls-5" d="M337,222.92a3.21,3.21,0,0,1-2.52-1,4.12,4.12,0,0,1-.9-2.84,4.25,4.25,0,0,1,.91-2.9,3.23,3.23,0,0,1,2.58-1,5,5,0,0,1,1.08.12,4.07,4.07,0,0,1,.85.27l-.35,1a4.64,4.64,0,0,0-.82-.25,3.48,3.48,0,0,0-.79-.1q-2.28,0-2.28,2.91a3.48,3.48,0,0,0,.56,2.12,1.94,1.94,0,0,0,1.65.74,5.07,5.07,0,0,0,1.92-.41v1A4.07,4.07,0,0,1,337,222.92Z"/><path class="cls-5" d="M346.65,219a4.12,4.12,0,0,1-.93,2.86,3.22,3.22,0,0,1-2.55,1,3.4,3.4,0,0,1-1.78-.47,3.12,3.12,0,0,1-1.2-1.36,4.6,4.6,0,0,1-.43-2.06,4.16,4.16,0,0,1,.92-2.86,3.24,3.24,0,0,1,2.54-1,3.17,3.17,0,0,1,2.5,1A4.11,4.11,0,0,1,346.65,219Zm-5.71,0a3.6,3.6,0,0,0,.57,2.19,2.28,2.28,0,0,0,3.38,0,3.51,3.51,0,0,0,.58-2.19,3.44,3.44,0,0,0-.58-2.17,2.32,2.32,0,0,0-3.39,0A3.55,3.55,0,0,0,340.94,219Z"/><path class="cls-5" d="M353.44,221.78h-.06a2.66,2.66,0,0,1-2.35,1.14,2.8,2.8,0,0,1-2.29-1,5.39,5.39,0,0,1,0-5.73,3,3,0,0,1,4.62.08h.09l0-.54,0-.53v-3.05h1.13v10.64h-.92Zm-2.27.19a2.08,2.08,0,0,0,1.69-.63,3.23,3.23,0,0,0,.52-2.05v-.23a3.8,3.8,0,0,0-.53-2.28,2,2,0,0,0-1.69-.68,1.73,1.73,0,0,0-1.53.78,3.89,3.89,0,0,0-.53,2.19,3.71,3.71,0,0,0,.53,2.17A1.79,1.79,0,0,0,351.17,222Z"/><path class="cls-5" d="M359.74,222.92a3.47,3.47,0,0,1-2.63-1,3.94,3.94,0,0,1-1-2.81,4.32,4.32,0,0,1,.9-2.88,3,3,0,0,1,2.39-1.07,2.83,2.83,0,0,1,2.23.93,3.53,3.53,0,0,1,.82,2.44v.72h-5.16a2.94,2.94,0,0,0,.67,2,2.28,2.28,0,0,0,1.78.69,6,6,0,0,0,2.39-.51v1a5.2,5.2,0,0,1-1.14.37A6,6,0,0,1,359.74,222.92Zm-.31-6.82a1.87,1.87,0,0,0-1.44.59,2.66,2.66,0,0,0-.63,1.63h3.91a2.55,2.55,0,0,0-.47-1.65A1.7,1.7,0,0,0,359.43,216.1Z"/><path class="cls-5" d="M327.22,284.7H325.9l-5.47-8.39h-.05c.07,1,.11,1.89.11,2.71v5.68h-1.07v-10h1.31l5.45,8.35h.05c0-.12,0-.52-.06-1.19s0-1.14,0-1.43v-5.73h1.09Z"/><path class="cls-5" d="M336.21,281a4.16,4.16,0,0,1-.92,2.86,3.28,3.28,0,0,1-2.55,1,3.44,3.44,0,0,1-1.79-.47,3.12,3.12,0,0,1-1.2-1.36,4.74,4.74,0,0,1-.42-2.06,4.14,4.14,0,0,1,.91-2.86,3.25,3.25,0,0,1,2.55-1,3.15,3.15,0,0,1,2.49,1.05A4.09,4.09,0,0,1,336.21,281Zm-5.71,0a3.5,3.5,0,0,0,.58,2.18,2,2,0,0,0,1.69.76,2,2,0,0,0,1.69-.75A3.57,3.57,0,0,0,335,281a3.49,3.49,0,0,0-.58-2.17,2,2,0,0,0-1.71-.74,2,2,0,0,0-1.68.73A3.48,3.48,0,0,0,330.5,281Z"/><path class="cls-5" d="M346.67,282.66a1.88,1.88,0,0,1-.78,1.61,3.66,3.66,0,0,1-2.19.57,4.81,4.81,0,0,1-2.32-.47v-1.06a5.34,5.34,0,0,0,1.16.43,4.59,4.59,0,0,0,1.19.16,2.72,2.72,0,0,0,1.37-.28.94.94,0,0,0,.48-.87,1,1,0,0,0-.38-.75,6.41,6.41,0,0,0-1.48-.73,8.13,8.13,0,0,1-1.49-.68,2.3,2.3,0,0,1-.66-.66,1.76,1.76,0,0,1-.21-.88,1.7,1.7,0,0,1,.74-1.45,3.51,3.51,0,0,1,2-.53,6.12,6.12,0,0,1,2.36.49l-.4.93a5.42,5.42,0,0,0-2-.47,2.44,2.44,0,0,0-1.22.25.79.79,0,0,0-.41.7.85.85,0,0,0,.15.51,1.54,1.54,0,0,0,.5.41,12.29,12.29,0,0,0,1.31.55,4.78,4.78,0,0,1,1.8,1A1.74,1.74,0,0,1,346.67,282.66Z"/><path class="cls-5" d="M351.69,284.84a3.45,3.45,0,0,1-2.62-1,3.94,3.94,0,0,1-1-2.81,4.31,4.31,0,0,1,.89-2.88,3,3,0,0,1,2.4-1.07,2.8,2.8,0,0,1,2.22.93,3.53,3.53,0,0,1,.82,2.44v.72h-5.16a3,3,0,0,0,.67,2,2.28,2.28,0,0,0,1.78.69,6,6,0,0,0,2.39-.51v1a5.79,5.79,0,0,1-1.14.37A5.89,5.89,0,0,1,351.69,284.84Zm-.31-6.82a1.87,1.87,0,0,0-1.44.59,2.66,2.66,0,0,0-.63,1.63h3.92a2.5,2.5,0,0,0-.48-1.65A1.7,1.7,0,0,0,351.38,278Z"/><path class="cls-5" d="M359.74,277.07a4.74,4.74,0,0,1,.89.08l-.15,1.06a3.87,3.87,0,0,0-.82-.11,2,2,0,0,0-1.56.74,2.7,2.7,0,0,0-.64,1.84v4h-1.14v-7.49h.94l.13,1.39h.05a3.29,3.29,0,0,1,1-1.13A2.21,2.21,0,0,1,359.74,277.07Z"/><path class="cls-5" d="M364.36,284.7l-2.85-7.49h1.22l1.61,4.44c.37,1,.58,1.71.65,2H365a15,15,0,0,1,.48-1.5c.26-.75.86-2.41,1.79-5h1.22l-2.85,7.49Z"/><path class="cls-5" d="M372.82,284.84a3.47,3.47,0,0,1-2.63-1,3.94,3.94,0,0,1-1-2.81,4.32,4.32,0,0,1,.9-2.88,3,3,0,0,1,2.39-1.07,2.83,2.83,0,0,1,2.23.93,3.53,3.53,0,0,1,.82,2.44v.72h-5.16a2.9,2.9,0,0,0,.67,2,2.28,2.28,0,0,0,1.78.69,6,6,0,0,0,2.39-.51v1a5.79,5.79,0,0,1-1.14.37A6,6,0,0,1,372.82,284.84Zm-.31-6.82a1.87,1.87,0,0,0-1.44.59,2.66,2.66,0,0,0-.63,1.63h3.91a2.55,2.55,0,0,0-.47-1.65A1.7,1.7,0,0,0,372.51,278Z"/><path class="cls-5" d="M380.87,277.07a4.74,4.74,0,0,1,.89.08l-.16,1.06a3.79,3.79,0,0,0-.82-.11,2,2,0,0,0-1.55.74,2.7,2.7,0,0,0-.65,1.84v4h-1.13v-7.49h.93l.13,1.39h.06a3.27,3.27,0,0,1,1-1.13A2.27,2.27,0,0,1,380.87,277.07Z"/><path class="cls-5" d="M317.6,304.7v-4.87a2.07,2.07,0,0,0-.38-1.35A1.49,1.49,0,0,0,316,298a1.94,1.94,0,0,0-1.57.6,2.89,2.89,0,0,0-.51,1.88v4.18h-1.13v-4.87a2.07,2.07,0,0,0-.38-1.35,1.5,1.5,0,0,0-1.2-.44,1.86,1.86,0,0,0-1.56.63,3.49,3.49,0,0,0-.5,2.1v3.93h-1.13v-7.49H309l.19,1h0a2.2,2.2,0,0,1,.91-.85,2.7,2.7,0,0,1,1.31-.31,2.23,2.23,0,0,1,2.29,1.27h.06a2.36,2.36,0,0,1,1-.93,3,3,0,0,1,1.45-.34,2.56,2.56,0,0,1,1.9.65,3,3,0,0,1,.63,2.09v4.89Z"/><path class="cls-5" d="M325.57,304.7l-.22-1.07h-.06a3.18,3.18,0,0,1-1.11,1,3.58,3.58,0,0,1-1.4.25,2.46,2.46,0,0,1-1.74-.58,2.1,2.1,0,0,1-.63-1.63c0-1.51,1.21-2.31,3.63-2.38l1.27,0v-.47a1.92,1.92,0,0,0-.38-1.3,1.58,1.58,0,0,0-1.22-.42,4.88,4.88,0,0,0-2.12.58l-.34-.87a5.16,5.16,0,0,1,1.21-.47,5,5,0,0,1,1.32-.18,2.84,2.84,0,0,1,2,.6,2.49,2.49,0,0,1,.64,1.91v5.11Zm-2.56-.8a2.27,2.27,0,0,0,1.66-.58,2.13,2.13,0,0,0,.61-1.63V301l-1.14,0a4.21,4.21,0,0,0-1.95.42,1.27,1.27,0,0,0-.6,1.16,1.18,1.18,0,0,0,.38.94A1.56,1.56,0,0,0,323,303.9Z"/><path class="cls-5" d="M333.8,304.7v-4.85a1.93,1.93,0,0,0-.42-1.36,1.69,1.69,0,0,0-1.3-.45,2.18,2.18,0,0,0-1.73.63,3.23,3.23,0,0,0-.54,2.1v3.93h-1.14v-7.49h.92l.19,1h.05a2.32,2.32,0,0,1,1-.85,3.09,3.09,0,0,1,1.4-.31,2.89,2.89,0,0,1,2,.65,2.82,2.82,0,0,1,.68,2.09v4.89Z"/><path class="cls-5" d="M341.77,304.7l-.23-1.07h-.05a3.29,3.29,0,0,1-1.12,1,3.49,3.49,0,0,1-1.39.25,2.48,2.48,0,0,1-1.75-.58,2.1,2.1,0,0,1-.63-1.63c0-1.51,1.21-2.31,3.63-2.38l1.27,0v-.47a1.87,1.87,0,0,0-.38-1.3,1.54,1.54,0,0,0-1.21-.42,4.85,4.85,0,0,0-2.12.58l-.35-.87a5.16,5.16,0,0,1,1.21-.47,5.07,5.07,0,0,1,1.33-.18,2.83,2.83,0,0,1,2,.6,2.49,2.49,0,0,1,.65,1.91v5.11Zm-2.56-.8a2.29,2.29,0,0,0,1.66-.58,2.17,2.17,0,0,0,.6-1.63V301l-1.13,0a4.21,4.21,0,0,0-1.95.42,1.27,1.27,0,0,0-.6,1.16,1.18,1.18,0,0,0,.37.94A1.59,1.59,0,0,0,339.21,303.9Z"/><path class="cls-5" d="M351,297.21v.72l-1.39.16a2.34,2.34,0,0,1,.5,1.5,2.2,2.2,0,0,1-.75,1.75,3,3,0,0,1-2.07.66,4.23,4.23,0,0,1-.63-.05,1.1,1.1,0,0,0-.72,1,.47.47,0,0,0,.25.45,1.83,1.83,0,0,0,.87.15h1.32a3,3,0,0,1,1.87.51,1.79,1.79,0,0,1,.66,1.49,2.14,2.14,0,0,1-1,1.9,5.32,5.32,0,0,1-2.91.65,4,4,0,0,1-2.27-.54,1.78,1.78,0,0,1-.8-1.55,1.74,1.74,0,0,1,.44-1.18,2.24,2.24,0,0,1,1.23-.68,1.15,1.15,0,0,1-.48-.4,1.07,1.07,0,0,1-.19-.64,1.21,1.21,0,0,1,.21-.71,2.33,2.33,0,0,1,.69-.6,2,2,0,0,1-.94-.81,2.37,2.37,0,0,1-.37-1.32,2.41,2.41,0,0,1,.74-1.89,3,3,0,0,1,2.09-.67,3.83,3.83,0,0,1,1.06.14ZM345,306a1,1,0,0,0,.51.92,2.81,2.81,0,0,0,1.47.32,4.18,4.18,0,0,0,2.12-.43,1.32,1.32,0,0,0,.68-1.16.92.92,0,0,0-.37-.85,3,3,0,0,0-1.42-.23h-1.36a1.78,1.78,0,0,0-1.2.37A1.3,1.3,0,0,0,345,306Zm.61-6.35a1.52,1.52,0,0,0,.45,1.19,1.75,1.75,0,0,0,1.23.4,1.45,1.45,0,0,0,1.67-1.61,1.49,1.49,0,0,0-1.69-1.69,1.66,1.66,0,0,0-1.23.43A1.77,1.77,0,0,0,345.63,299.61Z"/><path class="cls-5" d="M355.46,304.84a3.45,3.45,0,0,1-2.62-1,3.94,3.94,0,0,1-1-2.81,4.37,4.37,0,0,1,.89-2.88,3,3,0,0,1,2.4-1.07,2.83,2.83,0,0,1,2.23.93,3.58,3.58,0,0,1,.82,2.44v.72h-5.17a3,3,0,0,0,.67,2,2.3,2.3,0,0,0,1.78.69,5.94,5.94,0,0,0,2.39-.51v1a5.93,5.93,0,0,1-1.13.37A6.06,6.06,0,0,1,355.46,304.84Zm-.31-6.82a1.87,1.87,0,0,0-1.44.59,2.78,2.78,0,0,0-.63,1.63H357a2.5,2.5,0,0,0-.48-1.65A1.68,1.68,0,0,0,355.15,298Z"/><path class="cls-5" d="M369.64,304.7v-4.87a2.07,2.07,0,0,0-.38-1.35,1.48,1.48,0,0,0-1.19-.44,1.94,1.94,0,0,0-1.57.6,3,3,0,0,0-.5,1.88v4.18h-1.14v-4.87a2,2,0,0,0-.38-1.35,1.46,1.46,0,0,0-1.19-.44,1.87,1.87,0,0,0-1.57.63,3.49,3.49,0,0,0-.49,2.1v3.93h-1.14v-7.49H361l.18,1h.05a2.26,2.26,0,0,1,.91-.85,2.72,2.72,0,0,1,1.31-.31,2.24,2.24,0,0,1,2.3,1.27h.05a2.42,2.42,0,0,1,1-.93,3,3,0,0,1,1.45-.34,2.54,2.54,0,0,1,1.9.65,2.91,2.91,0,0,1,.64,2.09v4.89Z"/><path class="cls-5" d="M376.23,304.84a3.45,3.45,0,0,1-2.62-1,3.94,3.94,0,0,1-1-2.81,4.31,4.31,0,0,1,.89-2.88,3,3,0,0,1,2.39-1.07,2.81,2.81,0,0,1,2.23.93,3.53,3.53,0,0,1,.82,2.44v.72h-5.16a2.94,2.94,0,0,0,.67,2,2.28,2.28,0,0,0,1.78.69,6,6,0,0,0,2.39-.51v1a5.79,5.79,0,0,1-1.14.37A6,6,0,0,1,376.23,304.84Zm-.31-6.82a1.87,1.87,0,0,0-1.44.59,2.66,2.66,0,0,0-.63,1.63h3.92a2.5,2.5,0,0,0-.48-1.65A1.7,1.7,0,0,0,375.92,298Z"/><path class="cls-5" d="M386,304.7v-4.85a1.93,1.93,0,0,0-.42-1.36,1.7,1.7,0,0,0-1.31-.45,2.17,2.17,0,0,0-1.72.63,3.23,3.23,0,0,0-.54,2.1v3.93h-1.14v-7.49h.92l.19,1h0a2.26,2.26,0,0,1,1-.85,3.09,3.09,0,0,1,1.4-.31,2.89,2.89,0,0,1,2,.65,2.82,2.82,0,0,1,.68,2.09v4.89Z"/><path class="cls-5" d="M391.83,303.9a3.73,3.73,0,0,0,.59,0,4.32,4.32,0,0,0,.44-.1v.87a2,2,0,0,1-.54.15,4,4,0,0,1-.65.06c-1.45,0-2.17-.77-2.17-2.29v-4.46h-1.08v-.55l1.08-.47.48-1.6h.65v1.74h2.18v.88h-2.18v4.41a1.54,1.54,0,0,0,.32,1A1.13,1.13,0,0,0,391.83,303.9Z"/><path class="cls-6" d="M57.87,283.63,56.45,280H51.87l-1.4,3.64H49.12l4.52-11.47h1.12l4.49,11.47ZM56,278.8l-1.33-3.54c-.17-.45-.35-1-.53-1.65a17,17,0,0,1-.49,1.65l-1.35,3.54Z"/><path class="cls-6" d="M64.61,283.78a3.64,3.64,0,0,1-1.53-.31,2.8,2.8,0,0,1-1.16-1h-.09a12.06,12.06,0,0,1,.09,1.43v3.52h-1.3V275.06h1.06l.18,1.18h.06a3,3,0,0,1,1.16-1,3.54,3.54,0,0,1,1.53-.31,3.16,3.16,0,0,1,2.63,1.16,5.19,5.19,0,0,1,.92,3.27,5.05,5.05,0,0,1-.94,3.27A3.17,3.17,0,0,1,64.61,283.78ZM64.42,276a2.29,2.29,0,0,0-1.9.73,3.72,3.72,0,0,0-.6,2.31v.29a4.3,4.3,0,0,0,.6,2.58,2.29,2.29,0,0,0,1.93.78,2,2,0,0,0,1.74-.9,4.27,4.27,0,0,0,.63-2.48,4.1,4.1,0,0,0-.63-2.46A2.07,2.07,0,0,0,64.42,276Z"/><path class="cls-6" d="M74.41,283.78a3.59,3.59,0,0,1-1.52-.31,2.73,2.73,0,0,1-1.16-1h-.1a12.15,12.15,0,0,1,.1,1.43v3.52h-1.3V275.06h1l.18,1.18h.07a3,3,0,0,1,1.16-1,3.5,3.5,0,0,1,1.52-.31A3.15,3.15,0,0,1,77,276.07a6.19,6.19,0,0,1,0,6.54A3.18,3.18,0,0,1,74.41,283.78ZM74.23,276a2.28,2.28,0,0,0-1.9.73,3.72,3.72,0,0,0-.6,2.31v.29a4.3,4.3,0,0,0,.6,2.58,2.28,2.28,0,0,0,1.93.78,2,2,0,0,0,1.73-.9,4.27,4.27,0,0,0,.63-2.48,4.1,4.1,0,0,0-.63-2.46A2,2,0,0,0,74.23,276Z"/><path class="cls-6" d="M81.53,283.63h-1.3V271.47h1.3Z"/><path class="cls-6" d="M84.17,272.74a.85.85,0,0,1,.22-.65.75.75,0,0,1,.55-.21.8.8,0,0,1,.54.21.87.87,0,0,1,.22.65.88.88,0,0,1-.22.66.8.8,0,0,1-.54.21.75.75,0,0,1-.55-.21A.88.88,0,0,1,84.17,272.74Zm1.41,10.89h-1.3v-8.57h1.3Z"/><path class="cls-6" d="M91.75,283.78a3.66,3.66,0,0,1-2.88-1.14,4.71,4.71,0,0,1-1-3.24,4.81,4.81,0,0,1,1-3.32,3.72,3.72,0,0,1,2.94-1.17,5.74,5.74,0,0,1,1.24.13,4.26,4.26,0,0,1,1,.31l-.4,1.1a6.1,6.1,0,0,0-.94-.28,3.92,3.92,0,0,0-.9-.11c-1.74,0-2.61,1.11-2.61,3.32a4,4,0,0,0,.64,2.43,2.21,2.21,0,0,0,1.89.84,5.7,5.7,0,0,0,2.19-.46v1.15A4.74,4.74,0,0,1,91.75,283.78Z"/><path class="cls-6" d="M101.21,283.63l-.26-1.22h-.06a3.65,3.65,0,0,1-1.28,1.09,3.87,3.87,0,0,1-1.59.28,2.87,2.87,0,0,1-2-.65,2.38,2.38,0,0,1-.73-1.87c0-1.73,1.39-2.64,4.15-2.72l1.45-.05V278a2.17,2.17,0,0,0-.43-1.49,1.79,1.79,0,0,0-1.39-.48,5.63,5.63,0,0,0-2.42.66l-.4-1a6.27,6.27,0,0,1,1.39-.54,6,6,0,0,1,1.51-.2,3.28,3.28,0,0,1,2.27.68,2.86,2.86,0,0,1,.74,2.18v5.85Zm-2.93-.92a2.63,2.63,0,0,0,1.9-.66,2.45,2.45,0,0,0,.69-1.86v-.77l-1.29.05a4.79,4.79,0,0,0-2.23.48,1.44,1.44,0,0,0-.69,1.32,1.31,1.31,0,0,0,.43,1.07A1.73,1.73,0,0,0,98.28,282.71Z"/><path class="cls-6" d="M107.61,282.71a3.53,3.53,0,0,0,.66,0,5.12,5.12,0,0,0,.51-.1v1a2.53,2.53,0,0,1-.62.17,5.12,5.12,0,0,1-.74.06c-1.66,0-2.48-.87-2.48-2.61v-5.1h-1.23v-.62l1.23-.54.54-1.83h.75v2h2.49v1h-2.49v5a1.71,1.71,0,0,0,.37,1.19A1.29,1.29,0,0,0,107.61,282.71Z"/><path class="cls-6" d="M110.38,272.74a.85.85,0,0,1,.22-.65.77.77,0,0,1,.55-.21.8.8,0,0,1,.54.21.87.87,0,0,1,.22.65.88.88,0,0,1-.22.66.8.8,0,0,1-.54.21.77.77,0,0,1-.55-.21A.88.88,0,0,1,110.38,272.74Zm1.41,10.89h-1.3v-8.57h1.3Z"/><path class="cls-6" d="M121.93,279.34a4.71,4.71,0,0,1-1.06,3.27,3.71,3.71,0,0,1-2.91,1.17,3.84,3.84,0,0,1-2-.54,3.55,3.55,0,0,1-1.37-1.54,5.32,5.32,0,0,1-.49-2.36,4.68,4.68,0,0,1,1-3.26,4.1,4.1,0,0,1,5.76,0A4.7,4.7,0,0,1,121.93,279.34Zm-6.53,0a4.07,4.07,0,0,0,.66,2.5,2.6,2.6,0,0,0,3.86,0,4,4,0,0,0,.66-2.5,4,4,0,0,0-.66-2.48,2.65,2.65,0,0,0-3.87,0A4.06,4.06,0,0,0,115.4,279.34Z"/><path class="cls-6" d="M130.06,283.63v-5.54a2.25,2.25,0,0,0-.48-1.57,1.93,1.93,0,0,0-1.49-.51,2.46,2.46,0,0,0-2,.73,3.68,3.68,0,0,0-.62,2.39v4.5h-1.3v-8.57h1.06l.21,1.18h.06a2.7,2.7,0,0,1,1.12-1,3.64,3.64,0,0,1,1.6-.34,3.29,3.29,0,0,1,2.33.74,3.2,3.2,0,0,1,.78,2.39v5.59Z"/><path class="cls-6" d="M140.94,282.71a3.71,3.71,0,0,0,.67,0c.21,0,.38-.07.51-.1v1a2.5,2.5,0,0,1-.63.17,5,5,0,0,1-.73.06q-2.49,0-2.49-2.61v-5.1h-1.22v-.62l1.22-.54.55-1.83h.75v2h2.48v1h-2.48v5a1.71,1.71,0,0,0,.37,1.19A1.28,1.28,0,0,0,140.94,282.71Z"/><path class="cls-6" d="M149.09,283.63l-.26-1.22h-.06a3.65,3.65,0,0,1-1.28,1.09,3.87,3.87,0,0,1-1.59.28,2.89,2.89,0,0,1-2-.65,2.4,2.4,0,0,1-.72-1.87q0-2.6,4.14-2.72l1.46-.05V278a2.17,2.17,0,0,0-.44-1.49A1.78,1.78,0,0,0,147,276a5.59,5.59,0,0,0-2.42.66l-.4-1a6,6,0,0,1,1.38-.54,6.1,6.1,0,0,1,1.52-.2,3.25,3.25,0,0,1,2.26.68,2.82,2.82,0,0,1,.74,2.18v5.85Zm-2.93-.92a2.63,2.63,0,0,0,1.9-.66,2.42,2.42,0,0,0,.7-1.86v-.77l-1.3.05a4.79,4.79,0,0,0-2.23.48,1.44,1.44,0,0,0-.68,1.32,1.34,1.34,0,0,0,.42,1.07A1.73,1.73,0,0,0,146.16,282.71Z"/><path class="cls-6" d="M154,279.24a16,16,0,0,1,1-1.25l2.77-2.93h1.53l-3.46,3.65,3.71,4.92H158l-3-4.05-1,.84v3.21h-1.28V271.47H154v6.45c0,.28,0,.72-.07,1.32Z"/><path class="cls-6" d="M164.74,283.78a4,4,0,0,1-3-1.15,4.48,4.48,0,0,1-1.09-3.21,5,5,0,0,1,1-3.29,3.36,3.36,0,0,1,2.73-1.22A3.21,3.21,0,0,1,167,276a4,4,0,0,1,.94,2.79v.82H162a3.43,3.43,0,0,0,.76,2.29,2.64,2.64,0,0,0,2,.78,6.8,6.8,0,0,0,2.73-.58v1.16a6.3,6.3,0,0,1-1.3.42A7,7,0,0,1,164.74,283.78Zm-.35-7.79a2.13,2.13,0,0,0-1.65.68,3.09,3.09,0,0,0-.72,1.85h4.48a2.8,2.8,0,0,0-.55-1.87A1.9,1.9,0,0,0,164.39,276Z"/><path class="cls-6" d="M175.62,281.29a2.12,2.12,0,0,1-.89,1.84,4.11,4.11,0,0,1-2.5.65,5.4,5.4,0,0,1-2.65-.54V282a6.3,6.3,0,0,0,1.32.49,5.53,5.53,0,0,0,1.36.18,3.2,3.2,0,0,0,1.57-.32,1.13,1.13,0,0,0,.11-1.85,7.33,7.33,0,0,0-1.69-.84,8.94,8.94,0,0,1-1.7-.77,2.26,2.26,0,0,1-.75-.76,2,2,0,0,1-.25-1,2,2,0,0,1,.85-1.66,4,4,0,0,1,2.34-.6,6.74,6.74,0,0,1,2.7.56l-.46,1a6.29,6.29,0,0,0-2.33-.53,2.69,2.69,0,0,0-1.39.29.88.88,0,0,0-.47.8,1,1,0,0,0,.17.59,1.87,1.87,0,0,0,.57.46,14.73,14.73,0,0,0,1.5.63,5.53,5.53,0,0,1,2.06,1.12A2,2,0,0,1,175.62,281.29Z"/><path class="cls-6" d="M187.15,283.63l-.25-1.22h-.07a3.63,3.63,0,0,1-1.27,1.09,3.94,3.94,0,0,1-1.59.28,2.9,2.9,0,0,1-2-.65,2.4,2.4,0,0,1-.72-1.87q0-2.6,4.15-2.72l1.45-.05V278a2.17,2.17,0,0,0-.43-1.49A1.79,1.79,0,0,0,185,276a5.63,5.63,0,0,0-2.42.66l-.4-1a6.32,6.32,0,0,1,2.9-.74,3.28,3.28,0,0,1,2.27.68,2.86,2.86,0,0,1,.74,2.18v5.85Zm-2.92-.92a2.65,2.65,0,0,0,1.9-.66,2.45,2.45,0,0,0,.69-1.86v-.77l-1.3.05a4.83,4.83,0,0,0-2.23.48,1.46,1.46,0,0,0-.68,1.32,1.34,1.34,0,0,0,.42,1.07A1.76,1.76,0,0,0,184.23,282.71Z"/><path class="cls-6" d="M201.94,283.63l-1.57-5c-.1-.31-.29-1-.56-2.09h-.06c-.21.91-.39,1.61-.55,2.11l-1.62,5h-1.5l-2.33-8.57h1.36l1.26,4.92a21.88,21.88,0,0,1,.5,2.27h.06c.06-.3.15-.68.28-1.15s.23-.85.33-1.12l1.57-4.92h1.4l1.54,4.92a17.42,17.42,0,0,1,.59,2.26h.06a8.37,8.37,0,0,1,.17-.87q.13-.58,1.63-6.31h1.34l-2.36,8.57Z"/><path class="cls-6" d="M213.25,283.63v-5.54a2.25,2.25,0,0,0-.48-1.57,2,2,0,0,0-1.49-.51,2.43,2.43,0,0,0-2,.73,3.71,3.71,0,0,0-.62,2.41v4.48h-1.3V271.47h1.3v3.68a6.76,6.76,0,0,1-.07,1.1h.08a2.71,2.71,0,0,1,1.09-1,3.5,3.5,0,0,1,1.61-.36,3.29,3.29,0,0,1,2.36.75,3.16,3.16,0,0,1,.79,2.37v5.59Z"/><path class="cls-6" d="M217.1,272.74a.85.85,0,0,1,.22-.65.8.8,0,0,1,1.08,0,.83.83,0,0,1,.23.65.84.84,0,0,1-.23.66.8.8,0,0,1-1.08,0A.88.88,0,0,1,217.1,272.74Zm1.41,10.89h-1.3v-8.57h1.3Z"/><path class="cls-6" d="M222.55,283.63h-1.29V271.47h1.29Z"/><path class="cls-6" d="M228.92,283.78a4,4,0,0,1-3-1.15,4.48,4.48,0,0,1-1.09-3.21,5,5,0,0,1,1-3.29,3.36,3.36,0,0,1,2.73-1.22,3.21,3.21,0,0,1,2.55,1.06,4,4,0,0,1,.94,2.79v.82h-5.9a3.43,3.43,0,0,0,.76,2.29,2.64,2.64,0,0,0,2,.78,6.8,6.8,0,0,0,2.73-.58v1.16a6.3,6.3,0,0,1-1.3.42A7,7,0,0,1,228.92,283.78Zm-.35-7.79a2.13,2.13,0,0,0-1.65.68,3.09,3.09,0,0,0-.72,1.85h4.48a2.8,2.8,0,0,0-.55-1.87A1.9,1.9,0,0,0,228.57,276Z"/><path class="cls-6" d="M53.26,301.91a3.71,3.71,0,0,0,.67-.05c.21,0,.38-.07.51-.1v1a2.5,2.5,0,0,1-.63.17,5,5,0,0,1-.73.06q-2.49,0-2.49-2.61v-5.1H49.37v-.62l1.22-.54.55-1.83h.75v2h2.48v1H51.89v5a1.71,1.71,0,0,0,.37,1.19A1.28,1.28,0,0,0,53.26,301.91Z"/><path class="cls-6" d="M63.54,298.54a4.71,4.71,0,0,1-1.06,3.27A3.71,3.71,0,0,1,59.57,303a3.84,3.84,0,0,1-2-.54,3.63,3.63,0,0,1-1.38-1.54,5.46,5.46,0,0,1-.48-2.36,4.68,4.68,0,0,1,1-3.26,4.1,4.1,0,0,1,5.76,0A4.75,4.75,0,0,1,63.54,298.54Zm-6.53,0a4.07,4.07,0,0,0,.66,2.5,2.6,2.6,0,0,0,3.86,0,4,4,0,0,0,.66-2.5,4,4,0,0,0-.66-2.48,2.65,2.65,0,0,0-3.87,0A4.06,4.06,0,0,0,57,298.54Z"/><path class="cls-6" d="M75.49,300.49a2.14,2.14,0,0,1-.89,1.84,4.13,4.13,0,0,1-2.5.65,5.44,5.44,0,0,1-2.66-.54v-1.2a6.38,6.38,0,0,0,1.33.49,5.47,5.47,0,0,0,1.36.18,3.13,3.13,0,0,0,1.56-.32,1.12,1.12,0,0,0,.12-1.85,7.56,7.56,0,0,0-1.69-.84,8.65,8.65,0,0,1-1.7-.77,2.26,2.26,0,0,1-.75-.76,1.88,1.88,0,0,1-.25-1,1.93,1.93,0,0,1,.85-1.66,4,4,0,0,1,2.34-.6,6.74,6.74,0,0,1,2.7.56l-.46,1.05a6.3,6.3,0,0,0-2.34-.53,2.74,2.74,0,0,0-1.39.29.9.9,0,0,0-.47.8,1,1,0,0,0,.18.59,1.87,1.87,0,0,0,.57.46,14.73,14.73,0,0,0,1.5.63A5.62,5.62,0,0,1,75,299.08,2,2,0,0,1,75.49,300.49Z"/><path class="cls-6" d="M81.58,303a3.63,3.63,0,0,1-1.52-.31,2.8,2.8,0,0,1-1.16-.95h-.1a10.33,10.33,0,0,1,.1,1.43v3.52H77.6V294.26h1.05l.18,1.18h.07a3,3,0,0,1,1.16-1,3.5,3.5,0,0,1,1.52-.31,3.17,3.17,0,0,1,2.63,1.16,5.13,5.13,0,0,1,.93,3.27,5.05,5.05,0,0,1-.94,3.27A3.18,3.18,0,0,1,81.58,303Zm-.18-7.77a2.28,2.28,0,0,0-1.9.73,3.72,3.72,0,0,0-.6,2.31v.29a4.3,4.3,0,0,0,.6,2.58,2.28,2.28,0,0,0,1.93.78,2,2,0,0,0,1.74-.9,4.27,4.27,0,0,0,.63-2.48,4.1,4.1,0,0,0-.63-2.46A2.07,2.07,0,0,0,81.4,295.21Z"/><path class="cls-6" d="M87.3,291.94a.89.89,0,0,1,.21-.65.81.81,0,0,1,1.09,0,.87.87,0,0,1,.23.65.88.88,0,0,1-.23.66.81.81,0,0,1-1.09,0A.92.92,0,0,1,87.3,291.94Zm1.4,10.89H87.4v-8.57h1.3Z"/><path class="cls-6" d="M97.31,302.83v-5.54a2.25,2.25,0,0,0-.48-1.57,1.93,1.93,0,0,0-1.49-.51,2.46,2.46,0,0,0-2,.73,3.68,3.68,0,0,0-.62,2.39v4.5h-1.3v-8.57h1.06l.21,1.18h.06a2.61,2.61,0,0,1,1.12-1,3.51,3.51,0,0,1,1.6-.35,3.29,3.29,0,0,1,2.33.74,3.2,3.2,0,0,1,.78,2.39v5.59Z"/><path class="cls-6" d="M106.65,294.26v5.56a2.26,2.26,0,0,0,.47,1.56,2,2,0,0,0,1.5.52,2.43,2.43,0,0,0,2-.74,3.73,3.73,0,0,0,.62-2.4v-4.5h1.3v8.57h-1.07l-.19-1.15h-.07a2.63,2.63,0,0,1-1.11,1,3.73,3.73,0,0,1-1.61.33,3.26,3.26,0,0,1-2.34-.74,3.15,3.15,0,0,1-.78-2.37v-5.61Z"/><path class="cls-6" d="M119.23,303a3.63,3.63,0,0,1-1.52-.31,2.73,2.73,0,0,1-1.16-.95h-.1a12.15,12.15,0,0,1,.1,1.43v3.52h-1.3V294.26h1l.18,1.18h.07a3,3,0,0,1,1.16-1,3.5,3.5,0,0,1,1.52-.31,3.18,3.18,0,0,1,2.63,1.16,6.19,6.19,0,0,1,0,6.54A3.18,3.18,0,0,1,119.23,303Zm-.18-7.77a2.28,2.28,0,0,0-1.9.73,3.72,3.72,0,0,0-.6,2.31v.29a4.3,4.3,0,0,0,.6,2.58,2.28,2.28,0,0,0,1.93.78,2,2,0,0,0,1.73-.9,4.27,4.27,0,0,0,.63-2.48,4.1,4.1,0,0,0-.63-2.46A2,2,0,0,0,119.05,295.21Z"/><path class="cls-6" d="M56.59,164.43,52.72,154.3h-.07c.08.8.11,1.76.11,2.86v7.27H51.54V153h2l3.61,9.42h.07L60.86,153h2v11.42H61.52v-7.36c0-.84,0-1.76.11-2.75h-.06l-3.91,10.11Z"/><path class="cls-6" d="M73.18,160.14a4.71,4.71,0,0,1-1.06,3.27,3.71,3.71,0,0,1-2.91,1.17,3.92,3.92,0,0,1-2-.53,3.66,3.66,0,0,1-1.38-1.55,5.43,5.43,0,0,1-.48-2.36,4.7,4.7,0,0,1,1-3.26,4.1,4.1,0,0,1,5.76,0A4.75,4.75,0,0,1,73.18,160.14Zm-6.53,0a4,4,0,0,0,.66,2.5,2.6,2.6,0,0,0,3.86,0,4,4,0,0,0,.66-2.5,4,4,0,0,0-.66-2.48,2.31,2.31,0,0,0-2-.85,2.28,2.28,0,0,0-1.92.84A4,4,0,0,0,66.65,160.14Z"/><path class="cls-6" d="M79.36,155.71a5.23,5.23,0,0,1,1,.09L80.2,157a4.32,4.32,0,0,0-.94-.12,2.27,2.27,0,0,0-1.77.84,3.06,3.06,0,0,0-.74,2.1v4.6h-1.3v-8.56h1.07l.15,1.58h.06a3.73,3.73,0,0,1,1.15-1.29A2.61,2.61,0,0,1,79.36,155.71Z"/><path class="cls-6" d="M85.6,164.58a3.93,3.93,0,0,1-3-1.15,4.48,4.48,0,0,1-1.1-3.21,5,5,0,0,1,1-3.29,3.41,3.41,0,0,1,2.74-1.22,3.22,3.22,0,0,1,2.55,1.06,4.06,4.06,0,0,1,.94,2.79v.82h-5.9a3.42,3.42,0,0,0,.76,2.29,2.64,2.64,0,0,0,2,.78,6.8,6.8,0,0,0,2.73-.58V164a7,7,0,0,1-1.3.43A7.83,7.83,0,0,1,85.6,164.58Zm-.35-7.78a2.12,2.12,0,0,0-1.65.67,3.06,3.06,0,0,0-.72,1.86h4.48a2.87,2.87,0,0,0-.55-1.88A1.91,1.91,0,0,0,85.25,156.8Z"/><path class="cls-6" d="M98.54,164.58a3.66,3.66,0,0,1-2.88-1.14,4.7,4.7,0,0,1-1-3.24,4.85,4.85,0,0,1,1-3.32,3.74,3.74,0,0,1,3-1.17,5.81,5.81,0,0,1,1.24.13,4.26,4.26,0,0,1,1,.31l-.4,1.11a6.1,6.1,0,0,0-.94-.29,4.57,4.57,0,0,0-.9-.11q-2.61,0-2.61,3.33a3.92,3.92,0,0,0,.64,2.42,2.2,2.2,0,0,0,1.88.84,5.71,5.71,0,0,0,2.2-.46v1.15A4.62,4.62,0,0,1,98.54,164.58Z"/><path class="cls-6" d="M110.12,160.14a4.76,4.76,0,0,1-1.05,3.27,3.75,3.75,0,0,1-2.92,1.17,4,4,0,0,1-2-.53,3.57,3.57,0,0,1-1.37-1.55,5.43,5.43,0,0,1-.49-2.36,4.7,4.7,0,0,1,1-3.26,3.71,3.71,0,0,1,2.91-1.17,3.62,3.62,0,0,1,2.85,1.19A4.7,4.7,0,0,1,110.12,160.14Zm-6.52,0a4.12,4.12,0,0,0,.65,2.5,2.61,2.61,0,0,0,3.87,0,4,4,0,0,0,.66-2.5,4,4,0,0,0-.66-2.48,2.31,2.31,0,0,0-2-.85,2.27,2.27,0,0,0-1.92.84A3.94,3.94,0,0,0,103.6,160.14Z"/><path class="cls-6" d="M118.25,164.43v-5.54a2.21,2.21,0,0,0-.47-1.56,1.93,1.93,0,0,0-1.49-.52,2.43,2.43,0,0,0-2,.73,3.63,3.63,0,0,0-.63,2.4v4.49H112.4v-8.56h1l.21,1.17h.06a2.68,2.68,0,0,1,1.12-1,3.65,3.65,0,0,1,1.6-.35,3.25,3.25,0,0,1,2.33.75,3.16,3.16,0,0,1,.78,2.38v5.59Z"/><path class="cls-6" d="M125,163.51a3.71,3.71,0,0,0,.67,0,4.83,4.83,0,0,0,.5-.1v1a2.4,2.4,0,0,1-.62.17,5.12,5.12,0,0,1-.74.06c-1.65,0-2.48-.87-2.48-2.61v-5.1h-1.23v-.62l1.23-.54.55-1.83h.75v2h2.48v1h-2.48v5a1.76,1.76,0,0,0,.36,1.19A1.27,1.27,0,0,0,125,163.51Z"/><path class="cls-6" d="M131.77,155.71a5.23,5.23,0,0,1,1,.09l-.18,1.21a4.23,4.23,0,0,0-.93-.12,2.28,2.28,0,0,0-1.78.84,3.11,3.11,0,0,0-.74,2.1v4.6h-1.3v-8.56h1.07l.15,1.58h.07a3.71,3.71,0,0,1,1.14-1.29A2.61,2.61,0,0,1,131.77,155.71Z"/><path class="cls-6" d="M141.79,160.14a4.76,4.76,0,0,1-1.06,3.27,3.71,3.71,0,0,1-2.91,1.17,3.92,3.92,0,0,1-2-.53,3.6,3.6,0,0,1-1.38-1.55,5.43,5.43,0,0,1-.48-2.36,4.7,4.7,0,0,1,1.05-3.26,4.1,4.1,0,0,1,5.76,0A4.75,4.75,0,0,1,141.79,160.14Zm-6.53,0a4,4,0,0,0,.66,2.5,2.6,2.6,0,0,0,3.86,0,4,4,0,0,0,.66-2.5,4,4,0,0,0-.66-2.48,2.31,2.31,0,0,0-1.95-.85,2.27,2.27,0,0,0-1.92.84A4,4,0,0,0,135.26,160.14Z"/><path class="cls-6" d="M145.36,164.43h-1.3V152.27h1.3Z"/><path class="cls-6" d="M159.65,160.14a4.76,4.76,0,0,1-1.05,3.27,3.73,3.73,0,0,1-2.92,1.17,3.91,3.91,0,0,1-2-.53,3.53,3.53,0,0,1-1.38-1.55,5.43,5.43,0,0,1-.48-2.36,4.69,4.69,0,0,1,1-3.26,3.71,3.71,0,0,1,2.91-1.17,3.62,3.62,0,0,1,2.85,1.19A4.7,4.7,0,0,1,159.65,160.14Zm-6.52,0a4,4,0,0,0,.66,2.5,2.28,2.28,0,0,0,1.93.86,2.3,2.3,0,0,0,1.93-.86,4,4,0,0,0,.66-2.5,4,4,0,0,0-.66-2.48,2.31,2.31,0,0,0-2-.85,2.27,2.27,0,0,0-1.92.84A4,4,0,0,0,153.13,160.14Z"/><path class="cls-6" d="M163.8,164.43l-3.25-8.56h1.39l1.85,5.07a24.24,24.24,0,0,1,.73,2.32h.06a17.31,17.31,0,0,1,.55-1.72q.45-1.31,2.05-5.67h1.39l-3.25,8.56Z"/><path class="cls-6" d="M173.56,164.58a3.93,3.93,0,0,1-3-1.15,4.48,4.48,0,0,1-1.09-3.21,5,5,0,0,1,1-3.29,3.39,3.39,0,0,1,2.73-1.22,3.21,3.21,0,0,1,2.55,1.06,4,4,0,0,1,.94,2.79v.82h-5.9a3.42,3.42,0,0,0,.76,2.29,2.64,2.64,0,0,0,2,.78,6.8,6.8,0,0,0,2.73-.58V164a7,7,0,0,1-1.3.43A7.83,7.83,0,0,1,173.56,164.58Zm-.35-7.78a2.12,2.12,0,0,0-1.65.67,3.06,3.06,0,0,0-.72,1.86h4.48a2.87,2.87,0,0,0-.55-1.88A1.91,1.91,0,0,0,173.21,156.8Z"/><path class="cls-6" d="M182.83,155.71a5.23,5.23,0,0,1,1,.09l-.18,1.21a4.39,4.39,0,0,0-.94-.12,2.31,2.31,0,0,0-1.78.84,3.11,3.11,0,0,0-.73,2.1v4.6h-1.3v-8.56H180l.15,1.58h.06a3.73,3.73,0,0,1,1.15-1.29A2.61,2.61,0,0,1,182.83,155.71Z"/><path class="cls-6" d="M57.17,182.48H57.1a3.05,3.05,0,0,1-2.69,1.3,3.18,3.18,0,0,1-2.61-1.14,5.09,5.09,0,0,1-.94-3.27,5.17,5.17,0,0,1,.94-3.29,3.17,3.17,0,0,1,2.61-1.17,3.1,3.1,0,0,1,2.67,1.27h.1l0-.62,0-.6v-3.49h1.3v12.16H57.34Zm-2.59.22A2.36,2.36,0,0,0,56.5,182a3.67,3.67,0,0,0,.6-2.34v-.27a4.27,4.27,0,0,0-.61-2.6,2.27,2.27,0,0,0-1.93-.77,2,2,0,0,0-1.75.88,4.46,4.46,0,0,0-.6,2.51,4.2,4.2,0,0,0,.6,2.47A2,2,0,0,0,54.58,182.7Z"/><path class="cls-6" d="M64.76,183.78a3.93,3.93,0,0,1-3-1.15,4.48,4.48,0,0,1-1.1-3.21,5,5,0,0,1,1-3.29,3.39,3.39,0,0,1,2.74-1.22A3.2,3.2,0,0,1,67,176a4,4,0,0,1,.94,2.79v.82H62a3.42,3.42,0,0,0,.76,2.29,2.65,2.65,0,0,0,2,.78,6.8,6.8,0,0,0,2.73-.58v1.16a6.81,6.81,0,0,1-1.3.43A7.83,7.83,0,0,1,64.76,183.78ZM64.41,176a2.1,2.1,0,0,0-1.64.67,3.12,3.12,0,0,0-.73,1.86h4.48a2.81,2.81,0,0,0-.55-1.88A1.89,1.89,0,0,0,64.41,176Z"/><path class="cls-6" d="M74.11,183.78a3.8,3.8,0,0,1-1.53-.3,3,3,0,0,1-1.16-.95h-.09a11.9,11.9,0,0,1,.09,1.42v3.52h-1.3v-12.4h1.06l.18,1.17h.06a3,3,0,0,1,1.16-1,3.54,3.54,0,0,1,1.53-.31,3.19,3.19,0,0,1,2.63,1.16,5.19,5.19,0,0,1,.92,3.27,5.08,5.08,0,0,1-.94,3.28A3.16,3.16,0,0,1,74.11,183.78ZM73.92,176a2.28,2.28,0,0,0-1.9.73,3.72,3.72,0,0,0-.6,2.31v.29a4.3,4.3,0,0,0,.6,2.58,2.28,2.28,0,0,0,1.93.78,2,2,0,0,0,1.74-.9,4.25,4.25,0,0,0,.63-2.48,4.09,4.09,0,0,0-.63-2.45A2.08,2.08,0,0,0,73.92,176Z"/><path class="cls-6" d="M81.22,183.63H79.93V171.47h1.29Z"/><path class="cls-6" d="M91.36,179.34a4.76,4.76,0,0,1-1,3.27,3.72,3.72,0,0,1-2.91,1.17,3.92,3.92,0,0,1-2-.53A3.53,3.53,0,0,1,84,181.7a5.43,5.43,0,0,1-.48-2.36,4.74,4.74,0,0,1,1-3.26,3.71,3.71,0,0,1,2.91-1.17,3.65,3.65,0,0,1,2.86,1.19A4.75,4.75,0,0,1,91.36,179.34Zm-6.52,0a4,4,0,0,0,.66,2.5,2.6,2.6,0,0,0,3.86,0,4,4,0,0,0,.66-2.5,4,4,0,0,0-.66-2.48,2.31,2.31,0,0,0-2-.85,2.27,2.27,0,0,0-1.92.84A4,4,0,0,0,84.84,179.34Z"/><path class="cls-6" d="M92.28,175.07h1.39L95.54,180a17.63,17.63,0,0,1,.77,2.41h.06c.07-.26.21-.72.43-1.36s.92-2.62,2.12-5.93h1.39l-3.68,9.75a4.85,4.85,0,0,1-1.28,2.05,2.71,2.71,0,0,1-1.79.6,5.06,5.06,0,0,1-1.17-.13v-1a4.61,4.61,0,0,0,1,.09,2,2,0,0,0,1.9-1.5l.48-1.21Z"/><path class="cls-6" d="M112.61,183.63v-5.57a2.34,2.34,0,0,0-.43-1.54,1.71,1.71,0,0,0-1.36-.51,2.17,2.17,0,0,0-1.79.7,3.26,3.26,0,0,0-.58,2.14v4.78h-1.3v-5.57a2.34,2.34,0,0,0-.43-1.54,1.72,1.72,0,0,0-1.37-.51,2.13,2.13,0,0,0-1.79.73,4,4,0,0,0-.56,2.4v4.49h-1.3v-8.56h1l.22,1.17H103a2.56,2.56,0,0,1,1-1,3.25,3.25,0,0,1,1.5-.35,2.53,2.53,0,0,1,2.62,1.45h.07a2.65,2.65,0,0,1,1.11-1.06,3.41,3.41,0,0,1,1.65-.39,2.9,2.9,0,0,1,2.18.75,3.32,3.32,0,0,1,.72,2.38v5.59Z"/><path class="cls-6" d="M120.2,183.78a4,4,0,0,1-3-1.15,4.48,4.48,0,0,1-1.09-3.21,5,5,0,0,1,1-3.29,3.39,3.39,0,0,1,2.73-1.22,3.21,3.21,0,0,1,2.55,1.06,4,4,0,0,1,.94,2.79v.82h-5.9a3.42,3.42,0,0,0,.76,2.29,2.64,2.64,0,0,0,2,.78,6.8,6.8,0,0,0,2.73-.58v1.16a7,7,0,0,1-1.3.43A7.83,7.83,0,0,1,120.2,183.78Zm-.35-7.78a2.12,2.12,0,0,0-1.65.67,3.06,3.06,0,0,0-.72,1.86H122a2.81,2.81,0,0,0-.55-1.88A1.89,1.89,0,0,0,119.85,176Z"/><path class="cls-6" d="M131.42,183.63v-5.54a2.21,2.21,0,0,0-.48-1.56,1.91,1.91,0,0,0-1.49-.52,2.45,2.45,0,0,0-2,.73,3.64,3.64,0,0,0-.62,2.4v4.49h-1.3v-8.56h1l.22,1.17h.06a2.65,2.65,0,0,1,1.11-1,3.69,3.69,0,0,1,1.61-.35,3.22,3.22,0,0,1,2.32.75,3.12,3.12,0,0,1,.79,2.38v5.59Z"/><path class="cls-6" d="M138.15,182.71a3.53,3.53,0,0,0,.66-.05c.21,0,.38-.07.51-.1v1a2.53,2.53,0,0,1-.62.17,5.23,5.23,0,0,1-.74.06q-2.49,0-2.49-2.61v-5.1h-1.22v-.62l1.22-.54.55-1.83h.75v2h2.48v1h-2.48v5a1.71,1.71,0,0,0,.37,1.19A1.26,1.26,0,0,0,138.15,182.71Z"/><path class="cls-6" d="M148.8,183.78a3.93,3.93,0,0,1-3-1.15,4.44,4.44,0,0,1-1.1-3.21,5,5,0,0,1,1-3.29,3.39,3.39,0,0,1,2.74-1.22A3.2,3.2,0,0,1,151,176a4,4,0,0,1,.94,2.79v.82h-5.9a3.42,3.42,0,0,0,.76,2.29,2.64,2.64,0,0,0,2,.78,6.8,6.8,0,0,0,2.73-.58v1.16a7,7,0,0,1-1.3.43A7.83,7.83,0,0,1,148.8,183.78Zm-.35-7.78a2.08,2.08,0,0,0-1.64.67,3.12,3.12,0,0,0-.73,1.86h4.48a2.81,2.81,0,0,0-.55-1.88A1.89,1.89,0,0,0,148.45,176Z"/><path class="cls-6" d="M160,183.63v-5.54a2.21,2.21,0,0,0-.48-1.56,1.9,1.9,0,0,0-1.49-.52,2.46,2.46,0,0,0-2,.73,3.7,3.7,0,0,0-.62,2.4v4.49h-1.3v-8.56h1.06l.21,1.17h.06a2.62,2.62,0,0,1,1.12-1,3.65,3.65,0,0,1,1.6-.35,3.25,3.25,0,0,1,2.33.75,3.16,3.16,0,0,1,.78,2.38v5.59Z"/><path class="cls-6" d="M165.86,183.63l-3.25-8.56H164l1.84,5.07c.42,1.19.66,2,.74,2.32h.06c.06-.28.24-.85.54-1.72s1-2.76,2-5.67h1.39l-3.25,8.56Z"/><path class="cls-6" d="M171.89,172.75a.86.86,0,0,1,.22-.66.81.81,0,0,1,1.08,0,.84.84,0,0,1,.23.65.87.87,0,0,1-.23.65.76.76,0,0,1-.54.21.73.73,0,0,1-.54-.21A.87.87,0,0,1,171.89,172.75Zm1.4,10.88H172v-8.56h1.29Z"/><path class="cls-6" d="M180,174.91a5.23,5.23,0,0,1,1,.09l-.18,1.21a4.23,4.23,0,0,0-.93-.12,2.28,2.28,0,0,0-1.78.84,3.11,3.11,0,0,0-.74,2.1v4.6H176v-8.56h1.07l.15,1.58h.07a3.71,3.71,0,0,1,1.14-1.29A2.61,2.61,0,0,1,180,174.91Z"/><path class="cls-6" d="M190,179.34a4.76,4.76,0,0,1-1.06,3.27,3.71,3.71,0,0,1-2.91,1.17,3.92,3.92,0,0,1-2-.53,3.6,3.6,0,0,1-1.38-1.55,5.43,5.43,0,0,1-.48-2.36,4.7,4.7,0,0,1,1.05-3.26,4.1,4.1,0,0,1,5.76,0A4.75,4.75,0,0,1,190,179.34Zm-6.53,0a4,4,0,0,0,.66,2.5,2.6,2.6,0,0,0,3.86,0,4,4,0,0,0,.66-2.5,4,4,0,0,0-.66-2.48,2.31,2.31,0,0,0-2-.85,2.27,2.27,0,0,0-1.92.84A4,4,0,0,0,183.44,179.34Z"/><path class="cls-6" d="M198.1,183.63v-5.54a2.21,2.21,0,0,0-.48-1.56,1.91,1.91,0,0,0-1.49-.52,2.45,2.45,0,0,0-2,.73,3.64,3.64,0,0,0-.62,2.4v4.49h-1.3v-8.56h1l.21,1.17h.07a2.65,2.65,0,0,1,1.11-1,3.69,3.69,0,0,1,1.61-.35,3.22,3.22,0,0,1,2.32.75,3.16,3.16,0,0,1,.79,2.38v5.59Z"/><path class="cls-6" d="M213,183.63v-5.57a2.34,2.34,0,0,0-.43-1.54,1.71,1.71,0,0,0-1.36-.51,2.17,2.17,0,0,0-1.79.7,3.26,3.26,0,0,0-.58,2.14v4.78h-1.3v-5.57a2.34,2.34,0,0,0-.43-1.54,1.72,1.72,0,0,0-1.37-.51,2.13,2.13,0,0,0-1.79.73,4,4,0,0,0-.56,2.4v4.49h-1.3v-8.56h1.05l.22,1.17h.06a2.56,2.56,0,0,1,1-1,3.25,3.25,0,0,1,1.5-.35,2.53,2.53,0,0,1,2.62,1.45h.07a2.65,2.65,0,0,1,1.11-1.06,3.41,3.41,0,0,1,1.65-.39,2.9,2.9,0,0,1,2.18.75,3.32,3.32,0,0,1,.72,2.38v5.59Z"/><path class="cls-6" d="M220.56,183.78a3.93,3.93,0,0,1-3-1.15,4.48,4.48,0,0,1-1.09-3.21,5,5,0,0,1,1-3.29,3.39,3.39,0,0,1,2.73-1.22,3.21,3.21,0,0,1,2.55,1.06,4,4,0,0,1,.94,2.79v.82h-5.9a3.42,3.42,0,0,0,.76,2.29,2.64,2.64,0,0,0,2,.78,6.8,6.8,0,0,0,2.73-.58v1.16a7,7,0,0,1-1.3.43A7.83,7.83,0,0,1,220.56,183.78Zm-.35-7.78a2.12,2.12,0,0,0-1.65.67,3.06,3.06,0,0,0-.72,1.86h4.48a2.87,2.87,0,0,0-.55-1.88A1.91,1.91,0,0,0,220.21,176Z"/><path class="cls-6" d="M231.78,183.63v-5.54a2.21,2.21,0,0,0-.48-1.56,1.91,1.91,0,0,0-1.49-.52,2.45,2.45,0,0,0-2,.73,3.64,3.64,0,0,0-.62,2.4v4.49h-1.3v-8.56H227l.21,1.17h.07a2.59,2.59,0,0,1,1.11-1,3.69,3.69,0,0,1,1.61-.35,3.22,3.22,0,0,1,2.32.75,3.16,3.16,0,0,1,.79,2.38v5.59Z"/><path class="cls-6" d="M238.5,182.71a3.64,3.64,0,0,0,.67-.05c.21,0,.38-.07.51-.1v1a2.53,2.53,0,0,1-.62.17,5.23,5.23,0,0,1-.74.06q-2.49,0-2.49-2.61v-5.1h-1.22v-.62l1.22-.54.55-1.83h.75v2h2.48v1h-2.48v5a1.71,1.71,0,0,0,.37,1.19A1.25,1.25,0,0,0,238.5,182.71Z"/></svg>