<svg xmlns="http://www.w3.org/2000/svg" viewBox="0 0 700 454.48"><defs><style>.cls-1,.cls-3{fill:#8176b5;}.cls-1{opacity:0.8;}.cls-2{fill:#ba77b1;}.cls-4{fill:#fff;}</style></defs><title>LearningCenter_MRK-6287_What is PaaS-MasterFile(Img1-2)_Approved</title><g id="Layer_3" data-name="Layer 3"><polygon class="cls-1" points="472.11 160.41 227.89 160.41 121.33 297.41 578.67 297.41 472.11 160.41"/><polygon class="cls-2" points="350 3.41 237.22 148.41 462.78 148.41 350 3.41"/><polygon class="cls-3" points="700 453.41 588 309.41 112 309.41 0 453.41 700 453.41"/><polygon class="cls-4" points="462.78 148.41 237.22 148.41 227.89 160.41 472.11 160.41 462.78 148.41"/><polygon class="cls-4" points="578.67 297.41 121.33 297.41 112 309.41 588 309.41 578.67 297.41"/><path class="cls-4" d="M330.37,221.93a7.52,7.52,0,0,1-2.63,6.17q-2.64,2.15-7.51,2.14h-2.67v9.62h-4.2v-25.7h7.4q4.82,0,7.21,2A7.05,7.05,0,0,1,330.37,221.93Zm-12.81,4.78h2.23a8,8,0,0,0,4.75-1.12,4.13,4.13,0,0,0,1.51-3.52,4,4,0,0,0-1.35-3.3,6.68,6.68,0,0,0-4.22-1.09h-2.92Z"/><path class="cls-4" d="M345.28,239.86l-.83-2.71h-.14a8,8,0,0,1-2.83,2.42,8.93,8.93,0,0,1-3.66.64,6.18,6.18,0,0,1-4.47-1.55,5.79,5.79,0,0,1-1.61-4.37,5.16,5.16,0,0,1,2.23-4.54c1.49-1,3.76-1.57,6.81-1.67l3.35-.1v-1a4,4,0,0,0-.87-2.79,3.56,3.56,0,0,0-2.69-.92,9.41,9.41,0,0,0-2.87.44,21.61,21.61,0,0,0-2.64,1l-1.33-3a14.07,14.07,0,0,1,3.46-1.25,15.76,15.76,0,0,1,3.55-.43,8.41,8.41,0,0,1,5.6,1.61q1.89,1.62,1.89,5.08v13.1Zm-6.16-2.81a5.13,5.13,0,0,0,3.62-1.26,4.58,4.58,0,0,0,1.36-3.52v-1.69l-2.5.1a8.51,8.51,0,0,0-4.24,1,3,3,0,0,0-1.33,2.66,2.6,2.6,0,0,0,.77,2A3.31,3.31,0,0,0,339.12,237.05Z"/><path class="cls-4" d="M364.69,239.86l-.83-2.71h-.14a7.87,7.87,0,0,1-2.83,2.42,8.91,8.91,0,0,1-3.65.64,6.21,6.21,0,0,1-4.48-1.55,5.79,5.79,0,0,1-1.61-4.37,5.14,5.14,0,0,1,2.24-4.54c1.49-1,3.75-1.57,6.8-1.67l3.36-.1v-1a4,4,0,0,0-.87-2.79,3.57,3.57,0,0,0-2.7-.92,9.46,9.46,0,0,0-2.87.44,20.85,20.85,0,0,0-2.63,1l-1.34-3a14.22,14.22,0,0,1,3.46-1.25,15.82,15.82,0,0,1,3.55-.43,8.39,8.39,0,0,1,5.6,1.61q1.89,1.62,1.89,5.08v13.1Zm-6.15-2.81a5.11,5.11,0,0,0,3.61-1.26,4.54,4.54,0,0,0,1.36-3.52v-1.69l-2.49.1a8.56,8.56,0,0,0-4.25,1,3,3,0,0,0-1.33,2.66,2.57,2.57,0,0,0,.78,2A3.29,3.29,0,0,0,358.54,237.05Z"/><path class="cls-4" d="M387.51,232.88a6.47,6.47,0,0,1-2.48,5.38,10.79,10.79,0,0,1-6.84,2,16.33,16.33,0,0,1-7.13-1.35v-4a18.91,18.91,0,0,0,3.73,1.31,16.22,16.22,0,0,0,3.69.47,5.87,5.87,0,0,0,3.68-.95,3.09,3.09,0,0,0,1.18-2.55,3.18,3.18,0,0,0-1.09-2.44,16.05,16.05,0,0,0-4.5-2.37,11.89,11.89,0,0,1-4.95-3.26,6.88,6.88,0,0,1-1.44-4.39,6.15,6.15,0,0,1,2.28-5.06,9.5,9.5,0,0,1,6.14-1.85,17.94,17.94,0,0,1,7.34,1.62l-1.33,3.43a16,16,0,0,0-6.12-1.45,4.69,4.69,0,0,0-3.09.89,2.91,2.91,0,0,0-1.06,2.35,3.28,3.28,0,0,0,.42,1.71,4.39,4.39,0,0,0,1.39,1.35,24.12,24.12,0,0,0,3.48,1.67,18.81,18.81,0,0,1,4.15,2.19,6.46,6.46,0,0,1,1.94,2.31A6.9,6.9,0,0,1,387.51,232.88Z"/><path class="cls-4" d="M318.65,391.35v-25.7h4.2v25.7Z"/><path class="cls-4" d="M340,391.35l-.82-2.71H339a7.87,7.87,0,0,1-2.83,2.42,8.85,8.85,0,0,1-3.65.64,6.22,6.22,0,0,1-4.48-1.54,5.81,5.81,0,0,1-1.6-4.38,5.14,5.14,0,0,1,2.23-4.54c1.49-1,3.75-1.57,6.8-1.67l3.36-.1v-1a3.91,3.91,0,0,0-.87-2.78,3.53,3.53,0,0,0-2.7-.93,9.35,9.35,0,0,0-2.86.44,20.41,20.41,0,0,0-2.64,1l-1.34-2.95A14.16,14.16,0,0,1,331.9,372a15.69,15.69,0,0,1,3.55-.43,8.36,8.36,0,0,1,5.59,1.62c1.26,1.07,1.89,2.77,1.89,5.08v13.09Zm-6.15-2.81a5.11,5.11,0,0,0,3.61-1.26,4.54,4.54,0,0,0,1.36-3.52v-1.69l-2.49.11a8.57,8.57,0,0,0-4.25,1,3,3,0,0,0-1.32,2.66,2.6,2.6,0,0,0,.77,2A3.34,3.34,0,0,0,333.83,388.54Z"/><path class="cls-4" d="M359.4,391.35l-.83-2.71h-.14a8,8,0,0,1-2.83,2.42,8.93,8.93,0,0,1-3.66.64,6.18,6.18,0,0,1-4.47-1.54,5.81,5.81,0,0,1-1.61-4.38,5.14,5.14,0,0,1,2.23-4.54c1.49-1,3.76-1.57,6.81-1.67l3.35-.1v-1a3.91,3.91,0,0,0-.87-2.78,3.53,3.53,0,0,0-2.7-.93,9.4,9.4,0,0,0-2.86.44,21.61,21.61,0,0,0-2.64,1l-1.33-2.95a14.09,14.09,0,0,1,3.46-1.26,15.76,15.76,0,0,1,3.55-.43,8.41,8.41,0,0,1,5.6,1.62c1.26,1.07,1.89,2.77,1.89,5.08v13.09Zm-6.16-2.81a5.13,5.13,0,0,0,3.62-1.26,4.58,4.58,0,0,0,1.36-3.52v-1.69l-2.5.11a8.53,8.53,0,0,0-4.24,1,3,3,0,0,0-1.33,2.66,2.64,2.64,0,0,0,.77,2A3.35,3.35,0,0,0,353.24,388.54Z"/><path class="cls-4" d="M382.22,384.37a6.47,6.47,0,0,1-2.48,5.38,10.81,10.81,0,0,1-6.84,1.95,16.35,16.35,0,0,1-7.14-1.35v-4a19.66,19.66,0,0,0,3.74,1.3,16.14,16.14,0,0,0,3.68.47,5.81,5.81,0,0,0,3.68-.95,3.09,3.09,0,0,0,1.19-2.55,3.18,3.18,0,0,0-1.09-2.44,16.36,16.36,0,0,0-4.5-2.37,12,12,0,0,1-5-3.25,6.9,6.9,0,0,1-1.44-4.4,6.14,6.14,0,0,1,2.29-5.06,9.47,9.47,0,0,1,6.13-1.85,18,18,0,0,1,7.35,1.62l-1.34,3.43a16,16,0,0,0-6.11-1.44,4.73,4.73,0,0,0-3.1.88,2.94,2.94,0,0,0-1,2.35,3.28,3.28,0,0,0,.42,1.71,4.19,4.19,0,0,0,1.39,1.35,23.08,23.08,0,0,0,3.48,1.67,18.76,18.76,0,0,1,4.15,2.2,6.4,6.4,0,0,1,1.93,2.3A6.9,6.9,0,0,1,382.22,384.37Z"/><path class="cls-4" d="M328.8,100.89a6.5,6.5,0,0,1-2.48,5.38,10.79,10.79,0,0,1-6.84,2,16.26,16.26,0,0,1-7.14-1.36v-4a19.9,19.9,0,0,0,3.74,1.3,15.7,15.7,0,0,0,3.68.48,5.91,5.91,0,0,0,3.69-1,3.11,3.11,0,0,0,1.18-2.55,3.2,3.2,0,0,0-1.09-2.45,16.6,16.6,0,0,0-4.5-2.37,12,12,0,0,1-5-3.25,6.89,6.89,0,0,1-1.44-4.4,6.17,6.17,0,0,1,2.29-5.06,9.47,9.47,0,0,1,6.13-1.84,18.17,18.17,0,0,1,7.35,1.61l-1.33,3.43A16.11,16.11,0,0,0,321,85.4a4.73,4.73,0,0,0-3.1.89,2.91,2.91,0,0,0-1.05,2.34,3.35,3.35,0,0,0,.42,1.72,4.37,4.37,0,0,0,1.39,1.34,23.08,23.08,0,0,0,3.48,1.67,19.19,19.19,0,0,1,4.15,2.2,6.48,6.48,0,0,1,1.93,2.3A7,7,0,0,1,328.8,100.89Z"/><path class="cls-4" d="M344.65,107.86l-.82-2.7h-.14a8.05,8.05,0,0,1-2.83,2.42,9.1,9.1,0,0,1-3.66.64,6.18,6.18,0,0,1-4.47-1.55,5.8,5.8,0,0,1-1.61-4.38,5.13,5.13,0,0,1,2.23-4.53q2.23-1.53,6.8-1.67l3.36-.11v-1a3.91,3.91,0,0,0-.87-2.78,3.53,3.53,0,0,0-2.7-.92,9.1,9.1,0,0,0-2.86.44,21,21,0,0,0-2.64,1l-1.33-2.95a14.35,14.35,0,0,1,3.46-1.26,16.35,16.35,0,0,1,3.55-.43,8.41,8.41,0,0,1,5.6,1.62q1.89,1.62,1.89,5.08v13.09Zm-6.15-2.81a5.13,5.13,0,0,0,3.61-1.25,4.57,4.57,0,0,0,1.37-3.53V98.58l-2.5.11a8.51,8.51,0,0,0-4.24,1,2.94,2.94,0,0,0-1.33,2.66,2.61,2.61,0,0,0,.77,2A3.31,3.31,0,0,0,338.5,105.05Z"/><path class="cls-4" d="M364.07,107.86l-.83-2.7h-.14a8.05,8.05,0,0,1-2.83,2.42,9.08,9.08,0,0,1-3.65.64,6.21,6.21,0,0,1-4.48-1.55,5.8,5.8,0,0,1-1.61-4.38,5.14,5.14,0,0,1,2.24-4.53q2.22-1.53,6.8-1.67l3.36-.11v-1a3.91,3.91,0,0,0-.87-2.78,3.53,3.53,0,0,0-2.7-.92,9.16,9.16,0,0,0-2.87.44,20.81,20.81,0,0,0-2.63,1l-1.34-2.95A14.5,14.5,0,0,1,356,88.5a16.42,16.42,0,0,1,3.55-.43,8.39,8.39,0,0,1,5.6,1.62Q367,91.31,367,94.77v13.09Zm-6.15-2.81a5.15,5.15,0,0,0,3.61-1.25,4.57,4.57,0,0,0,1.36-3.53V98.58l-2.5.11a8.51,8.51,0,0,0-4.24,1,2.94,2.94,0,0,0-1.33,2.66,2.58,2.58,0,0,0,.78,2A3.27,3.27,0,0,0,357.92,105.05Z"/><path class="cls-4" d="M386.89,100.89a6.5,6.5,0,0,1-2.48,5.38,10.79,10.79,0,0,1-6.84,2,16.18,16.18,0,0,1-7.13-1.36v-4a19.56,19.56,0,0,0,3.73,1.3,15.7,15.7,0,0,0,3.68.48,5.89,5.89,0,0,0,3.69-1,3.11,3.11,0,0,0,1.18-2.55,3.2,3.2,0,0,0-1.09-2.45,16.6,16.6,0,0,0-4.5-2.37,11.89,11.89,0,0,1-4.95-3.25,6.89,6.89,0,0,1-1.44-4.4A6.16,6.16,0,0,1,373,83.64a9.48,9.48,0,0,1,6.14-1.84,18.09,18.09,0,0,1,7.34,1.61l-1.33,3.43a16.11,16.11,0,0,0-6.12-1.44,4.69,4.69,0,0,0-3.09.89,2.89,2.89,0,0,0-1.06,2.34,3.35,3.35,0,0,0,.42,1.72,4.37,4.37,0,0,0,1.39,1.34,24.12,24.12,0,0,0,3.48,1.67,19.19,19.19,0,0,1,4.15,2.2,6.48,6.48,0,0,1,1.93,2.3A7,7,0,0,1,386.89,100.89Z"/></g></svg>