<svg id="Art" xmlns="http://www.w3.org/2000/svg" viewBox="0 0 700 163.33"><defs><style>.cls-1,.cls-3,.cls-6,.cls-7{fill:none;stroke-miterlimit:10;}.cls-1,.cls-6,.cls-7{stroke:#707070;}.cls-1,.cls-3{stroke-width:3.64px;}.cls-2{opacity:0.5;}.cls-3{stroke:#f58220;}.cls-4{fill:#707070;}.cls-5{fill:#f58220;}.cls-6{stroke-width:3px;}.cls-7{stroke-width:2px;}</style></defs><title>LearningCenter_6284_Serverless vs. Containers_Masterfile(Img 1-2)_PartiallyApproved</title><rect class="cls-1" x="10.83" y="58.46" width="102.46" height="37.04" rx="0.94" ry="0.94"/><line class="cls-1" x1="62.06" y1="70.56" x2="62.06" y2="83.39"/><line class="cls-1" x1="70.99" y1="70.56" x2="70.99" y2="83.39"/><line class="cls-1" x1="79.92" y1="70.56" x2="79.92" y2="83.39"/><line class="cls-1" x1="88.85" y1="70.56" x2="88.85" y2="83.39"/><line class="cls-1" x1="26.34" y1="70.56" x2="26.34" y2="83.39"/><line class="cls-1" x1="35.27" y1="70.56" x2="35.27" y2="83.39"/><line class="cls-1" x1="44.2" y1="70.56" x2="44.2" y2="83.39"/><line class="cls-1" x1="53.13" y1="70.56" x2="53.13" y2="83.39"/><line class="cls-1" x1="97.78" y1="70.56" x2="97.78" y2="83.39"/><line class="cls-1" x1="26.89" y1="103.11" x2="97.23" y2="103.11"/><g class="cls-2"><rect class="cls-3" x="561.84" y="58.46" width="102.46" height="37.04" rx="0.94" ry="0.94"/><line class="cls-3" x1="613.07" y1="70.56" x2="613.07" y2="83.39"/><line class="cls-3" x1="622" y1="70.56" x2="622" y2="83.39"/><line class="cls-3" x1="630.93" y1="70.56" x2="630.93" y2="83.39"/><line class="cls-3" x1="639.86" y1="70.56" x2="639.86" y2="83.39"/><line class="cls-3" x1="577.34" y1="70.56" x2="577.34" y2="83.39"/><line class="cls-3" x1="586.27" y1="70.56" x2="586.27" y2="83.39"/><line class="cls-3" x1="595.21" y1="70.56" x2="595.21" y2="83.39"/><line class="cls-3" x1="604.14" y1="70.56" x2="604.14" y2="83.39"/><line class="cls-3" x1="648.79" y1="70.56" x2="648.79" y2="83.39"/><line class="cls-3" x1="577.9" y1="103.11" x2="648.24" y2="103.11"/></g><path class="cls-4" d="M45.27,12a3.79,3.79,0,0,1-1.44,3.14,6.31,6.31,0,0,1-4,1.13,9.44,9.44,0,0,1-4.16-.79V13.16a11.84,11.84,0,0,0,2.17.76,9.5,9.5,0,0,0,2.15.27,3.42,3.42,0,0,0,2.15-.55,1.82,1.82,0,0,0,.69-1.49,1.86,1.86,0,0,0-.63-1.42,9.82,9.82,0,0,0-2.63-1.39,6.88,6.88,0,0,1-2.89-1.89,4,4,0,0,1-.84-2.57,3.58,3.58,0,0,1,1.33-2.95A5.52,5.52,0,0,1,40.76.85a10.5,10.5,0,0,1,4.29,1l-.78,2A9.2,9.2,0,0,0,40.7,3a2.76,2.76,0,0,0-1.8.52,1.71,1.71,0,0,0-.62,1.37,1.88,1.88,0,0,0,.25,1,2.45,2.45,0,0,0,.81.79,13.64,13.64,0,0,0,2,1,11.24,11.24,0,0,1,2.42,1.28,3.88,3.88,0,0,1,1.12,1.34A4.05,4.05,0,0,1,45.27,12Z"/><path class="cls-4" d="M52.94,16.26a5.47,5.47,0,0,1-4.14-1.54,5.83,5.83,0,0,1-1.49-4.25A6.45,6.45,0,0,1,48.69,6.1,4.79,4.79,0,0,1,52.5,4.51,4.65,4.65,0,0,1,56,5.88a5.21,5.21,0,0,1,1.31,3.75v1.3H49.79a3.71,3.71,0,0,0,.89,2.54,3.11,3.11,0,0,0,2.37.89,9.18,9.18,0,0,0,1.87-.19,10.21,10.21,0,0,0,1.86-.63v2a7.19,7.19,0,0,1-1.78.6A10.65,10.65,0,0,1,52.94,16.26ZM52.5,6.34a2.4,2.4,0,0,0-1.84.73,3.41,3.41,0,0,0-.83,2.12H55a3.16,3.16,0,0,0-.68-2.13A2.32,2.32,0,0,0,52.5,6.34Z"/><path class="cls-4" d="M65.78,4.51a5.57,5.57,0,0,1,1.2.11l-.23,2.24a4.74,4.74,0,0,0-1.07-.12,3.05,3.05,0,0,0-2.34.94,3.41,3.41,0,0,0-.9,2.45v5.93H60V4.72h1.89l.31,2h.13a4.32,4.32,0,0,1,1.47-1.61A3.45,3.45,0,0,1,65.78,4.51Z"/><path class="cls-4" d="M72.46,16.06,68.15,4.72H70.7L73,11.31A12.71,12.71,0,0,1,73.72,14h.08a19,19,0,0,1,.72-2.69l2.31-6.59h2.56L75.07,16.06Z"/><path class="cls-4" d="M85.81,16.26a5.47,5.47,0,0,1-4.14-1.54,5.83,5.83,0,0,1-1.49-4.25A6.45,6.45,0,0,1,81.56,6.1a4.79,4.79,0,0,1,3.81-1.59,4.65,4.65,0,0,1,3.54,1.37,5.21,5.21,0,0,1,1.31,3.75v1.3H82.66a3.71,3.71,0,0,0,.89,2.54,3.11,3.11,0,0,0,2.37.89,9.18,9.18,0,0,0,1.87-.19,10.21,10.21,0,0,0,1.86-.63v2a7.19,7.19,0,0,1-1.78.6A10.65,10.65,0,0,1,85.81,16.26Zm-.44-9.92a2.4,2.4,0,0,0-1.84.73,3.41,3.41,0,0,0-.83,2.12h5.15a3.16,3.16,0,0,0-.68-2.13A2.32,2.32,0,0,0,85.37,6.34Z"/><path class="cls-4" d="M98.65,4.51a5.57,5.57,0,0,1,1.2.11l-.23,2.24a4.74,4.74,0,0,0-1.07-.12,3.07,3.07,0,0,0-2.34.94,3.41,3.41,0,0,0-.9,2.45v5.93H92.9V4.72h1.89l.31,2h.13A4.32,4.32,0,0,1,96.7,5.11,3.45,3.45,0,0,1,98.65,4.51Z"/><path class="cls-4" d="M104.28,16.06h-2.41V.1h2.41Z"/><path class="cls-4" d="M112.58,16.26a5.47,5.47,0,0,1-4.14-1.54A5.87,5.87,0,0,1,107,10.47a6.45,6.45,0,0,1,1.38-4.37,4.79,4.79,0,0,1,3.81-1.59,4.65,4.65,0,0,1,3.54,1.37A5.21,5.21,0,0,1,117,9.63v1.3h-7.56a3.71,3.71,0,0,0,.89,2.54,3.11,3.11,0,0,0,2.37.89,9.18,9.18,0,0,0,1.87-.19,10.21,10.21,0,0,0,1.86-.63v2a7.05,7.05,0,0,1-1.78.6A10.65,10.65,0,0,1,112.58,16.26Zm-.44-9.92a2.4,2.4,0,0,0-1.84.73,3.46,3.46,0,0,0-.83,2.12h5.15a3.16,3.16,0,0,0-.68-2.13A2.32,2.32,0,0,0,112.14,6.34Z"/><path class="cls-4" d="M127.35,12.83a3,3,0,0,1-1.21,2.55,5.78,5.78,0,0,1-3.46.88,8.15,8.15,0,0,1-3.64-.68V13.5a9,9,0,0,0,3.72.92c1.48,0,2.23-.45,2.23-1.35a1.08,1.08,0,0,0-.25-.71,3.07,3.07,0,0,0-.81-.6c-.38-.2-.9-.43-1.57-.7a7.21,7.21,0,0,1-2.65-1.51,2.82,2.82,0,0,1-.69-2,2.58,2.58,0,0,1,1.17-2.26,5.55,5.55,0,0,1,3.2-.81,9,9,0,0,1,3.78.81l-.78,1.82a8.31,8.31,0,0,0-3.09-.76c-1.27,0-1.9.36-1.9,1.09a1.1,1.1,0,0,0,.49.9,11.8,11.8,0,0,0,2.17,1,10.12,10.12,0,0,1,2,1,3,3,0,0,1,1,1A3.06,3.06,0,0,1,127.35,12.83Z"/><path class="cls-4" d="M137.6,12.83a3,3,0,0,1-1.22,2.55,5.78,5.78,0,0,1-3.46.88,8.18,8.18,0,0,1-3.64-.68V13.5a9,9,0,0,0,3.72.92c1.48,0,2.23-.45,2.23-1.35a1.08,1.08,0,0,0-.25-.71,2.91,2.91,0,0,0-.81-.6c-.38-.2-.9-.43-1.57-.7A7.3,7.3,0,0,1,130,9.55a2.82,2.82,0,0,1-.69-2,2.58,2.58,0,0,1,1.17-2.26,5.57,5.57,0,0,1,3.2-.81,9,9,0,0,1,3.78.81l-.78,1.82a8.31,8.31,0,0,0-3.09-.76c-1.27,0-1.9.36-1.9,1.09a1.1,1.1,0,0,0,.49.9,11.8,11.8,0,0,0,2.17,1,10.12,10.12,0,0,1,2,1,3,3,0,0,1,.95,1A3.06,3.06,0,0,1,137.6,12.83Z"/><path class="cls-4" d="M152.75,16.06l-.48-1.58h-.08a4.71,4.71,0,0,1-1.65,1.41,5.27,5.27,0,0,1-2.14.37,3.63,3.63,0,0,1-2.61-.9,3.39,3.39,0,0,1-.94-2.55,3,3,0,0,1,1.31-2.65,7.49,7.49,0,0,1,4-1l2-.06V8.52a2.33,2.33,0,0,0-.5-1.62A2.08,2.08,0,0,0,150,6.36a5.17,5.17,0,0,0-1.67.26,13.64,13.64,0,0,0-1.54.6L146,5.5a8.66,8.66,0,0,1,2-.74,9.8,9.8,0,0,1,2.07-.25,4.89,4.89,0,0,1,3.27,1,3.67,3.67,0,0,1,1.1,3v7.64Zm-3.59-1.64a3,3,0,0,0,2.11-.74,2.63,2.63,0,0,0,.79-2v-1l-1.45.07a5,5,0,0,0-2.48.57,1.7,1.7,0,0,0-.77,1.55,1.49,1.49,0,0,0,.45,1.17A1.92,1.92,0,0,0,149.16,14.42Z"/><path class="cls-4" d="M167.63,16.06h-2.42v-7a3.06,3.06,0,0,0-.53-2A2,2,0,0,0,163,6.48a2.67,2.67,0,0,0-2.24.9,5,5,0,0,0-.71,3v5.65h-2.41V4.72h1.89l.34,1.49H160A3.41,3.41,0,0,1,161.46,5a4.92,4.92,0,0,1,2.09-.44q4.08,0,4.08,4.16Z"/><path class="cls-4" d="M174.74,16.26a4,4,0,0,1-3.32-1.53,7,7,0,0,1-1.18-4.32,6.94,6.94,0,0,1,1.2-4.34,4,4,0,0,1,3.34-1.56,3.9,3.9,0,0,1,3.4,1.65h.12a15.29,15.29,0,0,1-.17-1.92V.1h2.42v16h-1.89l-.42-1.49h-.11A3.84,3.84,0,0,1,174.74,16.26Zm.64-1.94a2.63,2.63,0,0,0,2.17-.84,4.39,4.39,0,0,0,.69-2.71v-.34a5.16,5.16,0,0,0-.69-3,2.61,2.61,0,0,0-2.19-.9,2.23,2.23,0,0,0-2,1,5.37,5.37,0,0,0-.68,2.94,5.2,5.2,0,0,0,.66,2.88A2.26,2.26,0,0,0,175.38,14.32Z"/><path class="cls-4" d="M194,16.26a5,5,0,0,1-3.91-1.5,6.28,6.28,0,0,1-1.34-4.31,6.33,6.33,0,0,1,1.4-4.4,5.24,5.24,0,0,1,4.05-1.54,7.65,7.65,0,0,1,3.23.67l-.73,1.94a7.25,7.25,0,0,0-2.52-.6q-2.94,0-2.94,3.91A4.69,4.69,0,0,0,192,13.3a2.55,2.55,0,0,0,2.15.95,6.06,6.06,0,0,0,3-.8v2.11a4.84,4.84,0,0,1-1.38.54A8.26,8.26,0,0,1,194,16.26Z"/><path class="cls-4" d="M209.63,10.37a6.2,6.2,0,0,1-1.42,4.34,5.13,5.13,0,0,1-4,1.55,5.51,5.51,0,0,1-2.81-.71,4.79,4.79,0,0,1-1.88-2.07,7.08,7.08,0,0,1-.65-3.11,6.17,6.17,0,0,1,1.41-4.31,5.16,5.16,0,0,1,4-1.55,5,5,0,0,1,3.9,1.59A6.09,6.09,0,0,1,209.63,10.37Zm-8.25,0q0,3.93,2.9,3.93c1.92,0,2.87-1.31,2.87-3.93s-1-3.89-2.89-3.89a2.48,2.48,0,0,0-2.2,1A5.15,5.15,0,0,0,201.38,10.37Z"/><path class="cls-4" d="M222.25,16.06h-2.42v-7a3.06,3.06,0,0,0-.52-2,2.07,2.07,0,0,0-1.68-.65,2.69,2.69,0,0,0-2.24.9,5,5,0,0,0-.7,3v5.65h-2.41V4.72h1.88l.34,1.49h.12A3.47,3.47,0,0,1,216.08,5a5,5,0,0,1,2.09-.44q4.08,0,4.08,4.16Z"/><path class="cls-4" d="M229.65,14.32a6,6,0,0,0,1.76-.28v1.81a4.58,4.58,0,0,1-1,.3,7.89,7.89,0,0,1-1.31.11q-3.42,0-3.42-3.61V6.54H224.1V5.48l1.66-.88.82-2.4h1.49V4.72h3.23V6.54h-3.23v6.07a1.72,1.72,0,0,0,.43,1.29A1.61,1.61,0,0,0,229.65,14.32Z"/><path class="cls-4" d="M241,16.06l-.48-1.58h-.08a4.71,4.71,0,0,1-1.65,1.41,5.25,5.25,0,0,1-2.13.37,3.6,3.6,0,0,1-2.61-.9,3.35,3.35,0,0,1-.94-2.55,3,3,0,0,1,1.3-2.65,7.52,7.52,0,0,1,4-1l2-.06V8.52a2.28,2.28,0,0,0-.51-1.62,2.07,2.07,0,0,0-1.58-.54,5.21,5.21,0,0,0-1.67.26,12.79,12.79,0,0,0-1.53.6l-.78-1.72a8.34,8.34,0,0,1,2-.74,9.73,9.73,0,0,1,2.07-.25,4.88,4.88,0,0,1,3.26,1,3.67,3.67,0,0,1,1.11,3v7.64Zm-3.59-1.64a3,3,0,0,0,2.11-.74,2.64,2.64,0,0,0,.8-2v-1l-1.46.07a5,5,0,0,0-2.48.57,1.72,1.72,0,0,0-.77,1.55A1.49,1.49,0,0,0,236,14,1.92,1.92,0,0,0,237.38,14.42Z"/><path class="cls-4" d="M245.72,1.71a1.34,1.34,0,0,1,.35-1,1.41,1.41,0,0,1,1-.35,1.34,1.34,0,0,1,1,.35,1.31,1.31,0,0,1,.36,1,1.29,1.29,0,0,1-.36,1,1.31,1.31,0,0,1-1,.36,1.37,1.37,0,0,1-1-.36A1.32,1.32,0,0,1,245.72,1.71Zm2.55,14.35h-2.41V4.72h2.41Z"/><path class="cls-4" d="M261.49,16.06h-2.42v-7a3.06,3.06,0,0,0-.53-2,2,2,0,0,0-1.68-.65,2.65,2.65,0,0,0-2.23.9,5,5,0,0,0-.71,3v5.65h-2.41V4.72h1.89l.34,1.49h.12A3.41,3.41,0,0,1,255.32,5a4.89,4.89,0,0,1,2.09-.44q4.08,0,4.08,4.16Z"/><path class="cls-4" d="M269.69,16.26a5.47,5.47,0,0,1-4.14-1.54,5.83,5.83,0,0,1-1.49-4.25,6.45,6.45,0,0,1,1.38-4.37,4.79,4.79,0,0,1,3.81-1.59,4.65,4.65,0,0,1,3.54,1.37,5.21,5.21,0,0,1,1.31,3.75v1.3h-7.56a3.71,3.71,0,0,0,.89,2.54,3.11,3.11,0,0,0,2.37.89,9.18,9.18,0,0,0,1.87-.19,10.21,10.21,0,0,0,1.86-.63v2a7.19,7.19,0,0,1-1.78.6A10.65,10.65,0,0,1,269.69,16.26Zm-.44-9.92a2.4,2.4,0,0,0-1.84.73,3.41,3.41,0,0,0-.83,2.12h5.15a3.16,3.16,0,0,0-.68-2.13A2.32,2.32,0,0,0,269.25,6.34Z"/><path class="cls-4" d="M282.53,4.51a5.57,5.57,0,0,1,1.2.11l-.23,2.24a4.74,4.74,0,0,0-1.07-.12,3.05,3.05,0,0,0-2.34.94,3.41,3.41,0,0,0-.9,2.45v5.93h-2.41V4.72h1.89l.31,2h.13a4.32,4.32,0,0,1,1.47-1.61A3.45,3.45,0,0,1,282.53,4.51Z"/><path class="cls-4" d="M283.77,11.46V9.4H289v2.06Z"/><path class="cls-4" d="M297.65,4.51A4,4,0,0,1,301,6.05a7,7,0,0,1,1.19,4.32,6.94,6.94,0,0,1-1.2,4.34,4.38,4.38,0,0,1-6.68,0h-.16l-.44,1.34h-1.81V.1h2.41V3.9c0,.28,0,.7,0,1.25s-.05.91-.06,1.06h.1A3.83,3.83,0,0,1,297.65,4.51Zm-.62,2a2.46,2.46,0,0,0-2.1.86,4.91,4.91,0,0,0-.66,2.86v.17a5.29,5.29,0,0,0,.66,3,2.43,2.43,0,0,0,2.14.93,2.17,2.17,0,0,0,1.94-1,5.39,5.39,0,0,0,.66-2.93Q299.67,6.48,297,6.48Z"/><path class="cls-4" d="M312,16.06l-.48-1.58h-.08a4.71,4.71,0,0,1-1.65,1.41,5.27,5.27,0,0,1-2.14.37,3.59,3.59,0,0,1-2.6-.9,3.35,3.35,0,0,1-.94-2.55,3,3,0,0,1,1.3-2.65,7.52,7.52,0,0,1,4-1l2-.06V8.52a2.28,2.28,0,0,0-.51-1.62,2.07,2.07,0,0,0-1.58-.54,5.21,5.21,0,0,0-1.67.26,12.79,12.79,0,0,0-1.53.6l-.78-1.72a8.34,8.34,0,0,1,2-.74,9.73,9.73,0,0,1,2.07-.25,4.88,4.88,0,0,1,3.26,1,3.67,3.67,0,0,1,1.1,3v7.64Zm-3.59-1.64a3,3,0,0,0,2.11-.74,2.63,2.63,0,0,0,.79-2v-1l-1.45.07a5,5,0,0,0-2.48.57,1.72,1.72,0,0,0-.77,1.55A1.49,1.49,0,0,0,307,14,1.92,1.92,0,0,0,308.36,14.42Z"/><path class="cls-4" d="M324.63,12.83a3,3,0,0,1-1.21,2.55,5.83,5.83,0,0,1-3.47.88,8.18,8.18,0,0,1-3.64-.68V13.5a9,9,0,0,0,3.72.92c1.48,0,2.23-.45,2.23-1.35a1.08,1.08,0,0,0-.25-.71,2.91,2.91,0,0,0-.81-.6c-.38-.2-.9-.43-1.57-.7A7.3,7.3,0,0,1,317,9.55a2.82,2.82,0,0,1-.69-2,2.58,2.58,0,0,1,1.17-2.26,5.57,5.57,0,0,1,3.2-.81,9,9,0,0,1,3.78.81l-.78,1.82a8.31,8.31,0,0,0-3.08-.76c-1.28,0-1.91.36-1.91,1.09a1.08,1.08,0,0,0,.5.9,11.27,11.27,0,0,0,2.16,1,10.12,10.12,0,0,1,2,1,3,3,0,0,1,.95,1A3.06,3.06,0,0,1,324.63,12.83Z"/><path class="cls-4" d="M332.12,16.26A5.47,5.47,0,0,1,328,14.72a5.83,5.83,0,0,1-1.49-4.25,6.45,6.45,0,0,1,1.38-4.37,4.77,4.77,0,0,1,3.8-1.59,4.68,4.68,0,0,1,3.55,1.37,5.2,5.2,0,0,1,1.3,3.75v1.3H329a3.71,3.71,0,0,0,.89,2.54,3.11,3.11,0,0,0,2.37.89,9.18,9.18,0,0,0,1.87-.19,10.21,10.21,0,0,0,1.86-.63v2a7.19,7.19,0,0,1-1.78.6A10.72,10.72,0,0,1,332.12,16.26Zm-.45-9.92a2.41,2.41,0,0,0-1.84.73A3.46,3.46,0,0,0,329,9.19h5.15a3.16,3.16,0,0,0-.68-2.13A2.33,2.33,0,0,0,331.67,6.34Z"/><path class="cls-4" d="M343.12,16.26a4,4,0,0,1-3.31-1.53,7,7,0,0,1-1.19-4.32,6.87,6.87,0,0,1,1.21-4.34,4,4,0,0,1,3.33-1.56,3.92,3.92,0,0,1,3.41,1.65h.12a13.59,13.59,0,0,1-.17-1.92V.1h2.42v16h-1.89l-.42-1.49h-.11A3.87,3.87,0,0,1,343.12,16.26Zm.65-1.94a2.61,2.61,0,0,0,2.16-.84,4.38,4.38,0,0,0,.7-2.71v-.34a5.07,5.07,0,0,0-.7-3,2.58,2.58,0,0,0-2.18-.9,2.23,2.23,0,0,0-2,1,5.28,5.28,0,0,0-.69,2.94,5.11,5.11,0,0,0,.67,2.88A2.24,2.24,0,0,0,343.77,14.32Z"/><path class="cls-4" d="M364.93,16.06l-.48-1.58h-.08a4.71,4.71,0,0,1-1.65,1.41,5.25,5.25,0,0,1-2.13.37,3.6,3.6,0,0,1-2.61-.9,3.35,3.35,0,0,1-.94-2.55,3,3,0,0,1,1.3-2.65,7.52,7.52,0,0,1,4-1l2-.06V8.52a2.28,2.28,0,0,0-.51-1.62,2.07,2.07,0,0,0-1.58-.54,5.21,5.21,0,0,0-1.67.26,12.79,12.79,0,0,0-1.53.6L358.2,5.5a8.34,8.34,0,0,1,2-.74,9.73,9.73,0,0,1,2.07-.25,4.88,4.88,0,0,1,3.26,1,3.67,3.67,0,0,1,1.11,3v7.64Zm-3.59-1.64a3,3,0,0,0,2.11-.74,2.64,2.64,0,0,0,.8-2v-1l-1.46.07a5,5,0,0,0-2.48.57,1.72,1.72,0,0,0-.77,1.55A1.49,1.49,0,0,0,360,14,1.92,1.92,0,0,0,361.34,14.42Z"/><path class="cls-4" d="M375.59,16.26a4,4,0,0,1-3.34-1.54h-.15q.15,1.42.15,1.74V21.1h-2.41V4.72h1.94c.06.21.17.72.34,1.52h.13a3.77,3.77,0,0,1,3.38-1.73,4,4,0,0,1,3.31,1.54,7,7,0,0,1,1.18,4.32,7,7,0,0,1-1.2,4.34A4,4,0,0,1,375.59,16.26ZM375,6.48a2.5,2.5,0,0,0-2.09.84,4.38,4.38,0,0,0-.66,2.69v.36a5.3,5.3,0,0,0,.65,3,2.44,2.44,0,0,0,2.14.93,2.18,2.18,0,0,0,1.93-1,5.3,5.3,0,0,0,.68-2.92A5.1,5.1,0,0,0,377,7.46,2.26,2.26,0,0,0,375,6.48Z"/><path class="cls-4" d="M388.59,16.26a4,4,0,0,1-3.35-1.54h-.14c.09.95.14,1.53.14,1.74V21.1h-2.41V4.72h1.95c.06.21.17.72.34,1.52h.12a3.78,3.78,0,0,1,3.39-1.73,4,4,0,0,1,3.3,1.54,7,7,0,0,1,1.19,4.32,6.91,6.91,0,0,1-1.21,4.34A4,4,0,0,1,388.59,16.26ZM388,6.48a2.51,2.51,0,0,0-2.1.84,4.38,4.38,0,0,0-.66,2.69v.36a5.29,5.29,0,0,0,.66,3,2.44,2.44,0,0,0,2.14.93,2.18,2.18,0,0,0,1.93-1,5.3,5.3,0,0,0,.68-2.92A5.1,5.1,0,0,0,390,7.46,2.23,2.23,0,0,0,388,6.48Z"/><path class="cls-4" d="M398.26,16.06h-2.41V.1h2.41Z"/><path class="cls-4" d="M401.37,1.71a1.34,1.34,0,0,1,.35-1,1.39,1.39,0,0,1,1-.35,1.34,1.34,0,0,1,1,.35,1.31,1.31,0,0,1,.36,1,1.29,1.29,0,0,1-.36,1,1.31,1.31,0,0,1-1,.36,1.36,1.36,0,0,1-1-.36A1.32,1.32,0,0,1,401.37,1.71Zm2.55,14.35h-2.41V4.72h2.41Z"/><path class="cls-4" d="M411.79,16.26a5,5,0,0,1-3.91-1.5,6.24,6.24,0,0,1-1.34-4.31,6.28,6.28,0,0,1,1.4-4.4,5.2,5.2,0,0,1,4-1.54,7.61,7.61,0,0,1,3.23.67l-.73,1.94a7.16,7.16,0,0,0-2.52-.6q-2.94,0-2.94,3.91a4.69,4.69,0,0,0,.73,2.87,2.57,2.57,0,0,0,2.15.95,6.13,6.13,0,0,0,3.05-.8v2.11a4.84,4.84,0,0,1-1.38.54A8.26,8.26,0,0,1,411.79,16.26Z"/><path class="cls-4" d="M424.75,16.06l-.49-1.58h-.08a4.63,4.63,0,0,1-1.65,1.41,5.19,5.19,0,0,1-2.13.37,3.6,3.6,0,0,1-2.61-.9,3.35,3.35,0,0,1-.94-2.55,3,3,0,0,1,1.3-2.65,7.52,7.52,0,0,1,4-1l2-.06V8.52a2.28,2.28,0,0,0-.51-1.62A2.06,2.06,0,0,0,422,6.36a5.17,5.17,0,0,0-1.67.26,12.31,12.31,0,0,0-1.54.6L418,5.5a8.66,8.66,0,0,1,2-.74,9.73,9.73,0,0,1,2.07-.25,4.93,4.93,0,0,1,3.27,1,3.7,3.7,0,0,1,1.1,3v7.64Zm-3.59-1.64a3,3,0,0,0,2.1-.74,2.64,2.64,0,0,0,.8-2v-1l-1.46.07a4.92,4.92,0,0,0-2.47.57,1.71,1.71,0,0,0-.78,1.55A1.49,1.49,0,0,0,419.8,14,1.94,1.94,0,0,0,421.16,14.42Z"/><path class="cls-4" d="M433.89,14.32a6.05,6.05,0,0,0,1.77-.28v1.81a4.75,4.75,0,0,1-1,.3,8,8,0,0,1-1.31.11c-2.28,0-3.43-1.2-3.43-3.61V6.54h-1.54V5.48L430,4.6l.82-2.4h1.48V4.72h3.23V6.54h-3.23v6.07a1.72,1.72,0,0,0,.44,1.29A1.57,1.57,0,0,0,433.89,14.32Z"/><path class="cls-4" d="M437.62,1.71a1.3,1.3,0,0,1,.35-1,1.39,1.39,0,0,1,1-.35,1.37,1.37,0,0,1,1,.35,1.34,1.34,0,0,1,.35,1,1.32,1.32,0,0,1-.35,1A1.34,1.34,0,0,1,439,3a1.36,1.36,0,0,1-1-.36A1.28,1.28,0,0,1,437.62,1.71Zm2.55,14.35h-2.41V4.72h2.41Z"/><path class="cls-4" d="M453.52,10.37a6.21,6.21,0,0,1-1.43,4.34,5.12,5.12,0,0,1-4,1.55,5.51,5.51,0,0,1-2.81-.71,4.73,4.73,0,0,1-1.88-2.07,7,7,0,0,1-.66-3.11,6.17,6.17,0,0,1,1.42-4.31,5.13,5.13,0,0,1,4-1.55,5,5,0,0,1,3.89,1.59A6.1,6.1,0,0,1,453.52,10.37Zm-8.25,0c0,2.62,1,3.93,2.9,3.93S451,13,451,10.37s-1-3.89-2.89-3.89a2.45,2.45,0,0,0-2.2,1A5.07,5.07,0,0,0,445.27,10.37Z"/><path class="cls-4" d="M466.14,16.06h-2.42v-7a3.06,3.06,0,0,0-.53-2,2,2,0,0,0-1.67-.65,2.67,2.67,0,0,0-2.24.9,5,5,0,0,0-.71,3v5.65h-2.41V4.72h1.89l.34,1.49h.12A3.41,3.41,0,0,1,460,5a4.92,4.92,0,0,1,2.09-.44q4.08,0,4.08,4.16Z"/><path class="cls-4" d="M477.09,12.83a3,3,0,0,1-1.21,2.55,5.78,5.78,0,0,1-3.46.88,8.15,8.15,0,0,1-3.64-.68V13.5a9,9,0,0,0,3.72.92q2.22,0,2.22-1.35a1.07,1.07,0,0,0-.24-.71,3.25,3.25,0,0,0-.81-.6c-.38-.2-.9-.43-1.57-.7a7.21,7.21,0,0,1-2.65-1.51,2.82,2.82,0,0,1-.69-2,2.58,2.58,0,0,1,1.17-2.26,5.55,5.55,0,0,1,3.2-.81,9,9,0,0,1,3.78.81l-.78,1.82A8.31,8.31,0,0,0,473,6.38c-1.27,0-1.9.36-1.9,1.09a1.1,1.1,0,0,0,.49.9,11.47,11.47,0,0,0,2.17,1,10.12,10.12,0,0,1,2,1,3,3,0,0,1,1,1A3.06,3.06,0,0,1,477.09,12.83Z"/><path class="cls-4" d="M489,16.26a3.94,3.94,0,0,1-3.31-1.53,6.89,6.89,0,0,1-1.19-4.32,6.94,6.94,0,0,1,1.2-4.34A4,4,0,0,1,489,4.51a3.9,3.9,0,0,1,3.4,1.65h.12a15.29,15.29,0,0,1-.17-1.92V.1h2.42v16H492.9l-.42-1.49h-.11A3.84,3.84,0,0,1,489,16.26Zm.64-1.94a2.63,2.63,0,0,0,2.17-.84,4.39,4.39,0,0,0,.69-2.71v-.34a5.16,5.16,0,0,0-.69-3,2.61,2.61,0,0,0-2.19-.9,2.23,2.23,0,0,0-2,1,5.37,5.37,0,0,0-.68,2.94,5.2,5.2,0,0,0,.66,2.88A2.26,2.26,0,0,0,489.62,14.32Z"/><path class="cls-4" d="M503.07,16.26a5.5,5.5,0,0,1-4.14-1.54,5.87,5.87,0,0,1-1.49-4.25,6.4,6.4,0,0,1,1.39-4.37,4.77,4.77,0,0,1,3.8-1.59,4.68,4.68,0,0,1,3.55,1.37,5.2,5.2,0,0,1,1.3,3.75v1.3h-7.56a3.71,3.71,0,0,0,.9,2.54,3.11,3.11,0,0,0,2.36.89,9.11,9.11,0,0,0,1.87-.19,10.56,10.56,0,0,0,1.87-.63v2a7.26,7.26,0,0,1-1.79.6A10.65,10.65,0,0,1,503.07,16.26Zm-.44-9.92a2.4,2.4,0,0,0-1.84.73A3.46,3.46,0,0,0,500,9.19h5.15a3.11,3.11,0,0,0-.68-2.13A2.29,2.29,0,0,0,502.63,6.34Z"/><path class="cls-4" d="M515.92,16.26a4,4,0,0,1-3.35-1.54h-.14c.09.95.14,1.53.14,1.74V21.1h-2.41V4.72h1.95c.06.21.17.72.34,1.52h.12A3.78,3.78,0,0,1,516,4.51a4,4,0,0,1,3.3,1.54,7,7,0,0,1,1.19,4.32,6.91,6.91,0,0,1-1.21,4.34A4,4,0,0,1,515.92,16.26Zm-.59-9.78a2.51,2.51,0,0,0-2.1.84,4.38,4.38,0,0,0-.66,2.69v.36a5.29,5.29,0,0,0,.66,3,2.44,2.44,0,0,0,2.14.93,2.18,2.18,0,0,0,1.93-1,5.3,5.3,0,0,0,.68-2.92,5.1,5.1,0,0,0-.68-2.89A2.23,2.23,0,0,0,515.33,6.48Z"/><path class="cls-4" d="M525.59,16.06h-2.41V.1h2.41Z"/><path class="cls-4" d="M539,10.37a6.21,6.21,0,0,1-1.43,4.34,5.12,5.12,0,0,1-4,1.55,5.51,5.51,0,0,1-2.81-.71,4.73,4.73,0,0,1-1.88-2.07,7,7,0,0,1-.66-3.11,6.17,6.17,0,0,1,1.42-4.31,5.13,5.13,0,0,1,4-1.55,5,5,0,0,1,3.89,1.59A6.1,6.1,0,0,1,539,10.37Zm-8.25,0c0,2.62,1,3.93,2.9,3.93s2.87-1.31,2.87-3.93-1-3.89-2.89-3.89a2.45,2.45,0,0,0-2.2,1A5.07,5.07,0,0,0,530.74,10.37Z"/><path class="cls-4" d="M539.74,4.72h2.62l2.31,6.43a12.34,12.34,0,0,1,.7,2.58h.08a10,10,0,0,1,.34-1.37q.24-.79,2.6-7.64H551l-4.86,12.85q-1.32,3.53-4.4,3.53a6.66,6.66,0,0,1-1.56-.17V19a5.73,5.73,0,0,0,1.24.12,2.54,2.54,0,0,0,2.45-2l.42-1.07Z"/><path class="cls-4" d="M562.4,14.32a6,6,0,0,0,1.76-.28v1.81a4.75,4.75,0,0,1-1,.3,8,8,0,0,1-1.31.11q-3.42,0-3.42-3.61V6.54h-1.55V5.48l1.66-.88.82-2.4h1.49V4.72h3.23V6.54h-3.23v6.07a1.72,1.72,0,0,0,.43,1.29A1.6,1.6,0,0,0,562.4,14.32Z"/><path class="cls-4" d="M576.24,16.06h-2.42v-7a3.06,3.06,0,0,0-.53-2,2,2,0,0,0-1.67-.65,2.63,2.63,0,0,0-2.23.91,5,5,0,0,0-.72,3v5.63h-2.41V.1h2.41V4.15a19.55,19.55,0,0,1-.12,2.09h.15A3.38,3.38,0,0,1,570.07,5a4.45,4.45,0,0,1,2-.45q4.13,0,4.12,4.16Z"/><path class="cls-4" d="M584.44,16.26a5.5,5.5,0,0,1-4.14-1.54,5.87,5.87,0,0,1-1.49-4.25,6.45,6.45,0,0,1,1.38-4.37A4.79,4.79,0,0,1,584,4.51a4.68,4.68,0,0,1,3.55,1.37,5.24,5.24,0,0,1,1.3,3.75v1.3h-7.56a3.76,3.76,0,0,0,.89,2.54,3.11,3.11,0,0,0,2.37.89,9.11,9.11,0,0,0,1.87-.19,10.21,10.21,0,0,0,1.86-.63v2a7.05,7.05,0,0,1-1.78.6A10.65,10.65,0,0,1,584.44,16.26ZM584,6.34a2.4,2.4,0,0,0-1.84.73,3.46,3.46,0,0,0-.83,2.12h5.15a3.11,3.11,0,0,0-.68-2.13A2.31,2.31,0,0,0,584,6.34Z"/><path class="cls-4" d="M602.73,6.54H600v9.52h-2.42V6.54h-1.86V5.42l1.86-.74V3.94a4.13,4.13,0,0,1,1-3,3.84,3.84,0,0,1,2.88-1,7.67,7.67,0,0,1,2.5.42l-.64,1.83a5.57,5.57,0,0,0-1.7-.29,1.38,1.38,0,0,0-1.19.51A2.54,2.54,0,0,0,600,4v.74h2.77Z"/><path class="cls-4" d="M611.59,16.06l-.49-1.58H611a4.71,4.71,0,0,1-1.65,1.41,5.19,5.19,0,0,1-2.13.37,3.6,3.6,0,0,1-2.61-.9,3.35,3.35,0,0,1-.94-2.55,3,3,0,0,1,1.3-2.65,7.52,7.52,0,0,1,4-1l2-.06V8.52a2.28,2.28,0,0,0-.51-1.62,2.06,2.06,0,0,0-1.57-.54,5.17,5.17,0,0,0-1.67.26,12.31,12.31,0,0,0-1.54.6l-.78-1.72a8.5,8.5,0,0,1,2-.74,9.73,9.73,0,0,1,2.07-.25,4.93,4.93,0,0,1,3.27,1,3.7,3.7,0,0,1,1.1,3v7.64ZM608,14.42a3,3,0,0,0,2.1-.74,2.64,2.64,0,0,0,.8-2v-1l-1.46.07a4.92,4.92,0,0,0-2.47.57,1.71,1.71,0,0,0-.78,1.55,1.49,1.49,0,0,0,.45,1.17A1.94,1.94,0,0,0,608,14.42Z"/><path class="cls-4" d="M624.26,12.83a3,3,0,0,1-1.21,2.55,5.81,5.81,0,0,1-3.47.88,8.18,8.18,0,0,1-3.64-.68V13.5a9.06,9.06,0,0,0,3.73.92q2.22,0,2.22-1.35a1,1,0,0,0-.25-.71,2.91,2.91,0,0,0-.81-.6,16.25,16.25,0,0,0-1.56-.7,7.21,7.21,0,0,1-2.65-1.51,2.78,2.78,0,0,1-.7-2,2.57,2.57,0,0,1,1.18-2.26,5.52,5.52,0,0,1,3.19-.81,9,9,0,0,1,3.78.81l-.78,1.82a8.31,8.31,0,0,0-3.08-.76c-1.27,0-1.91.36-1.91,1.09a1.11,1.11,0,0,0,.5.9,11.15,11.15,0,0,0,2.17,1,10.7,10.7,0,0,1,2,1,3,3,0,0,1,.94,1A2.94,2.94,0,0,1,624.26,12.83Z"/><path class="cls-4" d="M631.33,14.32a5.94,5.94,0,0,0,1.76-.28v1.81a4.58,4.58,0,0,1-1,.3,7.86,7.86,0,0,1-1.3.11q-3.43,0-3.43-3.61V6.54h-1.55V5.48l1.66-.88.82-2.4h1.49V4.72H633V6.54h-3.23v6.07a1.72,1.72,0,0,0,.44,1.29A1.57,1.57,0,0,0,631.33,14.32Z"/><path class="cls-4" d="M640.11,16.26A5.47,5.47,0,0,1,636,14.72a5.83,5.83,0,0,1-1.49-4.25,6.45,6.45,0,0,1,1.38-4.37,4.79,4.79,0,0,1,3.81-1.59,4.65,4.65,0,0,1,3.54,1.37,5.21,5.21,0,0,1,1.31,3.75v1.3H637a3.71,3.71,0,0,0,.89,2.54,3.11,3.11,0,0,0,2.37.89,9.18,9.18,0,0,0,1.87-.19,10.21,10.21,0,0,0,1.86-.63v2a7.19,7.19,0,0,1-1.78.6A10.65,10.65,0,0,1,640.11,16.26Zm-.44-9.92a2.4,2.4,0,0,0-1.84.73A3.41,3.41,0,0,0,637,9.19h5.15a3.16,3.16,0,0,0-.68-2.13A2.32,2.32,0,0,0,639.67,6.34Z"/><path class="cls-4" d="M654.88,12.83a3,3,0,0,1-1.21,2.55,5.78,5.78,0,0,1-3.46.88,8.15,8.15,0,0,1-3.64-.68V13.5a9,9,0,0,0,3.72.92q2.22,0,2.22-1.35a1.07,1.07,0,0,0-.24-.71,3.25,3.25,0,0,0-.81-.6c-.38-.2-.9-.43-1.57-.7a7.21,7.21,0,0,1-2.65-1.51,2.82,2.82,0,0,1-.69-2,2.58,2.58,0,0,1,1.17-2.26,5.55,5.55,0,0,1,3.2-.81,9,9,0,0,1,3.78.81l-.78,1.82a8.31,8.31,0,0,0-3.09-.76c-1.27,0-1.9.36-1.9,1.09a1.1,1.1,0,0,0,.49.9,11.47,11.47,0,0,0,2.17,1,10.12,10.12,0,0,1,2,1,3,3,0,0,1,1,1A3.06,3.06,0,0,1,654.88,12.83Z"/><path class="cls-4" d="M662,14.32a6,6,0,0,0,1.76-.28v1.81a4.75,4.75,0,0,1-1,.3,8,8,0,0,1-1.31.11q-3.42,0-3.42-3.61V6.54h-1.55V5.48l1.66-.88.82-2.4h1.49V4.72h3.23V6.54h-3.23v6.07a1.72,1.72,0,0,0,.43,1.29A1.58,1.58,0,0,0,662,14.32Z"/><path class="cls-4" d="M43.72,135.47a2.88,2.88,0,0,1-1.1,2.39,4.78,4.78,0,0,1-3,.87,7.25,7.25,0,0,1-3.17-.6v-1.77a8.14,8.14,0,0,0,1.66.58,7.09,7.09,0,0,0,1.64.21,2.59,2.59,0,0,0,1.63-.42,1.38,1.38,0,0,0,.53-1.13,1.43,1.43,0,0,0-.48-1.09,7.17,7.17,0,0,0-2-1A5.38,5.38,0,0,1,37.18,132a3.09,3.09,0,0,1-.64-1.95,2.71,2.71,0,0,1,1-2.25,4.16,4.16,0,0,1,2.72-.82,8,8,0,0,1,3.27.72L43,129.23a7.13,7.13,0,0,0-2.72-.64,2.1,2.1,0,0,0-1.38.39,1.33,1.33,0,0,0-.47,1.05,1.53,1.53,0,0,0,.19.76,2,2,0,0,0,.62.6,11.05,11.05,0,0,0,1.55.74,8.79,8.79,0,0,1,1.84,1,3,3,0,0,1,.86,1A3.11,3.11,0,0,1,43.72,135.47Z"/><path class="cls-4" d="M49.19,138.73A4.16,4.16,0,0,1,46,137.55a4.44,4.44,0,0,1-1.14-3.23A4.86,4.86,0,0,1,46,131a3.63,3.63,0,0,1,2.9-1.21,3.53,3.53,0,0,1,2.7,1,4,4,0,0,1,1,2.86v1H46.79a2.83,2.83,0,0,0,.68,1.93,2.38,2.38,0,0,0,1.81.68,6.38,6.38,0,0,0,1.42-.15,6.61,6.61,0,0,0,1.42-.48v1.49a5.46,5.46,0,0,1-1.36.46A9.13,9.13,0,0,1,49.19,138.73Zm-.33-7.56a1.85,1.85,0,0,0-1.41.55,2.67,2.67,0,0,0-.63,1.62h3.93a2.47,2.47,0,0,0-.52-1.62A1.74,1.74,0,0,0,48.86,131.17Z"/><path class="cls-4" d="M58.61,129.78a4.6,4.6,0,0,1,.91.07l-.18,1.72a3.1,3.1,0,0,0-.81-.1,2.36,2.36,0,0,0-1.79.72,2.62,2.62,0,0,0-.68,1.87v4.51H54.22v-8.64h1.44l.24,1.53H56a3.33,3.33,0,0,1,1.12-1.23A2.66,2.66,0,0,1,58.61,129.78Z"/><path class="cls-4" d="M63.32,138.57,60,129.93H62l1.75,5a9.28,9.28,0,0,1,.55,2h.06a14.16,14.16,0,0,1,.55-2l1.76-5H68.6l-3.3,8.64Z"/><path class="cls-4" d="M73.12,138.73A4.13,4.13,0,0,1,70,137.55a4.44,4.44,0,0,1-1.14-3.23,4.91,4.91,0,0,1,1-3.33,3.65,3.65,0,0,1,2.9-1.21,3.56,3.56,0,0,1,2.71,1,4,4,0,0,1,1,2.86v1H70.72a2.83,2.83,0,0,0,.68,1.93,2.37,2.37,0,0,0,1.8.68,6.47,6.47,0,0,0,1.43-.15,6.8,6.8,0,0,0,1.42-.48v1.49a5.46,5.46,0,0,1-1.36.46A9.13,9.13,0,0,1,73.12,138.73Zm-.34-7.56a1.84,1.84,0,0,0-1.4.55,2.67,2.67,0,0,0-.63,1.62h3.92a2.41,2.41,0,0,0-.51-1.62A1.76,1.76,0,0,0,72.78,131.17Z"/><path class="cls-4" d="M82.53,129.78a4.71,4.71,0,0,1,.92.07l-.18,1.72a3.1,3.1,0,0,0-.81-.1,2.36,2.36,0,0,0-1.79.72,2.58,2.58,0,0,0-.68,1.87v4.51H78.15v-8.64h1.44l.24,1.53h.09a3.36,3.36,0,0,1,1.13-1.23A2.65,2.65,0,0,1,82.53,129.78Z"/><path class="cls-4" d="M90.61,136.11a2.26,2.26,0,0,1-.92,1.94,4.37,4.37,0,0,1-2.64.68,6.24,6.24,0,0,1-2.78-.52v-1.59a6.8,6.8,0,0,0,2.84.7c1.13,0,1.69-.34,1.69-1a.85.85,0,0,0-.18-.55,2.69,2.69,0,0,0-.62-.45,10.81,10.81,0,0,0-1.2-.53,5.65,5.65,0,0,1-2-1.16,2.12,2.12,0,0,1-.52-1.5,2,2,0,0,1,.89-1.72,4.25,4.25,0,0,1,2.43-.61,6.94,6.94,0,0,1,2.89.61l-.6,1.39a6.29,6.29,0,0,0-2.35-.58c-1,0-1.45.27-1.45.83a.8.8,0,0,0,.38.68,8.05,8.05,0,0,0,1.65.78,7.16,7.16,0,0,1,1.55.76,2.07,2.07,0,0,1,.72.79A2.25,2.25,0,0,1,90.61,136.11Z"/><path class="cls-4" d="M9.56,153.75A5.69,5.69,0,0,1,8,158.08a6.3,6.3,0,0,1-4.52,1.49H.27V148.15H3.8A5.83,5.83,0,0,1,8,149.62,5.5,5.5,0,0,1,9.56,153.75Zm-2,.07q0-4.11-3.84-4.11H2.14V158H3.47Q7.59,158,7.59,153.82Z"/><path class="cls-4" d="M15.17,159.73A4.17,4.17,0,0,1,12,158.55a4.47,4.47,0,0,1-1.13-3.23,4.91,4.91,0,0,1,1-3.33,3.65,3.65,0,0,1,2.9-1.21,3.53,3.53,0,0,1,2.7,1,3.92,3.92,0,0,1,1,2.86v1H12.77a2.78,2.78,0,0,0,.68,1.93,2.37,2.37,0,0,0,1.8.68,6.47,6.47,0,0,0,1.43-.15,6.8,6.8,0,0,0,1.42-.48v1.49a5.46,5.46,0,0,1-1.36.46A9.13,9.13,0,0,1,15.17,159.73Zm-.34-7.56a1.84,1.84,0,0,0-1.4.55,2.67,2.67,0,0,0-.63,1.62h3.92a2.41,2.41,0,0,0-.51-1.62A1.78,1.78,0,0,0,14.83,152.17Z"/><path class="cls-4" d="M24.58,159.73A3,3,0,0,1,22,158.55h-.11c.07.73.11,1.17.11,1.33v3.54H20.2V150.93h1.48c.05.17.13.55.26,1.16H22a2.85,2.85,0,0,1,2.57-1.31A3,3,0,0,1,27.13,152a6.39,6.39,0,0,1,0,6.59A3,3,0,0,1,24.58,159.73Zm-.44-7.45a1.91,1.91,0,0,0-1.6.64,3.29,3.29,0,0,0-.5,2v.28a4,4,0,0,0,.5,2.28,1.85,1.85,0,0,0,1.63.71,1.67,1.67,0,0,0,1.47-.78,4.07,4.07,0,0,0,.51-2.23,3.91,3.91,0,0,0-.51-2.2A1.71,1.71,0,0,0,24.14,152.28Z"/><path class="cls-4" d="M31.58,159.57H29.75V147.42h1.83Z"/><path class="cls-4" d="M41.42,155.24a4.72,4.72,0,0,1-1.08,3.3,3.92,3.92,0,0,1-3,1.19,4.08,4.08,0,0,1-2.14-.55,3.52,3.52,0,0,1-1.43-1.57,5.37,5.37,0,0,1-.5-2.37A4.67,4.67,0,0,1,34.32,152a3.9,3.9,0,0,1,3-1.18,3.82,3.82,0,0,1,3,1.2A4.67,4.67,0,0,1,41.42,155.24Zm-6.29,0c0,2,.74,3,2.21,3s2.19-1,2.19-3-.73-3-2.2-3a1.89,1.89,0,0,0-1.68.76A3.87,3.87,0,0,0,35.13,155.24Z"/><path class="cls-4" d="M41.62,150.93h2l1.76,4.9a9.86,9.86,0,0,1,.53,2H46a7.84,7.84,0,0,1,.26-1c.12-.41.79-2.35,2-5.83h2l-3.7,9.79q-1,2.7-3.36,2.7a5.15,5.15,0,0,1-1.18-.14v-1.45a4.37,4.37,0,0,0,.94.1,1.94,1.94,0,0,0,1.87-1.54l.32-.82Z"/><path class="cls-4" d="M54.76,148.64a1,1,0,0,1,.27-.75,1,1,0,0,1,.77-.27,1,1,0,0,1,.75.27,1.16,1.16,0,0,1,0,1.49,1,1,0,0,1-.75.27,1,1,0,0,1-.77-.27A1,1,0,0,1,54.76,148.64Zm1.94,10.93H54.87v-8.64H56.7Z"/><path class="cls-4" d="M66.4,159.57H64.56v-5.31a2.32,2.32,0,0,0-.41-1.49,1.53,1.53,0,0,0-1.27-.49,2.06,2.06,0,0,0-1.71.68,3.82,3.82,0,0,0-.53,2.31v4.3H58.8v-8.64h1.44l.25,1.14h.1a2.55,2.55,0,0,1,1.11-1,3.77,3.77,0,0,1,1.59-.33q3.1,0,3.11,3.16Z"/><path class="cls-5" d="M79.59,159.57H77.75v-5.32a2.44,2.44,0,0,0-.38-1.49,1.39,1.39,0,0,0-1.17-.48,1.79,1.79,0,0,0-1.56.69,4.07,4.07,0,0,0-.49,2.3v4.3H72.31v-8.64h1.44l.26,1.14h.09a2.42,2.42,0,0,1,1-1,3.44,3.44,0,0,1,1.51-.33,2.62,2.62,0,0,1,2.64,1.36h.12a2.67,2.67,0,0,1,1.08-1,3.46,3.46,0,0,1,1.6-.36,2.9,2.9,0,0,1,2.25.78,3.45,3.45,0,0,1,.71,2.38v5.63H83.21v-5.32a2.44,2.44,0,0,0-.38-1.49,1.39,1.39,0,0,0-1.17-.48,1.83,1.83,0,0,0-1.57.66,3.47,3.47,0,0,0-.5,2.06Z"/><path class="cls-5" d="M94.81,155.24a4.68,4.68,0,0,1-1.09,3.3,3.89,3.89,0,0,1-3,1.19,4.08,4.08,0,0,1-2.14-.55,3.52,3.52,0,0,1-1.43-1.57,5.37,5.37,0,0,1-.5-2.37A4.67,4.67,0,0,1,87.71,152a3.9,3.9,0,0,1,3-1.18,3.82,3.82,0,0,1,3,1.2A4.67,4.67,0,0,1,94.81,155.24Zm-6.29,0c0,2,.74,3,2.21,3s2.19-1,2.19-3-.73-3-2.2-3A1.89,1.89,0,0,0,89,153,3.87,3.87,0,0,0,88.52,155.24Z"/><path class="cls-5" d="M104.06,159.57h-1.84v-5.31a2.32,2.32,0,0,0-.41-1.49,1.54,1.54,0,0,0-1.27-.49,2.06,2.06,0,0,0-1.71.68,3.81,3.81,0,0,0-.54,2.31v4.3H96.46v-8.64H97.9l.25,1.14h.1a2.55,2.55,0,0,1,1.11-1,3.77,3.77,0,0,1,1.59-.33q3.1,0,3.11,3.16Z"/><path class="cls-5" d="M109.32,158.25a4.24,4.24,0,0,0,1.35-.22v1.39a3.82,3.82,0,0,1-.79.22,5.36,5.36,0,0,1-1,.09c-1.74,0-2.61-.92-2.61-2.75v-4.66H105.1v-.81l1.26-.67L107,149h1.13v1.92h2.46v1.39h-2.46V157a1.3,1.3,0,0,0,.33,1A1.21,1.21,0,0,0,109.32,158.25Z"/><path class="cls-5" d="M119.5,159.57h-1.84v-5.31a2.32,2.32,0,0,0-.41-1.49,1.54,1.54,0,0,0-1.27-.49,2,2,0,0,0-1.7.69,3.73,3.73,0,0,0-.55,2.31v4.29H111.9V147.42h1.83v3.08a15,15,0,0,1-.09,1.59h.12a2.56,2.56,0,0,1,1-1,3.38,3.38,0,0,1,1.56-.34q3.14,0,3.14,3.16Z"/><path class="cls-5" d="M127.47,157.11a2.24,2.24,0,0,1-.92,1.94,4.33,4.33,0,0,1-2.64.68,6.22,6.22,0,0,1-2.77-.52v-1.59a6.76,6.76,0,0,0,2.83.7c1.13,0,1.7-.34,1.7-1a.8.8,0,0,0-.19-.55,2.3,2.3,0,0,0-.62-.45,9.76,9.76,0,0,0-1.19-.53,5.47,5.47,0,0,1-2-1.16,2.13,2.13,0,0,1-.53-1.5,2,2,0,0,1,.9-1.72,4.2,4.2,0,0,1,2.43-.61,6.86,6.86,0,0,1,2.88.61l-.59,1.39a6.34,6.34,0,0,0-2.35-.58c-1,0-1.46.27-1.46.83a.82.82,0,0,0,.38.68,8.52,8.52,0,0,0,1.66.78,7.16,7.16,0,0,1,1.55.76,2.08,2.08,0,0,1,1,1.86Z"/><path class="cls-4" d="M199.72,126.48h1.94l-4,11.43h-2l-4-11.43h1.92l2.38,7.11a13.18,13.18,0,0,1,.4,1.3q.21.81.27,1.2c.07-.4.18-.86.32-1.38s.25-.9.34-1.15Z"/><path class="cls-4" d="M202.7,127a1,1,0,0,1,.27-.76,1,1,0,0,1,.77-.27.94.94,0,0,1,1,1,1,1,0,0,1-.27.74,1.06,1.06,0,0,1-.76.26,1.09,1.09,0,0,1-.77-.26A1,1,0,0,1,202.7,127Zm2,10.93h-1.84v-8.64h1.84Z"/><path class="cls-4" d="M211.13,129.11a4.51,4.51,0,0,1,.91.08l-.18,1.71a3.59,3.59,0,0,0-.81-.09,2.33,2.33,0,0,0-1.78.71,2.6,2.6,0,0,0-.69,1.87v4.52h-1.83v-8.64h1.43l.25,1.52h.09a3.42,3.42,0,0,1,1.12-1.23A2.68,2.68,0,0,1,211.13,129.11Z"/><path class="cls-4" d="M216.91,136.58a4.52,4.52,0,0,0,1.35-.21v1.38a3.65,3.65,0,0,1-.79.22,5.36,5.36,0,0,1-1,.09c-1.74,0-2.61-.91-2.61-2.75v-4.65h-1.18v-.82l1.26-.67.63-1.83h1.13v1.93h2.46v1.39h-2.46v4.62a1.3,1.3,0,0,0,.33,1A1.23,1.23,0,0,0,216.91,136.58Z"/><path class="cls-4" d="M225.58,137.91l-.26-1.14h-.1a2.48,2.48,0,0,1-1.09.95,3.6,3.6,0,0,1-1.61.34,3.15,3.15,0,0,1-2.34-.78,3.22,3.22,0,0,1-.78-2.37v-5.64h1.86v5.32a2.31,2.31,0,0,0,.4,1.49,1.57,1.57,0,0,0,1.28.5,2,2,0,0,0,1.69-.69,3.77,3.77,0,0,0,.55-2.32v-4.3H227v8.64Z"/><path class="cls-4" d="M234.52,137.91l-.37-1.21h-.06a3.57,3.57,0,0,1-1.26,1.08,4,4,0,0,1-1.62.28,2.78,2.78,0,0,1-2-.68,2.57,2.57,0,0,1-.72-1.95,2.29,2.29,0,0,1,1-2,5.7,5.7,0,0,1,3-.74l1.49,0v-.47a1.71,1.71,0,0,0-.39-1.23,1.53,1.53,0,0,0-1.2-.41,4.16,4.16,0,0,0-1.27.19,10.94,10.94,0,0,0-1.17.46l-.59-1.31a6.19,6.19,0,0,1,1.53-.56,7,7,0,0,1,1.58-.19,3.74,3.74,0,0,1,2.49.72,2.81,2.81,0,0,1,.84,2.26v5.82Zm-2.74-1.25a2.29,2.29,0,0,0,1.61-.56,2,2,0,0,0,.61-1.57v-.75l-1.11.05a3.75,3.75,0,0,0-1.89.43,1.33,1.33,0,0,0-.59,1.19,1.15,1.15,0,0,0,.34.89A1.49,1.49,0,0,0,231.78,136.66Z"/><path class="cls-4" d="M239.73,137.91h-1.84V125.75h1.84Z"/><path class="cls-4" d="M250.84,137.91l-3.31-9.54h-.07c.09,1.41.14,2.74.14,4v5.56h-1.7V126.48h2.63l3.18,9.09h0l3.27-9.09h2.64v11.43h-1.8v-5.65c0-.57,0-1.31,0-2.22s.05-1.46.07-1.66h-.06l-3.43,9.53Z"/><path class="cls-4" d="M265.37,137.91,265,136.7h-.06a3.49,3.49,0,0,1-1.26,1.08,4,4,0,0,1-1.62.28,2.79,2.79,0,0,1-2-.68,2.57,2.57,0,0,1-.71-1.95,2.3,2.3,0,0,1,1-2,5.73,5.73,0,0,1,3-.74l1.49,0v-.47a1.76,1.76,0,0,0-.38-1.23,1.56,1.56,0,0,0-1.2-.41,4.22,4.22,0,0,0-1.28.19,11.84,11.84,0,0,0-1.17.46l-.59-1.31a6.26,6.26,0,0,1,1.54-.56,6.94,6.94,0,0,1,1.58-.19,3.73,3.73,0,0,1,2.48.72,2.81,2.81,0,0,1,.84,2.26v5.82Zm-2.73-1.25a2.28,2.28,0,0,0,1.6-.56,2,2,0,0,0,.61-1.57v-.75l-1.11.05a3.78,3.78,0,0,0-1.89.43,1.33,1.33,0,0,0-.59,1.19,1.15,1.15,0,0,0,.35.89A1.48,1.48,0,0,0,262.64,136.66Z"/><path class="cls-4" d="M272.29,138.06a3.8,3.8,0,0,1-3-1.14,5.8,5.8,0,0,1,.05-6.64,4,4,0,0,1,3.08-1.17,5.76,5.76,0,0,1,2.46.51l-.55,1.47a5.63,5.63,0,0,0-1.92-.45c-1.5,0-2.25,1-2.25,3a3.57,3.57,0,0,0,.56,2.18,1.94,1.94,0,0,0,1.64.73,4.65,4.65,0,0,0,2.32-.61v1.6a3.67,3.67,0,0,1-1.05.42A6.53,6.53,0,0,1,272.29,138.06Z"/><path class="cls-4" d="M283.82,137.91H282v-5.32a2.32,2.32,0,0,0-.4-1.49,1.55,1.55,0,0,0-1.28-.49,2,2,0,0,0-1.69.69,3.75,3.75,0,0,0-.55,2.32v4.29h-1.83V125.75h1.83v3.09a14.92,14.92,0,0,1-.09,1.58h.12a2.57,2.57,0,0,1,1-1,3.32,3.32,0,0,1,1.56-.34q3.13,0,3.14,3.16Z"/><path class="cls-4" d="M285.73,127a1,1,0,0,1,.27-.76,1,1,0,0,1,.77-.27.94.94,0,0,1,1,1,1,1,0,0,1-.27.74,1.06,1.06,0,0,1-.76.26,1.09,1.09,0,0,1-.77-.26A1,1,0,0,1,285.73,127Zm1.95,10.93h-1.84v-8.64h1.84Z"/><path class="cls-4" d="M297.38,137.91h-1.84v-5.32a2.32,2.32,0,0,0-.41-1.49,1.54,1.54,0,0,0-1.27-.49,2,2,0,0,0-1.71.69,3.77,3.77,0,0,0-.54,2.3v4.31h-1.83v-8.64h1.43l.26,1.13h.1a2.53,2.53,0,0,1,1.11-1,3.6,3.6,0,0,1,1.59-.34q3.11,0,3.11,3.16Z"/><path class="cls-4" d="M303.25,138.06a4.19,4.19,0,0,1-3.15-1.17,4.47,4.47,0,0,1-1.13-3.24,4.92,4.92,0,0,1,1-3.33,3.63,3.63,0,0,1,2.9-1.21,3.56,3.56,0,0,1,2.7,1,4,4,0,0,1,1,2.86v1h-5.75a2.78,2.78,0,0,0,.68,1.93,2.34,2.34,0,0,0,1.8.68,6.2,6.2,0,0,0,2.84-.63v1.5a5.71,5.71,0,0,1-1.36.45A8.16,8.16,0,0,1,303.25,138.06Zm-.33-7.56a1.81,1.81,0,0,0-1.4.56,2.53,2.53,0,0,0-.63,1.61h3.92a2.37,2.37,0,0,0-.52-1.62A1.74,1.74,0,0,0,302.92,130.5Z"/><path class="cls-4" d="M314.14,135.45a2.27,2.27,0,0,1-.92,1.94,4.44,4.44,0,0,1-2.64.67,6.19,6.19,0,0,1-2.77-.52V136a6.78,6.78,0,0,0,2.83.71c1.13,0,1.7-.34,1.7-1a.81.81,0,0,0-.19-.54,2.25,2.25,0,0,0-.62-.46,11.61,11.61,0,0,0-1.19-.53,5.48,5.48,0,0,1-2-1.15,2.16,2.16,0,0,1-.53-1.5,2,2,0,0,1,.89-1.73,4.26,4.26,0,0,1,2.44-.61,6.94,6.94,0,0,1,2.88.62l-.59,1.38a6.38,6.38,0,0,0-2.35-.58c-1,0-1.46.28-1.46.83a.85.85,0,0,0,.38.69,8.82,8.82,0,0,0,1.65.77,7.79,7.79,0,0,1,1.56.76,2.33,2.33,0,0,1,.72.79A2.39,2.39,0,0,1,314.14,135.45Z"/><path class="cls-4" d="M197.69,153.09a5.68,5.68,0,0,1-1.57,4.32,6.29,6.29,0,0,1-4.52,1.5h-3.2V147.48h3.53a5.87,5.87,0,0,1,4.25,1.47A5.5,5.5,0,0,1,197.69,153.09Zm-2,.06c0-2.74-1.28-4.1-3.83-4.1h-1.62v8.29h1.33Q195.73,157.34,195.72,153.15Z"/><path class="cls-4" d="M203.3,159.06a4.16,4.16,0,0,1-3.15-1.17,4.48,4.48,0,0,1-1.14-3.24,4.92,4.92,0,0,1,1.05-3.33,3.65,3.65,0,0,1,2.9-1.21,3.6,3.6,0,0,1,2.71,1,4,4,0,0,1,1,2.86v1H200.9a2.83,2.83,0,0,0,.68,1.93,2.37,2.37,0,0,0,1.8.68,7.15,7.15,0,0,0,1.43-.14,7.51,7.51,0,0,0,1.42-.49v1.5a5.86,5.86,0,0,1-1.36.45A8.23,8.23,0,0,1,203.3,159.06ZM203,151.5a1.81,1.81,0,0,0-1.4.56,2.64,2.64,0,0,0-.63,1.61h3.92a2.41,2.41,0,0,0-.51-1.62A1.76,1.76,0,0,0,203,151.5Z"/><path class="cls-4" d="M212.71,159.06a3,3,0,0,1-2.54-1.18h-.11c.07.73.11,1.18.11,1.33v3.54h-1.84V150.27h1.48c.05.16.13.54.26,1.15h.1a2.87,2.87,0,0,1,2.57-1.31,3,3,0,0,1,2.52,1.17,5.23,5.23,0,0,1,.91,3.29,5.34,5.34,0,0,1-.92,3.31A3,3,0,0,1,212.71,159.06Zm-.44-7.45a1.91,1.91,0,0,0-1.6.64,3.31,3.31,0,0,0-.5,2.05v.27a4,4,0,0,0,.5,2.29,1.84,1.84,0,0,0,1.63.7,1.67,1.67,0,0,0,1.47-.78,4.05,4.05,0,0,0,.51-2.22,3.89,3.89,0,0,0-.51-2.2A1.7,1.7,0,0,0,212.27,151.61Z"/><path class="cls-4" d="M219.71,158.91h-1.83V146.75h1.83Z"/><path class="cls-4" d="M229.55,154.57a4.76,4.76,0,0,1-1.08,3.31,3.92,3.92,0,0,1-3,1.18,4.2,4.2,0,0,1-2.14-.54,3.69,3.69,0,0,1-1.43-1.57,5.44,5.44,0,0,1-.5-2.38,4.68,4.68,0,0,1,1.08-3.28,3.9,3.9,0,0,1,3-1.18,3.79,3.79,0,0,1,3,1.21A4.65,4.65,0,0,1,229.55,154.57Zm-6.29,0c0,2,.74,3,2.21,3s2.19-1,2.19-3-.73-3-2.2-3a1.87,1.87,0,0,0-1.68.77A3.94,3.94,0,0,0,223.26,154.57Z"/><path class="cls-4" d="M229.75,150.27h2l1.76,4.89a9.86,9.86,0,0,1,.53,2h.06a10.43,10.43,0,0,1,.26-1q.19-.61,2-5.82h2l-3.7,9.79q-1,2.69-3.36,2.69a5.14,5.14,0,0,1-1.18-.13v-1.46a3.82,3.82,0,0,0,.94.1,1.93,1.93,0,0,0,1.87-1.54l.32-.81Z"/><path class="cls-4" d="M242.89,148a1,1,0,1,1,2.06,0,1,1,0,0,1-.27.74,1.05,1.05,0,0,1-.75.26,1.07,1.07,0,0,1-.77-.26A1,1,0,0,1,242.89,148Zm1.94,10.93H243v-8.64h1.83Z"/><path class="cls-4" d="M254.53,158.91h-1.84v-5.32a2.39,2.39,0,0,0-.4-1.49,1.56,1.56,0,0,0-1.28-.49,2,2,0,0,0-1.7.69,3.77,3.77,0,0,0-.54,2.3v4.31h-1.84v-8.64h1.44l.26,1.13h.09a2.53,2.53,0,0,1,1.11-1,3.63,3.63,0,0,1,1.59-.34c2.08,0,3.11,1,3.11,3.16Z"/><path class="cls-5" d="M267.72,158.91h-1.84v-5.33a2.41,2.41,0,0,0-.37-1.48,1.38,1.38,0,0,0-1.18-.49,1.78,1.78,0,0,0-1.55.69,4,4,0,0,0-.5,2.3v4.31h-1.84v-8.64h1.44l.26,1.13h.09a2.37,2.37,0,0,1,1-1,3.24,3.24,0,0,1,1.5-.34,2.62,2.62,0,0,1,2.64,1.36h.12a2.67,2.67,0,0,1,1.08-1,3.46,3.46,0,0,1,1.6-.36,2.9,2.9,0,0,1,2.25.78,3.47,3.47,0,0,1,.71,2.38v5.64h-1.84v-5.33a2.34,2.34,0,0,0-.38-1.48,1.37,1.37,0,0,0-1.17-.49,1.81,1.81,0,0,0-1.57.67,3.44,3.44,0,0,0-.5,2.05Z"/><path class="cls-5" d="M275.11,148a1,1,0,0,1,.27-.76,1,1,0,0,1,.77-.27,1.06,1.06,0,0,1,.75,1.77,1.05,1.05,0,0,1-.75.26,1.09,1.09,0,0,1-.77-.26A1,1,0,0,1,275.11,148Zm1.95,10.93h-1.84v-8.64h1.84Z"/><path class="cls-5" d="M286.75,158.91h-1.84v-5.32a2.32,2.32,0,0,0-.4-1.49,1.56,1.56,0,0,0-1.28-.49,2,2,0,0,0-1.7.69,3.77,3.77,0,0,0-.54,2.3v4.31h-1.84v-8.64h1.44l.26,1.13h.09a2.53,2.53,0,0,1,1.11-1,3.64,3.64,0,0,1,1.6-.34q3.11,0,3.1,3.16Z"/><path class="cls-5" d="M294.91,158.91l-.26-1.14h-.1a2.48,2.48,0,0,1-1.09.95,3.63,3.63,0,0,1-1.61.34,3.15,3.15,0,0,1-2.34-.78,3.22,3.22,0,0,1-.78-2.37v-5.64h1.86v5.32a2.31,2.31,0,0,0,.4,1.49,1.56,1.56,0,0,0,1.27.5,2,2,0,0,0,1.7-.69,3.77,3.77,0,0,0,.55-2.32v-4.3h1.84v8.64Z"/><path class="cls-5" d="M301.75,157.58a4.41,4.41,0,0,0,1.34-.21v1.38a3.54,3.54,0,0,1-.78.22,5.39,5.39,0,0,1-1,.09c-1.74,0-2.61-.91-2.61-2.75v-4.65h-1.18v-.82l1.27-.67.62-1.83h1.14v1.93H303v1.39h-2.46v4.62a1.3,1.3,0,0,0,.33,1A1.21,1.21,0,0,0,301.75,157.58Z"/><path class="cls-5" d="M308.07,159.06a4.16,4.16,0,0,1-3.15-1.17,4.48,4.48,0,0,1-1.14-3.24,4.92,4.92,0,0,1,1.05-3.33,3.65,3.65,0,0,1,2.9-1.21,3.56,3.56,0,0,1,2.7,1,3.92,3.92,0,0,1,1,2.86v1h-5.76a2.78,2.78,0,0,0,.68,1.93,2.37,2.37,0,0,0,1.8.68,7.15,7.15,0,0,0,1.43-.14A7.51,7.51,0,0,0,311,157v1.5a5.86,5.86,0,0,1-1.36.45A8.23,8.23,0,0,1,308.07,159.06Zm-.34-7.56a1.81,1.81,0,0,0-1.4.56,2.64,2.64,0,0,0-.63,1.61h3.92a2.41,2.41,0,0,0-.51-1.62A1.78,1.78,0,0,0,307.73,151.5Z"/><path class="cls-5" d="M319,156.45a2.25,2.25,0,0,1-.92,1.94,4.4,4.4,0,0,1-2.64.67,6.22,6.22,0,0,1-2.77-.52V157a6.78,6.78,0,0,0,2.83.71c1.13,0,1.7-.34,1.7-1a.76.76,0,0,0-.19-.54,2.11,2.11,0,0,0-.62-.46,11.61,11.61,0,0,0-1.19-.53,5.48,5.48,0,0,1-2-1.15,2.16,2.16,0,0,1-.53-1.5,2,2,0,0,1,.9-1.73,4.2,4.2,0,0,1,2.43-.61,6.87,6.87,0,0,1,2.88.62l-.59,1.38a6.34,6.34,0,0,0-2.35-.58c-1,0-1.45.28-1.45.83a.84.84,0,0,0,.37.69,9.37,9.37,0,0,0,1.66.77,7.65,7.65,0,0,1,1.55.76,2.33,2.33,0,0,1,.72.79A2.27,2.27,0,0,1,319,156.45Z"/><path class="cls-4" d="M402.87,128.59a3.09,3.09,0,0,0-2.53,1.14,6,6,0,0,0,0,6.33,3.11,3.11,0,0,0,2.56,1.08,6.48,6.48,0,0,0,1.41-.15c.45-.09.92-.22,1.41-.37v1.6a8.5,8.5,0,0,1-3,.51,4.89,4.89,0,0,1-3.86-1.52,6.38,6.38,0,0,1-1.34-4.35,7.08,7.08,0,0,1,.65-3.11,4.65,4.65,0,0,1,1.89-2,5.74,5.74,0,0,1,2.9-.71,7.19,7.19,0,0,1,3.23.73l-.67,1.56a9.38,9.38,0,0,0-1.22-.48A4.35,4.35,0,0,0,402.87,128.59Z"/><path class="cls-4" d="M415,134.24a4.72,4.72,0,0,1-1.08,3.3,3.87,3.87,0,0,1-3,1.19,4.12,4.12,0,0,1-2.15-.55,3.5,3.5,0,0,1-1.42-1.57,5.23,5.23,0,0,1-.5-2.37A4.66,4.66,0,0,1,407.9,131a3.9,3.9,0,0,1,3-1.18,3.82,3.82,0,0,1,3,1.2A4.67,4.67,0,0,1,415,134.24Zm-6.28,0c0,2,.73,3,2.21,3s2.18-1,2.18-3-.73-3-2.2-3a1.86,1.86,0,0,0-1.67.76A3.87,3.87,0,0,0,408.72,134.24Z"/><path class="cls-4" d="M424.25,138.57H422.4v-5.31a2.32,2.32,0,0,0-.4-1.49,1.55,1.55,0,0,0-1.28-.49,2.05,2.05,0,0,0-1.7.68,3.81,3.81,0,0,0-.54,2.31v4.3h-1.83v-8.64h1.43l.26,1.14h.1a2.65,2.65,0,0,1,1.1-1,3.82,3.82,0,0,1,1.6-.33q3.11,0,3.11,3.16Z"/><path class="cls-4" d="M429.51,137.25a4.24,4.24,0,0,0,1.35-.22v1.39a3.82,3.82,0,0,1-.79.22,5.36,5.36,0,0,1-1,.09c-1.74,0-2.61-.92-2.61-2.75v-4.66h-1.18v-.81l1.26-.67.63-1.83h1.13v1.92h2.46v1.39h-2.46V136a1.3,1.3,0,0,0,.33,1A1.21,1.21,0,0,0,429.51,137.25Z"/><path class="cls-4" d="M437.77,138.57l-.37-1.2h-.06a3.43,3.43,0,0,1-1.26,1.07,3.79,3.79,0,0,1-1.62.29,2.74,2.74,0,0,1-2-.69,2.54,2.54,0,0,1-.72-1.94,2.28,2.28,0,0,1,1-2,5.7,5.7,0,0,1,3-.74l1.49-.05v-.46a1.76,1.76,0,0,0-.39-1.24,1.57,1.57,0,0,0-1.2-.41,4.16,4.16,0,0,0-1.27.2,9.17,9.17,0,0,0-1.17.46l-.59-1.31a6.19,6.19,0,0,1,1.53-.56,7,7,0,0,1,1.58-.19,3.74,3.74,0,0,1,2.49.72,2.81,2.81,0,0,1,.84,2.25v5.82ZM435,137.32a2.24,2.24,0,0,0,1.61-.56,2,2,0,0,0,.61-1.56v-.75l-1.11.05a3.75,3.75,0,0,0-1.89.43,1.32,1.32,0,0,0-.59,1.18,1.15,1.15,0,0,0,.34.9A1.49,1.49,0,0,0,435,137.32Z"/><path class="cls-4" d="M441,127.64a1,1,0,0,1,.27-.75,1,1,0,0,1,.77-.27,1,1,0,0,1,.76.27,1.16,1.16,0,0,1,0,1.49,1,1,0,0,1-.76.27,1,1,0,0,1-.77-.27A1,1,0,0,1,441,127.64ZM443,138.57h-1.84v-8.64H443Z"/><path class="cls-4" d="M452.66,138.57h-1.85v-5.31a2.32,2.32,0,0,0-.4-1.49,1.55,1.55,0,0,0-1.28-.49,2.05,2.05,0,0,0-1.7.68,3.81,3.81,0,0,0-.54,2.31v4.3h-1.83v-8.64h1.43l.26,1.14h.1a2.61,2.61,0,0,1,1.11-1,3.74,3.74,0,0,1,1.59-.33q3.1,0,3.11,3.16Z"/><path class="cls-4" d="M458.53,138.73a4.16,4.16,0,0,1-3.15-1.18,4.44,4.44,0,0,1-1.14-3.23A4.93,4.93,0,0,1,455.3,131a3.63,3.63,0,0,1,2.9-1.21,3.53,3.53,0,0,1,2.7,1,4,4,0,0,1,1,2.86v1h-5.76a2.88,2.88,0,0,0,.68,1.93,2.38,2.38,0,0,0,1.81.68,6.64,6.64,0,0,0,2.84-.63v1.49a5.46,5.46,0,0,1-1.36.46A8.16,8.16,0,0,1,458.53,138.73Zm-.33-7.56a1.86,1.86,0,0,0-1.41.55,2.61,2.61,0,0,0-.62,1.62h3.92a2.37,2.37,0,0,0-.52-1.62A1.74,1.74,0,0,0,458.2,131.17Z"/><path class="cls-4" d="M468,129.78a4.6,4.6,0,0,1,.91.07l-.18,1.72a3.1,3.1,0,0,0-.81-.1,2.34,2.34,0,0,0-1.78.72,2.59,2.59,0,0,0-.69,1.87v4.51h-1.83v-8.64H465l.25,1.53h.09a3.42,3.42,0,0,1,1.12-1.23A2.68,2.68,0,0,1,468,129.78Z"/><path class="cls-4" d="M476,136.11a2.26,2.26,0,0,1-.92,1.94,4.33,4.33,0,0,1-2.64.68,6.19,6.19,0,0,1-2.77-.52v-1.59a6.76,6.76,0,0,0,2.83.7c1.13,0,1.7-.34,1.7-1a.8.8,0,0,0-.19-.55,2.3,2.3,0,0,0-.62-.45,9.76,9.76,0,0,0-1.19-.53,5.47,5.47,0,0,1-2-1.16,2.13,2.13,0,0,1-.53-1.5,2,2,0,0,1,.9-1.72,4.2,4.2,0,0,1,2.43-.61,6.89,6.89,0,0,1,2.88.61l-.59,1.39a6.34,6.34,0,0,0-2.35-.58c-1,0-1.46.28-1.46.83a.82.82,0,0,0,.38.68,8.65,8.65,0,0,0,1.65.78,7,7,0,0,1,1.56.76,2.33,2.33,0,0,1,.72.79A2.38,2.38,0,0,1,476,136.11Z"/><path class="cls-4" d="M381.29,153.75a5.69,5.69,0,0,1-1.57,4.33,6.29,6.29,0,0,1-4.52,1.49H372V148.15h3.53a5.85,5.85,0,0,1,4.25,1.47A5.49,5.49,0,0,1,381.29,153.75Zm-2,.07q0-4.11-3.83-4.11h-1.62V158h1.33Q379.33,158,379.32,153.82Z"/><path class="cls-4" d="M386.9,159.73a4.15,4.15,0,0,1-3.15-1.18,4.44,4.44,0,0,1-1.14-3.23,4.88,4.88,0,0,1,1.06-3.33,3.61,3.61,0,0,1,2.89-1.21,3.55,3.55,0,0,1,2.71,1,4,4,0,0,1,1,2.86v1H384.5a2.83,2.83,0,0,0,.68,1.93,2.38,2.38,0,0,0,1.81.68,6.38,6.38,0,0,0,1.42-.15,6.8,6.8,0,0,0,1.42-.48v1.49a5.46,5.46,0,0,1-1.36.46A8.23,8.23,0,0,1,386.9,159.73Zm-.34-7.56a1.84,1.84,0,0,0-1.4.55,2.67,2.67,0,0,0-.63,1.62h3.92a2.41,2.41,0,0,0-.51-1.62A1.75,1.75,0,0,0,386.56,152.17Z"/><path class="cls-4" d="M396.31,159.73a3,3,0,0,1-2.54-1.18h-.11c.07.73.11,1.17.11,1.33v3.54h-1.84V150.93h1.49c0,.17.12.55.25,1.16h.1a2.86,2.86,0,0,1,2.58-1.31,3,3,0,0,1,2.52,1.17,6.42,6.42,0,0,1,0,6.59A3,3,0,0,1,396.31,159.73Zm-.44-7.45a1.91,1.91,0,0,0-1.6.64,3.36,3.36,0,0,0-.5,2v.28a4,4,0,0,0,.5,2.28,1.84,1.84,0,0,0,1.63.71,1.65,1.65,0,0,0,1.47-.78,4.07,4.07,0,0,0,.51-2.23,3.91,3.91,0,0,0-.51-2.2A1.71,1.71,0,0,0,395.87,152.28Z"/><path class="cls-4" d="M403.31,159.57h-1.83V147.42h1.83Z"/><path class="cls-4" d="M413.15,155.24a4.72,4.72,0,0,1-1.08,3.3,3.88,3.88,0,0,1-3,1.19,4.11,4.11,0,0,1-2.14-.55,3.58,3.58,0,0,1-1.43-1.57,5.37,5.37,0,0,1-.5-2.37,4.67,4.67,0,0,1,1.08-3.28,3.9,3.9,0,0,1,3-1.18,3.82,3.82,0,0,1,3,1.2A4.67,4.67,0,0,1,413.15,155.24Zm-6.29,0c0,2,.74,3,2.22,3s2.18-1,2.18-3-.73-3-2.2-3a1.89,1.89,0,0,0-1.68.76A4,4,0,0,0,406.86,155.24Z"/><path class="cls-4" d="M413.35,150.93h2l1.76,4.9a9.23,9.23,0,0,1,.53,2h.06a9.79,9.79,0,0,1,.26-1q.19-.62,2-5.83h2l-3.69,9.79q-1,2.7-3.36,2.7a5.17,5.17,0,0,1-1.19-.14v-1.45a4.37,4.37,0,0,0,.94.1,1.94,1.94,0,0,0,1.87-1.54l.32-.82Z"/><path class="cls-4" d="M426.49,148.64a1,1,0,0,1,.27-.75,1,1,0,0,1,.77-.27,1,1,0,0,1,.75.27,1.16,1.16,0,0,1,0,1.49,1,1,0,0,1-.75.27,1,1,0,0,1-.77-.27A1,1,0,0,1,426.49,148.64Zm1.94,10.93H426.6v-8.64h1.83Z"/><path class="cls-4" d="M438.13,159.57h-1.84v-5.31a2.32,2.32,0,0,0-.4-1.49,1.56,1.56,0,0,0-1.28-.49,2,2,0,0,0-1.7.68,3.81,3.81,0,0,0-.54,2.31v4.3h-1.84v-8.64H432l.26,1.14h.09a2.61,2.61,0,0,1,1.11-1,3.77,3.77,0,0,1,1.59-.33c2.08,0,3.11,1.05,3.11,3.16Z"/><path class="cls-5" d="M449.85,157.11a2.26,2.26,0,0,1-.92,1.94,4.37,4.37,0,0,1-2.64.68,6.27,6.27,0,0,1-2.78-.52v-1.59a6.8,6.8,0,0,0,2.84.7c1.13,0,1.69-.34,1.69-1a.85.85,0,0,0-.18-.55,2.48,2.48,0,0,0-.62-.45,10.81,10.81,0,0,0-1.2-.53,5.5,5.5,0,0,1-2-1.16,2.09,2.09,0,0,1-.53-1.5,2,2,0,0,1,.89-1.72,4.26,4.26,0,0,1,2.44-.61,6.93,6.93,0,0,1,2.88.61l-.59,1.39a6.38,6.38,0,0,0-2.36-.58c-1,0-1.45.28-1.45.83a.82.82,0,0,0,.38.68,8.05,8.05,0,0,0,1.65.78,7.53,7.53,0,0,1,1.56.76,2.33,2.33,0,0,1,.72.79A2.38,2.38,0,0,1,449.85,157.11Z"/><path class="cls-5" d="M455.19,159.73a4.17,4.17,0,0,1-3.16-1.18,4.47,4.47,0,0,1-1.13-3.23A4.92,4.92,0,0,1,452,152a3.65,3.65,0,0,1,2.9-1.21,3.53,3.53,0,0,1,2.7,1,4,4,0,0,1,1,2.86v1h-5.76a2.78,2.78,0,0,0,.68,1.93,2.36,2.36,0,0,0,1.8.68,6.47,6.47,0,0,0,1.43-.15,6.8,6.8,0,0,0,1.42-.48v1.49a5.6,5.6,0,0,1-1.36.46A8.3,8.3,0,0,1,455.19,159.73Zm-.34-7.56a1.84,1.84,0,0,0-1.4.55,2.67,2.67,0,0,0-.63,1.62h3.92a2.41,2.41,0,0,0-.51-1.62A1.78,1.78,0,0,0,454.85,152.17Z"/><path class="cls-5" d="M463.74,159.73a3.79,3.79,0,0,1-3-1.14,5.82,5.82,0,0,1,0-6.64,4,4,0,0,1,3.08-1.17,5.92,5.92,0,0,1,2.47.5l-.56,1.48a5.63,5.63,0,0,0-1.92-.45c-1.5,0-2.24,1-2.24,3a3.54,3.54,0,0,0,.56,2.19,1.91,1.91,0,0,0,1.63.73,4.65,4.65,0,0,0,2.32-.61v1.6a3.64,3.64,0,0,1-1.05.41A5.82,5.82,0,0,1,463.74,159.73Z"/><path class="cls-5" d="M475.26,155.24a4.72,4.72,0,0,1-1.08,3.3,3.89,3.89,0,0,1-3,1.19,4.11,4.11,0,0,1-2.14-.55,3.58,3.58,0,0,1-1.43-1.57,5.37,5.37,0,0,1-.5-2.37,4.67,4.67,0,0,1,1.08-3.28,3.9,3.9,0,0,1,3-1.18,3.82,3.82,0,0,1,3,1.2A4.67,4.67,0,0,1,475.26,155.24Zm-6.29,0c0,2,.74,3,2.21,3s2.19-1,2.19-3-.73-3-2.2-3a1.89,1.89,0,0,0-1.68.76A4,4,0,0,0,469,155.24Z"/><path class="cls-5" d="M484.51,159.57h-1.85v-5.31a2.32,2.32,0,0,0-.4-1.49,1.55,1.55,0,0,0-1.28-.49,2.05,2.05,0,0,0-1.7.68,3.81,3.81,0,0,0-.54,2.31v4.3H476.9v-8.64h1.44l.26,1.14h.09a2.61,2.61,0,0,1,1.11-1,3.78,3.78,0,0,1,1.6-.33q3.11,0,3.11,3.16Z"/><path class="cls-5" d="M489.55,159.73a3,3,0,0,1-2.53-1.17,5.3,5.3,0,0,1-.9-3.29A5.23,5.23,0,0,1,487,152a3,3,0,0,1,2.54-1.18,3,3,0,0,1,2.59,1.25h.1a10.73,10.73,0,0,1-.14-1.46v-3.15H494v12.15h-1.44l-.32-1.13h-.09A2.93,2.93,0,0,1,489.55,159.73Zm.49-1.48a2,2,0,0,0,1.65-.64,3.38,3.38,0,0,0,.53-2.07v-.26a3.93,3.93,0,0,0-.53-2.32,2,2,0,0,0-1.67-.68,1.7,1.7,0,0,0-1.49.78,4,4,0,0,0-.52,2.24,3.9,3.9,0,0,0,.51,2.19A1.68,1.68,0,0,0,490,158.25Z"/><path class="cls-5" d="M502,157.11a2.26,2.26,0,0,1-.92,1.94,4.33,4.33,0,0,1-2.64.68,6.19,6.19,0,0,1-2.77-.52v-1.59a6.76,6.76,0,0,0,2.83.7c1.13,0,1.7-.34,1.7-1a.8.8,0,0,0-.19-.55,2.3,2.3,0,0,0-.62-.45,9.76,9.76,0,0,0-1.19-.53,5.47,5.47,0,0,1-2-1.16,2.13,2.13,0,0,1-.53-1.5,2,2,0,0,1,.9-1.72,4.2,4.2,0,0,1,2.43-.61,6.89,6.89,0,0,1,2.88.61l-.59,1.39a6.34,6.34,0,0,0-2.35-.58c-1,0-1.46.28-1.46.83a.82.82,0,0,0,.38.68,8.65,8.65,0,0,0,1.65.78,7,7,0,0,1,1.56.76,2.33,2.33,0,0,1,.72.79A2.38,2.38,0,0,1,502,157.11Z"/><path class="cls-4" d="M585.67,135.14a2.88,2.88,0,0,1-1.1,2.39,4.8,4.8,0,0,1-3,.87,7.25,7.25,0,0,1-3.17-.6V136a8.79,8.79,0,0,0,1.66.58,7,7,0,0,0,1.63.21,2.62,2.62,0,0,0,1.64-.42,1.39,1.39,0,0,0,.53-1.14,1.4,1.4,0,0,0-.49-1.08,7.24,7.24,0,0,0-2-1.06,5.3,5.3,0,0,1-2.2-1.44,3,3,0,0,1-.64-2,2.71,2.71,0,0,1,1-2.25,4.16,4.16,0,0,1,2.72-.82,8,8,0,0,1,3.27.71l-.6,1.53a7,7,0,0,0-2.71-.64,2.1,2.1,0,0,0-1.38.39,1.3,1.3,0,0,0-.47,1,1.44,1.44,0,0,0,.19.77,1.77,1.77,0,0,0,.62.59,10,10,0,0,0,1.54.75,8.23,8.23,0,0,1,1.85,1,3,3,0,0,1,.86,1A3.08,3.08,0,0,1,585.67,135.14Z"/><path class="cls-4" d="M591.14,138.4a4.16,4.16,0,0,1-3.15-1.18,4.45,4.45,0,0,1-1.14-3.24,4.83,4.83,0,0,1,1.06-3.32,4,4,0,0,1,5.6-.18,4,4,0,0,1,1,2.86v1h-5.76a2.85,2.85,0,0,0,.68,1.93,2.38,2.38,0,0,0,1.81.67,6.39,6.39,0,0,0,1.42-.14,8.2,8.2,0,0,0,1.42-.48v1.49a5.43,5.43,0,0,1-1.36.45A8.18,8.18,0,0,1,591.14,138.4Zm-.34-7.56a1.84,1.84,0,0,0-1.4.55,2.67,2.67,0,0,0-.63,1.62h3.92a2.38,2.38,0,0,0-.51-1.62A1.76,1.76,0,0,0,590.8,130.84Z"/><path class="cls-4" d="M600.55,129.44a4.62,4.62,0,0,1,.92.08l-.18,1.71a3.59,3.59,0,0,0-.81-.09,2.36,2.36,0,0,0-1.79.72,2.62,2.62,0,0,0-.68,1.87v4.51h-1.84V129.6h1.44l.24,1.52h.1a3.38,3.38,0,0,1,1.12-1.22A2.66,2.66,0,0,1,600.55,129.44Z"/><path class="cls-4" d="M605.27,138.24,602,129.6h1.93l1.76,5a10.11,10.11,0,0,1,.55,2h.06a14.18,14.18,0,0,1,.55-2l1.76-5h1.95l-3.3,8.64Z"/><path class="cls-4" d="M615.07,138.4a4.13,4.13,0,0,1-3.15-1.18,4.45,4.45,0,0,1-1.14-3.24,4.88,4.88,0,0,1,1.05-3.32,3.65,3.65,0,0,1,2.9-1.22,3.56,3.56,0,0,1,2.7,1,4,4,0,0,1,1,2.86v1h-5.76a2.8,2.8,0,0,0,.68,1.93,2.37,2.37,0,0,0,1.8.67,6.48,6.48,0,0,0,1.43-.14,8.2,8.2,0,0,0,1.42-.48v1.49a5.43,5.43,0,0,1-1.36.45A8.18,8.18,0,0,1,615.07,138.4Zm-.34-7.56a1.84,1.84,0,0,0-1.4.55,2.67,2.67,0,0,0-.63,1.62h3.92a2.38,2.38,0,0,0-.51-1.62A1.78,1.78,0,0,0,614.73,130.84Z"/><path class="cls-4" d="M624.48,129.44a4.62,4.62,0,0,1,.92.08l-.18,1.71a3.62,3.62,0,0,0-.82-.09,2.34,2.34,0,0,0-1.78.72,2.58,2.58,0,0,0-.68,1.87v4.51H620.1V129.6h1.44l.24,1.52h.09A3.47,3.47,0,0,1,623,129.9,2.72,2.72,0,0,1,624.48,129.44Z"/><path class="cls-4" d="M628.4,138.24h-1.83V126.09h1.83Z"/><path class="cls-4" d="M634.35,138.4a4.16,4.16,0,0,1-3.15-1.18,4.45,4.45,0,0,1-1.14-3.24,4.83,4.83,0,0,1,1.06-3.32,3.63,3.63,0,0,1,2.89-1.22,3.57,3.57,0,0,1,2.71,1,4,4,0,0,1,1,2.86v1H632a2.9,2.9,0,0,0,.68,1.93,2.38,2.38,0,0,0,1.81.67,6.39,6.39,0,0,0,1.42-.14,7.93,7.93,0,0,0,1.42-.48v1.49a5.43,5.43,0,0,1-1.36.45A8.18,8.18,0,0,1,634.35,138.4Zm-.34-7.56a1.84,1.84,0,0,0-1.4.55A2.67,2.67,0,0,0,632,133h3.93a2.43,2.43,0,0,0-.52-1.62A1.75,1.75,0,0,0,634,130.84Z"/><path class="cls-4" d="M645.24,135.78a2.27,2.27,0,0,1-.92,1.94,4.45,4.45,0,0,1-2.65.68,6.21,6.21,0,0,1-2.77-.53v-1.58a6.8,6.8,0,0,0,2.84.7c1.13,0,1.69-.34,1.69-1a.85.85,0,0,0-.18-.55,2.21,2.21,0,0,0-.62-.45,9.21,9.21,0,0,0-1.2-.53,5.56,5.56,0,0,1-2-1.16,2.16,2.16,0,0,1-.52-1.5,2,2,0,0,1,.89-1.72,4.24,4.24,0,0,1,2.43-.62,7,7,0,0,1,2.89.62l-.6,1.38a6.45,6.45,0,0,0-2.35-.57c-1,0-1.45.27-1.45.82a.81.81,0,0,0,.38.69,8.05,8.05,0,0,0,1.65.78,7.22,7.22,0,0,1,1.55.75,2.17,2.17,0,0,1,.72.8A2.23,2.23,0,0,1,645.24,135.78Z"/><path class="cls-4" d="M652.67,135.78a2.27,2.27,0,0,1-.92,1.94,4.44,4.44,0,0,1-2.64.68,6.26,6.26,0,0,1-2.78-.53v-1.58a6.8,6.8,0,0,0,2.84.7c1.13,0,1.7-.34,1.7-1a.85.85,0,0,0-.19-.55,2.07,2.07,0,0,0-.62-.45,9,9,0,0,0-1.19-.53,5.47,5.47,0,0,1-2-1.16,2.12,2.12,0,0,1-.53-1.5,2,2,0,0,1,.89-1.72,4.26,4.26,0,0,1,2.44-.62,6.94,6.94,0,0,1,2.88.62l-.59,1.38a6.54,6.54,0,0,0-2.36-.57c-1,0-1.45.27-1.45.82a.84.84,0,0,0,.38.69,8.05,8.05,0,0,0,1.65.78,7.35,7.35,0,0,1,1.56.75,2.11,2.11,0,0,1,.95,1.87Z"/><path class="cls-4" d="M541.08,153.42a5.69,5.69,0,0,1-1.57,4.33,6.35,6.35,0,0,1-4.52,1.49h-3.2V147.82h3.53a5.83,5.83,0,0,1,4.24,1.47A5.48,5.48,0,0,1,541.08,153.42Zm-2,.06q0-4.09-3.84-4.1h-1.61v8.29H535Q539.12,157.67,539.11,153.48Z"/><path class="cls-4" d="M546.69,159.4a4.17,4.17,0,0,1-3.16-1.18A4.48,4.48,0,0,1,542.4,155a4.88,4.88,0,0,1,1.05-3.32,3.65,3.65,0,0,1,2.9-1.22,3.56,3.56,0,0,1,2.7,1,4,4,0,0,1,1,2.86v1h-5.76a2.8,2.8,0,0,0,.68,1.93,2.35,2.35,0,0,0,1.8.67,6.48,6.48,0,0,0,1.43-.14,8.2,8.2,0,0,0,1.42-.48v1.49a5.56,5.56,0,0,1-1.36.45A8.18,8.18,0,0,1,546.69,159.4Zm-.34-7.56a1.84,1.84,0,0,0-1.4.55,2.67,2.67,0,0,0-.63,1.62h3.92a2.38,2.38,0,0,0-.51-1.62A1.78,1.78,0,0,0,546.35,151.84Z"/><path class="cls-4" d="M556.1,159.4a3.06,3.06,0,0,1-2.55-1.18h-.1c.07.73.1,1.17.1,1.33v3.54h-1.83V150.6h1.48c0,.16.13.55.26,1.16h.09a2.89,2.89,0,0,1,2.58-1.32,3,3,0,0,1,2.52,1.18,6.45,6.45,0,0,1,0,6.59A3,3,0,0,1,556.1,159.4Zm-.44-7.46a1.9,1.9,0,0,0-1.6.65,3.25,3.25,0,0,0-.51,2v.28a4.05,4.05,0,0,0,.5,2.28,1.88,1.88,0,0,0,1.64.71,1.67,1.67,0,0,0,1.47-.78,4.09,4.09,0,0,0,.51-2.23,3.91,3.91,0,0,0-.51-2.2A1.7,1.7,0,0,0,555.66,151.94Z"/><path class="cls-4" d="M563.1,159.24h-1.83V147.09h1.83Z"/><path class="cls-4" d="M572.94,154.91a4.68,4.68,0,0,1-1.09,3.3,3.89,3.89,0,0,1-3,1.19,4.08,4.08,0,0,1-2.14-.55,3.58,3.58,0,0,1-1.43-1.57,5.37,5.37,0,0,1-.5-2.37,4.69,4.69,0,0,1,1.08-3.29,3.93,3.93,0,0,1,3-1.18,3.83,3.83,0,0,1,3,1.21A4.67,4.67,0,0,1,572.94,154.91Zm-6.29,0c0,2,.74,3,2.21,3s2.19-1,2.19-3-.73-3-2.2-3a1.9,1.9,0,0,0-1.68.77A3.87,3.87,0,0,0,566.65,154.91Z"/><path class="cls-4" d="M573.14,150.6h2l1.76,4.9a9.68,9.68,0,0,1,.53,2h.06a7.47,7.47,0,0,1,.26-1c.12-.41.79-2.36,2-5.83h2l-3.7,9.79q-1,2.7-3.36,2.7a5.15,5.15,0,0,1-1.18-.14V161.5a4.41,4.41,0,0,0,.94.09,1.93,1.93,0,0,0,1.87-1.54l.32-.81Z"/><path class="cls-4" d="M588.55,156.78a2.27,2.27,0,0,1-.92,1.94,4.44,4.44,0,0,1-2.64.68,6.23,6.23,0,0,1-2.78-.53v-1.58a6.8,6.8,0,0,0,2.84.7c1.13,0,1.69-.34,1.69-1a.85.85,0,0,0-.18-.55,2.21,2.21,0,0,0-.62-.45,9.21,9.21,0,0,0-1.2-.53,5.65,5.65,0,0,1-2-1.16,2.16,2.16,0,0,1-.52-1.5,2,2,0,0,1,.89-1.72,4.24,4.24,0,0,1,2.43-.62,7,7,0,0,1,2.89.62l-.6,1.38a6.45,6.45,0,0,0-2.35-.57c-1,0-1.45.27-1.45.82a.81.81,0,0,0,.38.69,8.05,8.05,0,0,0,1.65.78,7.22,7.22,0,0,1,1.55.75,2.17,2.17,0,0,1,.72.8A2.23,2.23,0,0,1,588.55,156.78Z"/><path class="cls-4" d="M593.78,148.31a1,1,0,0,1,.27-.76,1.09,1.09,0,0,1,.77-.26,1.05,1.05,0,0,1,.75.26,1,1,0,0,1,.27.76.93.93,0,0,1-1,1,1,1,0,0,1-.77-.27A1,1,0,0,1,593.78,148.31Zm1.94,10.93h-1.83V150.6h1.83Z"/><path class="cls-4" d="M605.42,159.24h-1.84v-5.31a2.29,2.29,0,0,0-.4-1.49,1.57,1.57,0,0,0-1.28-.5,2,2,0,0,0-1.7.69,3.81,3.81,0,0,0-.54,2.31v4.3h-1.84V150.6h1.44l.26,1.13h.09a2.53,2.53,0,0,1,1.11-.95,3.78,3.78,0,0,1,1.59-.34c2.08,0,3.11,1.06,3.11,3.17Z"/><path class="cls-5" d="M618.62,159.24h-1.85v-5.33a2.43,2.43,0,0,0-.37-1.48,1.41,1.41,0,0,0-1.18-.49,1.79,1.79,0,0,0-1.55.7,4,4,0,0,0-.5,2.3v4.3h-1.84V150.6h1.44l.26,1.13h.09a2.37,2.37,0,0,1,1-.95,3.37,3.37,0,0,1,1.5-.34,2.63,2.63,0,0,1,2.64,1.36h.13a2.65,2.65,0,0,1,1.07-1,3.46,3.46,0,0,1,1.6-.36,2.86,2.86,0,0,1,2.25.79,3.45,3.45,0,0,1,.71,2.38v5.63h-1.84v-5.33a2.36,2.36,0,0,0-.38-1.48,1.4,1.4,0,0,0-1.17-.49,1.84,1.84,0,0,0-1.57.67,3.46,3.46,0,0,0-.49,2Z"/><path class="cls-5" d="M626,148.31a1,1,0,0,1,.27-.76,1.09,1.09,0,0,1,.77-.26,1,1,0,0,1,.75.26,1,1,0,0,1,.27.76.93.93,0,0,1-1,1,1,1,0,0,1-.77-.27A1,1,0,0,1,626,148.31Zm2,10.93h-1.84V150.6H628Z"/><path class="cls-5" d="M631.89,159.24h-1.84V147.09h1.84Z"/><path class="cls-5" d="M635.82,159.24H634V147.09h1.84Z"/><path class="cls-5" d="M637.82,148.31a1,1,0,0,1,.27-.76,1.07,1.07,0,0,1,.77-.26,1.05,1.05,0,0,1,.75.26,1,1,0,0,1,.27.76.93.93,0,0,1-1,1,1,1,0,0,1-.77-.27A1,1,0,0,1,637.82,148.31Zm1.94,10.93h-1.83V150.6h1.83Z"/><path class="cls-5" d="M647.78,156.78a2.27,2.27,0,0,1-.92,1.94,4.44,4.44,0,0,1-2.64.68,6.26,6.26,0,0,1-2.78-.53v-1.58a6.83,6.83,0,0,0,2.84.7c1.13,0,1.7-.34,1.7-1a.85.85,0,0,0-.19-.55,2.07,2.07,0,0,0-.62-.45,9,9,0,0,0-1.19-.53,5.47,5.47,0,0,1-2-1.16,2.12,2.12,0,0,1-.53-1.5,2,2,0,0,1,.89-1.72,4.26,4.26,0,0,1,2.44-.62,6.94,6.94,0,0,1,2.88.62l-.59,1.38a6.54,6.54,0,0,0-2.36-.57c-1,0-1.45.27-1.45.82a.84.84,0,0,0,.38.69,8.05,8.05,0,0,0,1.65.78,7.35,7.35,0,0,1,1.56.75,2.11,2.11,0,0,1,.95,1.87Z"/><path class="cls-5" d="M653.12,159.4a4.17,4.17,0,0,1-3.16-1.18,4.48,4.48,0,0,1-1.13-3.24,4.88,4.88,0,0,1,1-3.32,3.65,3.65,0,0,1,2.9-1.22,3.56,3.56,0,0,1,2.7,1,4,4,0,0,1,1,2.86v1h-5.76a2.85,2.85,0,0,0,.68,1.93,2.37,2.37,0,0,0,1.8.67,6.48,6.48,0,0,0,1.43-.14,8.2,8.2,0,0,0,1.42-.48v1.49a5.43,5.43,0,0,1-1.36.45A8.18,8.18,0,0,1,653.12,159.4Zm-.34-7.56a1.84,1.84,0,0,0-1.4.55,2.67,2.67,0,0,0-.63,1.62h3.92a2.38,2.38,0,0,0-.51-1.62A1.78,1.78,0,0,0,652.78,151.84Z"/><path class="cls-5" d="M661.67,159.4a3.76,3.76,0,0,1-3-1.15,5.8,5.8,0,0,1,0-6.63,4,4,0,0,1,3.09-1.18,5.76,5.76,0,0,1,2.46.51l-.56,1.48a5.53,5.53,0,0,0-1.92-.45c-1.49,0-2.24,1-2.24,3a3.54,3.54,0,0,0,.56,2.19,2,2,0,0,0,1.63.73,4.76,4.76,0,0,0,2.32-.61v1.6a3.43,3.43,0,0,1-1.05.41A6.43,6.43,0,0,1,661.67,159.4Z"/><path class="cls-5" d="M673.19,154.91a4.72,4.72,0,0,1-1.08,3.3,3.91,3.91,0,0,1-3,1.19,4.11,4.11,0,0,1-2.14-.55,3.64,3.64,0,0,1-1.43-1.57,5.37,5.37,0,0,1-.5-2.37,4.69,4.69,0,0,1,1.08-3.29,3.93,3.93,0,0,1,3-1.18,3.83,3.83,0,0,1,3,1.21A4.67,4.67,0,0,1,673.19,154.91Zm-6.29,0c0,2,.74,3,2.22,3s2.18-1,2.18-3-.73-3-2.2-3a1.9,1.9,0,0,0-1.68.77A4,4,0,0,0,666.9,154.91Z"/><path class="cls-5" d="M682.44,159.24h-1.85v-5.31a2.29,2.29,0,0,0-.4-1.49,1.55,1.55,0,0,0-1.28-.5,2,2,0,0,0-1.7.69,3.81,3.81,0,0,0-.54,2.31v4.3h-1.83V150.6h1.43l.26,1.13h.1a2.45,2.45,0,0,1,1.1-.95,3.79,3.79,0,0,1,1.6-.34q3.1,0,3.11,3.17Z"/><path class="cls-5" d="M687.48,159.4a3,3,0,0,1-2.52-1.17,6.41,6.41,0,0,1,0-6.6,3,3,0,0,1,2.54-1.19,3,3,0,0,1,2.59,1.26h.1a11,11,0,0,1-.14-1.47v-3.14h1.85v12.15h-1.44l-.32-1.13h-.09A2.92,2.92,0,0,1,687.48,159.4Zm.49-1.49a2,2,0,0,0,1.65-.63,3.41,3.41,0,0,0,.53-2.07V155a3.9,3.9,0,0,0-.53-2.32,2,2,0,0,0-1.66-.69,1.71,1.71,0,0,0-1.5.79,4,4,0,0,0-.52,2.24,3.9,3.9,0,0,0,.51,2.19A1.71,1.71,0,0,0,688,157.91Z"/><path class="cls-5" d="M700,156.78a2.25,2.25,0,0,1-.92,1.94,4.4,4.4,0,0,1-2.64.68,6.21,6.21,0,0,1-2.77-.53v-1.58a6.76,6.76,0,0,0,2.83.7c1.13,0,1.7-.34,1.7-1a.8.8,0,0,0-.19-.55,1.94,1.94,0,0,0-.62-.45,8.42,8.42,0,0,0-1.19-.53,5.47,5.47,0,0,1-2-1.16,2.16,2.16,0,0,1-.53-1.5,2,2,0,0,1,.9-1.72,4.2,4.2,0,0,1,2.43-.62,6.87,6.87,0,0,1,2.88.62l-.59,1.38a6.49,6.49,0,0,0-2.35-.57c-1,0-1.46.27-1.46.82a.84.84,0,0,0,.38.69,8.52,8.52,0,0,0,1.66.78,7.22,7.22,0,0,1,1.55.75,2.36,2.36,0,0,1,.72.8A2.23,2.23,0,0,1,700,156.78Z"/><path class="cls-4" d="M412.06,93.77l25,14.39a2.09,2.09,0,0,0,2.08,0l.23-.19L464,93.39a2.09,2.09,0,0,0,1-1.73l-.25-27.79a1.89,1.89,0,0,0-.32-.67,1.91,1.91,0,0,0-.89-1.27L439.23,47.14a2.11,2.11,0,0,0-2.09,0l-25,14.23a1.91,1.91,0,0,0-.43.37,1.94,1.94,0,0,0-.65,1.44L410.94,92A2.09,2.09,0,0,0,412.06,93.77Zm48.77-3.17L440,102.89V78.64l20.56-11.27ZM438.17,51.22l20.31,12.5L438,75.22l-9.79-5.77-11-6.25ZM415.25,66.66l11.06,6.25,9.75,5.67V103L415,90.87Z"/><rect class="cls-6" x="216.3" y="50.46" width="73.94" height="50.95" rx="1.13" ry="1.13"/><path class="cls-4" d="M209.23,99c.44,3.35,2.76,5.93,5.55,5.93h76.59c2.79,0,5.11-2.58,5.55-5.93Z"/><line class="cls-7" x1="164.79" y1="43.33" x2="164.79" y2="109.33"/><line class="cls-7" x1="351.96" y1="43.33" x2="351.96" y2="109.33"/><line class="cls-7" x1="513.28" y1="43.33" x2="513.28" y2="109.33"/><line class="cls-7" x1="351.29" y1="43.33" x2="351.29" y2="109.33"/></svg>